<svg width="48" height="48" viewBox="0 0 48 48" fill="none" xmlns="http://www.w3.org/2000/svg">
<path d="M0 12C0 5.37258 5.37258 0 12 0H36C42.6274 0 48 5.37258 48 12V36C48 42.6274 42.6274 48 36 48H12C5.37258 48 0 42.6274 0 36V12Z" fill="#FCFCFD"/>
<g filter="url(#filter0_dd_5482_20226)">
<path fill-rule="evenodd" clip-rule="evenodd" d="M27.5604 33.9048L25.4622 32.7395C26.186 31.4363 27.7125 30.804 29.1458 31.2137L28.4862 33.5213C28.126 33.4183 27.7423 33.5772 27.5604 33.9048ZM20.4396 33.9048C21.9912 36.6984 26.0088 36.6984 27.5604 33.9048L25.4622 32.7395C24.825 33.8868 23.175 33.8868 22.5378 32.7395L20.4396 33.9048ZM33.5213 28.4862C34.3996 31.5587 31.5587 34.3995 28.4862 33.5213L29.1458 31.2137C30.4077 31.5744 31.5744 30.4077 31.2137 29.1458L33.5213 28.4862ZM33.9048 27.5604C33.5772 27.7423 33.4183 28.126 33.5213 28.4862L31.2137 29.1458C30.804 27.7125 31.4363 26.186 32.7395 25.4622L33.9048 27.5604ZM14.0952 27.5604C11.3016 26.0088 11.3016 21.9912 14.0952 20.4396C14.4228 20.2577 14.5817 19.874 14.4787 19.5138C13.6005 16.4413 16.4413 13.6004 19.5138 14.4787C19.874 14.5817 20.2577 14.4228 20.4396 14.0952C21.9912 11.3016 26.0088 11.3016 27.5604 14.0952C27.7423 14.4228 28.126 14.5817 28.4862 14.4787C31.5587 13.6004 34.3996 16.4413 33.5213 19.5138C33.4183 19.874 33.5772 20.2577 33.9048 20.4396C36.6984 21.9912 36.6984 26.0088 33.9048 27.5604L32.7395 25.4622C33.8868 24.825 33.8868 23.175 32.7395 22.5378C31.4363 21.814 30.804 20.2874 31.2137 18.8542C31.5744 17.5923 30.4077 16.4256 29.1458 16.7863C27.7125 17.196 26.186 16.5637 25.4622 15.2605C24.825 14.1132 23.175 14.1132 22.5378 15.2605C21.814 16.5637 20.2875 17.196 18.8542 16.7863C17.5923 16.4256 16.4256 17.5923 16.7863 18.8542C17.196 20.2875 16.5637 21.814 15.2605 22.5378C14.1132 23.175 14.1132 24.825 15.2605 25.4622L14.0952 27.5604ZM14.0952 27.5604C14.4228 27.7423 14.5817 28.126 14.4787 28.4862C13.6004 31.5587 16.4413 34.3995 19.5138 33.5213C19.874 33.4183 20.2577 33.5772 20.4396 33.9048L22.5378 32.7395C21.814 31.4363 20.2875 30.804 18.8542 31.2137C17.5923 31.5744 16.4256 30.4077 16.7863 29.1458C17.196 27.7125 16.5637 26.186 15.2605 25.4622L14.0952 27.5604Z" fill="url(#paint0_radial_5482_20226)"/>
</g>
<defs>
<filter id="filter0_dd_5482_20226" x="8" y="8" width="32" height="32" filterUnits="userSpaceOnUse" color-interpolation-filters="sRGB">
<feFlood flood-opacity="0" result="BackgroundImageFix"/>
<feColorMatrix in="SourceAlpha" type="matrix" values="0 0 0 0 0 0 0 0 0 0 0 0 0 0 0 0 0 0 127 0" result="hardAlpha"/>
<feOffset/>
<feGaussianBlur stdDeviation="0.5"/>
<feComposite in2="hardAlpha" operator="out"/>
<feColorMatrix type="matrix" values="0 0 0 0 0.129412 0 0 0 0 0.0431373 0 0 0 0 0.372549 0 0 0 1 0"/>
<feBlend mode="normal" in2="BackgroundImageFix" result="effect1_dropShadow_5482_20226"/>
<feColorMatrix in="SourceAlpha" type="matrix" values="0 0 0 0 0 0 0 0 0 0 0 0 0 0 0 0 0 0 127 0" result="hardAlpha"/>
<feOffset/>
<feGaussianBlur stdDeviation="2"/>
<feComposite in2="hardAlpha" operator="out"/>
<feColorMatrix type="matrix" values="0 0 0 0 0.678431 0 0 0 0 0.623529 0 0 0 0 0.964706 0 0 0 1 0"/>
<feBlend mode="normal" in2="effect1_dropShadow_5482_20226" result="effect2_dropShadow_5482_20226"/>
<feBlend mode="normal" in="SourceGraphic" in2="effect2_dropShadow_5482_20226" result="shape"/>
</filter>
<radialGradient id="paint0_radial_5482_20226" cx="0" cy="0" r="1" gradientUnits="userSpaceOnUse" gradientTransform="translate(24 12) rotate(90) scale(24)">
<stop offset="0.05" stop-color="#D9D2FB"/>
<stop offset="0.6" stop-color="#AD9FF6"/>
<stop offset="1" stop-color="#5925E6"/>
</radialGradient>
</defs>
</svg>
