<svg width="48" height="48" viewBox="0 0 48 48" fill="none" xmlns="http://www.w3.org/2000/svg">
<path d="M0 12C0 5.37258 5.37258 0 12 0H36C42.6274 0 48 5.37258 48 12V36C48 42.6274 42.6274 48 36 48H12C5.37258 48 0 42.6274 0 36V12Z" fill="#FCFCFD"/>
<path d="M29.8899 14.4493H14.7933L16.595 11.3048C16.702 11.1149 16.9059 11 17.1188 11H30.7734C30.9782 11 31.1657 11.1108 31.2677 11.2884L33.3517 14.9183C33.4209 15.0415 33.4209 15.1944 33.3517 15.3175L30.8998 19.5899L33.1397 23.5L31.178 26.9247L27.1037 19.8208C27.014 19.6648 27.014 19.4709 27.1037 19.3149L29.8909 14.4503L29.8899 14.4493ZM14.6496 32.3034L16.6032 35.7116C16.7051 35.8881 16.8977 36 17.1015 36H30.752C30.9691 36 31.1688 35.8851 31.2789 35.6952L33.0816 32.5507H18.2378L20.8945 27.9202C20.9842 27.7642 20.9842 27.5702 20.8945 27.4142L16.6888 20.0846L14.7312 23.501L17.1015 27.6328L14.6496 31.9093C14.5803 32.0324 14.5803 32.1853 14.6496 32.3044V32.3034Z" fill="#7E54F1"/>
<path d="M20.0293 31.4167H33.1275C33.4179 31.4167 33.6829 31.2606 33.8307 31.0048L37.8275 24.0272C38.0568 23.6277 38.0568 23.1337 37.8275 22.7342L33.9693 16L31.9912 19.4518L34.2393 23.3812L32.833 25.8399L31.6886 27.8334L31.6152 27.9607H22.0073L20.0293 31.4167Z" fill="#7E54F1"/>
<path d="M10.1695 24.1628L14.0779 30.9999L16.0281 27.589L13.7031 23.5235L16.2129 19.1363L16.2933 18.9982H26.02L27.9701 15.5833H14.8033C14.517 15.5833 14.2517 15.7375 14.1101 15.9902L10.1695 22.8851C9.94348 23.2799 9.94348 23.7681 10.1695 24.1628Z" fill="#7E54F1"/>
</svg>
