<svg width="25" height="24" viewBox="0 0 25 24" fill="none" xmlns="http://www.w3.org/2000/svg">
<path d="M0.5 8C0.5 3.58172 4.08172 0 8.5 0H16.5C20.9183 0 24.5 3.58172 24.5 8V16C24.5 20.4183 20.9183 24 16.5 24H8.5C4.08172 24 0.5 20.4183 0.5 16V8Z" fill="#F3F5F6"/>
<path fill-rule="evenodd" clip-rule="evenodd" d="M3.7 7.20078C3.7 5.8753 4.77451 4.80078 6.1 4.80078H18.9C20.2255 4.80078 21.3 5.8753 21.3 7.20078V16.8008C21.3 18.1263 20.2255 19.2008 18.9 19.2008H6.1C4.77451 19.2008 3.7 18.1263 3.7 16.8008V7.20078ZM6.1 6.40078C5.65817 6.40078 5.3 6.75895 5.3 7.20078V16.8008C5.3 17.2426 5.65817 17.6008 6.1 17.6008H18.9C19.3418 17.6008 19.7 17.2426 19.7 16.8008V7.20078C19.7 6.75895 19.3418 6.40078 18.9 6.40078H6.1Z" fill="#A2AEB3"/>
<path fill-rule="evenodd" clip-rule="evenodd" d="M4.66852 5.90849C4.93977 5.55974 5.44239 5.49691 5.79115 5.76816L12.0088 10.6041C12.2977 10.8288 12.7023 10.8288 12.9912 10.6041L19.2088 5.76816C19.5576 5.49691 20.0602 5.55974 20.3315 5.90849C20.6027 6.25725 20.5399 6.75987 20.1912 7.03113L13.9735 11.8671C13.1068 12.5412 11.8932 12.5412 11.0265 11.8671L4.80885 7.03113C4.46009 6.75987 4.39726 6.25725 4.66852 5.90849Z" fill="#A2AEB3"/>
</svg>
