<svg width="24" height="24" viewBox="0 0 24 24" fill="none" xmlns="http://www.w3.org/2000/svg">
<path d="M0 8C0 3.58172 3.58172 0 8 0H16C20.4183 0 24 3.58172 24 8V16C24 20.4183 20.4183 24 16 24H8C3.58172 24 0 20.4183 0 16V8Z" fill="#3E65CF"/>
<path fill-rule="evenodd" clip-rule="evenodd" d="M3.19995 7.20078C3.19995 5.8753 4.27447 4.80078 5.59995 4.80078H18.3999C19.7254 4.80078 20.7999 5.8753 20.7999 7.20078V16.8008C20.7999 18.1263 19.7254 19.2008 18.3999 19.2008H5.59995C4.27447 19.2008 3.19995 18.1263 3.19995 16.8008V7.20078ZM5.59995 6.40078C5.15812 6.40078 4.79995 6.75895 4.79995 7.20078V16.8008C4.79995 17.2426 5.15812 17.6008 5.59995 17.6008H18.3999C18.8418 17.6008 19.1999 17.2426 19.1999 16.8008V7.20078C19.1999 6.75895 18.8418 6.40078 18.3999 6.40078H5.59995Z" fill="#FCFCFD"/>
<path fill-rule="evenodd" clip-rule="evenodd" d="M4.16856 5.90849C4.43981 5.55974 4.94243 5.49691 5.29119 5.76816L11.5089 10.6041C11.7978 10.8288 12.2023 10.8288 12.4912 10.6041L18.7089 5.76816C19.0576 5.49691 19.5603 5.55974 19.8315 5.90849C20.1028 6.25725 20.0399 6.75987 19.6912 7.03113L13.4735 11.8671C12.6068 12.5412 11.3932 12.5412 10.5266 11.8671L4.30888 7.03113C3.96013 6.75987 3.8973 6.25725 4.16856 5.90849Z" fill="#FCFCFD"/>
</svg>
