<svg width="48" height="48" viewBox="0 0 48 48" fill="none" xmlns="http://www.w3.org/2000/svg">
<path d="M0 12C0 5.37258 5.37258 0 12 0H36C42.6274 0 48 5.37258 48 12V36C48 42.6274 42.6274 48 36 48H12C5.37258 48 0 42.6274 0 36V12Z" fill="#F5FBFE"/>
<path d="M23.8908 18.5697L23.8943 18.5662C23.8968 18.5638 26.8992 15.5434 29.9132 18.5389C27.0695 15.7126 21.6097 14.8271 17.8472 18.5662L16.9023 19.5015C18.5658 21.1659 21.2734 21.1704 22.9428 19.5115L23.1454 19.3102C23.551 18.8832 23.872 18.5866 23.8905 18.5697H23.8908Z" fill="url(#paint0_linear_5441_22195)"/>
<path d="M29.9142 18.5387C26.9003 15.5432 23.8975 18.5636 23.8954 18.566L23.8915 18.5695C23.8915 18.5695 23.3112 19.1076 23.1465 19.31C23.7725 18.9013 24.4305 19.0982 24.669 19.3349C25.1484 19.8114 29.9376 24.5713 29.9376 24.5713C31.6073 26.2308 34.3146 26.2308 35.9843 24.5713C35.9843 24.5713 30.8654 19.4837 29.9146 18.5387H29.9142Z" fill="url(#paint1_linear_5441_22195)"/>
<path d="M24.0927 29.4021L24.0892 29.4055C24.0868 29.4079 21.0843 32.4284 18.0703 29.4329C20.914 32.2592 26.3738 33.1446 30.1363 29.4055L31.0812 28.4702C29.4177 26.8058 26.7101 26.8014 25.0407 28.4602L24.8381 28.6616C24.4325 29.0886 24.1115 29.3851 24.093 29.4021H24.0927Z" fill="url(#paint2_linear_5441_22195)"/>
<path d="M18.0701 29.433C21.084 32.4285 24.0868 29.4081 24.0889 29.4056L24.0928 29.4022C24.0928 29.4022 24.6731 28.8641 24.8378 28.6617C24.2118 29.0703 23.5538 28.8734 23.3153 28.6368C22.8359 28.1603 18.0467 23.4004 18.0467 23.4004C16.377 21.7409 13.6697 21.7409 12 23.4004C12 23.4004 17.1189 28.488 18.0697 29.433H18.0701Z" fill="url(#paint3_linear_5441_22195)"/>
<defs>
<linearGradient id="paint0_linear_5441_22195" x1="20.3748" y1="16.0264" x2="26.4051" y2="22.051" gradientUnits="userSpaceOnUse">
<stop stop-color="#75EEAF"/>
<stop offset="1" stop-color="#79CEF8"/>
</linearGradient>
<linearGradient id="paint1_linear_5441_22195" x1="25.0272" y1="17.4411" x2="34.2348" y2="26.6396" gradientUnits="userSpaceOnUse">
<stop offset="0.03" stop-color="#0B9AE1"/>
<stop offset="1" stop-color="#075D87"/>
</linearGradient>
<linearGradient id="paint2_linear_5441_22195" x1="27.609" y1="31.9453" x2="21.5787" y2="25.9207" gradientUnits="userSpaceOnUse">
<stop stop-color="#75EEAF"/>
<stop offset="1" stop-color="#79CEF8"/>
</linearGradient>
<linearGradient id="paint3_linear_5441_22195" x1="22.9571" y1="30.5305" x2="13.7495" y2="21.3321" gradientUnits="userSpaceOnUse">
<stop offset="0.03" stop-color="#0B9AE1"/>
<stop offset="1" stop-color="#075D87"/>
</linearGradient>
</defs>
</svg>
