<svg width="40" height="40" viewBox="0 0 40 40" fill="none" xmlns="http://www.w3.org/2000/svg">
<path d="M0 12C0 5.37258 5.37258 0 12 0H28C34.6274 0 40 5.37258 40 12V28C40 34.6274 34.6274 40 28 40H12C5.37258 40 0 34.6274 0 28V12Z" fill="#7E54F1"/>
<path d="M24.9825 12.7594H12.8513L14.2991 10.2438C14.3851 10.092 14.5489 10 14.72 10H25.6925C25.8571 10 26.0077 10.0887 26.0896 10.2307L27.7643 13.1346C27.82 13.2332 27.82 13.3555 27.7643 13.454L25.794 16.8719L27.5939 20L26.0176 22.7397L22.7436 17.0567C22.6715 16.9319 22.6715 16.7767 22.7436 16.6519L24.9833 12.7603L24.9825 12.7594ZM12.7359 27.0427L14.3057 29.7693C14.3876 29.9105 14.5423 30 14.7061 30H25.6753C25.8497 30 26.0102 29.908 26.0986 29.7562L27.5473 27.2406H15.6192L17.7541 23.5361C17.8261 23.4113 17.8261 23.2562 17.7541 23.1314L14.3745 17.2677L12.8014 20.0008L14.7061 23.3062L12.7359 26.7274C12.6802 26.8259 12.6802 26.9483 12.7359 27.0435V27.0427Z" fill="#F8F7FE"/>
<path d="M17.0596 26.3333H27.5849C27.8183 26.3333 28.0312 26.2085 28.15 26.0039L31.3617 20.4218C31.5459 20.1022 31.5459 19.707 31.3617 19.3874L28.2613 14L26.6718 16.7615L28.4783 19.905L27.3482 21.8719L26.4286 23.4667L26.3697 23.5686H18.6491L17.0596 26.3333Z" fill="#F8F7FE"/>
<path d="M9.13624 20.5304L12.2769 26.0001L13.844 23.2713L11.9757 20.0189L13.9925 16.5092L14.0571 16.3987H21.8732L23.4403 13.6667H12.8598C12.6297 13.6667 12.4166 13.7902 12.3027 13.9923L9.13624 19.5083C8.95459 19.8241 8.95459 20.2146 9.13624 20.5304Z" fill="#F8F7FE"/>
</svg>
