<svg width="24" height="24" viewBox="0 0 24 24" fill="none" xmlns="http://www.w3.org/2000/svg">
<path d="M0 8C0 3.58172 3.58172 0 8 0H16C20.4183 0 24 3.58172 24 8V16C24 20.4183 20.4183 24 16 24H8C3.58172 24 0 20.4183 0 16V8Z" fill="#7289DA"/>
<path d="M17.5535 6.79181C16.5178 6.30979 15.4104 5.95948 14.2526 5.76001C14.1104 6.01572 13.9443 6.35966 13.8298 6.63327C12.599 6.44915 11.3796 6.44915 10.1714 6.63327C10.0569 6.35966 9.88704 6.01572 9.74357 5.76001C8.58454 5.95948 7.47584 6.31108 6.44013 6.79436C4.3511 9.93445 3.78479 12.9966 4.06794 16.0152C5.4535 17.0444 6.79627 17.6696 8.11638 18.0787C8.44233 17.6325 8.73302 17.1582 8.98345 16.6583C8.5065 16.478 8.04969 16.2555 7.61805 15.9973C7.73256 15.9129 7.84457 15.8247 7.95279 15.7339C10.5855 16.9587 13.4459 16.9587 16.0472 15.7339C16.1566 15.8247 16.2686 15.9129 16.3819 15.9973C15.949 16.2568 15.4909 16.4793 15.014 16.6596C15.2644 17.1582 15.5538 17.6338 15.881 18.08C17.2024 17.6709 18.5464 17.0457 19.932 16.0152C20.2642 12.5158 19.3644 9.48185 17.5535 6.79181ZM9.34212 14.1587C8.55181 14.1587 7.9037 13.4249 7.9037 12.5312C7.9037 11.6375 8.53797 10.9023 9.34212 10.9023C10.1463 10.9023 10.7944 11.6362 10.7805 12.5312C10.7818 13.4249 10.1463 14.1587 9.34212 14.1587ZM14.6578 14.1587C13.8675 14.1587 13.2194 13.4249 13.2194 12.5312C13.2194 11.6375 13.8537 10.9023 14.6578 10.9023C15.462 10.9023 16.1101 11.6362 16.0962 12.5312C16.0962 13.4249 15.462 14.1587 14.6578 14.1587Z" fill="#FCFCFD"/>
</svg>
