<svg width="24" height="24" viewBox="0 0 24 24" fill="none" xmlns="http://www.w3.org/2000/svg">
<path d="M0 8C0 3.58172 3.58172 0 8 0H16C20.4183 0 24 3.58172 24 8V16C24 20.4183 20.4183 24 16 24H8C3.58172 24 0 20.4183 0 16V8Z" fill="#1DA1F2"/>
<path d="M16.141 4.79999H18.349L13.5252 10.9L19.2 19.2H14.7564L11.2762 14.1664L7.29352 19.2H5.08425L10.2437 12.6759L4.79999 4.79999H9.35608L12.5019 9.40139L16.141 4.79999ZM15.3659 17.7379H16.5897L8.69158 6.18568H7.37849L15.3659 17.7379Z" fill="#FCFCFD"/>
</svg>
