<svg width="24" height="24" viewBox="0 0 24 24" fill="none" xmlns="http://www.w3.org/2000/svg">
<path d="M0 8C0 3.58172 3.58172 0 8 0H16C20.4183 0 24 3.58172 24 8V16C24 20.4183 20.4183 24 16 24H8C3.58172 24 0 20.4183 0 16V8Z" fill="#F3F5F6"/>
<path d="M16.141 4.80078H18.3491L13.5252 10.9008L19.2 19.2008H14.7564L11.2762 14.1672L7.29353 19.2008H5.08426L10.2437 12.6767L4.8 4.80078H9.35609L12.5019 9.40218L16.141 4.80078ZM15.3659 17.7387H16.5897L8.6916 6.18648H7.3785L15.3659 17.7387Z" fill="#A2AEB3"/>
</svg>
