<svg width="40" height="40" viewBox="0 0 40 40" fill="none" xmlns="http://www.w3.org/2000/svg">
<path d="M0 12C0 5.37258 5.37258 0 12 0H28C34.6274 0 40 5.37258 40 12V28C40 34.6274 34.6274 40 28 40H12C5.37258 40 0 34.6274 0 28V12Z" fill="#66767D"/>
<g clip-path="url(#clip0_6221_36219)">
<path d="M21.3839 20.3899C21.3839 23.4775 19.3952 25.9805 16.9419 25.9805C14.4886 25.9805 12.5 23.4782 12.5 20.3899C12.5 17.3016 14.4887 14.7994 16.9419 14.7994C19.3951 14.7994 21.3839 17.3023 21.3839 20.3899ZM26.2569 20.3899C26.2569 23.2964 25.2625 25.6525 24.0359 25.6525C22.8093 25.6525 21.8149 23.2957 21.8149 20.3899C21.8149 17.4841 22.8093 15.1273 24.0359 15.1273C25.2625 15.1273 26.2569 17.4841 26.2569 20.3899ZM28.25 20.3899C28.25 22.994 27.9002 25.1049 27.4688 25.1049C27.0375 25.1049 26.6877 22.9933 26.6877 20.3899C26.6877 17.7865 27.0375 15.6748 27.469 15.6748C27.9005 15.6748 28.25 17.7859 28.25 20.3899Z" fill="#FCFCFD"/>
</g>
<defs>
<clipPath id="clip0_6221_36219">
<rect width="15.75" height="15.75" fill="white" transform="translate(12.5 12.5)"/>
</clipPath>
</defs>
</svg>
