<svg width="40" height="40" viewBox="0 0 40 40" fill="none" xmlns="http://www.w3.org/2000/svg">
<path d="M0 12C0 5.37258 5.37258 0 12 0H28C34.6274 0 40 5.37258 40 12V28C40 34.6274 34.6274 40 28 40H12C5.37258 40 0 34.6274 0 28V12Z" fill="#5865F2"/>
<path d="M25.773 14.3806C24.6441 13.8524 23.4371 13.4686 22.1751 13.25C22.0201 13.5302 21.8391 13.9071 21.7142 14.2069C20.3727 14.0052 19.0436 14.0052 17.7267 14.2069C17.6019 13.9071 17.4167 13.5302 17.2604 13.25C15.997 13.4686 14.7886 13.8538 13.6597 14.3834C11.3827 17.8243 10.7654 21.1797 11.074 24.4874C12.5843 25.6152 14.0479 26.3003 15.4868 26.7486C15.842 26.2597 16.1589 25.7399 16.4318 25.1921C15.912 24.9946 15.4141 24.7508 14.9436 24.4678C15.0684 24.3753 15.1905 24.2786 15.3084 24.1792C18.178 25.5213 21.2959 25.5213 24.1311 24.1792C24.2505 24.2786 24.3725 24.3753 24.496 24.4678C24.0241 24.7522 23.5249 24.996 23.005 25.1935C23.2779 25.7399 23.5934 26.2611 23.9501 26.75C25.3904 26.3017 26.8553 25.6166 28.3655 24.4874C28.7277 20.6529 27.7469 17.3283 25.773 14.3806ZM16.8228 22.4532C15.9614 22.4532 15.2549 21.649 15.2549 20.6697C15.2549 19.6904 15.9463 18.8848 16.8228 18.8848C17.6993 18.8848 18.4057 19.689 18.3906 20.6697C18.392 21.649 17.6993 22.4532 16.8228 22.4532ZM22.6168 22.4532C21.7554 22.4532 21.049 21.649 21.049 20.6697C21.049 19.6904 21.7403 18.8848 22.6168 18.8848C23.4933 18.8848 24.1997 19.689 24.1846 20.6697C24.1846 21.649 23.4933 22.4532 22.6168 22.4532Z" fill="#FCFCFD"/>
</svg>
