<svg width="24" height="24" viewBox="0 0 24 24" fill="none" xmlns="http://www.w3.org/2000/svg">
<path d="M0 8C0 3.58172 3.58172 0 8 0H16C20.4183 0 24 3.58172 24 8V16C24 20.4183 20.4183 24 16 24H8C3.58172 24 0 20.4183 0 16V8Z" fill="#F3F5F6"/>
<path d="M17.5535 6.79156C16.5178 6.30955 15.4104 5.95924 14.2526 5.75977C14.1104 6.01548 13.9443 6.35942 13.8298 6.63302C12.599 6.44891 11.3796 6.44891 10.1714 6.63302C10.0569 6.35942 9.88704 6.01548 9.74357 5.75977C8.58454 5.95924 7.47584 6.31083 6.44013 6.79412C4.3511 9.93421 3.78479 12.9963 4.06794 16.0149C5.4535 17.0442 6.79627 17.6694 8.11638 18.0785C8.44233 17.6323 8.73302 17.1579 8.98345 16.658C8.5065 16.4778 8.04969 16.2553 7.61805 15.997C7.73256 15.9127 7.84457 15.8244 7.95279 15.7336C10.5855 16.9585 13.4459 16.9585 16.0472 15.7336C16.1566 15.8244 16.2686 15.9127 16.3819 15.997C15.949 16.2566 15.4909 16.479 15.014 16.6593C15.2644 17.1579 15.5538 17.6336 15.881 18.0798C17.2024 17.6706 18.5464 17.0454 19.932 16.0149C20.2642 12.5156 19.3644 9.4816 17.5535 6.79156ZM9.34212 14.1585C8.55181 14.1585 7.9037 13.4246 7.9037 12.5309C7.9037 11.6372 8.53797 10.9021 9.34212 10.9021C10.1463 10.9021 10.7944 11.6359 10.7805 12.5309C10.7818 13.4246 10.1463 14.1585 9.34212 14.1585ZM14.6578 14.1585C13.8675 14.1585 13.2194 13.4246 13.2194 12.5309C13.2194 11.6372 13.8537 10.9021 14.6578 10.9021C15.462 10.9021 16.1101 11.6359 16.0962 12.5309C16.0962 13.4246 15.462 14.1585 14.6578 14.1585Z" fill="#A2AEB3"/>
</svg>
