<svg width="24" height="24" viewBox="0 0 24 24" fill="none" xmlns="http://www.w3.org/2000/svg">
<path d="M20.275 6.55692C20.6492 6.77297 20.8798 7.17224 20.8798 7.6044V16.3956C20.8798 16.8277 20.6492 17.227 20.2752 17.4431L12.6661 21.8379C12.292 22.054 11.831 22.054 11.4568 21.8379L3.84778 17.4431C3.47372 17.227 3.24316 16.8277 3.24316 16.3956V7.60438C3.24316 7.17227 3.47372 6.77301 3.84777 6.55694L11.4548 2.16209C11.829 1.94597 12.29 1.94597 12.6641 2.16208L20.275 6.55692ZM20.1432 6.78546L12.5322 2.39061C12.2397 2.22164 11.8792 2.22164 11.5867 2.39061L3.97968 6.78546C3.68721 6.9544 3.50694 7.26657 3.50694 7.6044V16.3956C3.50694 16.7334 3.68721 17.0456 3.97967 17.2145L11.5887 21.6094C11.8812 21.7784 12.2417 21.7784 12.5343 21.6094L20.1433 17.2145C20.4357 17.0456 20.616 16.7334 20.616 16.3956V7.60444C20.616 7.26656 20.4357 6.95439 20.1432 6.78546Z" fill="url(#paint0_linear_9_289)"/>
<path d="M19.4184 7.13545L12.5935 3.19393C12.2639 3.00355 11.8578 3.00355 11.5282 3.19393L4.7038 7.13545C4.37488 7.32556 4.17204 7.67651 4.17143 8.05653V15.942C4.17143 16.3226 4.37438 16.6743 4.7038 16.8647L11.5287 20.8062C11.8583 20.9966 12.2644 20.9966 12.594 20.8062L19.419 16.8643C19.7484 16.6739 19.9514 16.3222 19.9514 15.9416V8.05653C19.9506 7.67639 19.7476 7.32541 19.4184 7.13545Z" fill="url(#paint1_linear_9_289)"/>
<path d="M7.1356 7.56978C7.29971 7.40668 7.46328 7.24341 7.62631 7.07998C7.79041 7.24361 7.95415 7.40741 8.11751 7.57138C7.95448 7.73501 7.79108 7.89848 7.62731 8.06178C7.46328 7.89815 7.29937 7.73415 7.1356 7.56978ZM8.61353 7.57038C8.77656 7.40675 8.93996 7.24328 9.10373 7.07998C9.2673 7.24308 9.4305 7.40635 9.59333 7.56978C9.4303 7.73341 9.2669 7.89688 9.10313 8.06018C8.93963 7.89708 8.77643 7.73381 8.61353 7.57038ZM14.5299 7.56878C14.693 7.40514 14.8562 7.24188 15.0195 7.07898C15.1836 7.24261 15.3474 7.40641 15.5107 7.57038C15.3477 7.73401 15.1845 7.89748 15.0211 8.06078C14.8576 7.89654 14.6938 7.73254 14.5299 7.56878ZM16.0046 7.57188C16.1682 7.40771 16.3323 7.24355 16.4969 7.07938C16.6605 7.24248 16.8239 7.40594 16.9871 7.56978L16.4948 8.06228C16.3313 7.89885 16.1679 7.73538 16.0046 7.57188ZM7.87487 8.30883C8.03843 8.14573 8.20184 7.98247 8.36507 7.81903C8.52864 7.98213 8.69184 8.1454 8.85467 8.30883C8.69164 8.47246 8.52824 8.63593 8.36447 8.79923C8.2009 8.63606 8.0377 8.4726 7.87487 8.30883ZM9.35699 8.30983C9.51949 8.1478 9.68129 7.98531 9.84239 7.82234C10.0038 7.98544 10.1656 8.148 10.3278 8.31003C10.1658 8.47153 10.004 8.63322 9.84239 8.79512C9.68042 8.63349 9.51863 8.47173 9.35699 8.30983ZM13.796 8.30663C13.958 8.14403 14.1204 7.98203 14.282 7.81833C14.4439 7.9813 14.6063 8.14426 14.769 8.30723C14.6063 8.46926 14.4439 8.63156 14.282 8.79412C14.121 8.63072 13.958 8.46922 13.796 8.30663ZM15.2686 8.30773C15.4316 8.1441 15.5948 7.98083 15.7582 7.81793C15.9218 7.98103 16.0852 8.1445 16.2484 8.30833C16.0854 8.47196 15.9222 8.63543 15.7588 8.79873C15.5958 8.63443 15.4316 8.47133 15.2686 8.30773ZM7.1356 9.04828L7.62731 8.55638C7.79088 8.72002 7.95408 8.88348 8.11691 9.04678C7.95335 9.21095 7.78961 9.37475 7.62571 9.53818C7.46221 9.37502 7.29884 9.21172 7.1356 9.04828ZM8.61303 9.04778C8.77659 8.88469 8.94016 8.72142 9.10373 8.55799C9.2673 8.72109 9.4305 8.88435 9.59333 9.04778C9.4303 9.21142 9.2669 9.37488 9.10313 9.53818C8.93963 9.37502 8.77626 9.21155 8.61303 9.04778ZM10.0926 9.04508C10.254 8.88305 10.4156 8.72119 10.5774 8.55949C10.7405 8.72259 10.9033 8.88569 11.0659 9.04879C10.9045 9.21028 10.7429 9.37181 10.5811 9.53337C10.418 9.37081 10.2552 9.20804 10.0926 9.04508ZM13.0589 9.04508C13.2203 8.88305 13.3818 8.72119 13.5433 8.55949C13.7058 8.72152 13.868 8.88375 14.0298 9.04618C13.8673 9.20718 13.7063 9.36977 13.5438 9.53077C13.3833 9.36817 13.2203 9.20718 13.0589 9.04508ZM14.5299 9.04668C14.6935 8.88251 14.8572 8.71871 15.0211 8.55528C15.1847 8.71838 15.3481 8.88185 15.5113 9.04568C15.3478 9.20985 15.184 9.37381 15.0201 9.53758C14.8571 9.37348 14.693 9.21038 14.5299 9.04668ZM16.007 9.04668C16.1701 8.88305 16.3333 8.71978 16.4966 8.55689C16.6602 8.71998 16.8236 8.88345 16.9868 9.04728C16.8238 9.21092 16.6606 9.37438 16.4972 9.53768C16.3344 9.37348 16.1704 9.21038 16.007 9.04668ZM11.5689 9.09687L12.0533 8.61229C12.2235 8.77008 12.3904 8.93107 12.553 9.09687C12.3899 9.26211 12.2234 9.42344 12.0533 9.58086C11.8918 9.41936 11.7303 9.25804 11.5689 9.09687ZM7.87647 9.78724C8.0395 9.62521 8.2027 9.46298 8.36607 9.30055C8.5275 9.46311 8.68914 9.62517 8.85097 9.78674C8.689 9.9493 8.527 10.1117 8.36497 10.2739C8.202 10.1119 8.03917 9.94967 7.87647 9.78724ZM10.8317 9.78413C10.9931 9.62204 11.1546 9.46114 11.3161 9.29904C11.4775 9.46054 11.6388 9.62207 11.7999 9.78363C11.639 9.94513 11.477 10.1066 11.3161 10.2682C11.1547 10.107 10.9932 9.94563 10.8317 9.78413ZM12.3207 9.78413C12.481 9.62153 12.6436 9.46164 12.804 9.29904C12.9697 9.45793 13.128 9.62314 13.2915 9.78413C13.129 9.94513 12.9676 10.1082 12.805 10.2697C12.6441 10.1071 12.482 9.94623 12.3207 9.78413ZM15.276 9.78463C15.4369 9.62204 15.5984 9.46054 15.7593 9.29794C15.9229 9.45997 16.0859 9.6222 16.2484 9.78463C16.0848 9.94666 15.9216 10.1089 15.7588 10.2713C15.5984 10.1082 15.4362 9.94723 15.276 9.78463ZM8.61513 10.5231C8.77656 10.3611 8.93856 10.1992 9.10113 10.0375C9.26309 10.2006 9.42559 10.3635 9.58863 10.5263C9.42719 10.6883 9.26556 10.85 9.10373 11.0114C8.9407 10.8489 8.77783 10.6862 8.61513 10.5231ZM11.5699 10.522C11.7308 10.3605 11.8919 10.1993 12.0532 10.0385C12.2231 10.1958 12.3896 10.3571 12.5529 10.5225C12.3904 10.6883 12.224 10.8494 12.0538 11.006C11.8923 10.8445 11.731 10.6832 11.5699 10.522ZM14.5373 10.5231C14.6982 10.3616 14.8593 10.2006 15.0206 10.0401C15.1821 10.2016 15.3437 10.3626 15.5055 10.5231C15.3435 10.6834 15.1821 10.8451 15.0206 11.0056C14.8602 10.844 14.6983 10.6841 14.5373 10.5231ZM9.35439 11.262C9.51582 11.1 9.67745 10.9385 9.83929 10.7775C10.0002 10.9384 10.1611 11.0996 10.3221 11.2609C10.1612 11.4224 9.99992 11.5841 9.83828 11.746C9.67732 11.5845 9.51602 11.4232 9.35439 11.262ZM13.7971 11.262C13.9585 11.1005 14.1201 10.939 14.282 10.7775C14.4434 10.9384 14.6045 11.0999 14.7653 11.262C14.6044 11.4235 14.4433 11.5851 14.282 11.7466C14.121 11.5845 13.9585 11.4236 13.7971 11.262ZM8.61643 12C8.77786 11.838 8.93949 11.6764 9.10133 11.5154C9.26222 11.6769 9.42332 11.8384 9.58462 12C9.42372 12.1615 9.26263 12.323 9.10133 12.4846C8.93916 12.323 8.77753 12.1615 8.61643 12ZM10.0926 12C10.254 11.8385 10.4154 11.6772 10.5769 11.516C10.7378 11.6775 10.8988 11.8388 11.0599 12C10.8997 12.1615 10.7388 12.3228 10.5771 12.484C10.4155 12.3225 10.254 12.1612 10.0926 12ZM13.0583 12C13.2197 11.8374 13.3828 11.6764 13.5443 11.5138C13.7063 11.6753 13.8678 11.8384 14.0297 12C13.8677 12.1615 13.7059 12.3235 13.5443 12.4862C13.3833 12.3236 13.2198 12.1626 13.0583 12ZM14.4935 12C14.6591 11.8443 14.8069 11.6675 14.9847 11.5249C15.1377 11.6891 15.3075 11.8374 15.4628 12C15.3076 12.1615 15.1404 12.3106 14.9863 12.4735C14.8053 12.3357 14.6608 12.1547 14.4935 12ZM9.35439 12.7379L9.83818 12.254C9.99962 12.4161 10.161 12.5769 10.322 12.739C10.1611 12.9005 10.0002 13.0617 9.83919 13.2225C9.67775 13.061 9.51616 12.8994 9.35439 12.7379ZM13.7976 12.7379C13.9585 12.5764 14.121 12.4154 14.282 12.2534C14.4434 12.4148 14.6047 12.5764 14.7658 12.7379C14.6037 12.8989 14.4444 13.0625 14.2809 13.2214C14.1199 13.0599 13.9585 12.8994 13.7976 12.7379ZM8.61513 13.4769C8.77763 13.3138 8.9405 13.151 9.10373 12.9886C9.2657 13.1501 9.42733 13.3118 9.58863 13.4737C9.42613 13.6368 9.26363 13.7997 9.10113 13.9625C8.93856 13.801 8.77656 13.6391 8.61513 13.4769ZM11.5678 13.478C11.7297 13.316 11.8917 13.1541 12.0538 12.9924C12.2253 13.1497 12.3924 13.3112 12.555 13.477C12.392 13.644 12.2247 13.8064 12.0532 13.9642C11.8912 13.8021 11.7294 13.64 11.5678 13.478ZM14.5373 13.4774C14.6983 13.3159 14.8602 13.1554 15.0206 12.9944C15.1826 13.1554 15.3444 13.3162 15.506 13.4769C15.3446 13.6379 15.1828 13.7988 15.0206 13.9599C14.8597 13.7988 14.6986 13.638 14.5373 13.4774ZM7.87597 14.2127C8.039 14.0507 8.20204 13.8885 8.36507 13.726C8.52704 13.8881 8.68904 14.0505 8.85107 14.2132C8.68904 14.3747 8.52737 14.537 8.36607 14.6999C8.20254 14.5378 8.0395 14.3743 7.87597 14.2127ZM10.8291 14.2158C10.9916 14.0533 11.1539 13.8911 11.3161 13.7292C11.4786 13.8912 11.6411 14.0534 11.8036 14.2158C11.6416 14.3784 11.4795 14.541 11.3171 14.7035C11.1541 14.5415 10.9914 14.3789 10.8291 14.2158ZM12.3175 14.2158C12.4801 14.0527 12.6436 13.8907 12.8056 13.7276C12.9682 13.8896 13.1307 14.0527 13.2937 14.2142C13.1307 14.3773 12.9678 14.5406 12.8051 14.704C12.6426 14.5415 12.48 14.3788 12.3175 14.2158ZM15.2755 14.2153C15.4357 14.0527 15.5984 13.8908 15.7588 13.7277C15.9218 13.8902 16.0852 14.0528 16.249 14.2153C16.086 14.3779 15.9228 14.5403 15.7594 14.7025C15.5984 14.5399 15.4362 14.3779 15.2755 14.2153ZM11.5657 14.9031C11.7282 14.7411 11.8907 14.5787 12.0532 14.4159C12.2252 14.5737 12.3925 14.7365 12.5571 14.9026C12.393 15.0699 12.2252 15.233 12.0538 15.3919C11.8907 15.2288 11.728 15.0659 11.5657 14.9031ZM7.1356 14.9522L7.62581 14.4618C7.78991 14.6254 7.95365 14.7892 8.11701 14.9532C7.95398 15.1168 7.79078 15.2803 7.62741 15.4436C7.46331 15.2795 7.29937 15.1157 7.1356 14.9522ZM8.61303 14.9517C8.77659 14.7886 8.94 14.6253 9.10323 14.4619C9.2668 14.625 9.4302 14.7885 9.59343 14.9523C9.4304 15.1159 9.2672 15.2792 9.10383 15.4421C8.9402 15.279 8.77659 15.1155 8.61303 14.9517ZM10.0893 14.9543C10.2535 14.7912 10.417 14.627 10.5811 14.4639C10.7436 14.6265 10.9063 14.789 11.0692 14.9516C10.9056 15.1163 10.742 15.2805 10.5784 15.4441C10.4154 15.2811 10.2524 15.1178 10.0893 14.9543ZM13.0552 14.9549C13.2182 14.7913 13.3824 14.6287 13.5443 14.4651C13.7073 14.6282 13.8705 14.791 14.0339 14.9534C13.8703 15.117 13.7069 15.2807 13.5437 15.4443C13.3807 15.2811 13.2179 15.118 13.0552 14.9549ZM14.5299 14.9533C14.693 14.7897 14.8571 14.626 15.0201 14.4624C15.1837 14.6266 15.3474 14.7905 15.5113 14.9543L15.0211 15.4447C14.8572 15.2811 14.6935 15.1173 14.5299 14.9533ZM16.007 14.9533C16.1701 14.7897 16.3342 14.626 16.4972 14.4624C16.6603 14.626 16.8235 14.7895 16.9868 14.9528C16.8238 15.1164 16.6604 15.2799 16.4966 15.4432C16.3333 15.28 16.1701 15.1167 16.007 14.9533ZM7.87437 15.6906C8.03793 15.5275 8.20133 15.3643 8.36457 15.2008C8.52814 15.3639 8.69154 15.5274 8.85477 15.6912C8.69174 15.8549 8.52854 16.0181 8.36517 16.181C8.20154 16.0179 8.03793 15.8545 7.87437 15.6906ZM9.35279 15.6911C9.51529 15.5275 9.67832 15.3644 9.84189 15.2019C10.0055 15.3644 10.1687 15.5275 10.3315 15.6911C10.1685 15.8542 10.0054 16.0184 9.84239 16.1815C9.67886 16.0184 9.51582 15.8543 9.35279 15.6911ZM13.7918 15.6922C13.9548 15.5286 14.1184 15.365 14.2825 15.2013C14.446 15.3655 14.6098 15.5292 14.7737 15.6922C14.6096 15.8559 14.4458 16.0198 14.2825 16.1841C14.1184 16.0206 13.9548 15.8566 13.7918 15.6922ZM15.2686 15.6922C15.4316 15.5286 15.5958 15.3649 15.7588 15.2013C15.9218 15.365 16.085 15.5284 16.2484 15.6917C16.0854 15.8554 15.922 16.0188 15.7582 16.1821C15.5947 16.0188 15.4315 15.8555 15.2686 15.6922ZM7.13721 16.4281C7.30024 16.2645 7.46364 16.101 7.62741 15.9377L8.11761 16.4281L7.62741 16.9185C7.46384 16.7557 7.30044 16.5923 7.13721 16.4281ZM8.61303 16.4296C8.77659 16.2665 8.94 16.1032 9.10323 15.9398C9.2668 16.1029 9.4302 16.2664 9.59343 16.4302C9.4304 16.5938 9.2672 16.7571 9.10383 16.92C8.9402 16.7569 8.77659 16.5934 8.61303 16.4296ZM14.5299 16.4312C14.6935 16.267 14.8572 16.1031 15.0211 15.9393C15.1842 16.1029 15.3474 16.2664 15.5107 16.4297C15.3472 16.5939 15.1834 16.7577 15.0195 16.9211C14.856 16.758 14.6928 16.5947 14.5299 16.4312ZM16.0046 16.4281C16.1677 16.2645 16.3311 16.101 16.4948 15.9377L16.9871 16.4302C16.8241 16.5938 16.6607 16.7573 16.4969 16.9206C16.3323 16.7568 16.1682 16.5926 16.0046 16.4281Z" fill="white"/>
<defs>
<linearGradient id="paint0_linear_9_289" x1="5.2222" y1="6.93335" x2="19.8754" y2="15.3748" gradientUnits="userSpaceOnUse">
<stop stop-color="#0071BC"/>
<stop offset="1" stop-color="#662D91"/>
</linearGradient>
<linearGradient id="paint1_linear_9_289" x1="6.05454" y1="7.57936" x2="19.0246" y2="15.0304" gradientUnits="userSpaceOnUse">
<stop stop-color="#0071BC"/>
<stop offset="1" stop-color="#662D91"/>
</linearGradient>
</defs>
</svg>
