<svg width="24" height="24" viewBox="0 0 24 24" fill="none" xmlns="http://www.w3.org/2000/svg">
<path d="M17.4299 15.8401C19.5419 15.8401 21.254 14.1187 21.254 11.9953C21.254 9.87187 19.5419 8.1505 17.4299 8.1505C15.318 8.1505 13.6059 9.87187 13.6059 11.9953C13.6059 14.1187 15.318 15.8401 17.4299 15.8401Z" fill="black"/>
<path d="M12.5978 6.70783C13.6162 6.70783 14.4417 5.8778 14.4417 4.85392C14.4417 3.83003 13.6162 3 12.5978 3C11.5795 3 10.7539 3.83003 10.7539 4.85392C10.7539 5.8778 11.5795 6.70783 12.5978 6.70783Z" fill="black"/>
<path d="M12.5978 21.001C13.6162 21.001 14.4417 20.1709 14.4417 19.1471C14.4417 18.1232 13.6162 17.2932 12.5978 17.2932C11.5795 17.2932 10.7539 18.1232 10.7539 19.1471C10.7539 20.1709 11.5795 21.001 12.5978 21.001Z" fill="black"/>
<path d="M11.7529 14.7725C11.8619 14.8091 11.98 14.8273 12.0981 14.8273C12.7339 14.8273 13.2517 14.3068 13.2517 13.6675C13.2517 13.0282 12.7339 12.5076 12.0981 12.5076C11.6893 12.5076 11.3351 12.7177 11.1262 13.0373V13.0465C11.0898 13.0921 11.0626 13.1469 11.0444 13.2017C9.77275 15.4575 7.22034 13.9506 7.22034 13.9506C6.8025 13.704 6.32109 13.5579 5.79426 13.5579C4.25918 13.5579 3.01476 14.8091 3.01476 16.3525C3.01476 17.8959 4.25918 19.147 5.79426 19.147C6.86609 19.147 7.80167 18.5352 8.25583 17.6402V17.631C8.33758 17.4758 8.40117 17.3114 8.45567 17.1379C9.78183 14.0785 11.7529 14.7725 11.7529 14.7725ZM11.0989 10.672C11.1534 10.7725 11.2261 10.8729 11.3078 10.9551C11.762 11.4117 12.4887 11.4117 12.9337 10.9551C13.3879 10.4985 13.3879 9.76787 12.9337 9.32038C12.6431 9.02813 12.2434 8.92767 11.8801 9.00987H11.871C11.8165 9.019 11.7529 9.03727 11.6984 9.06466C9.20958 9.75874 8.46475 6.87284 8.46475 6.87284C8.34667 6.39795 8.10142 5.95045 7.73808 5.58515C6.64809 4.48924 4.89501 4.48924 3.8141 5.57602C2.73318 6.66279 2.7241 8.43451 3.8141 9.52129C4.57709 10.2884 5.65801 10.5167 6.62084 10.2062H6.62992C6.79342 10.1514 6.95692 10.0784 7.12042 9.99619C10.1997 8.77242 11.0989 10.672 11.0989 10.672Z" fill="black"/>
</svg>
