<svg width="24" height="24" viewBox="0 0 24 24" fill="none" xmlns="http://www.w3.org/2000/svg">
<path d="M11.6111 5.37539L5.67024 17.9443H15.5329C15.6727 17.9442 15.8094 17.9858 15.9261 18.0638C16.0428 18.1418 16.1344 18.2529 16.1895 18.3832L16.1999 18.4075C16.2364 18.4938 16.2527 18.5875 16.2475 18.6812C16.2422 18.775 16.2156 18.8662 16.1698 18.9477C16.0875 19.0932 15.9689 19.214 15.8259 19.2981C15.683 19.3821 15.5207 19.4264 15.3554 19.4265H4.87382C4.71214 19.4265 4.5541 19.3779 4.4196 19.2868L4.36429 19.2497C4.19994 19.138 4.08083 18.97 4.02885 18.7763C3.97688 18.5827 3.99554 18.3765 4.08141 18.1957L11.0912 3.55878C11.1645 3.40601 11.2688 3.27069 11.3972 3.16169C11.5189 3.05869 11.672 3.00158 11.8305 3.00003C11.989 2.99849 12.1431 3.05261 12.2667 3.15323C12.3222 3.19759 12.3672 3.25406 12.3982 3.31846L19.5083 18.0565C19.6047 18.2568 19.6247 18.4861 19.5646 18.7005C19.5316 18.8185 19.4616 18.9223 19.3651 18.9961C19.2686 19.0699 19.1509 19.1097 19.0301 19.1094H18.9487C18.7862 19.1094 18.6271 19.0625 18.49 18.9742C18.3528 18.8858 18.2433 18.7597 18.1742 18.6105L12.0423 5.37758C12.0233 5.3359 11.993 5.30056 11.955 5.27572C11.9169 5.25088 11.8727 5.23756 11.8274 5.23733C11.7822 5.2371 11.7378 5.24997 11.6995 5.27442C11.6612 5.29887 11.6306 5.3339 11.6112 5.37539H11.6111Z" fill="#F4AE95"/>
</svg>
