<svg width="24" height="24" viewBox="0 0 24 24" fill="none" xmlns="http://www.w3.org/2000/svg">
<g clip-path="url(#clip0_139_419)">
<path d="M17.0432 16.9583L12 21.9813L9.49834 19.4896C12.196 19.3308 14.8007 18.4572 17.0432 16.9583ZM21.8239 11.7996L21.206 11.1874L12 2.01495L2.7907 11.1874L2 11.975L2.28571 12.2198C2.60797 12.4878 2.9402 12.7426 3.28239 12.9809C6.92359 15.5354 11.4385 16.3064 15.608 15.2905C17.309 14.8802 18.9236 14.1754 20.3821 13.2092C20.7442 12.971 21.0963 12.7129 21.4419 12.4415C21.6312 12.2893 21.8173 12.1338 22 11.975L21.8239 11.7996ZM14.4286 14.1059C11.6811 12.425 8.51827 11.5415 5.29568 11.5547C9.49502 9.73147 14.6478 9.4833 19.3721 12.19C17.8671 13.143 16.186 13.7949 14.4286 14.1059Z" fill="#2B71FF"/>
</g>
<defs>
<clipPath id="clip0_139_419">
<rect width="20" height="20" fill="white" transform="translate(2 2)"/>
</clipPath>
</defs>
</svg>
