<svg width="24" height="24" viewBox="0 0 24 24" fill="none" xmlns="http://www.w3.org/2000/svg">
<path fill-rule="evenodd" clip-rule="evenodd" d="M11.662 4.02969C11.3043 4.11948 11.1215 4.29308 10.9381 4.71715C10.8732 4.86713 10.6343 5.37166 10.407 5.83832L9.9938 6.68679L9.99499 6.88478C9.99694 7.20889 10.2103 7.64775 10.5417 8.00923C10.7033 8.18557 11.066 8.4381 11.2937 8.53285C12.0306 8.83949 12.9818 8.51902 13.4992 7.78981C13.772 7.40534 13.8961 7.04986 13.8746 6.71479C13.8626 6.52855 13.838 6.46599 13.5007 5.76676C13.3021 5.355 13.0941 4.90358 13.0384 4.76359C12.9521 4.54663 12.9097 4.48167 12.7514 4.32362C12.5847 4.15721 12.5439 4.1319 12.3535 4.07663C12.0636 3.99244 11.8643 3.97892 11.662 4.02969ZM13.927 8.16556C13.6958 8.48781 13.5109 8.76421 13.5161 8.77977C13.5245 8.80514 15.2227 9.61566 15.356 9.65799C15.4078 9.6744 15.4086 9.67024 15.3708 9.58109C15.2891 9.38846 14.3777 7.5778 14.3629 7.5787C14.3544 7.57921 14.1583 7.84328 13.927 8.16556ZM9.09586 8.55982C8.67176 9.45866 8.62883 9.55866 8.66803 9.55598C8.72389 9.55213 10.3565 8.80519 10.3646 8.7798C10.3733 8.75208 9.5701 7.71267 9.52799 7.6972C9.51619 7.69288 9.32175 8.08105 9.09586 8.55982ZM11.209 9.31963C10.4893 9.43146 9.70074 9.7325 8.93148 10.1891L8.6628 10.3485L11.7668 10.349C13.4846 10.3493 14.8708 10.3386 14.8708 10.3251C14.8708 10.2878 14.4781 9.9953 14.2193 9.83977C13.7754 9.57301 13.1344 9.3747 12.4891 9.30456C12.1192 9.26437 11.5192 9.27141 11.209 9.31963ZM10.6425 10.9713L8.12537 10.9858L8.00862 11.0482C7.83493 11.1411 7.67511 11.3413 7.56608 11.6026L7.46938 11.8342L9.50846 11.8484C10.6299 11.8562 11.5635 11.8728 11.5829 11.8854C11.6109 11.9035 11.6182 12.7476 11.6182 15.9493C11.6182 18.561 11.6281 19.9964 11.646 20.0075C11.6613 20.017 11.7798 20.0321 11.9094 20.0413C12.1772 20.0602 12.2425 20.0381 12.3267 19.9C12.3804 19.8119 12.3817 19.7209 12.3818 15.8291L12.3819 11.8484L13.3647 11.8444C13.9052 11.8422 14.8228 11.8327 15.4037 11.8232L16.4598 11.806L16.292 11.5504C16.1085 11.271 15.955 11.1228 15.7368 11.014L15.5949 10.9433L14.3773 10.9501C13.7076 10.9538 12.0269 10.9634 10.6425 10.9713ZM7.41825 12.5251C7.19725 12.5627 7.11896 12.6428 6.92639 13.0285C6.66714 13.5477 6.55554 14.0421 6.55579 14.6705C6.55588 14.8994 6.57503 15.2132 6.59833 15.3678C6.73242 16.2575 7.13149 17.2218 7.6533 17.9171C8.15831 18.59 8.93048 19.1981 9.69343 19.5238C10.0344 19.6694 10.8729 19.9746 11.0217 20.0072L11.1136 20.0274L11.0961 16.4399C11.0864 14.4668 11.072 12.7986 11.0639 12.733C11.0537 12.6494 11.0274 12.5963 10.9764 12.5562C10.9049 12.4999 10.8711 12.4989 9.21743 12.5024C8.29011 12.5043 7.48047 12.5146 7.41825 12.5251ZM13.3231 12.552C13.0999 12.5656 13.0226 12.5811 12.9837 12.62C12.9394 12.6644 12.9315 12.7464 12.9183 13.2988C12.898 14.1491 12.9008 20.0413 12.9215 20.0621C12.949 20.0895 14.155 19.6355 14.4888 19.4721C15.689 18.8848 16.6297 17.8382 17.0832 16.5857C17.3325 15.8973 17.414 15.4972 17.435 14.8605C17.453 14.3118 17.4187 14.0431 17.2717 13.5814C17.1791 13.2902 16.9897 12.8816 16.8757 12.7267C16.7361 12.5371 16.7977 12.5438 15.1252 12.5389C14.293 12.5364 13.482 12.5423 13.3231 12.552ZM17.8728 15.0088C17.7601 15.5343 17.578 16.5447 17.5933 16.56C17.6164 16.5831 18.6032 16.3109 18.6037 16.2814C18.6042 16.2492 17.9318 14.8745 17.9156 14.8745C17.9079 14.8745 17.8886 14.9349 17.8728 15.0088ZM5.87899 15.221C5.85011 15.2871 5.71014 15.5883 5.56788 15.8903C5.42565 16.1923 5.31925 16.4491 5.33147 16.4609C5.34369 16.4727 5.53821 16.5324 5.76377 16.5936C6.35314 16.7535 6.32941 16.749 6.32941 16.6992C6.32941 16.6755 6.25305 16.3126 6.15972 15.8927C6.06639 15.4728 5.99002 15.1229 5.99002 15.1151C5.99002 15.1072 5.97685 15.1008 5.96072 15.1008C5.94463 15.1008 5.90784 15.1549 5.87899 15.221ZM18.2805 17.0127C17.5348 17.1779 16.9443 17.7256 16.7679 18.4155C16.686 18.7357 16.6723 18.9599 16.7188 19.2159C16.7785 19.5448 16.866 19.753 17.0059 19.899L17.1268 20.0253L18.358 20.0165L19.5891 20.0078L19.7111 19.9221C19.7781 19.8749 19.8709 19.775 19.9172 19.7001C19.9894 19.5834 20.0013 19.5367 19.9999 19.3757C19.9977 19.1292 19.9577 19.0289 19.4524 17.9998C19.1728 17.4304 19.0062 17.1237 18.9462 17.0673C18.8677 16.9936 18.8334 16.9825 18.6667 16.9763C18.5622 16.9724 18.3884 16.9888 18.2805 17.0127ZM5.05671 17.1569C4.96805 17.2025 4.91915 17.2848 4.58773 17.9457C4.07868 18.9608 4.00673 19.1376 4.00084 19.3877C3.99666 19.5656 4.00568 19.6033 4.08199 19.7271C4.13988 19.821 4.21777 19.8963 4.32114 19.9583L4.47443 20.0502L5.50799 20.0485C6.07644 20.0476 6.60433 20.0365 6.68106 20.024C6.98878 19.9734 7.16351 19.6173 7.16077 19.0462C7.15955 18.7883 7.14648 18.6964 7.08446 18.5088C6.85942 17.8283 6.34438 17.363 5.61772 17.1837C5.30534 17.1067 5.16716 17.1001 5.05671 17.1569ZM7.76027 19.0249C7.74488 19.0741 7.65098 19.6307 7.61472 19.8875L7.59578 20.0219H8.39719H9.1986L8.60543 19.5806C7.7672 18.957 7.77905 18.9648 7.76027 19.0249ZM15.4788 19.4163C15.1521 19.6586 14.8437 19.8845 14.7933 19.9182C14.7429 19.952 14.7017 19.9859 14.7015 19.9937C14.7014 20.0015 15.0672 20.0078 15.5143 20.0078C16.0393 20.0078 16.3263 19.9978 16.3244 19.9796C16.3158 19.8931 16.0987 18.9758 16.0869 18.9758C16.0791 18.9757 15.8055 19.174 15.4788 19.4163Z" fill="black"/>
</svg>
