<svg width="24" height="24" viewBox="0 0 24 24" fill="none" xmlns="http://www.w3.org/2000/svg">
<path fill-rule="evenodd" clip-rule="evenodd" d="M13.0643 3.18152C14.6672 3.55189 15.8786 4.20912 17.0511 5.34463C17.8063 6.076 18.3046 6.75477 18.7362 7.64005C19.2179 8.62818 19.448 9.4389 19.5662 10.5643L19.6051 10.9363L18.1302 10.9204L16.6552 10.9045L16.6131 10.6968C16.4643 9.96264 16.3559 9.56117 16.2215 9.24576C15.3183 7.12621 13.2453 5.83383 10.9616 5.96649C8.685 6.09867 6.70185 7.72884 6.10956 9.95487C5.94247 10.5828 5.92639 11.8899 6.07822 12.497C6.61508 14.6429 8.41916 16.3009 10.5001 16.5608L10.8385 16.603V18.0867V19.5703L10.5121 19.5511C9.71593 19.5043 8.56167 19.1837 7.6885 18.767C6.1095 18.0134 4.63217 16.5539 3.82406 14.9493C3.56343 14.4317 3.24998 13.4826 3.11246 12.7947C2.95048 11.9845 2.96573 10.4422 3.14368 9.63548C3.50283 8.00763 4.18665 6.7213 5.32163 5.53884C6.63354 4.17203 8.35588 3.29898 10.245 3.04334C10.9488 2.94808 12.3514 3.01681 13.0643 3.18152ZM18.1837 12.4728L19.534 12.4774V13.9316V15.3858H18.0501H16.5663V13.9415C16.5663 13.1471 16.5815 12.482 16.6 12.4635C16.6186 12.4449 16.6786 12.4384 16.7335 12.449C16.7884 12.4597 17.441 12.4704 18.1837 12.4728ZM15.3198 18.1161V19.5999H13.8359H12.3521V18.1161V16.6322H13.8359H15.3198V18.1161ZM19.534 18.1161V19.5999H18.0501H16.5663V18.1557C16.5663 17.3613 16.5841 16.6935 16.6059 16.6718C16.6276 16.65 17.2953 16.6322 18.0897 16.6322H19.534V18.1161Z" fill="black"/>
</svg>
