<svg width="24" height="24" viewBox="0 0 24 24" fill="none" xmlns="http://www.w3.org/2000/svg">
<path d="M4.25231 20C4.24119 19.7777 4.23749 19.5555 4.2486 19.3332C4.32269 19.311 4.39678 19.2961 4.47458 19.285C4.69685 19.248 4.91913 19.1924 5.13399 19.1294C5.19327 19.1109 5.25254 19.0887 5.31181 19.0665C5.59706 18.9553 5.84897 18.7701 6.04161 18.533C6.17497 18.3663 6.28982 18.1848 6.38984 17.9958C6.53061 17.7365 6.65286 17.4661 6.764 17.1919C6.98627 16.6363 7.20855 16.0843 7.42712 15.5286C8.18285 13.617 8.93858 11.7055 9.69431 9.79393C10.4093 7.97499 11.1132 6.15605 11.8022 4.326C11.817 4.28896 11.8318 4.25191 11.8467 4.21486C12.1023 4.14448 12.3505 4.07039 12.6098 4C12.6246 4.03705 12.6394 4.07039 12.6505 4.10373C12.9432 4.91873 13.2359 5.73373 13.5248 6.55244C14.5214 9.33457 15.5179 12.113 16.5403 14.884C16.8219 15.6397 17.1034 16.3992 17.3887 17.1549C17.4998 17.4624 17.6332 17.7662 17.7851 18.0551C17.8518 18.1811 17.9221 18.2996 17.9999 18.4182C18.237 18.7886 18.6038 19.0516 19.0298 19.1628C19.2595 19.222 19.4892 19.2702 19.7263 19.2998L19.893 19.3258C19.9152 19.3999 19.9041 19.4702 19.9041 19.5406C19.9041 19.611 19.9041 19.6925 19.9041 19.7666C19.9078 19.8407 19.9041 19.9111 19.9004 19.9852C19.8781 19.9889 19.8596 19.9926 19.8374 19.9963C19.8115 19.9963 19.7855 19.9963 19.7596 19.9963H13.9768C13.9694 19.9852 13.9657 19.9704 13.962 19.9555C13.962 19.7555 13.962 19.5555 13.962 19.3554C13.962 19.348 13.9657 19.3369 13.9694 19.3295C14.0175 19.3147 14.0657 19.3072 14.1176 19.2998C14.3584 19.2665 14.5954 19.222 14.8325 19.1591C14.9251 19.1331 15.0215 19.0998 15.1104 19.0627C15.1548 19.0442 15.1993 19.022 15.2437 18.9961C15.4771 18.8664 15.5697 18.6627 15.5475 18.4033C15.5364 18.2848 15.5179 18.1699 15.4845 18.0551C15.4364 17.8773 15.3734 17.7032 15.3141 17.5328C14.099 14.1431 12.8988 10.7497 11.7096 7.34892C11.6985 7.31188 11.6911 7.27113 11.654 7.23779C11.6429 7.2452 11.6244 7.2526 11.617 7.26001C11.6059 7.27854 11.5985 7.29706 11.5947 7.31558C11.0131 8.98634 10.3945 10.646 9.77951 12.3019C9.32385 13.5281 8.86819 14.758 8.44587 15.9954C8.27546 16.4918 8.11246 16.9919 7.95316 17.492C7.89019 17.6847 7.84573 17.881 7.8161 18.0773C7.79387 18.2107 7.79016 18.3441 7.80498 18.4811C7.8235 18.6552 7.91612 18.8145 8.0606 18.9183C8.15321 18.985 8.25694 19.0368 8.36807 19.0739C8.54219 19.1368 8.72001 19.1813 8.90153 19.2109C9.10158 19.248 9.30162 19.2776 9.50538 19.3072C9.52019 19.311 9.53131 19.311 9.54983 19.3147C9.55353 19.3295 9.55724 19.3443 9.56094 19.3591C9.56094 19.5517 9.56094 19.7481 9.56094 19.9407C9.56094 19.9518 9.55724 19.963 9.55353 19.9741C9.53501 19.9778 9.51649 19.9815 9.49797 19.9815C9.47203 19.9815 9.4461 19.9815 9.42017 19.9815L4.25231 20Z" fill="black"/>
</svg>
