<svg width="24" height="24" viewBox="0 0 24 24" fill="none" xmlns="http://www.w3.org/2000/svg">
<rect x="2" y="2" width="20" height="20" rx="10" fill="#1E1E1E"/>
<path opacity="0.4" d="M17.6891 14.0884C18.0357 14.683 18.0372 15.4176 17.6931 16.0136C17.349 16.6096 16.712 16.9756 16.0239 16.9728C15.3357 16.97 14.7018 16.5988 14.3625 16L10.3365 9.02723C9.80861 8.10861 10.1253 6.93595 11.0439 6.40803C11.9626 5.8801 13.1352 6.19681 13.6631 7.11543L17.6891 14.0884Z" fill="#4BDB4B"/>
<path opacity="0.8" d="M9.63818 16C9.10679 16.9113 7.93938 17.2228 7.02469 16.6972C6.10999 16.1717 5.7911 15.0063 6.31078 14.0882L10.3364 7.11562C10.6741 6.51381 11.309 6.13975 11.9991 6.13601C12.6892 6.13228 13.3282 6.49945 13.6724 7.09758C14.0166 7.6957 14.0131 8.43261 13.6632 9.02742L9.63818 16Z" fill="#4BDB4B"/>
<path d="M13.6519 7.0962C13.6297 7.0584 13.6057 7.0222 13.5813 6.9864C13.5695 6.9692 13.5583 6.9516 13.5459 6.9348C13.5221 6.9022 13.4965 6.8714 13.4709 6.8408C13.4553 6.822 13.4403 6.8028 13.4239 6.7846C13.4007 6.759 13.3763 6.7352 13.3521 6.711C13.3279 6.6868 13.3097 6.6682 13.2873 6.6478C13.2649 6.6274 13.2437 6.611 13.2217 6.5928C13.1941 6.57 13.1667 6.547 13.1375 6.5256C13.1175 6.5108 13.0965 6.4974 13.0759 6.4836C13.0435 6.4616 13.0109 6.4398 12.9759 6.4196C12.9687 6.4154 12.9623 6.4104 12.9559 6.4062C12.9407 6.3974 12.9247 6.3908 12.9091 6.3824C12.8767 6.365 12.8441 6.348 12.8111 6.3326C12.7833 6.3194 12.7549 6.3076 12.7263 6.296C12.6977 6.2844 12.6705 6.2734 12.6423 6.2634C12.6091 6.25166 12.5757 6.24086 12.5423 6.231C12.5175 6.2236 12.4929 6.2166 12.4679 6.211C12.4321 6.202 12.3959 6.1942 12.3597 6.1872C12.3351 6.1826 12.3103 6.1782 12.2857 6.1744C12.2503 6.1692 12.2149 6.165 12.1791 6.1616C12.1516 6.15893 12.1242 6.15693 12.0969 6.1556C12.0647 6.154 12.0325 6.1532 12.0003 6.1532C11.9685 6.1532 11.9369 6.1532 11.9051 6.1556C11.8773 6.157 11.8493 6.159 11.8213 6.1616C11.7863 6.165 11.7511 6.169 11.7163 6.1744C11.6911 6.1782 11.6659 6.1826 11.6409 6.1874C11.6049 6.1942 11.5692 6.202 11.5339 6.2108C11.5085 6.2172 11.4833 6.2244 11.4581 6.2318C11.4247 6.24166 11.3914 6.25233 11.3581 6.2638C11.3293 6.274 11.3007 6.2854 11.2723 6.297C11.2439 6.3086 11.2167 6.32 11.1895 6.3328C11.1557 6.3486 11.1223 6.366 11.0895 6.3838C11.0745 6.392 11.0591 6.3984 11.0443 6.407C11.0373 6.411 11.0311 6.4158 11.0243 6.4198C10.9891 6.4398 10.9553 6.463 10.9221 6.4856C10.9021 6.4988 10.8821 6.5116 10.8635 6.5256C10.8329 6.5482 10.8035 6.5722 10.7747 6.5964C10.7547 6.6132 10.7347 6.6294 10.7147 6.6472C10.6901 6.6694 10.6671 6.693 10.6439 6.7162C10.6207 6.7394 10.5983 6.76 10.5783 6.7828C10.5583 6.8056 10.5421 6.8256 10.5241 6.8472C10.5013 6.875 10.4781 6.9028 10.4567 6.932C10.4415 6.952 10.4279 6.9738 10.4137 6.9948C10.3921 7.0266 10.3707 7.0588 10.3509 7.0924C9.99794 7.68717 9.99275 8.42592 10.3373 9.0256L12.0007 11.9068L13.6639 9.0256C14.0076 8.42724 14.0031 7.69023 13.6519 7.0962Z" fill="#4BDB4B"/>
</svg>
