<svg width="24" height="24" viewBox="0 0 24 24" fill="none" xmlns="http://www.w3.org/2000/svg">
<path d="M12.0601 3.34982C13.841 3.34982 15.5583 4.01767 16.7986 5.25795C18.0707 6.49823 18.7703 8.12014 18.7703 9.86926V20.6502H5.34982V9.86926C5.34982 8.12014 6.04947 6.49823 7.32156 5.25795C8.56184 4.01767 10.2474 3.34982 12.0601 3.34982ZM12.0601 3C10.1837 3 8.40283 3.69965 7.06714 5.00353C5.73145 6.30742 5 8.02473 5 9.86926V21H19.1201V9.86926C19.1201 8.02473 18.3887 6.30742 17.053 5.03534C15.7173 3.69965 13.9364 3 12.0601 3Z" fill="#070001"/>
<path d="M16.2147 5.89871L15.8967 5.58069C14.8472 4.65843 13.5115 4.1814 12.0804 4.1814C10.5221 4.1814 9.02741 4.78564 7.94614 5.89871C6.83306 7.01179 6.22882 8.47468 6.22882 10.033V19.7644H17.932V10.0648C17.932 8.47468 17.296 7.01179 16.2147 5.89871ZM14.402 19.1602C13.8613 19.351 13.2571 19.4464 12.6528 19.4464H8.42317V17.5065C8.32776 17.4111 8.23235 17.2839 8.16875 17.1885C7.4373 16.2344 7.05568 15.0577 7.05568 13.8492V10.192C7.05568 8.7609 7.59631 7.42521 8.55038 6.37574C8.67758 6.37574 8.8366 6.37574 8.99561 6.40754C9.98147 6.50295 11.3172 6.85277 12.462 7.64783C13.4797 8.34747 14.72 9.61956 14.72 11.6867V19.0648C14.6246 19.0966 14.5292 19.1284 14.402 19.1602Z" fill="#070001"/>
<path d="M12.4939 7.64782C11.349 6.88457 10.0133 6.50294 9.02742 6.40753C8.86841 6.40753 8.7094 6.37573 8.58219 6.37573C7.62813 7.4252 7.08749 8.76089 7.08749 10.192V13.8492C7.08749 15.0577 7.46912 16.2344 8.20057 17.1885C8.29597 17.2839 8.35958 17.4111 8.45499 17.5065V19.4464H12.6847C13.2889 19.4464 13.8613 19.351 14.4338 19.1602C14.561 19.1284 14.6564 19.0966 14.7836 19.033V11.6549C14.7518 9.58775 13.5115 8.34746 12.4939 7.64782ZM8.77301 19.0966V17.8563C9.34544 18.3969 10.0133 18.8422 10.7447 19.0966H8.77301ZM14.402 18.8104C13.8613 19.0012 13.2571 19.0966 12.6529 19.0966C11.2536 19.0966 9.94968 18.5559 8.93202 17.5383L8.7412 17.3475C8.614 17.2203 8.48679 17.0612 8.39138 16.9022C7.72354 16.0118 7.37371 14.9305 7.37371 13.8174V10.192C7.37371 8.9199 7.85074 7.67962 8.6776 6.72556C10.9037 6.82096 14.3702 8.34746 14.3702 11.6549V18.8104H14.402Z" fill="#070001"/>
<path d="M10.7235 14.843C10.628 14.843 10.5326 14.7476 10.5326 14.6522V11.4084C10.5326 10.5497 11.2323 9.8501 12.0909 9.8501C12.9496 9.8501 13.6492 10.5497 13.6492 11.4084C13.6492 11.5038 13.5538 11.5992 13.4584 11.5992C13.363 11.5992 13.2676 11.5038 13.2676 11.4084C13.2676 10.7724 12.727 10.2317 12.0909 10.2317C11.4549 10.2317 10.9143 10.7724 10.9143 11.4084V14.6522C10.9143 14.7476 10.8189 14.843 10.7235 14.843Z" fill="#070001"/>
<path d="M12.6634 12.3306C12.568 12.3306 12.4726 12.2352 12.4726 12.1398C12.4726 11.9172 12.3135 11.7582 12.0909 11.7582C11.8683 11.7582 11.7093 11.9172 11.7093 12.1398C11.7093 12.2352 11.6139 12.3306 11.5185 12.3306C11.4231 12.3306 11.3277 12.2352 11.3277 12.1398C11.3277 11.6945 11.6775 11.3447 12.1227 11.3447C12.568 11.3447 12.9178 11.6945 12.9178 12.1398C12.8542 12.2352 12.7588 12.3306 12.6634 12.3306Z" fill="#070001"/>
<path d="M10.7234 14.8431C10.151 14.8431 9.67397 14.366 9.67397 13.7936C9.67397 13.6982 9.76937 13.6028 9.86478 13.6028C9.96018 13.6028 10.0556 13.6982 10.0556 13.7936C10.0556 14.1434 10.3418 14.4296 10.6916 14.4296C11.0415 14.4296 11.3277 14.1434 11.3277 13.7936C11.3277 13.6982 11.4231 13.6028 11.5185 13.6028C11.6139 13.6028 11.7093 13.6982 11.7093 13.7936C11.7411 14.366 11.2959 14.8431 10.7234 14.8431Z" fill="#070001"/>
<path d="M9.61038 12.6487C9.54678 12.6487 9.51498 12.6169 9.48318 12.5851L8.62452 11.7265V12.4579C8.62452 12.5533 8.52911 12.6487 8.4337 12.6487C8.3383 12.6487 8.21109 12.5533 8.21109 12.4261V11.2494C8.21109 11.154 8.27469 11.0904 8.3383 11.0586C8.4337 11.0268 8.49731 11.0268 8.56091 11.0904L9.41957 11.9491V11.4402C9.41957 11.3448 9.51498 11.2494 9.61038 11.2494C9.70579 11.2494 9.8012 11.3448 9.8012 11.4402V12.4261C9.8012 12.5215 9.73759 12.5851 9.67399 12.6169C9.67399 12.6487 9.64219 12.6487 9.61038 12.6487Z" fill="#070001"/>
<path d="M10.6917 11.631C10.5963 11.631 10.5009 11.5356 10.5009 11.4402C10.5009 11.4084 10.5009 10.6133 9.96022 10.6133C9.86482 10.6133 9.76941 10.5179 9.76941 10.4225C9.76941 10.3271 9.86482 10.2317 9.96022 10.2317C10.6917 10.2317 10.8825 11.0267 10.8825 11.4402C10.8825 11.5356 10.7871 11.631 10.6917 11.631Z" fill="#070001"/>
</svg>
