<svg width="24" height="24" viewBox="0 0 24 24" fill="none" xmlns="http://www.w3.org/2000/svg">
<rect x="2" y="2" width="20" height="20" rx="10" fill="url(#paint0_linear_8_63)"/>
<path d="M10.6994 13.0708L12.0296 9.02277L13.3844 13.0708H10.6994ZM16.3384 15.6306L15.2381 12.6089H15.895C16.0207 12.6079 16.141 12.5573 16.2298 12.4681C16.3185 12.379 16.3686 12.2585 16.3691 12.1327C16.3691 12.0734 16.3575 12.0147 16.3348 11.9599C16.3121 11.9051 16.2788 11.8553 16.2369 11.8134C16.1949 11.7714 16.1452 11.7382 16.0904 11.7155C16.0356 11.6928 15.9768 11.6811 15.9175 11.6811H14.8912L14.7269 11.211H15.895C16.0181 11.211 16.1363 11.163 16.2245 11.0771C16.3127 10.9912 16.3639 10.8743 16.3671 10.7512C16.3674 10.6888 16.3553 10.6271 16.3316 10.5694C16.3078 10.5117 16.2729 10.4594 16.2288 10.4153C16.1847 10.3712 16.1323 10.3363 16.0747 10.3125C16.017 10.2888 15.9553 10.2767 15.8929 10.277H14.3759L13.5548 8.01897C13.4321 7.69635 13.2294 7.41026 12.9657 7.1876C12.7051 6.97332 12.3749 6.86228 12.0378 6.87558C11.6999 6.86484 11.3692 6.97554 11.1059 7.1876C10.842 7.41056 10.6387 7.69651 10.5147 8.01897L9.65458 10.2975H8.14581C8.0253 10.2975 7.9097 10.3453 7.82429 10.4303C7.73889 10.5153 7.69064 10.6307 7.6901 10.7512C7.6901 10.8764 7.73984 10.9965 7.82838 11.085C7.91692 11.1736 8.03701 11.2233 8.16223 11.2233H9.30767L9.13113 11.6811H8.10475C7.98389 11.6811 7.86798 11.7291 7.78252 11.8146C7.69705 11.9 7.64904 12.0159 7.64904 12.1368C7.64904 12.2606 7.69807 12.3793 7.7854 12.467C7.87273 12.5547 7.99124 12.6043 8.11502 12.6048H8.77395L7.6552 15.6306C7.58644 15.8012 7.54822 15.9825 7.5423 16.1664C7.55396 16.4242 7.66593 16.6673 7.85432 16.8438C8.06162 17.0233 8.32728 17.1211 8.60152 17.1188C8.83187 17.1315 9.05957 17.0645 9.24643 16.9292C9.4333 16.7939 9.56798 16.5985 9.6279 16.3757L10.061 15.0846H14.0454L14.4786 16.4065C14.5464 16.6218 14.6842 16.8083 14.8702 16.9363C15.0562 17.0642 15.2796 17.1263 15.5049 17.1127C15.6774 17.1161 15.8477 17.0729 15.9976 16.9875C16.1276 16.8909 16.2431 16.7762 16.3404 16.6467C16.4252 16.501 16.4685 16.3349 16.4656 16.1664C16.4384 15.9872 16.3959 15.8107 16.3384 15.6388V15.6306Z" fill="#FEFEFE"/>
<defs>
<linearGradient id="paint0_linear_8_63" x1="6.16547" y1="5.68097" x2="19.7335" y2="20.3761" gradientUnits="userSpaceOnUse">
<stop stop-color="#FC8F55"/>
<stop offset="0.44" stop-color="#FE7A6A"/>
<stop offset="1" stop-color="#FE687C"/>
</linearGradient>
</defs>
</svg>
