<svg width="24" height="24" viewBox="0 0 24 24" fill="none" xmlns="http://www.w3.org/2000/svg">
<path d="M20.9288 15.78L19.0224 12.5356C18.9555 12.4018 18.7882 12.3684 18.6879 12.4687L17.4504 13.2715C17.35 13.3384 17.3166 13.5056 17.3835 13.6059L18.4872 15.4455C18.5207 15.5124 18.4872 15.5793 18.4538 15.6128L12.032 19.7602C11.9985 19.7936 11.9316 19.7936 11.8982 19.7602L5.54326 15.6128C5.47636 15.5793 5.47636 15.5124 5.50981 15.4455L6.61356 13.6059C6.68045 13.5056 6.647 13.3384 6.54666 13.2715L5.30913 12.4687C5.17534 12.4018 5.04155 12.4353 4.97466 12.5356L3.06819 15.78C2.9344 16.0141 3.00129 16.3151 3.23542 16.4489L11.7644 22.0011C11.9316 22.1014 12.1323 22.1014 12.2995 22.0011L20.8285 16.4489C20.9957 16.2817 21.0626 15.9807 20.9288 15.78Z" fill="black"/>
<path d="M6.2462 10.7296L7.48373 11.5324C7.61752 11.5993 7.75131 11.5658 7.8182 11.4655L11.8318 4.6423C11.8653 4.57541 11.9991 4.57541 12.0325 4.6423L16.0461 11.4655C16.113 11.5993 16.2803 11.6327 16.3806 11.5324L17.6181 10.7296C17.7185 10.6627 17.7519 10.4955 17.685 10.3952L12.969 2.23413C12.8687 2.06689 12.7349 2 12.5342 2H11.397C11.2298 2 11.0625 2.10034 10.9622 2.23413L6.1793 10.3952C6.11241 10.4955 6.14586 10.6627 6.2462 10.7296Z" fill="#2AE7A8"/>
</svg>
