<svg width="24" height="24" viewBox="0 0 24 24" fill="none" xmlns="http://www.w3.org/2000/svg">
<path fill-rule="evenodd" clip-rule="evenodd" d="M9.32751 4.047C9.19663 4.11244 9.19663 4.30876 9.26207 4.43964C9.32751 4.57052 9.52384 4.57052 9.65472 4.57052L10.5055 3.98155C10.6363 3.85067 10.6363 3.71979 10.5709 3.52347C10.5055 3.39258 10.3091 3.39258 10.1782 3.45802L9.32751 4.047ZM17.115 11.9655C17.115 11.8346 16.9186 11.7037 16.7878 11.7692C16.5914 11.7692 16.526 11.9655 16.5914 12.0964L16.8532 13.078C16.8532 13.2089 17.0495 13.3397 17.1804 13.2743C17.3113 13.2743 17.4422 13.078 17.3767 12.9471L17.115 11.9655Z" fill="white"/>
<path fill-rule="evenodd" clip-rule="evenodd" d="M13.6467 7.90797C12.6651 7.71165 11.6181 7.84253 10.7019 8.4315C12.0107 7.97341 13.5158 8.30062 14.5629 9.34768C16.0026 10.8528 16.0026 13.2741 14.5629 14.7139C14.3666 14.9102 14.1703 15.0411 13.9739 15.1719C14.4975 14.9756 15.021 14.7139 15.4136 14.2558C16.4607 13.2087 16.7225 11.7036 16.3298 10.3947C15.2173 10.0021 14.2357 9.08591 13.6467 7.90797Z" fill="#FFAE54"/>
<path d="M19.8636 16.4154C17.5077 20.8 12.0107 22.436 7.69155 20.0147C3.30699 17.6588 1.7364 12.0963 4.09228 7.71177C5.66287 4.83235 8.54228 3.13088 11.618 3C12.0107 3 12.3379 3.19632 12.5342 3.58897C12.7305 3.98162 12.8614 4.50515 12.796 5.02868C12.796 5.225 12.796 5.42132 12.796 5.61765C12.796 6.53382 13.0577 7.45 13.4504 8.2353C11.5526 7.51544 9.39302 8.30074 8.4114 10.1331C7.2989 12.1618 8.08419 14.6485 10.0474 15.761C12.0107 16.8735 14.5629 16.0882 15.6099 14.125C16.1989 13.0125 16.2643 11.7037 15.8063 10.5912C16.5915 10.9838 17.4423 11.1802 18.3585 11.1802C18.882 11.1802 19.3401 11.1147 19.8636 10.9838C20.1254 10.9184 20.4526 10.9184 20.6489 11.0493C20.8452 11.1802 20.9761 11.311 20.9761 11.5074C21.0415 13.1434 20.6489 14.8449 19.8636 16.4154Z" fill="url(#paint0_radial_139_412)" stroke="#AC562A" stroke-width="1.42789"/>
<path fill-rule="evenodd" clip-rule="evenodd" d="M9.06583 7.84265C9.58936 8.10441 10.3092 8.2353 11.2254 7.97353C11.9452 7.84265 12.7305 7.90809 13.4504 8.2353C13.0577 7.45 12.796 6.53382 12.796 5.61765C12.796 5.29044 12.796 4.96324 12.8614 4.70147C12.9269 4.30882 12.8614 3.85074 12.6651 3.52353C12.4688 3.19632 12.207 3 11.8798 3C10.7673 3 9.58936 3.26176 8.47686 3.71985C8.08422 3.91618 7.82245 4.30882 7.69157 4.83235C7.56069 5.35588 7.62613 5.94485 7.88789 6.53382C8.08422 7.05735 8.54231 7.51544 9.06583 7.84265ZM17.5078 14.6485L17.835 14.5176C18.0693 15.1033 17.8319 15.6365 17.6387 16.0704C17.616 16.1213 17.5939 16.1709 17.5733 16.2191V16.2845C17.546 16.3392 17.5187 16.3909 17.4925 16.4405L17.4925 16.4405C17.3935 16.6283 17.3115 16.7836 17.3115 16.939C17.2461 17.2662 17.2461 17.5934 17.3115 17.7897C17.377 17.986 17.5733 18.1823 17.835 18.2478C18.0314 18.3132 18.3586 18.2478 18.7512 17.986C20.3218 16.1537 21.0417 13.7978 20.9108 11.5728C20.9108 11.3765 20.7799 11.1801 20.5836 11.0493C20.3873 10.9184 20.06 10.9184 19.7983 10.9838C19.3402 11.1147 18.8167 11.1801 18.3586 11.1801C17.4424 11.1801 16.5917 10.9838 15.8064 10.5257C16.2645 11.6382 16.199 12.8816 15.6755 13.9941C15.6296 14.1318 15.5515 14.2374 15.4637 14.3559C15.4264 14.4063 15.3873 14.459 15.3483 14.5176C15.61 14.4522 15.8718 14.3213 16.2645 14.0595C16.7225 13.7323 17.3115 14.0595 17.5078 14.6485ZM17.5078 14.6485C17.6809 15.11 17.4979 15.5207 17.3176 15.9253C17.2934 15.9797 17.2693 16.0339 17.246 16.0882L17.246 16.0882C17.123 16.3342 17 16.5803 16.9313 16.8263L17.5078 14.6485ZM16.9188 16.8735L16.9313 16.8263C16.9269 16.842 16.9227 16.8577 16.9188 16.8735Z" fill="#AC562A"/>
<path d="M11.2254 7.97353L11.0977 7.2711L11.0631 7.27739L11.0293 7.28706L11.2254 7.97353ZM9.06583 7.84265L8.68745 8.44807L8.71621 8.46605L8.74655 8.48122L9.06583 7.84265ZM13.4504 8.2353L13.155 8.88525L14.9908 9.71973L14.089 7.91601L13.4504 8.2353ZM12.8614 4.70147L13.554 4.87463L13.561 4.84697L13.5657 4.81884L12.8614 4.70147ZM12.6651 3.52353L13.2773 3.15621L13.2773 3.15621L12.6651 3.52353ZM8.47686 3.71985L8.20503 3.05968L8.18091 3.06962L8.15758 3.08128L8.47686 3.71985ZM7.88789 6.53382L8.55638 6.28314L8.54893 6.26326L8.5403 6.24386L7.88789 6.53382ZM17.835 14.5176L18.4979 14.2525L18.2328 13.5896L17.5699 13.8548L17.835 14.5176ZM17.5078 14.6485L16.8305 14.8743L17.07 15.5926L17.773 15.3114L17.5078 14.6485ZM17.6387 16.0704L18.2909 16.3608V16.3608L17.6387 16.0704ZM17.5733 16.2191L16.9171 15.9379L16.8593 16.0726V16.2191H17.5733ZM17.5733 16.2845L18.2118 16.6038L18.2872 16.4531V16.2845H17.5733ZM17.4925 16.4405L18.1212 16.7789L18.124 16.7736L17.4925 16.4405ZM17.4925 16.4405L16.8639 16.102L16.8611 16.1074L17.4925 16.4405ZM17.3115 16.939L18.0116 17.079L18.0255 17.0097V16.939H17.3115ZM17.835 18.2478L18.0608 17.5705L18.0348 17.5618L18.0082 17.5552L17.835 18.2478ZM18.7512 17.986L19.1472 18.5801L19.2292 18.5254L19.2933 18.4506L18.7512 17.986ZM20.9108 11.5728H20.1968V11.5938L20.1981 11.6147L20.9108 11.5728ZM20.5836 11.0493L20.9796 10.4552L20.9796 10.4552L20.5836 11.0493ZM19.7983 10.9838L19.6251 10.2912L19.6136 10.2941L19.6021 10.2973L19.7983 10.9838ZM15.8064 10.5257L16.1661 9.90903L14.3423 8.84512L15.1462 10.7976L15.8064 10.5257ZM15.6755 13.9941L15.0295 13.6901L15.0115 13.7283L14.9982 13.7683L15.6755 13.9941ZM15.4637 14.3559L14.8899 13.9311L14.8899 13.9311L15.4637 14.3559ZM15.3483 14.5176L14.7542 14.1216L13.7299 15.6582L15.5214 15.2103L15.3483 14.5176ZM16.2645 14.0595L16.6605 14.6536L16.6701 14.6472L16.6794 14.6405L16.2645 14.0595ZM17.3176 15.9253L17.9698 16.2159L17.9698 16.2159L17.3176 15.9253ZM17.5078 14.6485L18.1763 14.3978L17.3904 12.302L16.8176 14.4658L17.5078 14.6485ZM17.246 16.0882L16.5898 15.8069L16.5864 15.8149L16.5831 15.823L17.246 16.0882ZM17.246 16.0882L17.8846 16.4075L17.8979 16.3809L17.9089 16.3533L17.246 16.0882ZM16.9188 16.8735L16.2262 16.7003L17.609 17.0562L16.9188 16.8735ZM11.0293 7.28706C10.2828 7.50032 9.74705 7.38504 9.38512 7.20408L8.74655 8.48122C9.43168 8.82378 10.3356 8.97027 11.4215 8.66L11.0293 7.28706ZM13.7458 7.58534C12.8802 7.19186 11.9454 7.11696 11.0977 7.2711L11.3531 8.67596C11.9451 8.56833 12.5809 8.62432 13.155 8.88525L13.7458 7.58534ZM12.082 5.61765C12.082 6.66504 12.3796 7.69015 12.8118 8.55458L14.089 7.91601C13.7359 7.20985 13.5099 6.40261 13.5099 5.61765H12.082ZM12.1688 4.52831C12.0776 4.89324 12.082 5.31809 12.082 5.61765H13.5099C13.5099 5.26279 13.5144 5.03323 13.554 4.87463L12.1688 4.52831ZM12.0529 3.89085C12.1474 4.04835 12.1998 4.32869 12.1572 4.5841L13.5657 4.81884C13.654 4.28896 13.5754 3.65312 13.2773 3.15621L12.0529 3.89085ZM11.8798 3.71394C11.8911 3.71394 11.8985 3.71461 11.9171 3.72738C11.9428 3.74506 11.9925 3.79022 12.0529 3.89085L13.2773 3.15621C13.0047 2.70184 12.5456 2.28606 11.8798 2.28606V3.71394ZM8.7487 4.38002C9.7897 3.95137 10.8753 3.71394 11.8798 3.71394V2.28606C10.6593 2.28606 9.38903 2.57216 8.20503 3.05968L8.7487 4.38002ZM8.3842 5.00551C8.48315 4.60969 8.6491 4.43195 8.79615 4.35842L8.15758 3.08128C7.51934 3.4004 7.16175 4.00795 6.99894 4.6592L8.3842 5.00551ZM8.5403 6.24386C8.33169 5.77448 8.29832 5.34902 8.3842 5.00551L6.99894 4.6592C6.82305 5.36275 6.92057 6.11523 7.23548 6.82378L8.5403 6.24386ZM9.44422 7.23722C8.99664 6.95748 8.6779 6.60719 8.55638 6.28314L7.21941 6.78451C7.49054 7.50752 8.08797 8.0734 8.68745 8.44807L9.44422 7.23722ZM17.5699 13.8548L17.2427 13.9856L17.773 15.3114L18.1002 15.1805L17.5699 13.8548ZM18.2909 16.3608C18.4677 15.9636 18.8591 15.1553 18.4979 14.2525L17.1722 14.7828C17.2795 15.0512 17.196 15.3093 16.9865 15.78L18.2909 16.3608ZM18.2295 16.5003C18.2478 16.4576 18.2678 16.4127 18.2909 16.3608L16.9865 15.78C16.9642 15.83 16.94 15.8843 16.9171 15.9379L18.2295 16.5003ZM18.2872 16.2845V16.2191H16.8593V16.2845H18.2872ZM18.124 16.7736C18.1497 16.7249 18.1805 16.6665 18.2118 16.6038L16.9347 15.9653C16.9114 16.0119 16.8876 16.057 16.8611 16.1073L18.124 16.7736ZM18.1211 16.779L18.1211 16.7789L16.8639 16.102L16.8639 16.102L18.1211 16.779ZM18.0255 16.939C18.0255 16.9868 18.0128 17.0042 18.0273 16.9683C18.034 16.9514 18.0446 16.928 18.0615 16.894C18.0787 16.8594 18.0984 16.8221 18.124 16.7736L16.8611 16.1074C16.7895 16.243 16.5976 16.5696 16.5976 16.939H18.0255ZM17.9888 17.5639C17.9893 17.5654 17.9764 17.5184 17.9764 17.4134C17.9764 17.3165 17.9874 17.1998 18.0116 17.079L16.6114 16.7989C16.535 17.1809 16.5124 17.65 16.6342 18.0155L17.9888 17.5639ZM18.0082 17.5552C18.0039 17.5541 17.9991 17.5523 17.9939 17.5494C17.9885 17.5465 17.9837 17.543 17.9799 17.5395C17.976 17.536 17.975 17.5341 17.9762 17.5359C17.9769 17.5369 17.9785 17.5395 17.9806 17.5438C17.9828 17.5481 17.9858 17.5547 17.9888 17.5639L16.6342 18.0155C16.78 18.4528 17.1731 18.8182 17.6619 18.9404L18.0082 17.5552ZM18.3552 17.392C18.2095 17.4891 18.1013 17.5325 18.0378 17.5492C17.9667 17.5679 17.9857 17.5454 18.0608 17.5705L17.6093 18.9251C18.1233 19.0964 18.6944 18.882 19.1472 18.5801L18.3552 17.392ZM20.1981 11.6147C20.3186 13.6631 19.6543 15.8353 18.2092 17.5214L19.2933 18.4506C20.9893 16.472 21.7648 13.9325 21.6235 11.5309L20.1981 11.6147ZM20.1875 11.6433C20.2119 11.6595 20.22 11.6721 20.2185 11.6698C20.217 11.6675 20.1968 11.6346 20.1968 11.5728H21.6247C21.6247 11.0622 21.3022 10.6703 20.9796 10.4552L20.1875 11.6433ZM19.9714 11.6764C20.0397 11.6594 20.1143 11.6521 20.1735 11.6556C20.2019 11.6573 20.218 11.6609 20.2232 11.6623C20.2288 11.6639 20.2136 11.6607 20.1876 11.6433L20.9796 10.4552C20.7377 10.294 20.4673 10.2425 20.2574 10.2302C20.0386 10.2173 19.8186 10.2428 19.6251 10.2912L19.9714 11.6764ZM18.3586 11.8941C18.8765 11.8941 19.4666 11.8211 19.9944 11.6703L19.6021 10.2973C19.2138 10.4083 18.7568 10.4662 18.3586 10.4662V11.8941ZM15.4466 11.1424C16.3568 11.6733 17.3354 11.8941 18.3586 11.8941V10.4662C17.5494 10.4662 16.8266 10.2943 16.1661 9.90903L15.4466 11.1424ZM16.3215 14.2981C16.9227 13.0205 17.0076 11.5679 16.4665 10.2539L15.1462 10.7976C15.5213 11.7086 15.4753 12.7427 15.0295 13.6901L16.3215 14.2981ZM16.0375 14.7807C16.1163 14.6743 16.2655 14.4817 16.3528 14.2199L14.9982 13.7683C14.997 13.7719 14.9934 13.782 14.9786 13.8058C14.9605 13.835 14.9371 13.8673 14.8899 13.9311L16.0375 14.7807ZM15.9423 14.9137C15.9702 14.8718 15.9991 14.8325 16.0375 14.7807L14.8899 13.9311C14.8537 13.98 14.8045 14.0463 14.7542 14.1216L15.9423 14.9137ZM15.8684 13.4655C15.5008 13.7106 15.3193 13.789 15.1751 13.825L15.5214 15.2103C15.9008 15.1154 16.2428 14.932 16.6605 14.6536L15.8684 13.4655ZM18.1851 14.4227C18.0343 13.9703 17.7214 13.5808 17.3036 13.3719C16.8668 13.1535 16.3187 13.1434 15.8495 13.4786L16.6794 14.6405C16.6853 14.6363 16.6768 14.6429 16.66 14.6438C16.6465 14.6444 16.6477 14.6404 16.665 14.649C16.7053 14.6692 16.785 14.7378 16.8305 14.8743L18.1851 14.4227ZM17.9698 16.2159C18.1305 15.8552 18.4671 15.1732 18.1763 14.3978L16.8393 14.8991C16.8947 15.0468 16.8654 15.1862 16.6655 15.6348L17.9698 16.2159ZM17.9022 16.3694C17.9232 16.3206 17.9452 16.271 17.9698 16.2159L16.6655 15.6348C16.6416 15.6884 16.6154 15.7472 16.5898 15.8069L17.9022 16.3694ZM17.9089 16.3533L17.9089 16.3533L16.5831 15.823L16.5831 15.823L17.9089 16.3533ZM17.619 17.0183C17.6658 16.8504 17.7546 16.6674 17.8846 16.4075L16.6074 15.7689C16.4914 16.0011 16.3341 16.3101 16.2436 16.6344L17.619 17.0183ZM16.8176 14.4658L16.2411 16.6436L17.6215 17.009L18.198 14.8312L16.8176 14.4658ZM17.609 17.0562L17.6215 17.009L16.2411 16.6436L16.2286 16.6908L17.609 17.0562ZM16.2436 16.6344C16.2376 16.6561 16.2317 16.6781 16.2262 16.7003L17.6114 17.0466C17.6137 17.0374 17.6162 17.028 17.619 17.0183L16.2436 16.6344Z" fill="#AC562A"/>
<ellipse cx="5.13942" cy="10.0021" rx="0.458088" ry="0.458089" fill="#AC562A"/>
<ellipse cx="11.9452" cy="18.1823" rx="0.45809" ry="0.458092" fill="#AC562A"/>
<circle cx="9.06587" cy="18.575" r="0.785293" fill="#AC562A"/>
<defs>
<radialGradient id="paint0_radial_139_412" cx="0" cy="0" r="1" gradientUnits="userSpaceOnUse" gradientTransform="translate(11.9689 12.0831) rotate(90) scale(9.40909 9.32978)">
<stop offset="0.3335" stop-color="#F7B450"/>
<stop offset="0.6477" stop-color="#FFC977"/>
<stop offset="1" stop-color="#FF9900"/>
</radialGradient>
</defs>
</svg>
