<svg width="25" height="24" viewBox="0 0 25 24" fill="none" xmlns="http://www.w3.org/2000/svg">
<path fill-rule="evenodd" clip-rule="evenodd" d="M19.3312 18.3502C19.2769 18.2898 19.1833 18.2858 19.1239 18.3422L19.1219 18.3452C19.0625 18.4016 19.0615 18.4952 19.1198 18.5526L22.3692 21.7536L19.3312 18.3502Z" fill="black"/>
<path fill-rule="evenodd" clip-rule="evenodd" d="M18.1054 13.3344L18.1024 13.3374C18.043 13.3938 18.043 13.4874 18.1003 13.5447L21.4886 16.8776L18.3127 13.3424C18.2584 13.282 18.1648 13.278 18.1054 13.3344Z" fill="black"/>
<path fill-rule="evenodd" clip-rule="evenodd" d="M15.3353 12.669L13.2331 10.6149C13.2014 11.6989 13.0309 13.9374 12.5977 14.9844C12.5909 15.0006 12.5814 15.0172 12.5737 15.0335C12.8798 15.2285 13.5238 15.6053 13.78 15.6053C14.0999 15.6044 14.7378 15.2509 14.9685 15.0293C15.1688 14.8354 15.381 14.4467 15.5862 14.0707C15.7517 13.7675 15.9229 13.4538 16.1009 13.2132C16.2075 13.0694 16.3062 12.964 16.4027 12.8908C16.6028 12.7404 16.9329 12.6194 17.2823 12.4912C17.7499 12.3198 18.2799 12.1254 18.4412 11.8616C18.6028 11.5978 18.5077 10.6832 18.4428 10.2482C18.0011 10.2963 16.2084 10.4296 14.9164 9.60008C14.3014 9.20483 13.3953 8.34081 12.9764 7.92902C13.1267 8.81269 13.2252 9.72615 13.2347 10.3399L15.3353 12.669Z" fill="#FECD0F"/>
<path fill-rule="evenodd" clip-rule="evenodd" d="M15.1983 18.7941L15.1962 18.7962C15.1369 18.8525 15.1359 18.9471 15.1943 19.0035L18.4557 22.2196L15.4057 18.8022C15.3513 18.7418 15.2577 18.7378 15.1983 18.7941Z" fill="black"/>
<path fill-rule="evenodd" clip-rule="evenodd" d="M15.8254 15.8881C15.7892 15.8881 15.754 15.9012 15.7258 15.9283C15.6664 15.9847 15.6654 16.0793 15.7248 16.1367L18.0158 18.3442L15.9342 15.9384C15.9059 15.9052 15.8657 15.8881 15.8254 15.8881Z" fill="black"/>
<path fill-rule="evenodd" clip-rule="evenodd" d="M12.5449 18.2174V18.4751L13.0342 18.1002C13.0787 18.0662 13.1384 18.0581 13.1903 18.0793C13.2423 18.1006 13.2779 18.1467 13.2858 18.2023C13.3018 18.4567 13.3629 19.1425 13.4595 19.3495C13.5505 19.5441 13.8803 19.9282 14.3882 20.4308C14.4026 20.4451 14.4183 20.4424 14.4262 20.4394C14.4345 20.4365 14.4487 20.4285 14.4508 20.4082C14.4738 20.2909 14.4925 20.1505 14.4861 20.1142C14.3691 19.467 13.3864 17.8242 13.1906 17.5015C13.1781 17.481 13.1603 17.4645 13.1381 17.4528L12.3173 17.021V17.3454L12.5449 17.5278V18.2174Z" fill="#FECD0F"/>
<path fill-rule="evenodd" clip-rule="evenodd" d="M11.1084 19.7907H11.1074C11.048 19.847 11.047 19.9416 11.1053 19.999L13.486 22.3202L11.3167 19.8017C11.2624 19.7392 11.1678 19.7342 11.1084 19.7907Z" fill="black"/>
<mask id="mask0_27_21417" style="mask-type:alpha" maskUnits="userSpaceOnUse" x="3" y="1" width="11" height="18">
<path d="M11.2934 11.3388L11.5196 11.5991L11.3355 11.6243C11.037 11.665 10.5709 11.7676 10.4695 11.8679C10.3321 12.004 10.1981 12.6055 10.146 12.9527L10.142 12.9788L10.1258 12.9997C10.0362 13.1145 9.72675 13.49 9.50612 13.4993C9.50238 13.4995 9.49857 13.4995 9.49477 13.4995C9.35558 13.4995 9.19586 13.3932 9.00838 13.178C8.8297 13.1668 8.40517 13.1107 8.25578 12.8346C8.1692 12.6746 8.32734 12.3182 8.40688 12.1587C8.40422 12.138 8.4027 12.1172 8.4027 12.0962C8.40618 11.8822 8.62644 11.4722 8.82755 11.3711C8.972 11.2979 9.18794 11.3211 9.41668 11.3456C9.61906 11.3672 9.84832 11.3918 9.93572 11.3262C10.067 11.2283 10.1299 10.6381 10.131 10.27L10.1318 10.0017L10.6255 10.57C10.7189 10.3381 10.8208 10.0404 10.8108 9.92673C10.7964 9.76942 10.5408 9.34209 10.3829 9.10993L10.5494 8.99666C10.5943 9.06264 10.9875 9.64785 11.0114 9.90879C11.0292 10.1123 10.8449 10.5703 10.7731 10.7398L11.1573 11.1821C11.3445 10.9121 11.6626 10.4134 11.6743 10.2052C11.6891 9.93161 11.3616 9.23618 11.0768 8.72361C11.0606 8.69332 11.0514 8.6776 11.0509 8.67652L11.2243 8.57441C11.2243 8.57441 11.2352 8.59286 11.2536 8.62746C11.4042 8.89836 11.8967 9.81841 11.8753 10.2163C11.8585 10.5135 11.4417 11.1286 11.2934 11.3388ZM7.71215 7.86846C7.63058 8.02254 7.53696 8.17346 7.41115 8.30535C7.39201 8.3245 7.37192 8.34465 7.35075 8.36271C7.44138 8.34465 7.54806 8.3527 7.63463 8.44727C7.72521 8.54697 7.70809 8.91636 7.59134 8.98278C7.42123 9.07741 6.94409 8.70396 6.81726 8.60128C6.71661 8.62645 6.61596 8.6466 6.51328 8.66169C6.45687 8.66974 6.40654 8.62848 6.40154 8.57213C6.39748 8.51876 6.43779 8.47243 6.4911 8.46742C6.62502 8.45633 6.7599 8.43624 6.88971 8.406C6.97026 8.38693 7.04981 8.36474 7.12327 8.33356C7.19673 8.30434 7.26214 8.26612 7.3266 8.21275C7.45343 8.11007 7.56117 7.97621 7.65878 7.83633C7.75544 7.69536 7.84297 7.54635 7.91846 7.39037C7.86211 7.55447 7.79265 7.71349 7.71215 7.86846ZM4.92182 7.23331C4.34707 7.23331 3.88102 6.76726 3.88102 6.19353C3.88102 5.61878 4.34707 5.15267 4.92182 5.15267C5.02247 5.15267 5.12014 5.16781 5.21274 5.19494C5.17649 5.06412 5.1564 4.9262 5.1564 4.78429C5.1564 3.91253 5.86203 3.20696 6.73372 3.20696C7.6044 3.20696 8.31003 3.91253 8.31003 4.78429C8.31003 5.65497 7.6044 6.3606 6.73372 6.3606C6.45186 6.3606 6.18813 6.28613 5.95964 6.15727C5.96065 6.16938 5.96167 6.18142 5.96167 6.19353C5.96167 6.76726 5.49562 7.23331 4.92182 7.23331ZM13.034 10.5188H13.1347L13.0622 10.4484L13.1347 10.379L13.034 10.38C13.0275 9.70534 12.9053 8.63424 12.7226 7.65138C12.6497 7.25309 12.5715 6.90049 12.4962 6.63137C11.92 4.56638 10.3726 2.94558 8.13941 2.06754C7.46667 1.80343 5.92522 1.80235 5.37868 2.15133C2.73786 3.83533 3.46986 6.52451 3.7104 7.40824C3.94542 8.27303 4.65054 9.40934 5.86418 9.76606L6.6602 9.84142L5.98283 9.90024C5.99754 9.96508 5.98575 10.043 5.96116 10.1197L6.33911 10.1364L5.92947 10.2045C5.89518 10.2844 5.85474 10.3538 5.82932 10.3883C5.74819 10.4974 5.60888 10.618 5.46152 10.7456C5.28107 10.9019 5.07653 11.0791 5.0129 11.2141C4.99192 11.2586 4.971 11.3098 4.94907 11.3706C4.81977 11.7367 4.74777 12.2897 4.74663 12.9269C4.74467 13.7212 4.85375 14.5397 5.02456 15.0124C5.22314 15.563 6.18616 16.4128 6.71376 16.6952C6.84787 16.7667 7.04436 16.828 7.29757 16.8775L7.27798 16.9776L7.27957 16.976L7.29884 16.8785C7.83955 16.9853 8.52781 17.0147 8.93891 16.9975C9.30716 16.982 10.4128 16.669 10.7622 16.5678L10.5109 15.9534L10.6972 15.8772L11.5801 18.0353L12.3435 18.1068V17.6245L11.6466 17.0656L11.3241 15.5589L11.5208 15.5166L11.6364 16.0563C11.8606 15.7643 12.1997 15.3077 12.3558 15.0216C12.3773 14.9828 12.3965 14.9435 12.4117 14.9071C12.8088 13.9474 13.0009 11.7843 13.0331 10.5646L13.034 10.5188Z" fill="white"/>
</mask>
<g mask="url(#mask0_27_21417)">
<path fill-rule="evenodd" clip-rule="evenodd" d="M11.2934 11.3388L11.5196 11.5991L11.3355 11.6243C11.037 11.665 10.5709 11.7676 10.4695 11.8679C10.3321 12.004 10.1981 12.6055 10.146 12.9527L10.142 12.9788L10.1258 12.9997C10.0362 13.1145 9.72675 13.49 9.50612 13.4993C9.50238 13.4995 9.49857 13.4995 9.49477 13.4995C9.35558 13.4995 9.19586 13.3932 9.00838 13.178C8.8297 13.1668 8.40517 13.1107 8.25578 12.8346C8.1692 12.6746 8.32734 12.3182 8.40688 12.1587C8.40422 12.138 8.4027 12.1172 8.4027 12.0962C8.40618 11.8822 8.62644 11.4722 8.82755 11.3711C8.972 11.2979 9.18794 11.3211 9.41668 11.3456C9.61906 11.3672 9.84832 11.3918 9.93572 11.3262C10.067 11.2283 10.1299 10.6381 10.131 10.27L10.1318 10.0017L10.6255 10.57C10.7189 10.3381 10.8208 10.0404 10.8108 9.92673C10.7964 9.76942 10.5408 9.34209 10.3829 9.10993L10.5494 8.99666C10.5943 9.06264 10.9875 9.64785 11.0114 9.90879C11.0292 10.1123 10.8449 10.5703 10.7731 10.7398L11.1573 11.1821C11.3445 10.9121 11.6626 10.4134 11.6743 10.2052C11.6891 9.93161 11.3616 9.23618 11.0768 8.72361C11.0606 8.69332 11.0514 8.6776 11.0509 8.67652L11.2243 8.57441C11.2243 8.57441 11.2352 8.59286 11.2536 8.62746C11.4042 8.89836 11.8967 9.81841 11.8753 10.2163C11.8585 10.5135 11.4417 11.1286 11.2934 11.3388ZM7.71215 7.86846C7.63058 8.02254 7.53696 8.17346 7.41115 8.30535C7.39201 8.3245 7.37192 8.34465 7.35075 8.36271C7.44138 8.34465 7.54806 8.3527 7.63463 8.44727C7.72521 8.54697 7.70809 8.91636 7.59134 8.98278C7.42123 9.07741 6.94409 8.70396 6.81726 8.60128C6.71661 8.62645 6.61596 8.6466 6.51328 8.66169C6.45687 8.66974 6.40654 8.62848 6.40154 8.57213C6.39748 8.51876 6.43779 8.47243 6.4911 8.46742C6.62502 8.45633 6.7599 8.43624 6.88971 8.406C6.97026 8.38693 7.04981 8.36474 7.12327 8.33356C7.19673 8.30434 7.26214 8.26612 7.3266 8.21275C7.45343 8.11007 7.56117 7.97621 7.65878 7.83633C7.75544 7.69536 7.84297 7.54635 7.91846 7.39037C7.86211 7.55447 7.79265 7.71349 7.71215 7.86846ZM4.92182 7.23331C4.34707 7.23331 3.88102 6.76726 3.88102 6.19353C3.88102 5.61878 4.34707 5.15267 4.92182 5.15267C5.02247 5.15267 5.12014 5.16781 5.21274 5.19494C5.17649 5.06412 5.1564 4.9262 5.1564 4.78429C5.1564 3.91253 5.86203 3.20696 6.73372 3.20696C7.6044 3.20696 8.31003 3.91253 8.31003 4.78429C8.31003 5.65497 7.6044 6.3606 6.73372 6.3606C6.45186 6.3606 6.18813 6.28613 5.95964 6.15727C5.96065 6.16938 5.96167 6.18142 5.96167 6.19353C5.96167 6.76726 5.49562 7.23331 4.92182 7.23331ZM13.034 10.5188H13.1347L13.0622 10.4484L13.1347 10.379L13.034 10.38C13.0275 9.70534 12.9053 8.63424 12.7226 7.65138C12.6497 7.25309 12.5715 6.90049 12.4962 6.63137C11.92 4.56638 10.3726 2.94558 8.13941 2.06754C7.46667 1.80343 5.92522 1.80235 5.37868 2.15133C2.73786 3.83533 3.46986 6.52451 3.7104 7.40824C3.94542 8.27303 4.65054 9.40934 5.86418 9.76606L6.6602 9.84142L5.98283 9.90024C5.99754 9.96508 5.98575 10.043 5.96116 10.1197L6.33911 10.1364L5.92947 10.2045C5.89518 10.2844 5.85474 10.3538 5.82932 10.3883C5.74819 10.4974 5.60888 10.618 5.46152 10.7456C5.28107 10.9019 5.07653 11.0791 5.0129 11.2141C4.99192 11.2586 4.971 11.3098 4.94907 11.3706C4.81977 11.7367 4.74777 12.2897 4.74663 12.9269C4.74467 13.7212 4.85375 14.5397 5.02456 15.0124C5.22314 15.563 6.18616 16.4128 6.71376 16.6952C6.84787 16.7667 7.04436 16.828 7.29757 16.8775L7.27798 16.9776L7.27957 16.976L7.29884 16.8785C7.83955 16.9853 8.52781 17.0147 8.93891 16.9975C9.30716 16.982 10.4128 16.669 10.7622 16.5678L10.5109 15.9534L10.6972 15.8772L11.5801 18.0353L12.3435 18.1068V17.6245L11.6466 17.0656L11.3241 15.5589L11.5208 15.5166L11.6364 16.0563C11.8606 15.7643 12.1997 15.3077 12.3558 15.0216C12.3773 14.9828 12.3965 14.9435 12.4117 14.9071C12.8088 13.9474 13.0009 11.7843 13.0331 10.5646L13.034 10.5188Z" fill="url(#paint0_linear_27_21417)"/>
</g>
<mask id="mask1_27_21417" style="mask-type:alpha" maskUnits="userSpaceOnUse" x="6" y="16" width="3" height="3">
<path d="M6.81365 16.9573C6.91056 17.3277 7.0874 17.9251 7.23191 18.1101C7.37357 18.2905 7.90965 18.6031 8.22866 18.7758V17.6249C8.05264 17.6338 7.73833 17.6376 7.60846 17.5683C7.4727 17.4948 7.29225 17.2013 7.21397 17.0657C7.06135 17.0342 6.92717 16.998 6.81365 16.9573Z" fill="white"/>
</mask>
<g mask="url(#mask1_27_21417)">
<path fill-rule="evenodd" clip-rule="evenodd" d="M6.81365 16.9573C6.91056 17.3277 7.0874 17.9251 7.23191 18.1101C7.37357 18.2905 7.90965 18.6031 8.22866 18.7758V17.6249C8.05264 17.6338 7.73833 17.6376 7.60846 17.5683C7.4727 17.4948 7.29225 17.2013 7.21397 17.0657C7.06135 17.0342 6.92717 16.998 6.81365 16.9573Z" fill="#356C00"/>
</g>
<path fill-rule="evenodd" clip-rule="evenodd" d="M10.0563 11.4875C9.90567 11.6003 9.65778 11.5737 9.39525 11.5457C9.29415 11.5349 9.18539 11.5233 9.09323 11.5233C9.02079 11.5233 8.95861 11.5305 8.91824 11.551C8.79439 11.6132 8.60658 11.9402 8.60405 12.0979C8.60405 12.1194 8.60678 12.1426 8.61229 12.1651L8.61273 12.1672C8.66711 12.4136 8.96387 12.7999 9.06135 12.9267C9.0803 12.9515 9.10407 12.9819 9.13158 13.0133C9.35735 13.2822 9.46807 13.2973 9.49774 13.2982C9.58115 13.2947 9.79513 13.0913 9.95098 12.8962C9.97887 12.7194 10.1126 11.9382 10.328 11.7248C10.4674 11.5869 10.8764 11.497 11.1269 11.4532L10.3241 10.5303C10.3056 10.8523 10.246 11.3461 10.0563 11.4875Z" fill="#FECD0F"/>
<path fill-rule="evenodd" clip-rule="evenodd" d="M8.83805 17.6184H8.42975V18.583L9.76083 19.9019L8.83805 17.6184Z" fill="#FECD0F"/>
<path fill-rule="evenodd" clip-rule="evenodd" d="M8.43347 12.7398C8.49634 12.8517 8.66496 12.9179 8.84285 12.9518C8.72355 12.7974 8.59334 12.6142 8.50555 12.4415C8.44985 12.5811 8.41808 12.7031 8.43347 12.7398Z" fill="#FECD0F"/>
<path fill-rule="evenodd" clip-rule="evenodd" d="M5.37492 4.78424C5.37492 4.36648 5.71211 4.02929 6.12986 4.02929C6.5466 4.02929 6.8848 4.36648 6.8848 4.78424C6.8848 5.20091 6.5466 5.53918 6.12986 5.53918C5.71211 5.53918 5.37492 5.20091 5.37492 4.78424ZM4.78705 6.72994C4.49112 6.72994 4.25052 6.4894 4.25052 6.19347C4.25052 5.89653 4.49112 5.65593 4.78705 5.65593C5.08399 5.65593 5.32459 5.89653 5.32459 6.19347C5.32459 6.4894 5.08399 6.72994 4.78705 6.72994ZM6.73383 6.36055C7.60451 6.36055 8.31014 5.65492 8.31014 4.78424C8.31014 3.91248 7.60451 3.20691 6.73383 3.20691C5.86213 3.20691 5.1565 3.91248 5.1565 4.78424C5.1565 4.92615 5.17659 5.06407 5.21285 5.19489C5.12025 5.16776 5.02257 5.15261 4.92192 5.15261C4.34717 5.15261 3.88113 5.61872 3.88113 6.19347C3.88113 6.76721 4.34717 7.23326 4.92192 7.23326C5.49572 7.23326 5.96177 6.76721 5.96177 6.19347C5.96177 6.18137 5.96076 6.16932 5.95974 6.15722C6.18823 6.28607 6.45197 6.36055 6.73383 6.36055Z" fill="white"/>
<path fill-rule="evenodd" clip-rule="evenodd" d="M7.3266 8.2127C7.26214 8.26607 7.19673 8.30429 7.12327 8.33351C7.04981 8.36469 6.97027 8.38688 6.88971 8.40595C6.7599 8.43619 6.62503 8.45628 6.4911 8.46737C6.4378 8.47238 6.39749 8.51871 6.40154 8.57208C6.40655 8.62843 6.45687 8.66969 6.51328 8.66164C6.61596 8.64655 6.71661 8.6264 6.81726 8.60123C6.8565 8.59122 6.89478 8.58114 6.93306 8.57005C7.01857 8.54387 7.10413 8.5137 7.18773 8.47339C7.24712 8.44525 7.30144 8.40595 7.35075 8.36266C7.37192 8.3446 7.39201 8.32444 7.41115 8.3053C7.53697 8.1734 7.63058 8.02249 7.71216 7.86841C7.79265 7.71344 7.86212 7.55442 7.91846 7.39032C7.84298 7.5463 7.75545 7.69531 7.65879 7.83628C7.56118 7.97616 7.45343 8.11002 7.3266 8.2127Z" fill="black"/>
<path fill-rule="evenodd" clip-rule="evenodd" d="M6.93318 8.57016C6.8949 8.58125 6.85662 8.59133 6.81738 8.60135C6.94421 8.70403 7.42135 9.07747 7.59147 8.98284C7.70822 8.91642 7.72533 8.54703 7.63476 8.44733C7.54818 8.35276 7.44151 8.34471 7.35087 8.36278C7.30156 8.40607 7.24724 8.44536 7.18785 8.47351C7.10425 8.51382 7.01868 8.54399 6.93318 8.57016Z" fill="#CA1117"/>
<path fill-rule="evenodd" clip-rule="evenodd" d="M6.88468 4.7843C6.88468 4.36655 6.54647 4.02936 6.12974 4.02936C5.71199 4.02936 5.37479 4.36655 5.37479 4.7843C5.37479 5.20098 5.71199 5.53925 6.12974 5.53925C6.54647 5.53925 6.88468 5.20098 6.88468 4.7843Z" fill="black"/>
<path fill-rule="evenodd" clip-rule="evenodd" d="M4.78706 5.65601C4.49113 5.65601 4.25053 5.8966 4.25053 6.19355C4.25053 6.48948 4.49113 6.73001 4.78706 6.73001C5.08401 6.73001 5.32461 6.48948 5.32461 6.19355C5.32461 5.8966 5.08401 5.65601 4.78706 5.65601Z" fill="black"/>
<path fill-rule="evenodd" clip-rule="evenodd" d="M3.85441 11.1168C3.77518 11.1212 3.72334 11.1474 3.69614 11.1972C3.61134 11.3522 3.75712 11.7188 3.92178 12.0101L3.9285 12.0219C3.93218 12.0287 3.93522 12.0346 3.93839 12.0389C3.9505 12.0582 3.95525 12.0677 3.95525 12.0677L3.86525 12.1128C3.86474 12.112 3.86144 12.1055 3.85523 12.0954C3.85238 12.092 3.84674 12.0822 3.84034 12.0706L3.83508 12.0611C3.67212 11.7967 3.43856 11.5218 3.27617 11.5448C3.16766 11.5597 3.10187 11.7138 3.06575 11.8403C3.05339 11.8838 3.12418 11.9801 3.17584 12.0502C3.22015 12.1105 3.26198 12.1674 3.27852 12.2174C3.29614 12.2692 3.30083 12.3428 3.30577 12.4208C3.31161 12.5131 3.3182 12.6178 3.34799 12.662C3.41162 12.7537 3.58732 12.9328 3.70565 12.9328C3.70635 12.9328 3.70711 12.9328 3.70787 12.9328C3.7445 12.9324 3.82018 12.8435 3.8655 12.7639L3.99797 12.5311L3.95899 12.7962C3.94289 12.9057 3.95132 13.0252 3.97642 13.0419C4.11421 13.1354 4.38897 13.0167 4.5454 12.9287C4.5454 12.928 4.54534 12.9271 4.54534 12.9264C4.54641 12.2981 4.61626 11.7467 4.74138 11.3605C4.64707 11.3141 4.41103 11.2003 4.31665 11.1745C4.20574 11.1436 3.97072 11.1113 3.85441 11.1168Z" fill="#FECD0F"/>
<path fill-rule="evenodd" clip-rule="evenodd" d="M12.3558 15.0216C12.1998 15.3077 11.8606 15.7643 11.6364 16.0563L11.5209 15.5166L11.3241 15.5589L11.6466 17.0656L12.3435 17.6245V18.1068L11.5801 18.0352L10.6972 15.8772L10.5109 15.9534L10.7623 16.5678C10.4128 16.669 9.3072 16.982 8.93895 16.9975C8.52785 17.0147 7.83959 16.9853 7.29887 16.8785L7.27961 16.9759L7.27802 16.9776L7.29761 16.8774C7.04439 16.828 6.84791 16.7667 6.71379 16.6952C6.1862 16.4128 5.22317 15.563 5.0246 15.0124C4.85378 14.5397 4.7447 13.7212 4.74667 12.9268C4.74781 12.2897 4.81981 11.7367 4.94911 11.3706C4.97104 11.3098 4.99196 11.2586 5.01294 11.2141C5.07657 11.0791 5.28111 10.9019 5.46155 10.7456C5.60892 10.618 5.74823 10.4973 5.82936 10.3883C5.85478 10.3538 5.89521 10.2844 5.9295 10.2045L6.33914 10.1364L5.96119 10.1197C5.98579 10.043 5.99758 9.96506 5.98287 9.90022L6.66024 9.8414L5.86422 9.76604C4.65058 9.40933 3.94546 8.27302 3.71043 7.40823C3.4699 6.52449 2.7379 3.83532 5.37871 2.15132C5.92526 1.80234 7.46671 1.80342 8.13945 2.06753C10.3727 2.94556 11.92 4.56637 12.4963 6.63136C12.5715 6.90048 12.6497 7.25307 12.7227 7.65136C12.9053 8.63423 13.0275 9.70532 13.0341 10.38L13.1347 10.3789L13.0622 10.4484L13.1347 10.5188H13.0341L13.0331 10.5646C13.0009 11.7843 12.8089 13.9474 12.4118 14.9071C12.3965 14.9435 12.3773 14.9828 12.3558 15.0216ZM12.3173 17.021L13.1381 17.4528C13.1603 17.4645 13.1781 17.481 13.1906 17.5015C13.3864 17.8242 14.3691 19.4671 14.4861 20.1142C14.4925 20.1506 14.4738 20.2909 14.4508 20.4082C14.4487 20.4286 14.4346 20.4365 14.4262 20.4395C14.4183 20.4424 14.4026 20.4451 14.3882 20.4308C13.8803 19.9282 13.5505 19.5441 13.4595 19.3495C13.3629 19.1425 13.3019 18.4567 13.2858 18.2023C13.278 18.1467 13.2423 18.1006 13.1903 18.0794C13.1385 18.0581 13.0787 18.0662 13.0342 18.1002L12.5449 18.4751V17.5278L12.3173 17.3454V17.021ZM7.60837 17.5683C7.73824 17.6376 8.05255 17.6337 8.22856 17.6249V18.7758C7.90956 18.603 7.37347 18.2904 7.23182 18.1101C7.0873 17.9251 6.91047 17.3277 6.81356 16.9572C6.92707 16.998 7.06125 17.0342 7.21388 17.0657C7.29216 17.2013 7.4726 17.4947 7.60837 17.5683ZM4.54537 12.9263C4.54537 12.9271 4.54543 12.9279 4.54543 12.9286C4.389 13.0167 4.11424 13.1354 3.97645 13.0418C3.95135 13.0251 3.94292 12.9057 3.95902 12.7962L3.998 12.5311L3.86553 12.7639C3.82021 12.8434 3.74453 12.9324 3.7079 12.9327C3.70714 12.9327 3.70638 12.9327 3.70568 12.9327C3.58735 12.9327 3.41165 12.7537 3.34802 12.662C3.31823 12.6178 3.31163 12.513 3.3058 12.4207C3.30086 12.3427 3.29617 12.2692 3.27855 12.2173C3.26201 12.1674 3.22017 12.1104 3.17587 12.0502C3.12421 11.98 3.05342 11.8838 3.06578 11.8402C3.1019 11.7137 3.16769 11.5597 3.2762 11.5447C3.43859 11.5217 3.67215 11.7966 3.83511 12.0611L3.84037 12.0706C3.84677 12.0822 3.85241 12.092 3.85526 12.0954C3.86147 12.1054 3.86477 12.1119 3.86528 12.1128L3.95528 12.0677C3.95528 12.0677 3.95053 12.0581 3.93842 12.0389C3.93525 12.0346 3.93221 12.0287 3.92853 12.0219L3.92181 12.01C3.75715 11.7187 3.61137 11.3522 3.69617 11.1971C3.72336 11.1474 3.77521 11.1212 3.85444 11.1167C3.97074 11.1113 4.20577 11.1436 4.31668 11.1745C4.41106 11.2003 4.64709 11.3141 4.74141 11.3604C4.61629 11.7467 4.54644 12.2981 4.54537 12.9263ZM14.9164 9.60005C16.2084 10.4296 18.0011 10.2962 18.4427 10.2481C18.5077 10.6831 18.6027 11.5978 18.4411 11.8615C18.2799 12.1254 17.7499 12.3198 17.2822 12.4912C16.9328 12.6193 16.6027 12.7404 16.4027 12.8908C16.3062 12.964 16.2074 13.0694 16.1008 13.2131C15.9228 13.4537 15.7517 13.7674 15.5861 14.0707C15.3809 14.4467 15.1688 14.8354 14.9685 15.0293C14.7377 15.2509 14.0999 15.6044 13.7799 15.6052C13.5238 15.6052 12.8798 15.2285 12.5737 15.0335C12.5813 15.0172 12.5908 15.0005 12.5976 14.9844C13.0308 13.9374 13.2013 11.6988 13.233 10.6149L15.3352 12.669L13.2347 10.3399C13.2252 9.72611 13.1266 8.81265 12.9764 7.92898C13.3953 8.34077 14.3014 9.2048 14.9164 9.60005ZM8.42986 17.6185H8.83817L9.76095 19.902L8.42986 18.5831V17.6185ZM13.7803 15.8066C14.1632 15.8055 14.8496 15.4224 15.1082 15.1743C15.3308 14.9589 15.5407 14.5743 15.7629 14.1671C15.9251 13.8698 16.0929 13.5623 16.2626 13.3329C16.3575 13.2048 16.4432 13.1127 16.524 13.0514C16.7 12.9192 17.0165 12.8031 17.3516 12.6802C17.8744 12.4885 18.4151 12.2902 18.6128 11.9667C18.8581 11.5667 18.6508 10.2667 18.6263 10.1198L18.6102 10.0229L18.5129 10.0367C18.492 10.0397 16.4135 10.3222 15.0252 9.43069C14.2928 8.96008 13.0884 7.75854 12.9149 7.58405C12.8425 7.19292 12.7649 6.84508 12.6902 6.57716C12.0965 4.44994 10.5065 2.78191 8.21297 1.88017C7.56349 1.62519 5.91936 1.56726 5.27039 1.98165C2.50472 3.74525 3.266 6.54211 3.51617 7.46109C3.76368 8.37157 4.50746 9.56702 5.78962 9.95302C5.79627 10.0068 5.73727 10.1738 5.66761 10.2685C5.59979 10.3596 5.46865 10.4731 5.32972 10.5935C5.12468 10.7711 4.91273 10.9547 4.83084 11.1283C4.81201 11.1682 4.79332 11.2141 4.77424 11.2644C4.67105 11.2138 4.44307 11.1047 4.34356 11.0774C4.22491 11.0445 3.97784 11.0097 3.84911 11.0163C3.7337 11.0227 3.6525 11.0673 3.60788 11.1489C3.54222 11.2688 3.57188 11.4499 3.63438 11.6298C3.51813 11.5121 3.38776 11.427 3.26245 11.445C3.1322 11.463 3.03345 11.5867 2.96899 11.8127C2.94307 11.9037 3.0202 12.0085 3.0948 12.1098C3.13252 12.1611 3.1715 12.214 3.1831 12.2494C3.19653 12.289 3.20097 12.3591 3.20534 12.4269C3.21225 12.5373 3.21948 12.6513 3.26492 12.7188C3.31176 12.7863 3.52625 13.0382 3.70948 13.0334C3.76 13.0328 3.8095 12.9966 3.85083 12.9534C3.85533 13.0236 3.87288 13.0939 3.92017 13.1253C3.97379 13.1618 4.03768 13.1761 4.10543 13.1761C4.25901 13.1761 4.43166 13.1022 4.54613 13.0425C4.55449 13.8215 4.66554 14.6112 4.83521 15.0807C5.04742 15.669 6.00537 16.5275 6.57866 16.8498C6.63 17.0592 6.85938 17.9604 7.0733 18.2343C7.2978 18.5201 8.18299 18.981 8.28313 19.0326L8.42986 19.1082V18.8665L9.69541 20.1205C9.73034 20.1554 9.77572 20.1734 9.82154 20.1734C9.85558 20.1734 9.88993 20.1635 9.92055 20.1432C9.99261 20.0955 10.0202 20.0062 9.98779 19.9261L8.97387 17.4171H8.42986V17.409L8.32135 17.4175C8.11568 17.4336 7.78787 17.436 7.70376 17.3911C7.6559 17.3652 7.56679 17.2485 7.47964 17.1138C7.88997 17.1767 8.3462 17.2034 8.7012 17.2034C8.79051 17.2034 8.87341 17.2017 8.94744 17.1986C9.35036 17.1816 10.5077 16.8518 10.839 16.7552L11.4399 18.2244L12.3435 18.309V18.5697C12.3435 18.6291 12.3768 18.6822 12.4302 18.7084C12.4836 18.7347 12.5461 18.728 12.5931 18.6919L13.0916 18.3099C13.1096 18.5543 13.1662 19.197 13.2771 19.4348C13.4064 19.7113 13.8758 20.2068 14.2462 20.5735C14.2918 20.619 14.3516 20.6432 14.4132 20.6432C14.4399 20.6432 14.467 20.6385 14.4934 20.6292C14.581 20.5982 14.6414 20.5215 14.6497 20.4384C14.6619 20.3772 14.7004 20.1702 14.6843 20.0788C14.5641 19.4134 13.6424 17.8579 13.3624 17.3967C13.3309 17.3453 13.2859 17.3031 13.2319 17.2747L12.3621 16.8171C12.3092 16.7902 12.2472 16.7924 12.1965 16.8235C12.1461 16.8544 12.116 16.9081 12.116 16.9671V17.1839L11.8285 16.9533L11.6916 16.3139C11.917 16.0253 12.2773 15.5495 12.4786 15.2117C12.7382 15.3767 13.4462 15.8066 13.7803 15.8066Z" fill="black"/>
<path fill-rule="evenodd" clip-rule="evenodd" d="M10.3281 11.7247C10.1127 11.9381 9.97897 12.7193 9.95108 12.8961C9.79523 13.0913 9.58125 13.2947 9.49784 13.2981C9.46818 13.2972 9.35745 13.2821 9.13168 13.0132C9.10417 12.9818 9.0804 12.9514 9.06145 12.9267C8.96397 12.7998 8.66722 12.4135 8.61283 12.1672L8.61239 12.165C8.60688 12.1426 8.60415 12.1194 8.60415 12.0978C8.60669 11.9401 8.79449 11.6131 8.91834 11.5509C8.95871 11.5304 9.02089 11.5233 9.09333 11.5233C9.18549 11.5233 9.29426 11.5349 9.39535 11.5456C9.65788 11.5736 9.90577 11.6002 10.0564 11.4874C10.2461 11.346 10.3057 10.8522 10.3242 10.5302L11.127 11.4532C10.8765 11.4969 10.4675 11.5868 10.3281 11.7247ZM8.4334 12.7397C8.41857 12.703 8.44918 12.581 8.50287 12.4415C8.58748 12.6142 8.71298 12.7973 8.82795 12.9517C8.65651 12.9179 8.49399 12.8516 8.4334 12.7397ZM11.2245 8.57434L11.051 8.67645C11.0516 8.67753 11.0608 8.69325 11.0769 8.72354C11.3618 9.23611 11.6892 9.93154 11.6744 10.2052C11.6627 10.4134 11.3446 10.9121 11.1574 11.1821L10.7732 10.7397C10.8451 10.5702 11.0293 10.1122 11.0115 9.90872C10.9876 9.64778 10.5944 9.06257 10.5496 8.99659L10.3831 9.10986C10.5409 9.34202 10.7966 9.76935 10.811 9.92666C10.8209 10.0404 10.719 10.3381 10.6257 10.5699L10.132 10.0016L10.1312 10.2699C10.13 10.6381 10.0672 11.2283 9.93587 11.3261C9.84847 11.3917 9.61922 11.3671 9.41684 11.3455C9.18809 11.3211 8.97215 11.2978 8.8277 11.3711C8.62659 11.4721 8.40634 11.8821 8.40285 12.0962C8.40285 12.1171 8.40437 12.1379 8.40703 12.1587C8.32749 12.3181 8.16935 12.6745 8.25593 12.8346C8.40532 13.1107 8.82986 13.1668 9.00853 13.178C9.19601 13.3932 9.35574 13.4994 9.49492 13.4994C9.49873 13.4994 9.50253 13.4994 9.50627 13.4993C9.7269 13.4899 10.0363 13.1145 10.126 12.9996L10.1422 12.9788L10.1461 12.9526C10.1983 12.6054 10.3323 12.0039 10.4696 11.8678C10.5711 11.7675 11.0371 11.665 11.3356 11.6242L11.5197 11.5991L11.2936 11.3387C11.4419 11.1285 11.8586 10.5134 11.8755 10.2163C11.8968 9.81834 11.4044 8.89829 11.2538 8.62739C11.2353 8.59279 11.2245 8.57434 11.2245 8.57434Z" fill="black"/>
<defs>
<linearGradient id="paint0_linear_27_21417" x1="7.20822" y1="1.87848" x2="12.5677" y2="15.8372" gradientUnits="userSpaceOnUse">
<stop stop-color="#B8E27F"/>
<stop offset="1" stop-color="#2A6700"/>
</linearGradient>
</defs>
</svg>
