<svg width="25" height="24" viewBox="0 0 25 24" fill="none" xmlns="http://www.w3.org/2000/svg">
<path d="M22.4495 12C22.4495 6.47715 17.9724 2 12.4495 2C6.92668 2 2.44952 6.47715 2.44952 12C2.44952 17.5228 6.92668 22 12.4495 22C17.9724 22 22.4495 17.5228 22.4495 12Z" fill="black"/>
<path d="M13.9495 7.336C13.5815 7.124 13.1535 7 12.6975 7H10.2015C10.8935 7 11.4495 7.56 11.4495 8.248V10.748V12H12.6975C13.1535 12 13.5815 11.876 13.9455 11.664C14.2215 11.504 14.4615 11.296 14.6575 11.048C14.9935 10.62 15.1975 10.084 15.1975 9.5C15.1975 8.576 14.6975 7.768 13.9495 7.336Z" fill="#D85111"/>
<path d="M14.6615 11.048C14.4655 11.296 14.2255 11.504 13.9495 11.664C13.5815 11.876 13.1535 12 12.7015 12H11.4495V10.752V8.248C11.4495 7.56 10.8895 7 10.2015 7C9.50951 7 8.94951 7.56 8.94951 8.248V10.748V12V15.748V17H10.1975H13.3215C13.5375 17 13.7455 16.98 13.9455 16.936C15.3735 16.648 16.4455 15.384 16.4455 13.872C16.4495 12.628 15.7175 11.552 14.6615 11.048Z" fill="white"/>
</svg>
