<svg width="25" height="24" viewBox="0 0 25 24" fill="none" xmlns="http://www.w3.org/2000/svg">
<path d="M14.229 18.6092V20.8506L12.275 22L10.3784 20.8506V18.6092L12.275 19.7586L14.229 18.6092ZM3.76924 10.8506L5.66579 12V15.8506L8.94166 17.8046V20.046L3.76924 17V10.8506ZM20.7807 10.8506V17L15.5508 20.046V17.8046L18.8267 15.8506V12L20.7807 10.8506ZM15.5508 7.8046L17.5049 8.95402V11.1954L14.229 13.1494V17.0575L12.3325 18.2069L10.4359 17.0575V13.1494L7.0451 11.1954V8.95402L8.99913 7.8046L12.275 9.75862L15.5508 7.8046ZM7.0451 12.8046L8.94166 13.954V16.1954L7.0451 15.046V12.8046ZM17.5049 12.8046V15.046L15.6083 16.1954V13.954L17.5049 12.8046ZM5.66579 5.85057L7.61982 7L5.66579 8.14943V10.3908L3.76924 9.24138V7L5.66579 5.85057ZM18.8842 5.85057L20.8382 7V9.24138L18.8842 10.3908V8.14943L16.9876 7L18.8842 5.85057ZM12.275 5.85057L14.229 7L12.275 8.14943L10.3784 7L12.275 5.85057ZM12.275 2L17.5049 5.04598L15.6083 6.1954L12.3325 4.24138L8.99913 6.1954L7.10257 5.04598L12.275 2Z" fill="#F3BA2F"/>
</svg>
