<svg width="25" height="24" viewBox="0 0 25 24" fill="none" xmlns="http://www.w3.org/2000/svg">
<path fill-rule="evenodd" clip-rule="evenodd" d="M8.48607 10.4039L12.3702 6.51981L16.2576 10.4073L18.5175 8.14735L12.3702 2L6.22617 8.14402L8.48607 10.4039ZM2.3692 12.0007L4.62852 9.74138L6.88783 12.0007L4.62852 14.26L2.3692 12.0007ZM12.3702 17.4832L8.48604 13.5991L6.22281 15.8557L6.22614 15.859L12.3702 22.003L18.5175 15.8557L16.2576 13.5958L12.3702 17.4832ZM17.8506 12.0023L20.1099 9.74297L22.3692 12.0023L20.1099 14.2616L17.8506 12.0023ZM12.3702 9.70831L14.6634 12.0015L12.3702 14.298L10.077 12.0048V11.9982L10.4797 11.5955L10.6761 11.4024L12.3702 9.70831Z" fill="#F3BA2F"/>
</svg>
