<svg width="25" height="24" viewBox="0 0 25 24" fill="none" xmlns="http://www.w3.org/2000/svg">
<path d="M12.4374 9.97717C11.7542 9.97717 11.0862 10.1798 10.5182 10.5594C9.95006 10.939 9.50728 11.4785 9.24581 12.1097C8.98435 12.741 8.91593 13.4356 9.04923 14.1057C9.18252 14.7758 9.51154 15.3913 9.99466 15.8745C10.4778 16.3576 11.0933 16.6866 11.7634 16.8199C12.4336 16.9532 13.1282 16.8848 13.7594 16.6233C14.3906 16.3618 14.9302 15.9191 15.3097 15.351C15.6893 14.7829 15.8919 14.115 15.8919 13.4317C15.8922 12.978 15.8031 12.5286 15.6296 12.1094C15.4561 11.6901 15.2016 11.3092 14.8808 10.9883C14.5599 10.6675 14.179 10.413 13.7597 10.2395C13.3405 10.066 12.8911 9.97687 12.4374 9.97717Z" fill="#2EAA8F"/>
<path d="M12.4374 4.86364C11.2474 4.8589 10.0699 5.10678 8.98284 5.59091V8.52273C10.0819 7.74848 11.409 7.3656 12.7516 7.43547C14.0941 7.50533 15.3744 8.02389 16.3871 8.90804C17.3999 9.79219 18.0865 10.9907 18.3369 12.3116C18.5873 13.6324 18.387 14.9991 17.7682 16.1926C17.1494 17.3861 16.1478 18.3372 14.9239 18.8937C13.7001 19.4501 12.3249 19.5795 11.0188 19.2613C9.7126 18.9431 8.55109 18.1955 7.72038 17.1385C6.88968 16.0815 6.43787 14.7762 6.43738 13.4318V2H3.8692V13.4318C3.8692 15.1264 4.37172 16.783 5.3132 18.192C6.25468 19.6011 7.59285 20.6993 9.15848 21.3478C10.7241 21.9963 12.4469 22.166 14.109 21.8354C15.771 21.5048 17.2977 20.6887 18.496 19.4904C19.6943 18.2922 20.5103 16.7655 20.8409 15.1034C21.1715 13.4413 21.0019 11.7185 20.3534 10.1529C19.7048 8.58729 18.6066 7.24912 17.1976 6.30764C15.7886 5.36615 14.132 4.86364 12.4374 4.86364Z" fill="#003F6B"/>
</svg>
