<svg width="24" height="24" viewBox="0 0 24 24" fill="none" xmlns="http://www.w3.org/2000/svg">
<circle cx="12" cy="12" r="10" fill="#F7931A"/>
<path fill-rule="evenodd" clip-rule="evenodd" d="M13.7194 11.9722C14.3249 11.8254 14.7829 11.4138 14.9092 10.5668C15.0835 9.40984 14.2316 8.79309 13.0642 8.38526L13.4519 6.81733L12.5265 6.58518L12.1488 8.1117C11.9061 8.05021 11.6566 7.99249 11.4083 7.93602L11.7885 6.39883L10.8638 6.16669L10.4761 7.73399C10.2745 7.68819 10.0766 7.64239 9.88497 7.59408L9.88622 7.58969L8.61055 7.26844L8.35853 8.28738C8.35853 8.28738 9.0449 8.44612 9.02996 8.45553C9.4052 8.55027 9.47178 8.80501 9.45933 9.00766L9.01752 10.7939C9.05033 10.8022 9.08256 10.8127 9.11397 10.8253L9.01565 10.8008L8.39711 13.303C8.35044 13.4203 8.23345 13.5966 7.97085 13.532C7.98018 13.5452 7.29879 13.3626 7.29879 13.3626L6.83332 14.4556L8.03743 14.7586C8.17312 14.7928 8.30698 14.828 8.43956 14.8627L8.43987 14.8628C8.52608 14.8855 8.61175 14.9079 8.69704 14.9299L8.30501 16.5161L9.22847 16.7482L9.61677 15.1796C9.86165 15.2466 10.1073 15.3108 10.3535 15.3723L9.96711 16.9345L10.8918 17.1667L11.2839 15.5843C12.8619 15.8824 14.0505 15.7518 14.5583 14.2793C14.9671 13.0935 14.5477 12.4133 13.7194 11.9722ZM17.9099 15.6972L18.249 14.3276L19.6074 14.6695L19.8333 13.756L18.4749 13.4147L18.8134 12.045L17.908 11.8173L17.5689 13.1869L16.2104 12.8456L15.9845 13.7585L17.343 14.0998L17.0045 15.4701L17.9099 15.6972ZM12.7767 13.6318C13.0514 12.5207 11.4535 12.16 10.672 11.9835L10.672 11.9835C10.5841 11.9637 10.5066 11.9462 10.4432 11.9302L9.92481 14.0302C9.97677 14.0432 10.0377 14.0594 10.1059 14.0776C10.8611 14.2789 12.5097 14.7182 12.778 13.6312L12.7767 13.6318ZM11.3431 9.1068C11.9947 9.25173 13.3293 9.54861 13.0798 10.5599C12.8348 11.5491 11.4593 11.1777 10.8311 11.008C10.7748 10.9928 10.7245 10.9792 10.6815 10.9684L11.1526 9.06289C11.2053 9.07614 11.2699 9.09051 11.3431 9.1068Z" fill="white"/>
</svg>
