<svg width="25" height="24" viewBox="0 0 25 24" fill="none" xmlns="http://www.w3.org/2000/svg">
<path d="M12.3692 22C17.892 22 22.3692 17.5228 22.3692 12C22.3692 6.47715 17.892 2 12.3692 2C6.84635 2 2.3692 6.47715 2.3692 12C2.3692 17.5228 6.84635 22 12.3692 22Z" fill="#4BCF51"/>
<path d="M7.17185 9.05325C7.51642 8.96257 7.84537 8.84482 8.18994 8.75413C8.53451 8.66345 8.86346 8.5457 9.20803 8.45501C9.30484 8.4352 9.31628 8.39251 9.29647 8.2957C9.1391 7.77312 8.99735 7.27761 8.83998 6.75503C8.82017 6.65822 8.83161 6.61553 8.92842 6.59572C9.24593 6.52066 9.52075 6.43416 9.82263 6.33204C9.91945 6.31223 9.93507 6.33929 9.93926 6.40904C10.081 6.90455 10.2384 7.42713 10.3801 7.92264C10.3957 7.94971 10.4114 7.97677 10.4156 8.04652C10.6633 7.97565 10.9381 7.88915 11.1859 7.81827C11.213 7.80265 11.2088 7.7329 11.2202 7.69021C11.0983 7.29151 10.992 6.91988 10.8971 6.50556L10.7908 6.13392C10.7595 6.07979 10.771 6.03711 10.8407 6.03292C11.1582 5.95786 11.4601 5.85574 11.8047 5.76505C11.8317 5.74943 11.8474 5.77649 11.8744 5.76086C11.9964 6.15956 12.1027 6.5312 12.209 6.90283C12.2601 7.05377 12.3111 7.20471 12.3351 7.37128C12.3549 7.46809 12.3976 7.47953 12.4944 7.45972L13.6219 7.35005C13.9863 7.35618 14.3548 7.43206 14.7005 7.59331C15.1785 7.85864 15.4555 8.27603 15.5973 8.77154C15.688 9.11611 15.736 9.44924 15.6445 9.79075C15.5758 10.0469 15.4218 10.2801 15.2522 10.4863C15.2251 10.5019 15.2137 10.5446 15.1596 10.5759C15.3147 10.5946 15.4542 10.5862 15.6093 10.6049C16.0747 10.661 16.4631 10.8337 16.7901 11.15C17.0161 11.4165 17.1765 11.7569 17.2672 12.1014C17.3777 12.5428 17.4299 12.9457 17.3582 13.384C17.2636 13.9077 16.9941 14.3159 16.5924 14.6201C16.0709 15.0294 15.4984 15.2877 14.9103 15.5191C14.8134 15.5389 14.7749 15.5972 14.7947 15.694C14.9365 16.1895 15.0939 16.7121 15.2356 17.2076C15.271 17.3315 15.2867 17.3585 15.1201 17.3825C14.8453 17.469 14.5278 17.5441 14.253 17.6306C14.1561 17.6504 14.1405 17.6233 14.1363 17.5536C13.979 17.031 13.8216 16.5084 13.7069 15.9973C13.6757 15.9432 13.6871 15.9005 13.6173 15.9047C13.3696 15.9755 13.1218 16.0464 12.847 16.1329C12.9335 16.4077 12.9929 16.6982 13.0794 16.973C13.1659 17.2478 13.2254 17.5383 13.3119 17.8131C13.3161 17.8828 13.3317 17.9099 13.2349 17.9297C12.9174 18.0048 12.6155 18.1069 12.3136 18.209C12.2168 18.2288 12.2012 18.2018 12.197 18.132C12.0396 17.6094 11.8822 17.0869 11.7675 16.5757C11.7519 16.5487 11.7634 16.506 11.7321 16.4518C11.0159 16.6488 10.2997 16.8458 9.55643 17.0585C9.54805 16.919 9.52824 16.8221 9.51987 16.6826C9.4875 16.3766 9.45512 16.0705 9.41131 15.8071C9.3915 15.7103 9.41857 15.6947 9.49976 15.6478C9.72045 15.5926 9.96821 15.5217 10.1733 15.4394C10.421 15.3685 10.5209 15.1665 10.4386 14.9614C9.99355 13.3781 9.54849 11.7947 9.06075 10.1999C8.98988 9.95217 8.71394 9.78672 8.42349 9.84616C8.13305 9.9056 7.85823 9.99209 7.61047 10.063C7.55635 10.0942 7.51366 10.0828 7.50947 10.013C7.41879 9.66846 7.31248 9.29682 7.22179 8.95225C7.16041 9.09594 7.16041 9.09594 7.17185 9.05325ZM12.4115 14.941C12.4385 14.9254 12.4812 14.9368 12.4812 14.9368C12.9767 14.7951 13.5149 14.6648 13.9906 14.4262C14.331 14.2658 14.6287 14.0939 14.8639 13.8138C15.2843 13.3545 15.1102 12.5529 14.5625 12.2918C14.3022 12.1534 14.0076 12.1431 13.713 12.1328C13.0696 12.1434 12.4387 12.3633 11.835 12.5675C11.7382 12.5873 11.7538 12.6144 11.7736 12.7112C11.8757 13.0131 11.9352 13.3035 12.0373 13.6054C12.1478 14.0468 12.2853 14.4726 12.4115 14.941ZM13.091 10.8681C13.1451 10.8368 13.2648 10.7316 13.3575 10.6421C13.8092 10.2369 13.7361 9.48528 13.1998 9.18146C12.9239 9.01601 12.5865 8.99426 12.2805 9.02663C11.8078 9.083 11.3821 9.22056 10.9136 9.34668C10.8168 9.36649 10.8054 9.40918 10.8252 9.506C11.018 10.1524 11.1952 10.7718 11.3609 11.4339C11.3651 11.5037 11.4078 11.5151 11.4775 11.5109C11.6014 11.4755 11.6982 11.4557 11.8221 11.4202C12.2593 11.24 12.658 11.1181 13.091 10.8681Z" fill="white"/>
</svg>
