<svg width="25" height="24" viewBox="0 0 25 24" fill="none" xmlns="http://www.w3.org/2000/svg">
<path d="M7.1741 4.02191C7.72496 4.17214 8.27582 4.2723 8.82668 4.42254C9.37754 4.57277 9.9284 4.67293 10.4793 4.82316C10.6295 4.87324 10.6796 4.82316 10.7297 4.67293C10.93 3.8216 11.1303 3.02034 11.3306 2.16901C11.3807 2.01878 11.4307 1.9687 11.581 2.01878C12.0818 2.16901 12.5325 2.26917 13.0332 2.36933C13.1835 2.41941 13.1835 2.46948 13.1334 2.56964C12.9331 3.37089 12.7328 4.22222 12.5325 5.02347C12.5325 5.07355 12.5325 5.12363 12.4824 5.22379C12.883 5.32394 13.3337 5.4241 13.7343 5.52426C13.7844 5.52426 13.8345 5.4241 13.8846 5.37402C14.0348 4.723 14.185 4.12207 14.3854 3.47105C14.4354 3.27074 14.4855 3.07042 14.5356 2.87011C14.5356 2.76995 14.5857 2.71987 14.6858 2.76995C15.1866 2.92019 15.6874 3.02034 16.2383 3.17058C16.2883 3.17058 16.2883 3.22066 16.3384 3.22066C16.1882 3.87167 16.0379 4.47261 15.8877 5.07355C15.8376 5.32394 15.7876 5.57433 15.6874 5.82473C15.6373 5.97496 15.6874 6.02504 15.8376 6.07512C16.3885 6.32551 16.9394 6.5759 17.4902 6.82629C17.991 7.12676 18.4417 7.52739 18.7922 8.02817C19.243 8.77934 19.293 9.5806 19.0927 10.3818C18.9425 10.9327 18.7422 11.4335 18.3415 11.8341C18.0411 12.1346 17.6404 12.3349 17.2398 12.4851C17.1897 12.4851 17.1397 12.5352 17.0395 12.5352C17.2398 12.6854 17.4401 12.7856 17.6404 12.9358C18.2414 13.3865 18.642 13.9374 18.8423 14.6385C18.9425 15.1894 18.8924 15.7903 18.7422 16.3412C18.5419 17.0423 18.2915 17.6432 17.8408 18.1941C17.2899 18.8451 16.5888 19.1956 15.7876 19.2958C14.7359 19.446 13.7343 19.3459 12.7328 19.1956C12.5825 19.1455 12.4824 19.1956 12.4323 19.3459C12.232 20.1471 12.0317 20.9984 11.8314 21.7997C11.7813 22 11.7813 22.0501 11.5309 21.9499C11.0802 21.8498 10.5794 21.6995 10.1287 21.5994C9.97848 21.5493 9.97848 21.4992 10.0286 21.3991C10.2289 20.5477 10.4292 19.6964 10.6796 18.8951C10.6796 18.795 10.7297 18.7449 10.6295 18.6948C10.2289 18.5947 9.82824 18.4945 9.37754 18.3944C9.27738 18.8451 9.12715 19.2958 9.02699 19.7465C8.92683 20.1972 8.7766 20.6479 8.67644 21.0986C8.62636 21.1987 8.62637 21.2488 8.47613 21.1987C7.97535 21.0485 7.47457 20.9484 6.97378 20.8482C6.82355 20.7981 6.82355 20.748 6.87363 20.6479C7.07394 19.7966 7.27425 18.9452 7.52464 18.144C7.52464 18.0939 7.57472 18.0438 7.57472 17.9437C6.42292 17.6432 5.27112 17.3427 4.06924 17.0423C4.1694 16.8419 4.21948 16.6917 4.31964 16.4914C4.51995 16.0407 4.72026 15.59 4.8705 15.1894C4.92057 15.0391 4.97065 15.0391 5.12089 15.0391C5.47144 15.1393 5.87206 15.2394 6.22261 15.2895C6.62323 15.3897 6.9237 15.1894 6.97378 14.8388C7.6248 12.2848 8.27582 9.73083 8.87676 7.12676C8.97691 6.72613 8.72652 6.27543 8.27582 6.1252C7.82511 5.97496 7.37441 5.8748 6.97378 5.77465C6.87363 5.77465 6.82355 5.72457 6.87363 5.62441C7.02386 5.07355 7.1741 4.47261 7.32433 3.92175C7.12402 4.07199 7.12402 4.07199 7.1741 4.02191ZM9.72809 16.3912C9.77816 16.3912 9.82824 16.4413 9.82824 16.4413C10.6295 16.6416 11.4808 16.892 12.3322 16.9421C12.9331 16.9922 13.484 16.9922 14.0348 16.7919C14.9863 16.4914 15.3869 15.2394 14.8361 14.4382C14.5857 14.0376 14.185 13.7872 13.7844 13.5368C12.883 13.036 11.8314 12.8357 10.8298 12.6354C10.6796 12.5853 10.6796 12.6354 10.6295 12.7856C10.5293 13.2864 10.3791 13.7371 10.2789 14.2379C10.0786 14.939 9.9284 15.6401 9.72809 16.3912ZM13.9347 11.2833C14.0348 11.2833 14.2852 11.2332 14.4855 11.1831C15.437 10.9828 15.9378 9.88106 15.437 9.02973C15.1866 8.57903 14.7359 8.27856 14.2852 8.07825C13.5841 7.77778 12.883 7.62754 12.1318 7.42723C11.9816 7.37715 11.9315 7.42723 11.8815 7.57746C11.6311 8.62911 11.3807 9.63067 11.0802 10.6823C11.0301 10.7825 11.0802 10.8326 11.1804 10.8826C11.3807 10.9327 11.5309 10.9828 11.7312 11.0329C12.4824 11.133 13.1334 11.2833 13.9347 11.2833Z" fill="#F5B300"/>
</svg>
