<svg width="24" height="24" viewBox="0 0 24 24" fill="none" xmlns="http://www.w3.org/2000/svg">
<path d="M14.6301 5.88556L14.2935 5.96971V7.18986C14.2935 7.82097 13.8728 8.36794 13.2837 8.57831L9.87573 9.63017V11.4814L14.3356 10.093C15.3875 9.75639 16.0186 8.87283 16.0186 7.65268V6.81119C16.0606 6.26423 15.3875 5.63311 14.6301 5.88556Z" fill="#0E0E0E"/>
<path d="M7.51957 5.3386L13.8307 3.36111C14.5039 3.15074 15.0509 3.15073 15.3875 3.19281L14.588 2.60377C14.2094 2.35132 13.1154 1.72021 11.727 2.14095L5.79453 4.07637L7.51957 5.3386Z" fill="#0E0E0E"/>
<path d="M17.1125 10.8082C17.1125 10.8082 18.2064 9.79846 18.2064 7.61059V6.68496C18.2064 5.25444 16.5655 2.94035 13.9149 3.78184L7.72994 5.75933V17.3297L9.49706 16.7828V13.9217L15.135 12.1546C16.1869 11.818 17.0704 12.6595 17.0704 13.5851V14.7211C17.0704 15.8571 16.0606 17.498 14.4618 18.0029L5.79453 20.6957L7.51957 22L15.3033 19.5597C16.9442 19.0548 18.7534 17.6243 18.7534 14.637V13.501C18.7955 11.6497 17.1125 10.8082 17.1125 10.8082ZM14.5039 10.5137L9.49706 12.1125V7.06363L14.5039 5.46481C15.5558 5.12821 16.4814 5.9697 16.4814 6.85326V7.69474C16.4814 9.08319 15.682 10.135 14.5039 10.5137Z" fill="#0E0E0E"/>
<path d="M16.6076 14.6791V13.5852C16.6076 12.9541 15.9765 12.365 15.2612 12.5754L14.8826 12.7016V14.2584C14.8826 15.0157 14.3777 15.6889 13.6624 15.9413L7.26712 17.9188V5.67521L5.5 4.37091V20.3171L14.2935 17.5402C15.682 17.1194 16.6076 15.731 16.6076 14.6791Z" fill="#0E0E0E"/>
</svg>
