<svg width="24" height="24" viewBox="0 0 24 24" fill="none" xmlns="http://www.w3.org/2000/svg">
<path d="M12 22C17.5228 22 22 17.5228 22 12C22 6.47715 17.5228 2 12 2C6.47715 2 2 6.47715 2 12C2 17.5228 6.47715 22 12 22Z" fill="black"/>
<path d="M19.3393 10.4621C19.2405 9.98196 19.0943 9.5128 18.9031 9.06146C18.7146 8.61691 18.4839 8.19142 18.2143 7.79084C17.947 7.39508 17.642 7.02607 17.3037 6.68896C16.9664 6.35061 16.5972 6.04565 16.2012 5.77834C15.8 5.51007 15.3749 5.27951 14.9312 5.08959C14.0136 4.70044 13.0272 4.49989 12.0306 4.49989C11.0339 4.49989 10.0475 4.70044 9.12993 5.08959C8.24271 5.46381 7.43687 6.00727 6.75743 6.68959C6.41914 7.0265 6.11418 7.39529 5.8468 7.79084C5.57851 8.19222 5.34794 8.61758 5.15805 9.06146C4.7689 9.97899 4.56836 10.9654 4.56836 11.9621C4.56836 12.9587 4.7689 13.9452 5.15805 14.8627C5.3418 15.3065 5.5793 15.7271 5.8468 16.1327C6.11417 16.5287 6.41912 16.8979 6.75743 17.2352C7.09473 17.5736 7.46395 17.8785 7.85993 18.1458C8.25743 18.4133 8.68618 18.6433 9.12993 18.8346C10.0475 19.2237 11.0339 19.4243 12.0306 19.4243C13.0272 19.4243 14.0136 19.2237 14.9312 18.8346C15.3749 18.6508 15.7956 18.4133 16.2012 18.1458C16.5972 17.8785 16.9664 17.5736 17.3037 17.2352C17.642 16.8979 17.947 16.5287 18.2143 16.1327C18.4818 15.7352 18.7118 15.3065 18.9031 14.8627C19.4918 13.4741 19.644 11.9392 19.3393 10.4621ZM12.0374 18.4902C8.43305 18.4902 5.51743 15.5665 5.51743 11.9696C5.51743 8.37271 8.44118 5.44896 12.0374 5.44896C15.6343 5.44896 18.5581 8.37271 18.5581 11.9696C18.5581 15.5665 15.6349 18.4902 12.0374 18.4902Z" fill="white"/>
<path d="M12.1531 17.9246H12.3293C12.36 17.9246 12.39 17.9246 12.4206 17.9164H12.4287C12.4593 17.9164 12.4818 17.9164 12.5125 17.9089H12.5356C12.5587 17.9089 12.5818 17.9089 12.6043 17.9014H12.6275C12.6506 17.9014 12.6737 17.8939 12.7043 17.8939H12.7193C12.75 17.8939 12.7806 17.8858 12.8112 17.8858C12.8418 17.8858 12.865 17.8783 12.8956 17.8708H12.9106C12.9337 17.8708 12.9568 17.8633 12.9793 17.8633H12.995C13.0256 17.8552 13.0487 17.8552 13.0793 17.8477C13.14 17.8402 13.2012 17.8246 13.255 17.8096H13.2706C13.2931 17.8021 13.3237 17.8021 13.3468 17.7939H13.3543C13.4156 17.7789 13.4693 17.7633 13.5306 17.7483C12.9573 17.7665 12.3841 17.7125 11.8243 17.5877C10.9818 17.4039 10.1787 17.0752 9.49745 16.5083C8.96038 16.0613 8.52936 15.5006 8.23557 14.8667C7.94178 14.2327 7.79256 13.5414 7.7987 12.8427C7.80421 11.8003 8.17511 10.7929 8.84683 9.9958C9.71933 8.96268 10.9593 8.41893 12.2293 8.3883H12.4056V7.3708H12.2068C11.8205 7.37788 11.4358 7.42395 11.0587 7.5083C10.6792 7.59411 10.3099 7.71981 9.95683 7.8833C9.59683 8.05205 9.25995 8.2583 8.9462 8.4958C8.62199 8.74226 8.32677 9.02469 8.0662 9.33768C7.82087 9.62735 7.60794 9.94297 7.4312 10.2789C7.25636 10.6028 7.1152 10.9437 7.00995 11.2964C6.90671 11.6437 6.83763 12.0001 6.8037 12.3608L6.78058 12.6971V12.8958C6.78808 13.2864 6.83433 13.6689 6.91808 14.0439C7.00245 14.4271 7.13245 14.7939 7.29308 15.1464C7.48495 15.5671 7.82933 16.1871 8.34183 16.6539C9.38827 17.4789 10.6825 17.9266 12.015 17.9246H12.1531Z" fill="white"/>
<path d="M13.8211 16.9443C13.4436 16.9309 13.0676 16.8899 12.6961 16.8218C11.1199 16.5387 9.76486 15.5743 9.26799 14.1206C8.66299 12.3525 9.58924 10.4393 11.3492 9.85808C11.6846 9.74568 12.0361 9.68868 12.3899 9.68933C12.8417 9.68933 13.293 9.78121 13.7067 9.94933L14.1349 9.03871C14.0061 8.98709 13.8761 8.93874 13.7449 8.89371C13.3064 8.75609 12.8494 8.68632 12.3899 8.68683C11.9294 8.68769 11.4721 8.76261 11.0355 8.90871C10.4782 9.09251 9.96497 9.38956 9.52799 9.78121C9.31724 9.96894 9.1251 10.1766 8.95424 10.4012C8.78533 10.6233 8.63918 10.8618 8.51799 11.1131C8.27121 11.6183 8.12556 12.167 8.08924 12.7281C8.05112 13.3093 8.12737 13.8906 8.31862 14.4418C8.51348 15.0089 8.82665 15.5281 9.23737 15.965C9.61237 16.3706 10.0486 16.6768 10.5761 16.96C11.1274 17.2506 11.8086 17.4037 12.5199 17.5037C12.9792 17.5643 13.5917 17.58 13.9511 17.58C14.2649 17.465 14.3949 17.4112 14.5636 17.3425C14.7092 17.2737 14.8542 17.205 14.9999 17.1206C15.1455 17.0362 15.1686 17.0206 15.413 16.8606C15.4348 16.847 15.4553 16.8316 15.4742 16.8143C14.6324 16.96 14.418 16.9518 13.8211 16.9443Z" fill="white"/>
<path d="M15.7043 15.8038C15.4668 15.8188 15.1299 15.8413 14.7474 15.8413C14.0662 15.8413 13.2318 15.7806 12.5205 15.5431C11.418 15.1763 10.3774 14.235 10.3774 13.0713C10.3772 12.7958 10.4312 12.523 10.5365 12.2685C10.6418 12.014 10.7963 11.7828 10.991 11.588C11.1858 11.3932 11.417 11.2388 11.6716 11.1335C11.9261 11.0282 12.1989 10.9741 12.4743 10.9744C13.2624 10.9744 13.9437 11.4106 14.3037 12.0456L15.2143 11.5944C15.0715 11.3256 14.8881 11.0804 14.6705 10.8675C14.3823 10.5787 14.0399 10.3496 13.663 10.1933C13.286 10.037 12.882 9.95656 12.474 9.95656C12.0659 9.95656 11.6619 10.037 11.285 10.1933C10.9081 10.3496 10.5657 10.5787 10.2774 10.8675C9.98874 11.1558 9.75972 11.4981 9.60347 11.875C9.44722 12.2518 9.36679 12.6558 9.36679 13.0638C9.36883 13.4913 9.46038 13.9137 9.63554 14.3038C9.79554 14.6556 10.018 14.985 10.3012 15.2913C10.7987 15.8263 11.4793 16.255 12.2068 16.5C12.903 16.7294 13.9287 16.8138 14.9237 16.745C15.1987 16.7219 15.4055 16.6988 15.7574 16.6225C16.097 16.3545 16.4052 16.0491 16.6762 15.7119C16.4387 15.735 16.0024 15.7806 15.7043 15.8038Z" fill="white"/>
</svg>
