<svg width="24" height="24" viewBox="0 0 24 24" fill="none" xmlns="http://www.w3.org/2000/svg">
<g clip-path="url(#clip0_139_413)">
<circle cx="12" cy="12" r="10" fill="#EDF0F4"/>
<g opacity="0.8">
<path fill-rule="evenodd" clip-rule="evenodd" d="M13.3813 11.1392L10.2067 7.96461L8.43694 8.43828L10.6884 6.16666L13.3813 11.1392ZM10.6187 12.8608L13.7933 16.0354L15.5617 15.5617L13.3116 17.8333L10.6187 12.8608ZM7.96461 13.7933L10.0001 9.47813L6.88451 12.5951L6.16666 13.3116L8.43827 15.5617L7.96461 13.7933ZM12.8608 13.3813L16.0367 10.2054L15.5617 8.43693L17.8333 10.6884L12.8608 13.3813Z" fill="#040000"/>
</g>
<g opacity="0.8">
<path fill-rule="evenodd" clip-rule="evenodd" d="M11.405 6.88451L14.5206 9.99876L13.3814 11.1392L10.6885 6.16666L11.405 6.88451ZM13.3116 17.8333L9.47946 13.9999L10.6187 12.8608L13.3116 17.8333ZM11.1392 10.6187L10.0001 9.47813L7.96463 13.7933L11.1392 10.6187ZM17.8333 10.6884L13.9999 14.5205L12.8608 13.3813L17.8333 10.6884Z" fill="#323333"/>
</g>
<g opacity="0.8">
<path fill-rule="evenodd" clip-rule="evenodd" d="M13.3115 6.16666L16.878 7.12199L14.3568 8.11494L13.3115 6.16666ZM6.16666 10.6884L7.12332 7.12199L8.11493 9.64187L6.16666 10.6884ZM17.8333 13.3116L16.878 16.878L15.8851 14.3568L17.8333 13.3116ZM7.12329 16.8767L10.6884 17.8333L9.64318 15.8838L7.12329 16.8767Z" fill="#555555"/>
</g>
<g opacity="0.8">
<path fill-rule="evenodd" clip-rule="evenodd" d="M10.6884 6.16666L8.4369 8.43828L8.1149 9.64187L7.12329 7.12199L10.6884 6.16666ZM13.3115 17.8333L15.5617 15.5617L15.8851 14.3568L16.878 16.878L13.3115 17.8333ZM8.43827 15.5617L6.16666 13.3116L7.12332 16.8767L9.64321 15.8838L8.43827 15.5617ZM17.8333 10.6884L15.5617 8.43694L14.3568 8.11494L16.878 7.12199L17.8333 10.6884Z" fill="#323333"/>
</g>
<g opacity="0.8">
<path fill-rule="evenodd" clip-rule="evenodd" d="M12.8608 6.61886L13.3116 6.16666L14.3568 8.11494L12.8608 6.61886ZM6.16666 10.6884L8.11493 9.64188L6.61886 11.1392L6.16666 10.6884ZM17.8333 13.3116L15.8851 14.3568L17.3811 12.8608L17.8333 13.3116ZM10.6884 17.8333L11.1392 17.3811L9.6432 15.8838L10.6884 17.8333Z" fill="#040000"/>
</g>
</g>
<defs>
<clipPath id="clip0_139_413">
<rect width="20" height="20" fill="white" transform="translate(2 2)"/>
</clipPath>
</defs>
</svg>
