<svg width="24" height="24" viewBox="0 0 24 24" fill="none" xmlns="http://www.w3.org/2000/svg">
<path d="M22.0803 12C22.0803 6.47715 17.6032 2 12.0803 2C6.55748 2 2.08032 6.47715 2.08032 12C2.08032 17.5228 6.55748 22 12.0803 22C17.6032 22 22.0803 17.5228 22.0803 12Z" fill="black"/>
<path d="M6.80256 15.3343C6.41626 14.5195 6.20048 13.6106 6.20048 12.652C6.20048 9.14746 9.08418 6.30653 12.6414 6.30653C14.6221 6.30653 16.394 7.1874 17.5755 8.57314L18.2803 7.99047C16.9301 6.40675 14.9051 5.40002 12.6414 5.40002C8.57601 5.40002 5.28035 8.64683 5.28035 12.652C5.28035 13.7475 5.52694 14.7863 5.96845 15.7175L6.80256 15.3343Z" fill="white"/>
<path d="M12.6876 17.3699C10.3192 17.3699 8.39917 15.3911 8.39917 12.9502C8.39917 10.5093 10.3192 8.53049 12.6876 8.53049C14.0064 8.53049 15.1859 9.1442 15.9725 10.1094L16.6643 9.51115C15.7121 8.34276 14.284 7.60004 12.6876 7.60004C9.82053 7.60004 7.49634 9.99537 7.49634 12.9502C7.49634 15.905 9.82053 18.3003 12.6876 18.3003V17.3699Z" fill="white"/>
<path d="M14.4548 14.2856C14.0709 14.7223 13.4953 15 12.8516 15C11.6958 15 10.7588 14.1046 10.7588 13.0001C10.7588 11.8955 11.6958 11.0001 12.8516 11.0001C13.4953 11.0001 14.0709 11.2778 14.4548 11.7145L15.2564 11.0718C14.6805 10.4166 13.8171 10.0001 12.8516 10.0001C11.1179 10.0001 9.71237 11.3432 9.71237 13.0001C9.71237 14.6569 11.1179 16.0001 12.8516 16.0001C13.7364 16.0001 14.5353 15.65 15.1059 15.0873L14.4548 14.2856Z" fill="white"/>
</svg>
