<svg width="24" height="24" viewBox="0 0 24 24" fill="none" xmlns="http://www.w3.org/2000/svg">
<g clip-path="url(#clip0_96_1465)">
<path d="M2 6.26733C1.94783 4.71259 3.15301 3.40942 4.69361 3.35579C5.12699 3.34099 5.55782 3.42781 5.95164 3.60931C6.34546 3.79082 6.69134 4.06196 6.96161 4.40106C6.30734 4.66872 4.38647 5.68327 3.45479 8.64258C3.02729 8.40664 2.66844 8.06366 2.41341 7.64727C2.15837 7.23088 2.01592 6.75536 2 6.26733ZM3.98425 8.55142H9.24423C9.02551 7.17644 8.27391 5.94298 7.15223 5.11822C7.03181 5.02949 6.92846 4.96075 6.8485 4.91102C5.58118 5.84169 4.59159 7.10029 3.9862 8.55142H3.98425ZM14.8075 8.55142H19.9104C19.3244 7.14733 18.3785 5.9226 17.1681 5.00073C17.092 5.04948 16.997 5.11286 16.8892 5.19232C15.788 6.00142 15.0424 7.20509 14.8084 8.55142H14.8075ZM8.1624 12.7608C8.96227 11.7395 9.36869 10.4649 9.30761 9.16912H3.75511C3.3037 10.5502 3.20664 12.0227 3.47283 13.4511C5.5112 13.4204 6.31465 12.086 6.31465 12.086L6.85679 12.7149C5.95876 13.8655 4.59513 14.1595 3.65029 14.2112C3.7153 14.4462 3.79119 14.6769 3.87797 14.9035C5.99337 14.8294 7.33408 13.8216 8.16337 12.7608H8.1624ZM10.0443 10.3855C9.8044 11.756 9.29347 12.7744 8.66114 13.5345C9.01607 13.9801 10.0262 14.9415 12.1377 14.9059C12.1377 14.9059 13.7953 15.0556 15.3749 13.6066C14.7451 12.848 14.237 11.8306 13.9933 10.4596C13.9933 10.4596 13.3166 6.40287 16.3554 4.45225C15.1955 3.76017 13.8885 3.35206 12.5409 3.26121V6.52767H11.5556V3.25C10.1921 3.3095 8.86261 3.69395 7.67779 4.37132C10.7239 6.32145 10.0443 10.3855 10.0443 10.3855ZM19.6452 3.40065C19.1641 3.31922 18.6702 3.36406 18.2116 3.53079C17.753 3.69752 17.3456 3.98042 17.0291 4.35182C19.5073 5.71057 20.2234 7.77332 20.4857 8.63332C20.8718 8.43596 21.2064 8.15098 21.4626 7.80118C21.7189 7.45139 21.8897 7.04648 21.9615 6.61884C22.2165 5.09872 21.1795 3.65758 19.6452 3.40065ZM17.23 12.5589L17.815 11.9359C17.815 11.9359 18.541 13.1781 20.4555 13.2649C20.5312 12.801 20.5692 12.3318 20.5691 11.8618C20.5698 10.9471 20.4249 10.0382 20.1396 9.16912H14.7368C14.6564 10.4895 15.0624 11.7935 15.8781 12.8349C16.6845 13.867 17.9745 14.8493 19.9919 14.9678C20.1117 14.6581 20.2132 14.3416 20.2961 14.0201C19.361 13.9528 18.0885 13.6422 17.23 12.5589ZM11.5283 16.6332V16.018C10.4119 15.9097 9.18816 15.4149 7.95763 14.2414C6.61644 15.3671 5.02269 15.6489 4.23631 15.7181C5.25517 17.7504 7.03348 19.2996 9.18621 20.0303C9.74132 19.79 10.2383 19.4332 10.6434 18.9841C11.218 18.3363 11.5332 17.4991 11.5283 16.6332ZM10.5611 20.3711C11.5406 20.5292 12.54 20.5186 13.516 20.3399C12.8914 19.6678 12.3899 18.891 12.0344 18.0451C11.6843 18.9013 11.1855 19.6888 10.5611 20.3711ZM12.5473 16.016V16.6498C12.5419 17.4812 12.8436 18.2854 13.3946 18.908C13.8062 19.3669 14.3132 19.7302 14.8801 19.9723C16.938 19.2254 18.6362 17.7258 19.6321 15.7761C18.8228 15.6845 17.4094 15.3822 16.1823 14.3984C15.6714 14.8279 14.3043 15.8395 12.5473 16.016Z" fill="url(#paint0_linear_96_1465)"/>
</g>
<defs>
<linearGradient id="paint0_linear_96_1465" x1="6.23372" y1="5.06362" x2="21.6417" y2="17.815" gradientUnits="userSpaceOnUse">
<stop stop-color="#EA3570"/>
<stop offset="0.88" stop-color="#138FC9"/>
</linearGradient>
<clipPath id="clip0_96_1465">
<rect width="20" height="17.2323" fill="white" transform="translate(2 3.25)"/>
</clipPath>
</defs>
</svg>
