<svg width="24" height="24" viewBox="0 0 24 24" fill="none" xmlns="http://www.w3.org/2000/svg">
<path d="M12 22C17.5228 22 22 17.5228 22 12C22 6.47715 17.5228 2 12 2C6.47715 2 2 6.47715 2 12C2 17.5228 6.47715 22 12 22Z" fill="#2E3148"/>
<path d="M12.0001 17.8025C15.2047 17.8025 17.8025 15.2046 17.8025 12C17.8025 8.79537 15.2047 6.19751 12.0001 6.19751C8.79544 6.19751 6.19759 8.79537 6.19759 12C6.19759 15.2046 8.79544 17.8025 12.0001 17.8025Z" fill="#1B1E36"/>
<path d="M12.0206 3.27576C10.9412 3.27576 10.0659 7.19096 10.0659 12.0206C10.0659 16.8503 10.9412 20.7655 12.0206 20.7655C13.1001 20.7655 13.9753 16.8503 13.9753 12.0206C13.9753 7.19096 13.1001 3.27576 12.0206 3.27576ZM12.1556 20.272C12.0321 20.4366 11.9087 20.3131 11.9087 20.3131C11.4116 19.7371 11.163 18.667 11.163 18.667C10.2935 15.8687 10.5005 9.86048 10.5005 9.86048C10.9091 5.09056 11.6525 3.96376 11.9054 3.7136C11.9313 3.68807 11.9653 3.67246 12.0015 3.66954C12.0377 3.66661 12.0737 3.67655 12.1033 3.6976C12.4704 3.95768 12.7782 5.04536 12.7782 5.04536C13.6873 8.41984 13.6049 11.5886 13.6049 11.5886C13.6873 14.3458 13.1494 17.4322 13.1494 17.4322C12.7354 19.7778 12.1556 20.272 12.1556 20.272Z" fill="#6F7390"/>
<path d="M19.6058 7.66871C19.0684 6.73207 15.2371 7.92134 11.0458 10.3247C6.85456 12.7281 3.89807 15.4358 4.43511 16.3721C4.97215 17.3083 8.80384 16.1194 12.9951 13.7161C17.1864 11.3127 20.1429 8.60495 19.6058 7.66871ZM4.93095 16.2436C4.72519 16.2177 4.77167 16.0485 4.77167 16.0485C5.02407 15.3309 5.82728 14.5827 5.82728 14.5827C7.82272 12.4358 13.1376 9.62551 13.1376 9.62551C17.4779 7.60615 18.8261 7.69135 19.1681 7.78551C19.2032 7.7953 19.2337 7.81721 19.2542 7.84734C19.2747 7.87748 19.2839 7.9139 19.2801 7.95015C19.239 8.39815 18.4467 9.20615 18.4467 9.20615C15.9738 11.6749 13.1841 13.1806 13.1841 13.1806C10.8334 14.6246 7.88864 15.6933 7.88864 15.6933C5.64792 16.5008 4.93103 16.2436 4.93103 16.2436H4.93095Z" fill="#6F7390"/>
<path d="M19.5867 16.4033C20.1283 15.4692 17.1793 12.749 13.0027 10.3276C8.82617 7.90617 4.99538 6.70218 4.45426 7.63793C3.91315 8.57369 6.8617 11.2922 11.0406 13.7137C15.2196 16.1351 19.0456 17.3392 19.5867 16.4033ZM4.81314 7.99889C4.73314 7.80921 4.90202 7.76353 4.90202 7.76353C5.6497 7.62233 6.69994 7.94409 6.69994 7.94409C9.55712 8.59473 14.6519 11.7861 14.6519 11.7861C18.5745 14.5309 19.1761 15.74 19.2663 16.0832C19.2755 16.1184 19.2719 16.1557 19.2562 16.1885C19.2406 16.2213 19.2138 16.2476 19.1807 16.2626C18.7716 16.4499 17.6761 16.1708 17.6761 16.1708C14.2996 15.2655 11.5992 13.6067 11.5992 13.6067C9.17289 12.2981 6.7737 10.2845 6.7737 10.2845C4.95066 8.74953 4.8137 8.00097 4.8137 8.00097L4.81314 7.99889Z" fill="#6F7390"/>
<path d="M12.0001 13.029C12.5682 13.029 13.0289 12.5684 13.0289 12.0002C13.0289 11.432 12.5682 10.9714 12.0001 10.9714C11.4319 10.9714 10.9713 11.432 10.9713 12.0002C10.9713 12.5684 11.4319 13.029 12.0001 13.029Z" fill="#B7B9C8"/>
<path d="M16.2181 8.66657C16.5477 8.66657 16.8149 8.3902 16.8149 8.04929C16.8149 7.70837 16.5477 7.43201 16.2181 7.43201C15.8886 7.43201 15.6214 7.70837 15.6214 8.04929C15.6214 8.3902 15.8886 8.66657 16.2181 8.66657Z" fill="#B7B9C8"/>
<path d="M6.42383 10.7655C6.75339 10.7655 7.02055 10.4891 7.02055 10.1482C7.02055 9.80731 6.75339 9.53094 6.42383 9.53094C6.09427 9.53094 5.82711 9.80731 5.82711 10.1482C5.82711 10.4891 6.09427 10.7655 6.42383 10.7655Z" fill="#B7B9C8"/>
<path d="M10.7859 18.3375C11.1155 18.3375 11.3827 18.0611 11.3827 17.7202C11.3827 17.3793 11.1155 17.103 10.7859 17.103C10.4564 17.103 10.1892 17.3793 10.1892 17.7202C10.1892 18.0611 10.4564 18.3375 10.7859 18.3375Z" fill="#B7B9C8"/>
</svg>
