<svg width="24" height="24" viewBox="0 0 24 24" fill="none" xmlns="http://www.w3.org/2000/svg">
<path d="M22.3217 12C22.3217 6.47715 17.8446 2 12.3217 2C6.79887 2 2.32172 6.47715 2.32172 12C2.32172 17.5228 6.79887 22 12.3217 22C17.8446 22 22.3217 17.5228 22.3217 12Z" fill="#010427"/>
<path d="M12.6853 8.76705V6.18182C9.37006 6.18182 6.68535 8.89618 6.68535 12.0908C6.68535 15.2855 9.3702 18 12.6853 18V15.4148C10.9158 15.4148 9.31035 14.3068 9.31035 12.0909C9.31035 9.87501 10.9158 8.76705 12.6853 8.76705Z" fill="white"/>
<path d="M16.3243 9.00827C16.1313 9.00827 15.9402 8.97065 15.7618 8.89756C15.5835 8.82446 15.4215 8.71732 15.285 8.58225C15.1485 8.44718 15.0402 8.28683 14.9663 8.11035C14.8925 7.93389 14.8545 7.74474 14.8545 7.55373C14.8545 7.36271 14.8925 7.17357 14.9663 6.9971C15.0402 6.82062 15.1485 6.66028 15.285 6.52521C15.4215 6.39014 15.5835 6.283 15.7618 6.2099C15.9402 6.13681 16.1313 6.09918 16.3243 6.09918C16.7142 6.09918 17.088 6.25243 17.3637 6.52521C17.6393 6.79799 17.7942 7.16796 17.7942 7.55373C17.7942 7.9395 17.6393 8.30946 17.3637 8.58225C17.088 8.85502 16.7142 9.00827 16.3243 9.00827Z" fill="#00DCD7"/>
<path d="M16.3243 18.0827C15.9345 18.0827 15.5606 17.9294 15.285 17.6566C15.0093 17.3839 14.8545 17.0139 14.8545 16.6281C14.8545 16.2424 15.0093 15.8724 15.285 15.5996C15.5606 15.3268 15.9345 15.1736 16.3243 15.1736C16.7142 15.1736 17.088 15.3268 17.3637 15.5996C17.6393 15.8724 17.7942 16.2424 17.7942 16.6281C17.7942 17.0139 17.6393 17.3839 17.3637 17.6566C17.088 17.9294 16.7142 18.0827 16.3243 18.0827Z" fill="#FF318B"/>
<path d="M12.8057 15.3141V8.8678C14.6055 8.8678 16.1027 10.3003 16.062 12.0907C16.1027 13.8816 14.6057 15.3141 12.8057 15.3141Z" fill="white"/>
</svg>
