<svg width="24" height="24" viewBox="0 0 24 24" fill="none" xmlns="http://www.w3.org/2000/svg">
<path d="M14.6997 3.69995H7.41954L6.81577 7.07321L13.387 7.081C16.624 7.081 17.5783 8.25736 17.551 10.205C17.5354 11.2021 17.1031 12.8927 16.9161 13.4419C16.4175 14.9026 15.3931 16.5659 11.5524 16.562L5.1642 16.5581L4.56044 19.9352H11.825C14.3881 19.9352 15.4749 19.6353 16.6317 19.1056C19.1909 17.9175 20.7139 15.3934 21.3255 12.098C22.2331 7.19007 21.1035 3.69995 14.6997 3.69995Z" fill="#008DE4"/>
<path d="M4.27608 10.1232C2.36743 10.1232 2.09476 11.3657 1.91558 12.1175C1.67797 13.0991 1.60007 13.5003 1.60007 13.5003H9.05552C10.9642 13.5003 11.2368 12.2578 11.416 11.506C11.6536 10.5244 11.7315 10.1232 11.7315 10.1232H4.27608Z" fill="#008DE4"/>
</svg>
