<svg width="24" height="24" viewBox="0 0 24 24" fill="none" xmlns="http://www.w3.org/2000/svg">
<circle cx="12" cy="12" r="10" fill="#24996E"/>
<path fill-rule="evenodd" clip-rule="evenodd" d="M12.2824 6.92328C12.4969 7.09196 12.8727 7.65346 13.0817 8.06362C13.2971 8.48629 13.2441 8.76315 12.9101 8.95992C12.7926 9.02911 12.6878 9.04124 12.0999 9.05356C11.3246 9.06977 11.0684 9.02975 10.8919 8.86485C10.751 8.73322 10.7001 8.51538 10.762 8.30876C10.814 8.13523 11.2629 7.40387 11.4685 7.15789C11.7438 6.82845 12.0198 6.74892 12.2824 6.92328ZM14.0175 10.4455C14.1472 10.504 14.3059 10.6255 14.4352 10.7653C14.6407 10.9873 16.6335 14.0314 16.862 14.4725C17.1644 15.0561 16.959 15.5566 16.3521 15.7147C16.1474 15.768 15.5813 15.776 12.0001 15.776C8.41895 15.776 7.85283 15.768 7.64811 15.7147C7.05199 15.5594 6.84195 15.0719 7.12361 14.4972C7.30198 14.1332 9.32002 11.0384 9.53647 10.7969C9.75665 10.5513 9.95998 10.4257 10.2253 10.3713C10.3162 10.3527 11.1595 10.3405 12.0995 10.3442C13.807 10.3509 13.8087 10.351 14.0175 10.4455Z" fill="white"/>
</svg>
