<svg width="24" height="24" viewBox="0 0 24 24" fill="none" xmlns="http://www.w3.org/2000/svg">
<mask id="mask0_11_24" style="mask-type:alpha" maskUnits="userSpaceOnUse" x="0" y="0" width="24" height="24">
<path fill-rule="evenodd" clip-rule="evenodd" d="M0 0H24V24H0V0Z" fill="white"/>
</mask>
<g mask="url(#mask0_11_24)">
<path fill-rule="evenodd" clip-rule="evenodd" d="M12 21.9996C6.5 21.9996 2 17.4996 2 11.9496C2.05 6.44962 6.5 1.94962 12.05 1.99962C17.55 2.04962 22 6.49962 22 12.0996C21.95 17.5496 17.5 21.9996 12 21.9996Z" fill="#0090FF"/>
<path fill-rule="evenodd" clip-rule="evenodd" d="M12.8974 10.856L12.5897 12.419L15.5128 12.8098L15.3077 13.5424L12.4359 13.1517C12.2308 13.7867 12.1282 14.4705 11.8718 15.0566C11.6154 15.7404 11.359 16.4242 11.0513 17.0592C10.641 17.8895 9.92308 18.4757 8.94872 18.6222C8.38462 18.7199 7.76923 18.671 7.30769 18.3291C7.15385 18.2315 7 18.0361 7 17.8895C7 17.6942 7.10256 17.4499 7.25641 17.3523C7.35897 17.3034 7.61538 17.3523 7.76923 17.4011C7.92308 17.5476 8.07692 17.743 8.17949 17.9384C8.48718 18.3291 8.89744 18.378 9.30769 18.0849C9.76923 17.6942 10.0256 17.1569 10.1795 16.6196C10.4872 15.4473 10.7949 14.3239 11.0513 13.1517V12.9563L8.33333 12.5656L8.4359 11.8329L11.2564 12.2237L11.6154 10.7095L8.69231 10.2699L8.79487 9.4884L11.8205 9.87915C11.9231 9.58608 11.9744 9.34186 12.0769 9.09764C12.3333 8.21846 12.5897 7.33927 13.2051 6.55776C13.8205 5.77626 14.5385 5.28782 15.6154 5.33667C16.0769 5.33667 16.5385 5.4832 16.8462 5.82511C16.8974 5.87395 17 5.97164 17 6.06932C17 6.2647 17 6.50892 16.8462 6.65545C16.641 6.80198 16.3846 6.75314 16.1795 6.55776C16.0256 6.41123 15.9231 6.2647 15.7692 6.11817C15.4615 5.72742 15 5.67857 14.641 6.02048C14.3846 6.2647 14.1282 6.60661 13.9744 6.94851C13.6154 7.97424 13.359 9.0488 13 10.1234L15.8205 10.5141L15.6154 11.2468L12.8974 10.856Z" fill="white"/>
</g>
</svg>
