<svg width="24" height="24" viewBox="0 0 24 24" fill="none" xmlns="http://www.w3.org/2000/svg">
<g clip-path="url(#clip0_117_820)">
<path fill-rule="evenodd" clip-rule="evenodd" d="M3.63402 7.0351C3.66448 7.06266 3.68946 7.08355 3.7126 7.10634C3.95983 7.34883 4.20493 7.5935 4.4553 7.83291C4.51145 7.88654 4.51175 7.92335 4.47155 7.98505C3.94694 8.78823 3.75616 9.66823 3.9312 10.601C4.16584 11.8521 4.88518 12.7638 6.0604 13.3132C6.75457 13.6376 7.49087 13.7209 8.24778 13.6073C8.75645 13.531 9.23283 13.3576 9.66759 13.0847C9.73967 13.0395 9.77917 13.0446 9.83796 13.1032C10.4768 13.7387 11.1196 14.3703 11.7577 15.0064C11.8282 15.0768 11.8646 15.0847 11.9405 15.0098C12.67 14.2884 13.4053 13.5726 14.1348 12.8512C14.215 12.7718 14.2653 12.7582 14.3705 12.8202C15.0084 13.1964 15.7035 13.3472 16.4466 13.3132C17.9217 13.2456 19.2689 12.2354 19.726 10.8485C20.0722 9.79808 19.9437 8.80146 19.3797 7.8535C19.3429 7.79161 19.3395 7.7533 19.3961 7.69987C19.6017 7.50584 19.8015 7.30614 20.0038 7.10883C20.0227 7.09052 20.0437 7.0744 20.0641 7.05689C22.2256 10.1702 22.5304 15.1786 19.0528 18.8662C15.451 22.6856 9.50697 22.983 5.53823 19.7046C1.50786 16.3751 1.02864 10.9089 3.63402 7.0351Z" fill="#282B2C"/>
<path fill-rule="evenodd" clip-rule="evenodd" d="M18.6125 5.79992C14.7446 1.924 8.45566 2.25266 5.10007 5.64519C5.11956 5.66679 5.13855 5.68967 5.15967 5.71037C7.37649 7.88758 9.59372 10.0644 11.8092 12.243C11.8716 12.3043 11.9069 12.2968 11.9639 12.2402C12.25 11.9557 12.539 11.6741 12.8282 11.3927C14.6977 9.57216 16.5674 7.75176 18.4381 5.93246C18.4882 5.8836 18.5504 5.84659 18.6125 5.79992ZM11.8816 13.6176C9.17744 10.958 6.48048 8.30559 3.77672 5.64639C3.79621 5.62091 3.81185 5.59664 3.83124 5.57564C4.80654 4.51504 5.93851 3.65813 7.25983 3.04838C7.98101 2.71554 8.7305 2.4647 9.51026 2.30012C10.4082 2.11067 11.316 2.03365 12.233 2.07405C13.5703 2.13276 14.8499 2.43285 16.0728 2.96768C17.5433 3.61067 18.7847 4.55077 19.8383 5.73783C19.8992 5.80649 19.8642 5.83723 19.8173 5.8829C18.5067 7.15982 17.1967 8.43723 15.887 9.71494C14.5801 10.9899 13.2735 12.2652 11.9665 13.5402C11.9428 13.5633 11.9175 13.585 11.8816 13.6176Z" fill="#282B2C"/>
<path fill-rule="evenodd" clip-rule="evenodd" d="M8.39698 11.7535C7.848 12.2459 6.62771 12.3599 5.81993 11.5689C5.00941 10.7755 5.12038 9.60185 5.6526 8.9917C6.56872 9.91359 7.48351 10.8342 8.39698 11.7535Z" fill="#282B2C"/>
<path fill-rule="evenodd" clip-rule="evenodd" d="M15.4955 11.563C16.4146 10.6599 17.3295 9.76103 18.2442 8.86212C18.6308 9.2863 18.8103 10.3692 18.1408 11.1674C17.3963 12.055 16.168 12.0499 15.4955 11.563Z" fill="#282B2C"/>
</g>
<defs>
<clipPath id="clip0_117_820">
<rect width="19.697" height="20" fill="white" transform="translate(2 2)"/>
</clipPath>
</defs>
</svg>
