<svg width="24" height="24" viewBox="0 0 24 24" fill="none" xmlns="http://www.w3.org/2000/svg">
<g clip-path="url(#clip0_111_757)">
<path d="M12 22C17.5228 22 22 17.5228 22 12C22 6.47715 17.5228 2 12 2C6.47715 2 2 6.47715 2 12C2 17.5228 6.47715 22 12 22Z" fill="#6747ED"/>
<path fill-rule="evenodd" clip-rule="evenodd" d="M11.8542 13.2917C10.375 13.2917 9.18749 12.1042 9.18749 10.625C9.18749 9.14583 10.375 7.95833 11.8542 7.95833C13.3333 7.95833 14.5208 9.14583 14.5208 10.625C14.5208 12.1042 13.3333 13.2917 11.8542 13.2917ZM11.8542 6.625C14.0625 6.625 15.8542 8.41667 15.8542 10.625C15.8542 12.8333 14.0625 14.625 11.8542 14.625C9.64582 14.625 7.85416 12.8333 7.85416 10.625C7.85416 8.41667 9.64582 6.625 11.8542 6.625ZM15.6667 14.8333C15.9375 15.1042 15.9375 15.5208 15.6667 15.7708L13 18.4375C12.7292 18.7083 12.3125 18.7083 12.0625 18.4375C11.7917 18.1667 11.7917 17.75 12.0625 17.5L14.7292 14.8333C14.9792 14.5625 15.4167 14.5625 15.6667 14.8333ZM17.2083 7.29167C17.2083 7.66667 16.9167 7.95833 16.5417 7.95833C16.1667 7.95833 15.875 7.66667 15.875 7.29167C15.875 6.91667 16.1667 6.625 16.5417 6.625C16.8958 6.625 17.2083 6.91667 17.2083 7.29167Z" fill="white"/>
</g>
<defs>
<clipPath id="clip0_111_757">
<rect width="20" height="20" fill="white" transform="translate(2 2)"/>
</clipPath>
</defs>
</svg>
