<svg width="25" height="24" viewBox="0 0 25 24" fill="none" xmlns="http://www.w3.org/2000/svg">
<path d="M16.3029 13.0325C16.3166 13.0337 16.3298 13.0381 16.3414 13.0453C16.353 13.0526 16.3627 13.0625 16.3696 13.0743C16.3765 13.086 16.3804 13.0992 16.381 13.1128C16.3816 13.1263 16.3788 13.1398 16.373 13.1521L12.3756 19.9604C12.3682 19.9722 12.3579 19.982 12.3456 19.9889C12.3334 19.9958 12.3196 19.9996 12.3055 20H9.86178C9.84758 20 9.83362 19.9963 9.82133 19.9893C9.80904 19.9823 9.79885 19.9722 9.79181 19.9601C9.78478 19.9479 9.78113 19.9341 9.78126 19.9201C9.78138 19.9061 9.78527 19.8924 9.79252 19.8804L13.7899 13.0721C13.7969 13.0601 13.807 13.0501 13.8192 13.0432C13.8313 13.0362 13.8451 13.0326 13.8591 13.0325H16.3029ZM13.9267 11.0814C13.9126 11.081 13.8988 11.0771 13.8866 11.0702C13.8744 11.0633 13.864 11.0536 13.8566 11.0418L9.79252 4.11976C9.78527 4.10773 9.78138 4.09402 9.78126 4.08003C9.78113 4.06604 9.78478 4.05227 9.79181 4.04012C9.79885 4.02797 9.80904 4.01787 9.82133 4.01085C9.83362 4.00384 9.84758 4.00016 9.86178 4.00018H12.3055C12.3196 4.00058 12.3334 4.00439 12.3456 4.0113C12.3579 4.01821 12.3682 4.02798 12.3756 4.03976L16.4397 10.9618C16.4469 10.9738 16.4508 10.9875 16.451 11.0015C16.4511 11.0155 16.4474 11.0293 16.4404 11.0414C16.4334 11.0536 16.4232 11.0637 16.4109 11.0707C16.3986 11.0777 16.3846 11.0814 16.3704 11.0814H13.9267Z" fill="#E31337"/>
<path d="M14.4099 4.11976C14.4024 4.10735 14.3984 4.09316 14.3985 4.07872C14.3986 4.06427 14.4027 4.05012 14.4104 4.0378C14.418 4.02549 14.429 4.01547 14.442 4.00884C14.455 4.0022 14.4696 3.99921 14.4843 4.00018H16.9314C16.9455 4.00015 16.9593 4.0038 16.9715 4.01076C16.9837 4.01771 16.9937 4.02772 17.0007 4.03976L21.6599 11.9605C21.667 11.9725 21.6708 11.9862 21.6708 12.0001C21.6708 12.014 21.667 12.0277 21.6599 12.0397L17.0007 19.9604C16.9937 19.9725 16.9837 19.9825 16.9715 19.9894C16.9593 19.9964 16.9455 20 16.9314 20H14.4843C14.47 20.0002 14.4559 19.9966 14.4435 19.9896C14.4311 19.9827 14.4208 19.9726 14.4137 19.9604C14.4065 19.9482 14.4028 19.9344 14.4029 19.9204C14.403 19.9063 14.4069 19.8925 14.4142 19.8804L19.0451 12.0001L14.4099 4.11976ZM12.421 11.9597C12.4286 11.9725 12.4325 11.987 12.4325 12.0018C12.4325 12.0166 12.4286 12.0311 12.421 12.0439L7.7405 19.9604C7.73265 19.9717 7.72212 19.9809 7.70983 19.9873C7.69754 19.9937 7.68385 19.997 7.66996 19.997C7.65607 19.997 7.64238 19.9937 7.63009 19.9873C7.6178 19.9809 7.60727 19.9717 7.59942 19.9604L2.86671 12.0405C2.85921 12.0277 2.85526 12.0132 2.85526 11.9984C2.85526 11.9836 2.85921 11.9691 2.86671 11.9563L7.54726 4.03976C7.55511 4.02847 7.56564 4.01923 7.57793 4.01285C7.59022 4.00647 7.60391 4.00314 7.6178 4.00314C7.6317 4.00314 7.64538 4.00647 7.65767 4.01285C7.66996 4.01923 7.68049 4.02847 7.68834 4.03976L12.421 11.9597Z" fill="#E31337"/>
</svg>
