<svg width="24" height="24" viewBox="0 0 24 24" fill="none" xmlns="http://www.w3.org/2000/svg">
<path d="M22.0803 12C22.0803 6.47715 17.6032 2 12.0803 2C6.55747 2 2.08032 6.47715 2.08032 12C2.08032 17.5228 6.55747 22 12.0803 22C17.6032 22 22.0803 17.5228 22.0803 12Z" fill="#252B3D"/>
<path d="M16.4077 7.5H17.5803L12.8194 12.8669C12.6962 13 12.6927 13.2122 12.8124 13.3489L15.559 16.5H14.3336L11.7947 13.5791L11.6679 13.4209C11.5482 13.2842 11.5517 13.0719 11.675 12.9388L16.4077 7.5Z" fill="#17B5CB"/>
<path d="M14.1699 13.3468C14.0912 13.2568 14.0625 13.1342 14.0912 13.0225C14.1126 12.9613 14.1592 12.8928 14.2022 12.846L14.5245 12.5L18.0803 16.5H16.9487C16.9487 16.5 14.8646 14.136 14.1699 13.3468Z" fill="#17B5CB"/>
<path d="M7.29648 16.5H6.08031L9.80944 12.2194C9.9286 12.0827 9.9286 11.8777 9.80944 11.7446L6.10835 7.5H7.27896L11.0011 11.7806C11.0957 11.9065 11.1132 12.0899 11.0116 12.2086C10.0372 13.3273 7.29648 16.5 7.29648 16.5Z" fill="#17B5CB"/>
<path d="M9.72443 7.5H8.58029L12.0875 11.5C12.0875 11.5 12.0982 11.4927 12.4903 11.0386C12.5972 10.9151 12.6186 10.7625 12.501 10.6462C11.7632 9.90145 9.72443 7.5 9.72443 7.5Z" fill="#17B5CB"/>
<path d="M13.0503 10L15.1153 7.5H14.03L13.0614 8.57032L12.6799 9.02344C12.5502 9.16797 12.5465 9.39453 12.6725 9.54688C12.7688 9.66016 13.0503 10 13.0503 10Z" fill="#17B5CB"/>
<path d="M10.9498 13.7896L8.58029 16.5H9.77675L11.0992 14.9297L11.3365 14.685C11.4662 14.5405 11.4625 14.253 11.3365 14.1006C11.2402 13.9873 10.9498 13.7896 10.9498 13.7896Z" fill="#17B5CB"/>
</svg>
