<svg width="24" height="24" viewBox="0 0 24 24" fill="none" xmlns="http://www.w3.org/2000/svg">
<path d="M16.2269 4.85801C16.7946 4.85801 17.256 4.37381 17.256 3.77893C17.256 3.18406 16.7946 2.70062 16.2269 2.70062C15.6591 2.7037 15.1978 3.18713 15.1978 3.78201C15.1978 4.37689 15.6591 4.85801 16.2269 4.85801ZM16.5305 7.66178C16.7633 7.65995 16.986 7.56265 17.1494 7.39129C17.3128 7.21993 17.4036 6.98854 17.4018 6.74802C17.4018 6.24537 17.0119 5.83418 16.5305 5.83418C16.049 5.83418 15.6591 6.24229 15.6591 6.74802C15.6591 7.25374 16.0483 7.66178 16.5305 7.66178ZM18.9228 8.01916C19.402 8.01916 19.7919 7.61105 19.7919 7.10763C19.7919 6.60422 19.402 6.1961 18.9228 6.1961C18.4436 6.1961 18.0536 6.60422 18.0536 7.10763C18.0536 7.61105 18.4443 8.01916 18.9228 8.01916ZM18.6355 10.4179C19.0463 10.4179 19.3789 10.069 19.3789 9.63932C19.3789 9.20969 19.0463 8.86075 18.6355 8.86075C18.2248 8.86075 17.8922 9.20969 17.8922 9.63932C17.8922 10.069 18.2248 10.4179 18.6355 10.4179ZM20.5508 11.1957C20.9646 11.1957 21.2994 10.8444 21.2994 10.4117C21.2994 9.97903 20.9646 9.62779 20.5508 9.62779C20.4519 9.6285 20.354 9.64933 20.2628 9.68911C20.1716 9.72889 20.0889 9.78683 20.0194 9.85963C19.9499 9.93243 19.8949 10.0187 19.8577 10.1134C19.8204 10.2081 19.8016 10.3095 19.8023 10.4117C19.8023 10.8444 20.1379 11.1957 20.5508 11.1957ZM16.2284 10.0935C16.329 10.0929 16.4286 10.0719 16.5213 10.0315C16.6141 9.99119 16.6983 9.93237 16.769 9.85843C16.8398 9.78449 16.8957 9.69688 16.9337 9.6006C16.9717 9.50432 16.9909 9.40126 16.9903 9.29731V9.29577C16.9903 8.85537 16.6503 8.49799 16.2284 8.49799C15.8065 8.49799 15.4664 8.85461 15.4664 9.29577C15.4664 9.73386 15.8072 10.0935 16.2284 10.0935ZM15.5379 12.0019C15.8913 12.0019 16.1763 11.7022 16.1763 11.334C16.1777 11.1583 16.1114 10.9893 15.9921 10.864C15.8728 10.7388 15.7103 10.6676 15.5402 10.6661H15.5379C15.1844 10.6661 14.8994 10.9659 14.8994 11.334C14.8994 11.7022 15.1844 12.0019 15.5379 12.0019ZM17.9338 12.3393C18.0176 12.3387 18.1004 12.3211 18.1775 12.2875C18.2547 12.2538 18.3246 12.2048 18.3834 12.1432C18.4422 12.0816 18.4887 12.0087 18.5202 11.9286C18.5517 11.8484 18.5677 11.7627 18.5671 11.6762V11.6746C18.5671 11.3072 18.2843 11.0098 17.9338 11.0098C17.5834 11.0098 17.3006 11.3072 17.3006 11.6746C17.2995 11.7608 17.3149 11.8463 17.3458 11.9264C17.3768 12.0064 17.4227 12.0794 17.4809 12.1411C17.5391 12.2028 17.6086 12.2521 17.6852 12.2861C17.7619 12.3201 17.8443 12.3382 17.9277 12.3393H17.9338ZM19.844 13.1141C20.1974 13.1141 20.4824 12.8143 20.4824 12.4439C20.4824 12.0734 20.1974 11.7737 19.844 11.7737C19.4905 11.7737 19.2055 12.0734 19.2055 12.4439C19.2037 12.6198 19.2697 12.7892 19.3888 12.9149C19.508 13.0406 19.6706 13.1122 19.8409 13.1141H19.844ZM18.9004 14.562C19.1988 14.562 19.4399 14.3076 19.4399 13.9971C19.4399 13.6866 19.1988 13.4322 18.9004 13.4322C18.6021 13.4322 18.361 13.6866 18.361 13.9971C18.361 14.3076 18.6021 14.562 18.9004 14.562ZM16.9814 13.7996C17.285 13.7996 17.5335 13.5398 17.5335 13.2209C17.5335 12.9019 17.2872 12.6421 16.9814 12.6421C16.6756 12.6421 16.4293 12.9019 16.4293 13.2209C16.4293 13.5398 16.6778 13.7996 16.9814 13.7996ZM14.5884 13.4461C14.734 13.4437 14.8729 13.3823 14.9752 13.2751C15.0774 13.1679 15.1347 13.0236 15.1348 12.8731C15.1349 12.7226 15.0778 12.5782 14.9757 12.4708C14.8736 12.3635 14.7348 12.3019 14.5891 12.2994H14.5884C14.4427 12.3017 14.3038 12.3631 14.2016 12.4703C14.0994 12.5775 14.042 12.7219 14.0419 12.8723C14.0418 13.0228 14.099 13.1673 14.2011 13.2746C14.3032 13.3819 14.442 13.4435 14.5876 13.4461H14.5884ZM15.9188 14.8065C16.183 14.8065 16.3951 14.582 16.3951 14.3092C16.3962 14.1785 16.3471 14.0527 16.2585 13.9595C16.1699 13.8662 16.0491 13.8132 15.9226 13.8119H15.9188C15.6547 13.8119 15.4426 14.0363 15.4426 14.3092C15.4412 14.4396 15.4901 14.5653 15.5784 14.6586C15.6667 14.7518 15.7873 14.805 15.9135 14.8065H15.9188ZM17.8371 15.5819C18.1013 15.5819 18.3185 15.3575 18.3185 15.0793C18.3185 14.8011 18.1042 14.5766 17.8371 14.5766C17.7081 14.5766 17.5843 14.6296 17.493 14.7239C17.4017 14.8181 17.3505 14.946 17.3505 15.0793C17.3505 15.2126 17.4017 15.3405 17.493 15.4347C17.5843 15.529 17.7081 15.5819 17.8371 15.5819ZM16.7567 16.1638C16.9658 16.1638 17.1362 15.9854 17.1362 15.7664C17.1368 15.6618 17.0971 15.5612 17.026 15.4867C16.9548 15.4122 16.858 15.3699 16.7567 15.3691C16.5476 15.3691 16.3772 15.5474 16.3772 15.7664C16.377 15.8709 16.4167 15.9713 16.4878 16.0457C16.5589 16.1201 16.6555 16.1625 16.7567 16.1638ZM15.7328 16.4758C15.7781 16.4755 15.823 16.466 15.8647 16.4478C15.9065 16.4296 15.9444 16.4031 15.9763 16.3698C16.0081 16.3365 16.0333 16.297 16.0504 16.2536C16.0675 16.2103 16.0761 16.1639 16.0758 16.117V16.1161C16.0758 15.9163 15.9211 15.7564 15.7328 15.7564C15.6875 15.7567 15.6426 15.7662 15.6009 15.7844C15.5591 15.8026 15.5212 15.8291 15.4894 15.8624C15.4575 15.8957 15.4323 15.9352 15.4152 15.9786C15.3981 16.0219 15.3895 16.0684 15.3898 16.1152V16.1161C15.3882 16.2099 15.4227 16.3004 15.4858 16.3678C15.5489 16.4353 15.6353 16.4741 15.726 16.4757L15.7328 16.4758ZM14.8362 15.4413C15.0616 15.4413 15.2447 15.2492 15.2447 15.014C15.2447 14.7788 15.0616 14.5866 14.8362 14.5866C14.6107 14.5866 14.4277 14.7788 14.4277 15.014C14.4274 15.1264 14.4702 15.2345 14.5467 15.3145C14.6233 15.3945 14.7273 15.4401 14.8362 15.4413ZM13.5206 14.4614C13.7825 14.4614 13.9968 14.24 13.9968 13.9641C13.9968 13.6882 13.7848 13.4668 13.5206 13.4668C13.2587 13.4668 13.0444 13.6882 13.0444 13.9641C13.0442 14.0951 13.0941 14.2209 13.1833 14.314C13.2725 14.4072 13.3938 14.4601 13.5206 14.4614ZM17.4219 20.6914C17.9874 20.6914 18.4458 20.2103 18.4458 19.6177C18.4458 19.0252 17.9874 18.544 17.4219 18.544C16.8564 18.544 16.398 19.0252 16.398 19.6177C16.398 20.2103 16.8564 20.6914 17.4219 20.6914ZM14.8213 19.3326C15.2923 19.3326 15.6748 18.9322 15.6748 18.438C15.6748 17.9438 15.2923 17.5434 14.8213 17.5434C14.3503 17.5434 13.9678 17.9438 13.9678 18.438C13.9678 18.9322 14.3495 19.3326 14.8213 19.3326ZM13.3353 21.2994C13.8115 21.2994 14.1962 20.8966 14.1962 20.3963C14.1962 19.899 13.8115 19.4932 13.3353 19.4932C12.8591 19.4932 12.4744 19.896 12.4744 20.3963C12.4726 20.634 12.5623 20.8626 12.7237 21.032C12.8852 21.2013 13.1051 21.2975 13.3352 21.2994H13.3353ZM12.8881 17.6755C12.9868 17.6748 13.0844 17.6541 13.1753 17.6144C13.2662 17.5747 13.3487 17.517 13.418 17.4444C13.4873 17.3718 13.5421 17.2858 13.5792 17.1914C13.6164 17.0969 13.6351 16.9958 13.6344 16.8939C13.6351 16.792 13.6164 16.6909 13.5792 16.5964C13.5421 16.502 13.4873 16.416 13.418 16.3434C13.3487 16.2708 13.2662 16.2131 13.1753 16.1734C13.0844 16.1337 12.9868 16.113 12.8881 16.1123C12.7894 16.113 12.6918 16.1337 12.6009 16.1734C12.51 16.2131 12.4275 16.2708 12.3582 16.3434C12.2889 16.416 12.2341 16.502 12.197 16.5964C12.1599 16.6909 12.1411 16.792 12.1418 16.8939C12.1425 17.3243 12.4774 17.6755 12.8881 17.6755ZM11.4059 19.6692C11.8166 19.6692 12.1492 19.3203 12.1492 18.8907C12.1492 18.461 11.8166 18.1121 11.4059 18.1121C10.9951 18.1121 10.6625 18.461 10.6625 18.8907C10.6605 19.0951 10.7373 19.292 10.8758 19.438C11.0144 19.584 11.2034 19.6672 11.4013 19.6692H11.4059ZM9.80829 21.0219C10.219 21.0219 10.5494 20.673 10.5494 20.2457C10.5494 19.816 10.2168 19.4694 9.80829 19.4694C9.39754 19.4694 9.06716 19.8183 9.06716 20.2457C9.06716 20.673 9.39978 21.0219 9.80829 21.0219ZM8.47858 19.2611C8.64746 19.2595 8.80886 19.1889 8.92752 19.0648C9.04617 18.9407 9.11243 18.773 9.11181 18.5986C9.11181 18.2335 8.82905 17.9361 8.47858 17.9361C8.31016 17.9387 8.14951 18.0097 8.03131 18.1337C7.91312 18.2576 7.84686 18.4246 7.84686 18.5986C7.84686 18.7726 7.91312 18.9396 8.03131 19.0635C8.14951 19.1875 8.31016 19.2585 8.47858 19.2611ZM10.0791 17.9023C10.2481 17.9011 10.4098 17.8306 10.5285 17.7064C10.6472 17.5821 10.7134 17.4143 10.7124 17.2398C10.7124 16.8724 10.4296 16.5773 10.0791 16.5773C9.9107 16.5796 9.74991 16.6503 9.63149 16.774C9.51308 16.8977 9.44654 17.0646 9.44624 17.2386C9.44595 17.4126 9.51193 17.5798 9.62993 17.7039C9.74793 17.8281 9.90848 17.8993 10.0769 17.9023H10.0791ZM11.5725 15.9094C11.6563 15.9088 11.7391 15.8911 11.8162 15.8575C11.8934 15.8238 11.9633 15.7748 12.0221 15.7133C12.0809 15.6517 12.1274 15.5787 12.1589 15.4986C12.1904 15.4185 12.2064 15.3327 12.2058 15.2462V15.2446C12.2058 14.8772 11.923 14.5798 11.5725 14.5798C11.4888 14.5804 11.406 14.598 11.3289 14.6317C11.2517 14.6653 11.1818 14.7143 11.123 14.7759C11.0642 14.8375 11.0177 14.9104 10.9862 14.9905C10.9547 15.0707 10.9387 15.1564 10.9393 15.2429V15.2445C10.9393 15.6119 11.2221 15.9094 11.5725 15.9094ZM9.28816 16.1837C9.59175 16.1837 9.83805 15.927 9.83805 15.6081C9.83805 15.2891 9.59175 15.0324 9.28816 15.0324C8.98457 15.0324 8.73827 15.2891 8.73827 15.6081C8.73827 15.927 8.98457 16.1837 9.28816 16.1837ZM7.69579 17.5372C7.76771 17.5368 7.83885 17.5218 7.90514 17.493C7.97144 17.4642 8.03159 17.4222 8.08217 17.3693C8.13275 17.3165 8.17276 17.254 8.19992 17.1852C8.22708 17.1164 8.24086 17.0427 8.24047 16.9685V16.9669C8.24186 16.8171 8.18558 16.6729 8.084 16.5659C7.98243 16.459 7.84388 16.3981 7.69884 16.3966H7.69579C7.62387 16.397 7.55273 16.4121 7.48644 16.4409C7.42014 16.4697 7.35999 16.5117 7.30941 16.5645C7.25883 16.6173 7.21882 16.6799 7.19166 16.7487C7.1645 16.8175 7.15072 16.8911 7.15111 16.9654V16.9669C7.15062 17.0413 7.16432 17.1151 7.19143 17.184C7.21853 17.2529 7.25852 17.3156 7.3091 17.3686C7.35968 17.4215 7.41986 17.4637 7.48621 17.4926C7.55256 17.5215 7.62377 17.5367 7.69579 17.5372ZM7.32969 15.9509C7.45521 15.9498 7.57524 15.8975 7.6635 15.8053C7.75177 15.7132 7.80111 15.5886 7.80071 15.459C7.80071 15.1861 7.58864 14.9671 7.32969 14.9671C7.07075 14.9671 6.85868 15.1884 6.85868 15.459C6.85868 15.7318 7.07075 15.9509 7.32969 15.9509ZM7.3163 14.559C7.36975 14.5585 7.42258 14.5471 7.47178 14.5255C7.52098 14.5039 7.56557 14.4725 7.60302 14.4331C7.64047 14.3937 7.67004 14.3471 7.69005 14.2959C7.71005 14.2447 7.72009 14.1899 7.7196 14.1347C7.7196 13.9018 7.53878 13.7105 7.3163 13.7105C7.09381 13.7105 6.913 13.8995 6.913 14.1347C6.913 14.3699 7.09381 14.559 7.3163 14.559ZM7.53804 13.4015C7.72927 13.4015 7.88107 13.2393 7.88107 13.0418C7.88107 12.8443 7.7263 12.6821 7.53804 12.6821C7.34681 12.6821 7.19501 12.8443 7.19501 13.0418C7.19501 13.2393 7.34681 13.4015 7.53804 13.4015ZM8.9109 13.2078C9.13637 13.2078 9.31941 13.0157 9.31941 12.7805C9.31941 12.5453 9.13637 12.3532 8.9109 12.3532C8.68544 12.3532 8.50239 12.5453 8.50239 12.7805C8.502 12.893 8.54474 13.0011 8.62129 13.0812C8.69784 13.1613 8.80196 13.2068 8.9109 13.2078ZM10.4177 12.6014C10.6796 12.6014 10.8939 12.377 10.8939 12.1041C10.8951 11.9735 10.846 11.8477 10.7574 11.7545C10.6688 11.6612 10.548 11.6081 10.4215 11.6069H10.4177C10.1558 11.6069 9.94148 11.8313 9.94148 12.1041C9.94099 12.1689 9.95286 12.2332 9.97642 12.2933C9.99997 12.3533 10.0347 12.408 10.0788 12.4542C10.1228 12.5004 10.1752 12.5371 10.2329 12.5624C10.2907 12.5876 10.3527 12.6009 10.4155 12.6014H10.4177ZM10.7764 14.1801C10.9197 14.1798 11.057 14.1207 11.1581 14.0159C11.2593 13.9111 11.3161 13.7691 11.3159 13.621C11.3158 13.473 11.2587 13.3311 11.1574 13.2265C11.056 13.1219 10.9185 13.0632 10.7752 13.0632C10.6319 13.0632 10.4945 13.1219 10.3931 13.2265C10.2918 13.3311 10.2347 13.473 10.2346 13.621C10.2344 13.7691 10.2912 13.9111 10.3923 14.0159C10.4935 14.1207 10.6308 14.1798 10.7741 14.1801H10.7764ZM8.93025 14.6005C9.19217 14.6005 9.40127 14.3791 9.40127 14.1055C9.40127 13.8319 9.1892 13.6105 8.93025 13.6105C8.86801 13.6109 8.80645 13.624 8.74909 13.649C8.69173 13.6739 8.6397 13.7103 8.59596 13.7561C8.55222 13.8018 8.51764 13.856 8.49418 13.9156C8.47072 13.9751 8.45884 14.0388 8.45924 14.1031V14.1055C8.45835 14.1696 8.46969 14.2332 8.49261 14.2928C8.51554 14.3523 8.54959 14.4066 8.59283 14.4526C8.63607 14.4985 8.68765 14.5352 8.74463 14.5606C8.8016 14.586 8.86286 14.5995 8.92489 14.6004H8.93025V14.6005ZM3.72156 13.8665C4.2841 13.8665 4.74246 13.3877 4.74246 12.7982C4.74246 12.2087 4.2841 11.7298 3.72156 11.7298C3.15902 11.7298 2.70065 12.2094 2.70065 12.7989C2.70065 13.3884 3.15902 13.8665 3.72156 13.8665ZM6.03868 11.9589C6.52309 11.9589 6.913 11.5477 6.913 11.042C6.913 10.5362 6.52011 10.1251 6.03868 10.1251C5.80523 10.1267 5.58197 10.224 5.418 10.3957C5.25404 10.5673 5.1628 10.7992 5.16437 11.0404V11.042C5.16437 11.5508 5.55725 11.9589 6.03868 11.9589ZM5.1346 9.60704C5.61603 9.60704 6.00371 9.19893 6.00371 8.69551C6.00371 8.19209 5.6138 7.78398 5.1346 7.78398C5.01969 7.78478 4.90605 7.80894 4.80019 7.8551C4.69432 7.90126 4.59829 7.96851 4.51758 8.053C4.43688 8.1375 4.37308 8.23759 4.32982 8.34755C4.28657 8.45752 4.26471 8.5752 4.26549 8.6939V8.69551C4.26313 8.9348 4.35289 9.16526 4.51503 9.3362C4.67716 9.50715 4.89839 9.60457 5.13006 9.60704H5.1346ZM7.36839 8.49261C7.77913 8.49261 8.11472 8.14367 8.11472 7.71097C8.11472 7.27826 7.77987 6.92932 7.36839 6.92932C6.9569 6.92932 6.62206 7.27826 6.62206 7.71097C6.62206 8.14367 6.95764 8.49261 7.36839 8.49261ZM8.2814 10.8391C8.69512 10.8391 9.02996 10.4878 9.02996 10.0551C9.02996 9.62241 8.69512 9.27117 8.2814 9.27117C7.86768 9.27117 7.53283 9.62241 7.53283 10.0551C7.53283 10.4878 7.86768 10.8391 8.2814 10.8391ZM10.3143 10.3518C10.4844 10.3503 10.6469 10.2792 10.7663 10.154C10.8856 10.0287 10.9518 9.85967 10.9505 9.68398C10.9518 9.59768 10.9366 9.51197 10.9058 9.43174C10.875 9.3515 10.8292 9.27832 10.771 9.21636C10.7129 9.15441 10.6434 9.1049 10.5667 9.07065C10.49 9.0364 10.4076 9.0181 10.324 9.01678C10.2405 9.01545 10.1575 9.03114 10.0798 9.06294C10.0021 9.09475 9.93129 9.14204 9.8713 9.20213C9.81132 9.26221 9.76338 9.33391 9.73023 9.41313C9.69707 9.49235 9.67935 9.57754 9.67807 9.66384C9.67807 9.6706 9.67807 9.67729 9.67807 9.68398C9.67611 9.85906 9.74155 10.0278 9.86 10.153C9.97846 10.2783 10.1402 10.3498 10.3097 10.3519L10.3143 10.3518ZM12.0703 10.3579C12.3739 10.3579 12.6202 10.1012 12.6202 9.78458C12.6202 9.46793 12.3739 9.21122 12.0703 9.21122C11.9231 9.21122 11.7819 9.27163 11.6778 9.37916C11.5737 9.48668 11.5153 9.63252 11.5153 9.78458C11.5153 9.93665 11.5737 10.0825 11.6778 10.19C11.7819 10.2975 11.9231 10.3579 12.0703 10.3579ZM13.5213 10.703C13.7751 10.703 13.9849 10.4871 13.9849 10.2188C13.9849 9.95059 13.7781 9.73462 13.5213 9.73462C13.3978 9.73562 13.2796 9.78712 13.1928 9.87787C13.1059 9.96861 13.0574 10.0912 13.0578 10.2188C13.0607 10.484 13.2669 10.703 13.5213 10.703ZM13.7103 8.93684C13.818 8.93605 13.9209 8.89117 13.9965 8.81206C14.0721 8.73294 14.1143 8.62607 14.1136 8.5149C14.1136 8.28202 13.9328 8.09295 13.7103 8.09295C13.4879 8.09295 13.307 8.28202 13.307 8.5149C13.3064 8.62607 13.3486 8.73294 13.4242 8.81206C13.4998 8.89117 13.6027 8.93605 13.7103 8.93684ZM12.5942 8.35887C12.7174 8.35856 12.8354 8.30776 12.9223 8.21764C13.0092 8.12752 13.058 8.00544 13.0578 7.87823C13.0577 7.75101 13.0086 7.62906 12.9215 7.53917C12.8343 7.44927 12.7162 7.39877 12.593 7.39877C12.4699 7.39877 12.3518 7.44927 12.2646 7.53917C12.1775 7.62906 12.1284 7.75101 12.1283 7.87823C12.1281 8.00544 12.1769 8.12752 12.2638 8.21764C12.3507 8.30776 12.4687 8.35856 12.5919 8.35887H12.5942ZM11.1603 8.0084C11.3057 8.00719 11.4447 7.94647 11.5468 7.83956C11.6489 7.73266 11.7058 7.58829 11.705 7.43812C11.705 7.12147 11.4617 6.86784 11.1603 6.86784C10.859 6.86784 10.6156 7.12454 10.6156 7.43812C10.615 7.51241 10.6286 7.58609 10.6556 7.65495C10.6826 7.72381 10.7224 7.78651 10.7729 7.83947C10.8233 7.89242 10.8834 7.9346 10.9496 7.96359C11.0158 7.99257 11.0869 8.0078 11.1588 8.0084H11.1603ZM9.40722 8.01071C9.76066 8.01071 10.0457 7.71097 10.0457 7.34282C10.0457 6.97467 9.76066 6.67493 9.40722 6.67493C9.05377 6.67493 8.76878 6.97467 8.76878 7.34282C8.76818 7.51868 8.835 7.68764 8.95462 7.81279C9.07425 7.93793 9.23696 8.00909 9.40722 8.01071ZM7.04619 6.3406C7.44652 6.3406 7.76871 6.00242 7.76871 5.58355C7.76871 5.16468 7.44428 4.8265 7.04619 4.8265C6.64587 4.8265 6.32367 5.16468 6.32367 5.58355C6.32367 6.00242 6.6481 6.3406 7.04619 6.3406ZM9.07833 5.88176C9.43177 5.88176 9.71676 5.58201 9.71676 5.21386C9.71676 4.84572 9.43177 4.54597 9.07833 4.54597C8.72488 4.54597 8.43989 4.84572 8.43989 5.21386C8.43989 5.58201 8.72488 5.88176 9.07833 5.88176ZM10.8337 5.89021C11.1372 5.89021 11.3835 5.63351 11.3835 5.31455C11.3835 4.99559 11.1372 4.73888 10.8337 4.73888C10.7611 4.73929 10.6892 4.75446 10.6223 4.78353C10.5554 4.8126 10.4947 4.855 10.4436 4.90831C10.3925 4.96163 10.3521 5.0248 10.3247 5.09424C10.2973 5.16368 10.2834 5.23802 10.2838 5.31301V5.31455C10.2832 5.46609 10.3407 5.61172 10.4437 5.71959C10.5467 5.82747 10.6869 5.88881 10.8337 5.89021ZM12.2742 6.233C12.5309 6.233 12.7378 6.01703 12.7378 5.74879C12.7378 5.48056 12.5309 5.26459 12.2742 5.26459C12.1499 5.26459 12.0307 5.3156 11.9428 5.40641C11.8548 5.49722 11.8054 5.62037 11.8054 5.74879C11.8054 5.87721 11.8548 6.00037 11.9428 6.09118C12.0307 6.18198 12.1499 6.233 12.2742 6.233ZM13.3807 6.82634C13.4911 6.82552 13.5967 6.7795 13.6742 6.69837C13.7518 6.61725 13.795 6.50765 13.7944 6.39363C13.7944 6.15306 13.6084 5.96092 13.3807 5.96092C13.153 5.96092 12.967 6.15537 12.967 6.39363C12.967 6.63189 13.153 6.82634 13.3807 6.82634ZM14.1925 7.50729C14.2375 7.50699 14.2819 7.49755 14.3233 7.4795C14.3648 7.46145 14.4023 7.43516 14.4339 7.40211C14.4655 7.36907 14.4904 7.32993 14.5074 7.28692C14.5243 7.24391 14.5329 7.19787 14.5326 7.15144V7.15067C14.533 7.10425 14.5245 7.05819 14.5077 7.01514C14.4908 6.97209 14.4659 6.93289 14.4344 6.89978C14.4029 6.86666 14.3654 6.84028 14.324 6.82214C14.2826 6.804 14.2382 6.79446 14.1933 6.79405H14.1925C14.1476 6.79436 14.1031 6.8038 14.0617 6.82185C14.0203 6.83989 13.9827 6.86619 13.9511 6.89923C13.9196 6.93228 13.8946 6.97142 13.8777 7.01443C13.8607 7.05744 13.8522 7.10348 13.8525 7.14991V7.15067C13.8518 7.1968 13.8599 7.24261 13.8763 7.28549C13.8928 7.32837 13.9173 7.36749 13.9484 7.4006C13.9795 7.43371 14.0166 7.46017 14.0576 7.47846C14.0986 7.49675 14.1427 7.50653 14.1873 7.50722H14.1927L14.1925 7.50729Z" fill="black"/>
</svg>
