<svg width="24" height="24" viewBox="0 0 24 24" fill="none" xmlns="http://www.w3.org/2000/svg">
<g clip-path="url(#clip0_113_576)">
<path d="M12 22C17.5228 22 22 17.5228 22 12C22 6.47715 17.5228 2 12 2C6.47715 2 2 6.47715 2 12C2 17.5228 6.47715 22 12 22Z" fill="#00D4D5"/>
<path d="M12.3244 5.125V8.53562L15.2856 6.8325L12.3244 5.125Z" fill="white"/>
<path opacity="0.9" d="M15.2856 6.83252V10.2431L18.2462 8.53564L15.2856 6.83252Z" fill="white"/>
<path opacity="0.8" d="M12.3244 8.53564V11.9463L15.2856 10.2431L12.3244 8.53564ZM15.2856 10.2438V13.6538L18.2462 11.9463L15.2856 10.2438Z" fill="white"/>
<path opacity="0.8" d="M12.3244 11.9462V15.3569L15.2856 13.6537L12.3244 11.9462Z" fill="white"/>
<path d="M15.2856 13.6537V17.0644L18.2462 15.3569L15.2856 13.6537Z" fill="white"/>
<path opacity="0.4" d="M4.67062 8.42065V11.8313L7.63188 10.1238L4.67062 8.42065Z" fill="white"/>
<path opacity="0.2" d="M8.40625 9.68872V13.0993L11.3625 11.3962L8.40625 9.68872Z" fill="white"/>
<path opacity="0.3" d="M6.21125 11.8456V15.2563L9.17188 13.5488L6.21125 11.8456Z" fill="white"/>
<path opacity="0.9" d="M8.1625 14.4194V17.83L11.1188 16.1225L8.1625 14.4194Z" fill="white"/>
<path opacity="0.7" d="M12.3 15.8875V19.2988L15.2562 17.5906L12.3 15.8875Z" fill="white"/>
<path opacity="0.9" d="M8.89937 8.00439V11.4156L11.8556 9.71252L8.89937 8.00439Z" fill="white"/>
<path opacity="0.8" d="M12.3244 5.125V8.53562L9.36312 6.8325L12.3244 5.125Z" fill="white"/>
<path opacity="0.6" d="M8.89937 6.57501V9.98501L5.9375 8.27751L8.89937 6.57501Z" fill="white"/>
<path opacity="0.6" d="M11.8606 8.26251V11.6738L8.89937 9.96564L11.8606 8.26251Z" fill="white"/>
<path opacity="0.95" d="M8.3925 9.68872V13.0993L5.43125 11.3962L8.3925 9.68872Z" fill="white"/>
<path opacity="0.6" d="M12.3244 11.9462V15.3569L9.36812 13.6537L12.3244 11.9462Z" fill="white"/>
<path opacity="0.55" d="M6.21125 12.7406V16.1512L3.25 14.4431L6.21125 12.7406Z" fill="white"/>
<path d="M18.2462 8.53564V11.9463L15.2856 10.2431L18.2462 8.53564Z" fill="white"/>
<path opacity="0.95" d="M15.2856 10.2438V13.6538L12.3244 11.9463L15.2856 10.2438Z" fill="white"/>
<path opacity="0.9" d="M18.2462 11.9462V15.3569L15.2856 13.6537L18.2462 11.9462Z" fill="white"/>
<path opacity="0.7" d="M15.2856 13.6537V17.0644L12.3244 15.3569L15.2856 13.6537Z" fill="white"/>
<path opacity="0.4" d="M11.6687 15.075V18.4856L8.70813 16.7825L11.6687 15.075Z" fill="white"/>
<path d="M15.2856 6.83252V10.2431L12.3244 8.53564L15.2856 6.83252Z" fill="white"/>
</g>
<defs>
<clipPath id="clip0_113_576">
<rect width="20" height="20" fill="white" transform="translate(2 2)"/>
</clipPath>
</defs>
</svg>
