<svg width="24" height="24" viewBox="0 0 24 24" fill="none" xmlns="http://www.w3.org/2000/svg">
<circle cx="12" cy="12" r="10" fill="black"/>
<path d="M6.0802 9.57134C6.44536 9.19877 7.01437 9.1159 7.47062 9.36886L12.2223 12.0687L7.45712 14.7685C7.00069 15.0205 6.4323 14.9378 6.0667 14.566C6.0802 14.566 6.0802 9.24736 6.0802 9.57134Z" fill="url(#paint0_linear_133_96)"/>
<path d="M17.3925 8.19433C17.5227 8.68006 17.3057 9.19206 16.8661 9.43626L12.2223 12.0686L7.45712 9.36876C7.0007 9.11676 6.4323 9.19954 6.06671 9.57125C6.07313 8.97978 6.3983 8.43784 6.91716 8.15384L11.2909 5.66998C11.8141 5.37294 12.455 5.37294 12.9783 5.66998L17.3925 8.19433Z" fill="url(#paint1_linear_133_96)"/>
<path d="M7.45712 14.7684L16.8661 9.4362C17.3115 9.17972 17.4195 8.66675 17.298 8.19427C17.7975 8.49126 18 9.03123 18 9.59819V14.5524C18 15.1464 17.7705 15.6863 17.2575 15.9833L12.9378 18.4537C12.4241 18.7505 11.791 18.7505 11.2774 18.4537L6.90365 15.9833C6.39655 15.6891 6.07938 15.152 6.0667 14.5659C6.4323 14.9376 7.00069 15.0204 7.45712 14.7684Z" fill="url(#paint2_linear_133_96)"/>
<defs>
<linearGradient id="paint0_linear_133_96" x1="9.20602" y1="16.2204" x2="11.5361" y2="11.4972" gradientUnits="userSpaceOnUse">
<stop stop-color="#00DAD9"/>
<stop offset="1" stop-color="#095FA7"/>
</linearGradient>
<linearGradient id="paint1_linear_133_96" x1="5.68884" y1="7.1383" x2="6.79634" y2="12.7878" gradientUnits="userSpaceOnUse">
<stop stop-color="#0BF7DF"/>
<stop offset="1" stop-color="#0095FF"/>
</linearGradient>
<linearGradient id="paint2_linear_133_96" x1="14.5409" y1="5.46162" x2="4.80118" y2="14.3003" gradientUnits="userSpaceOnUse">
<stop stop-color="#00FCC6"/>
<stop offset="1" stop-color="#0095FF"/>
</linearGradient>
</defs>
</svg>
