<svg width="24" height="24" viewBox="0 0 24 24" fill="none" xmlns="http://www.w3.org/2000/svg">
<circle cx="12" cy="12" r="10" fill="black"/>
<path d="M19.0667 11.8L17.1 11.85H17.0834H17.0667H17.0334H17.0167L16.9834 11.8667H16.9667C16.95 11.8667 16.95 11.8834 16.9334 11.8834L15.0834 13.4167L12.3167 11.8334V10.3334L15.0667 10.5834H15.1C15.1167 10.5834 15.1167 10.5834 15.1334 10.5834H15.15C15.1667 10.5834 15.1834 10.5834 15.2 10.5667H15.2167L15.2334 10.55L16.55 9.78337L18.7167 10.7334C18.85 10.7834 19 10.7334 19.0667 10.6C19.1334 10.4667 19.0667 10.3167 18.9334 10.25L17.1167 9.46671L18.2334 8.83337C18.3667 8.76671 18.4 8.60004 18.3334 8.46671C18.2667 8.33337 18.1 8.30004 17.9667 8.36671L15.2834 9.90004L14.9334 7.96671L17.1 7.53337C17.2 7.51671 17.2834 7.45004 17.3 7.36671C17.3334 7.26671 17.3167 7.16671 17.25 7.10004C17.1834 7.03337 17.0834 7.00004 17 7.01671L15.15 7.40004L15.8667 6.16671C15.9167 6.08337 15.9167 5.98337 15.8667 5.90004C15.8167 5.81671 15.7334 5.76671 15.6334 5.76671C15.5334 5.76671 15.45 5.81671 15.4 5.90004L14.4334 7.53337C14.4167 7.55004 14.4167 7.56671 14.4167 7.58337C14.3667 7.65004 14.3334 7.71671 14.35 7.80004L14.75 10.0167L12.3 9.80004V6.96671L14.05 5.53337C14.1667 5.43337 14.1834 5.26671 14.1 5.16671C14.0167 5.06671 13.85 5.03337 13.75 5.11671L12.3334 6.28337V5.08337C12.3334 4.95004 12.2167 4.83337 12.0667 4.83337C11.9167 4.83337 11.8167 4.95004 11.8 5.08337V8.06671L10 7.48337L10.5834 5.38337C10.6167 5.25004 10.55 5.10004 10.4 5.05004C10.25 5.00004 10.1167 5.08337 10.0667 5.23337L9.56669 7.03337L8.78336 5.86671C8.70003 5.75004 8.53336 5.71671 8.41669 5.80004C8.30003 5.88337 8.26669 6.05004 8.35003 6.16671L9.45003 7.80004L9.46669 7.81671L9.48336 7.83337L9.50003 7.85004L9.51669 7.86671C9.53336 7.86671 9.53336 7.88337 9.55003 7.88337H9.56669C9.58336 7.88337 9.58336 7.90004 9.60003 7.90004L11.8167 8.61671V11.8334L10.4667 12.6167L9.28336 10.1667C9.26669 10.15 9.26669 10.1334 9.25003 10.1167C9.25003 10.1167 9.25003 10.1167 9.23336 10.1C9.21669 10.0834 9.20003 10.0667 9.18336 10.0667L7.86669 9.30004L7.56669 6.93337C7.55003 6.83337 7.50003 6.76671 7.40003 6.71671C7.31669 6.68337 7.21669 6.70004 7.13336 6.75004C7.05003 6.80004 7.01669 6.90004 7.03336 7.00004L7.28336 8.96671L6.16669 8.31671C6.03336 8.25004 5.88336 8.30004 5.81669 8.41671C5.75003 8.53337 5.78336 8.70004 5.90003 8.76671L8.60003 10.3334L7.11669 11.6167L5.63336 9.95004C5.53336 9.83337 5.36669 9.83337 5.26669 9.93337C5.16669 10.0334 5.15003 10.2 5.25003 10.3L6.51669 11.7H5.10003C4.95003 11.7167 4.83336 11.8334 4.83336 11.9834C4.83336 12.1334 4.95003 12.25 5.10003 12.25H7.00003C7.01669 12.25 7.03336 12.25 7.05003 12.25C7.13336 12.2667 7.21669 12.25 7.26669 12.1834L8.96669 10.7L9.98336 12.8834L7.45003 14.35L5.55003 13.45C5.41669 13.4 5.26669 13.45 5.21669 13.5834C5.16669 13.7167 5.20003 13.8667 5.33336 13.9334L6.90003 14.6834L5.91669 15.25C5.78336 15.3167 5.75003 15.4834 5.81669 15.6167C5.88336 15.75 6.05003 15.7834 6.18336 15.7167L7.60003 14.9L8.83336 14.1834L9.10003 16.1167L6.96669 16.4834C6.83336 16.5167 6.73336 16.65 6.76669 16.7834C6.78336 16.9167 6.91669 17.0167 7.05003 17L8.86669 16.6667L8.15003 17.8834C8.08336 18.0167 8.11669 18.1667 8.25003 18.25C8.38336 18.3167 8.53336 18.2834 8.61669 18.15L9.61669 16.45V16.4334L9.63336 16.4167C9.63336 16.4 9.63336 16.4 9.65003 16.3834V16.3667C9.65003 16.35 9.65003 16.35 9.65003 16.3334V16.3167C9.65003 16.3 9.65003 16.2834 9.65003 16.2667L9.33336 13.8667L12.0834 12.2834L13.2167 12.95L11.7167 15.2834C11.7167 15.2834 11.7167 15.2834 11.7167 15.3V15.3167C11.7167 15.3334 11.7 15.3334 11.7 15.35C11.7 15.3667 11.7 15.3834 11.6834 15.4C11.6834 15.4 11.6834 15.4 11.6834 15.4167C11.6834 15.4334 11.6834 15.4334 11.6834 15.45L11.7167 16.9834L9.86669 18.4667C9.75003 18.55 9.73336 18.7167 9.83336 18.8334C9.91669 18.95 10.0834 18.9667 10.2 18.8667L11.7334 17.6334L11.7667 18.9334C11.7834 19.0667 11.9 19.1834 12.0334 19.1834C12.1667 19.1834 12.2834 19.0667 12.2834 18.9167L12.1834 15.8L14.05 16.4L13.4167 18.5334C13.3834 18.6334 13.4 18.7334 13.4667 18.8C13.5334 18.8667 13.6334 18.9 13.7167 18.8834C13.8 18.8667 13.8834 18.7834 13.9 18.6834L14.4334 16.8667L15.1667 18.0667C15.2167 18.15 15.3 18.2 15.4 18.2C15.5 18.2 15.5834 18.15 15.6167 18.0667C15.6667 17.9834 15.65 17.8834 15.6167 17.8L14.6667 16.1667C14.65 16.15 14.65 16.1334 14.6334 16.1167C14.6 16.0334 14.55 15.9834 14.4667 15.95L12.3334 15.2667L13.6667 13.2L16.4 14.8L16.5667 17.0167C16.5834 17.15 16.7 17.25 16.85 17.25C17 17.25 17.1 17.1167 17.1 16.9834L16.9667 15.1334L17.95 15.7C18.0334 15.75 18.1334 15.75 18.2167 15.7C18.3 15.65 18.35 15.5667 18.35 15.4667C18.35 15.3667 18.3 15.2834 18.2167 15.2334L16.8 14.4167L15.6 13.7167L17.1 12.4667L18.5334 14.1C18.6334 14.2167 18.8 14.2167 18.9 14.1167C19.0167 14.0167 19.0167 13.85 18.9167 13.75L17.6667 12.3667L19.0667 12.3334C19.2167 12.3334 19.3334 12.2 19.3334 12.0667C19.3334 11.9 19.2 11.7834 19.0667 11.8Z" fill="#1AEEC2"/>
</svg>
