<svg width="24" height="24" viewBox="0 0 24 24" fill="none" xmlns="http://www.w3.org/2000/svg">
<path opacity="0.2" d="M5.40367 17.997L6.42196 21L13.4118 12L6.42196 3L5.35403 5.93783L9.99714 11.9984L5.40367 17.997Z" fill="#FF564F"/>
<path d="M20.3033 20.9984H16.9862L9.99461 11.9984L16.9862 3H20.3033L13.4101 11.9984L20.3033 20.9984Z" fill="#F08179"/>
<path d="M3.76173 3H6.42037V20.9984H3.76173V3Z" fill="#FF564F"/>
<path d="M20.3059 20.9984H16.9888L9.99719 11.9984L16.9888 3H20.3059L13.4127 11.9984L20.3059 20.9984Z" fill="#FF564F"/>
<path d="M20.3059 20.9984H16.9888L9.99719 11.9984L16.9888 3H20.3059L13.4127 11.9984L20.3059 20.9984Z" fill="#FF564F"/>
<path d="M20.3059 20.9984H16.9888L9.99719 11.9984L16.9888 3H20.3059L13.4127 11.9984L20.3059 20.9984Z" fill="#FF564F"/>
<path d="M20.3059 20.9984H16.9888L9.99719 11.9984L16.9888 3H20.3059L13.4127 11.9984L20.3059 20.9984Z" fill="#FF564F"/>
</svg>
