<svg width="24" height="24" viewBox="0 0 24 24" fill="none" xmlns="http://www.w3.org/2000/svg">
<path d="M12 22C17.5228 22 22 17.5228 22 12C22 6.47715 17.5228 2 12 2C6.47715 2 2 6.47715 2 12C2 17.5228 6.47715 22 12 22Z" fill="#0080CA"/>
<path d="M14.6457 13.3133C15.4155 13.3133 16.0396 12.6819 16.0396 11.9031C16.0396 11.1242 15.4155 10.4928 14.6457 10.4928C13.8759 10.4928 13.2519 11.1242 13.2519 11.9031C13.2519 12.6819 13.8759 13.3133 14.6457 13.3133Z" fill="white"/>
<path d="M18.456 13.9864L18.415 13.9222L18.4041 13.9044C18.2512 13.6642 18.2048 13.6137 18.1311 13.5031C17.1113 11.9331 17.6942 10.9242 18.1529 10.4096C18.2089 10.3468 18.2608 10.273 18.3085 10.2157C18.3785 10.1348 18.4385 10.0459 18.4874 9.95086L18.4956 9.9372C18.5882 9.75215 18.635 9.54754 18.6321 9.34062C18.6016 9.00103 18.4452 8.68513 18.1936 8.45506C17.9419 8.22499 17.6133 8.09741 17.2724 8.09741C16.9314 8.09741 16.6028 8.22499 16.3512 8.45506C16.0995 8.68513 15.9431 9.00103 15.9126 9.34062C15.9126 9.56692 15.9699 9.78955 16.0792 9.98771C16.0956 10.0205 16.1734 10.1242 16.1816 10.142C16.1982 10.168 16.2174 10.1922 16.2389 10.2143C16.2863 10.273 16.3374 10.3287 16.3918 10.3809C16.5272 10.5315 16.6454 10.6968 16.744 10.8737C16.9397 11.2747 17.0209 11.7219 16.9788 12.166C16.9366 12.6102 16.7727 13.0341 16.5051 13.3911L16.1666 13.8771C16.1558 13.8911 16.1458 13.9057 16.1365 13.9208L16.1283 13.9317C15.991 14.1493 15.9203 14.4022 15.9249 14.6594C15.9554 14.999 16.1118 15.3149 16.3635 15.5449C16.6151 15.775 16.9437 15.9026 17.2847 15.9026C17.6256 15.9026 17.9542 15.775 18.2059 15.5449C18.4575 15.3149 18.6139 14.999 18.6444 14.6594C18.6441 14.4226 18.5805 14.1902 18.4601 13.9864H18.456Z" fill="white"/>
<path d="M13.1768 13.9863L13.1372 13.9222L13.1249 13.9044C12.972 13.6642 12.9256 13.6136 12.8519 13.5031C11.8321 11.9331 12.415 10.9242 12.8737 10.4095C12.9297 10.3467 12.9816 10.273 13.0294 10.2157C13.0993 10.1348 13.1593 10.0459 13.2082 9.95084L13.2164 9.93719C13.3076 9.75163 13.3544 9.54737 13.3529 9.3406C13.3568 9.13064 13.3123 8.9226 13.2227 8.73266C13.1331 8.54272 13.0009 8.37602 12.8364 8.2455C12.6719 8.11499 12.4795 8.02419 12.2741 7.98016C12.0688 7.93614 11.8561 7.94008 11.6525 7.99168C11.449 8.04328 11.26 8.14114 11.1005 8.27766C10.9409 8.41418 10.815 8.58567 10.7325 8.77879C10.65 8.97192 10.6132 9.18147 10.6249 9.39114C10.6366 9.60082 10.6965 9.80496 10.8 9.9877C10.8164 10.0205 10.8942 10.1242 10.9024 10.142C10.919 10.168 10.9382 10.1922 10.9597 10.2143C11.0071 10.273 11.0582 10.3287 11.1126 10.3809C11.2494 10.5314 11.3689 10.6967 11.4689 10.8737C11.6654 11.2741 11.7477 11.7209 11.7067 12.165C11.6658 12.6092 11.5032 13.0334 11.2369 13.3911C11.1546 13.5078 11.0633 13.6178 10.9638 13.7201L10.9406 13.7433C10.7888 13.8803 10.6222 13.9999 10.4437 14.0996C9.02116 14.7781 7.87031 13.8403 7.87031 13.8403L7.75427 13.7447C7.66812 13.6777 7.59461 13.5959 7.5372 13.5031C6.51741 11.9331 7.10034 10.9242 7.55905 10.4095C7.61502 10.3467 7.6669 10.273 7.71468 10.2157C7.7846 10.1348 7.84463 10.0459 7.89352 9.95084L7.90171 9.93719C7.99597 9.75245 8.0451 9.548 8.04505 9.3406C8.01459 9.00101 7.85815 8.68512 7.60652 8.45505C7.35489 8.22498 7.02628 8.0974 6.68533 8.0974C6.34437 8.0974 6.01576 8.22498 5.76413 8.45505C5.5125 8.68512 5.35606 9.00101 5.3256 9.3406C5.32555 9.56691 5.38285 9.78954 5.49215 9.9877C5.50853 10.0205 5.58635 10.1242 5.59454 10.142C5.61113 10.168 5.63035 10.1922 5.65188 10.2143C5.69925 10.273 5.75032 10.3287 5.80478 10.3809C5.93922 10.5317 6.05644 10.697 6.15427 10.8737C6.34992 11.2747 6.43114 11.7219 6.38899 12.166C6.34684 12.6102 6.18295 13.0341 5.91536 13.3911L5.74198 13.6369C5.60862 13.7643 5.50249 13.9175 5.42998 14.0872C5.35748 14.2568 5.32011 14.4394 5.32014 14.6239V14.6553C5.32497 14.923 5.40842 15.1834 5.5601 15.404C5.71179 15.6247 5.92501 15.7958 6.17323 15.8962C6.42145 15.9966 6.69371 16.0218 6.95614 15.9687C7.21856 15.9155 7.45956 15.7863 7.64915 15.5973C7.71604 15.5508 7.75973 15.5181 7.82116 15.4785C9.39113 14.4587 10.4 15.0416 10.916 15.5003C10.957 15.5372 11.0007 15.5727 11.0444 15.6055C11.2352 15.7925 11.4767 15.9195 11.739 15.9706C12.0013 16.0217 12.2728 15.9948 12.5199 15.893C12.767 15.7913 12.9788 15.6192 13.1291 15.3982C13.2793 15.1772 13.3614 14.917 13.3652 14.6498C13.3649 14.4131 13.3013 14.1807 13.1809 13.9768L13.1768 13.9863Z" fill="white"/>
</svg>
