<svg width="24" height="24" viewBox="0 0 24 24" fill="none" xmlns="http://www.w3.org/2000/svg">
<g clip-path="url(#clip0_133_88)">
<path d="M12 22.0006C17.5228 22.0006 22 17.5234 22 12.0006C22 6.47773 17.5228 2.00058 12 2.00058C6.47715 2.00058 2 6.47773 2 12.0006C2 17.5234 6.47715 22.0006 12 22.0006Z" fill="black"/>
<path d="M6.16666 14.2255V17.0905H10.5265V16.4552H6.80191V14.2255H6.16666ZM17.1223 14.2255V16.4552H13.3977V17.0903H17.7576V14.2255H17.1223ZM10.5328 9.86547V14.2253H13.3977V13.6523H11.1681V9.86547H10.5328ZM6.16666 7.00043V9.86547H6.80191V7.63568H10.5265V7.00043H6.16666ZM13.3977 7.00043V7.63568H17.1223V9.86547H17.7576V7.00043H13.3977Z" fill="white"/>
</g>
<defs>
<clipPath id="clip0_133_88">
<rect width="20" height="20" fill="white" transform="translate(2 2)"/>
</clipPath>
</defs>
</svg>
