<svg width="24" height="24" viewBox="0 0 24 24" fill="none" xmlns="http://www.w3.org/2000/svg">
<g clip-path="url(#clip0_127_150)">
<path d="M12 22C17.5228 22 22 17.5228 22 12C22 6.47715 17.5228 2 12 2C6.47715 2 2 6.47715 2 12C2 17.5228 6.47715 22 12 22Z" fill="#36A9CF"/>
<path fill-rule="evenodd" clip-rule="evenodd" d="M18.4438 13.5469C18.5538 13.595 18.5944 13.7444 18.5351 13.8806C18.5173 13.9258 18.4881 13.9655 18.4503 13.9959C18.4125 14.0262 18.3673 14.0462 18.3194 14.0537L16.9288 16.6181C16.9411 16.6754 16.9382 16.7348 16.9205 16.7906C16.9027 16.8464 16.8707 16.8966 16.8276 16.9362C16.7932 16.9721 16.7514 17.0001 16.7051 17.0181C16.6587 17.0362 16.609 17.0438 16.5594 17.0406L13.8476 18.6644C13.8265 18.7178 13.7917 18.7648 13.7467 18.8006C13.7017 18.8363 13.6481 18.8596 13.5913 18.8681C13.4576 18.8937 13.3301 18.845 13.2688 18.7544L10.0826 18.5312C10.0429 18.5615 9.99705 18.5824 9.94828 18.5926C9.8995 18.6027 9.84907 18.6019 9.80068 18.59C9.64318 18.5556 9.53443 18.43 9.54068 18.3006L7.0788 16.5244C7.02738 16.5336 6.9745 16.5305 6.92451 16.5152C6.87453 16.5 6.82888 16.4732 6.7913 16.4369C6.6838 16.3394 6.64505 16.1975 6.6863 16.09L5.6738 13.7419C5.56318 13.72 5.46755 13.6112 5.44255 13.4675C5.42193 13.3381 5.46443 13.2162 5.5438 13.1512L5.69318 9.59687C5.65955 9.55103 5.63794 9.49751 5.63029 9.44118C5.62265 9.38485 5.62923 9.3275 5.64943 9.27437C5.69943 9.12874 5.82005 9.03687 5.9388 9.04312L8.5963 6.25874C8.57318 6.12749 8.67318 5.98812 8.83005 5.93874C8.87873 5.92214 8.93059 5.91706 8.98156 5.92389C9.03253 5.93072 9.08122 5.94928 9.1238 5.97812L12.9476 5.28312C12.9969 5.17062 13.1369 5.10437 13.2882 5.13124C13.4257 5.15499 13.5288 5.24937 13.5532 5.35812L15.3194 6.36562C15.3684 6.34997 15.4202 6.34511 15.4712 6.35136C15.5222 6.35762 15.5713 6.37485 15.6151 6.40187C15.6632 6.42991 15.7044 6.46858 15.7354 6.51494C15.7664 6.56129 15.7863 6.61411 15.7938 6.66937L16.5538 7.18061C16.6028 7.16732 16.6543 7.16548 16.7041 7.17523C16.754 7.18498 16.8009 7.20607 16.8413 7.23687C16.9838 7.33937 17.0351 7.51812 16.9538 7.63687L16.9488 7.64312L18.0632 9.81812C18.1694 9.80374 18.2782 9.88624 18.3169 10.0169C18.3594 10.16 18.3007 10.3056 18.1869 10.3419C18.0726 10.3794 17.9457 10.2931 17.9038 10.1506L17.8963 10.1194L15.6032 8.89124C15.5667 8.94259 15.517 8.98318 15.4594 9.00874V15.13C15.5343 15.163 15.5954 15.221 15.6324 15.2941C15.6693 15.3671 15.6797 15.4507 15.6619 15.5306L16.5932 16.4794C16.6409 16.4592 16.693 16.4518 16.7444 16.4581L18.1507 13.9731C18.1264 13.9331 18.1125 13.8877 18.1102 13.841C18.1079 13.7943 18.1173 13.7478 18.1376 13.7056C18.1969 13.5694 18.3344 13.4987 18.4438 13.5469ZM18.4463 13.8437C18.4701 13.7887 18.4532 13.7294 18.4094 13.71C18.3657 13.6912 18.3107 13.7194 18.2869 13.7737C18.2632 13.8281 18.2794 13.8875 18.3238 13.9075C18.3676 13.9262 18.4219 13.8981 18.4463 13.8437ZM16.7807 16.8387C16.8307 16.7887 16.8394 16.715 16.8001 16.6737C16.7607 16.6325 16.6882 16.6394 16.6376 16.6887C16.5876 16.7387 16.5788 16.8131 16.6182 16.8544C16.6576 16.8956 16.7307 16.8887 16.7807 16.8387ZM16.3876 16.6825L16.3944 16.6675L15.5013 15.7587C15.4479 15.7921 15.3862 15.8099 15.3232 15.81C15.2575 15.8098 15.1933 15.7909 15.1381 15.7555C15.0828 15.7201 15.0388 15.6696 15.0113 15.61H13.8126C13.7816 15.6751 13.7314 15.7292 13.6688 15.765L13.7857 17.4569C13.8319 17.4769 13.8732 17.5056 13.9044 17.5412L16.3876 16.6825ZM13.7826 18.4237L15.9494 17.1262L13.9744 17.8087C13.9614 17.8581 13.9368 17.9037 13.9028 17.9418C13.8688 17.9799 13.8264 18.0095 13.7788 18.0281L13.7188 18.3806C13.742 18.3919 13.7634 18.4064 13.7826 18.4237ZM13.5794 18.76C13.6482 18.7475 13.6951 18.6912 13.6851 18.6337C13.6751 18.5775 13.6101 18.5412 13.5413 18.555C13.4732 18.5675 13.4257 18.6237 13.4357 18.6806C13.4463 18.7375 13.5107 18.7731 13.5794 18.76ZM13.2644 18.5112C13.3059 18.4429 13.3707 18.3918 13.4469 18.3675L13.5038 18.0331C13.4531 18.0143 13.4076 17.9839 13.3707 17.9444L10.8844 18.3456L13.2644 18.5112ZM10.9388 15.8012L10.1301 18.1869L13.2651 17.6806L11.0469 15.7556C11.0137 15.7769 10.9772 15.7923 10.9388 15.8012ZM9.89818 18.0231L10.6694 15.7487C10.6186 15.7135 10.5781 15.6654 10.5519 15.6094H9.14193C9.13326 15.6267 9.12345 15.6434 9.11255 15.6594L9.89818 18.0231ZM9.80255 18.4825C9.8713 18.4975 9.9363 18.4637 9.94755 18.4075C9.96005 18.3512 9.91443 18.2931 9.84568 18.2775C9.77693 18.2631 9.71193 18.2962 9.70005 18.3525C9.68818 18.41 9.7338 18.4675 9.80255 18.4825ZM7.24818 16.35L9.6263 18.0662L8.87505 15.8062C8.82088 15.8133 8.76581 15.8073 8.71439 15.7889C8.66298 15.7704 8.61672 15.7399 8.57943 15.7L7.25255 16.2781C7.25446 16.3021 7.2532 16.3263 7.2488 16.35H7.24818ZM7.02568 15.9762C7.05949 15.9911 7.09104 16.0107 7.11943 16.0344L8.4838 15.4406C8.4865 15.3731 8.50816 15.3077 8.5463 15.2519L6.4363 13.0712L7.02568 15.9762ZM7.0113 16.3569C7.0488 16.3144 7.0363 16.2406 6.98443 16.1931C6.93193 16.1462 6.85943 16.1425 6.82193 16.1856C6.78443 16.2294 6.79568 16.3031 6.84818 16.35C6.90068 16.3969 6.9738 16.4 7.01068 16.3569H7.0113ZM5.89255 13.6487L6.6188 15.3319L6.13193 12.9331L5.94005 13.3419C5.95563 13.3933 5.95945 13.4476 5.95123 13.5007C5.943 13.5538 5.92295 13.6044 5.89255 13.6487ZM5.87505 10.9362L5.78755 13.0312L5.9613 12.6625C5.93262 12.6081 5.91883 12.547 5.92136 12.4856C5.92388 12.4241 5.94262 12.3644 5.97568 12.3125L5.87505 10.9362ZM5.75005 9.27937C5.7263 9.34687 5.75193 9.41686 5.80505 9.43624C5.8588 9.45499 5.92005 9.41624 5.94318 9.34874C5.9663 9.28124 5.94193 9.21124 5.88818 9.19187C5.83443 9.17312 5.77318 9.21187 5.74943 9.27937H5.75005ZM6.27755 12.5C6.27755 12.4287 6.22568 12.3712 6.16318 12.3712C6.10005 12.3712 6.04818 12.4287 6.04818 12.5C6.04818 12.5719 6.10005 12.6294 6.16318 12.6294C6.22568 12.6294 6.27755 12.5719 6.27755 12.5ZM6.1338 9.44624C6.1162 9.49933 6.08694 9.5478 6.04818 9.58812L6.22943 12.0819L7.34193 8.56374L6.1513 9.37187C6.1478 9.39715 6.14195 9.42205 6.1338 9.44624ZM8.02505 7.20562L6.5038 8.79937L7.28318 8.27062C7.29365 8.19944 7.32447 8.13281 7.37193 8.07874C7.42079 8.02067 7.48692 7.97972 7.56068 7.96187L8.02505 7.20562ZM8.8088 6.45124L7.81693 8.06499C7.84089 8.10958 7.85132 8.16019 7.84693 8.21062L8.5813 8.43624C8.61966 8.39512 8.66758 8.36412 8.72081 8.34599C8.77403 8.32786 8.83091 8.32316 8.88639 8.33231C8.94187 8.34147 8.99423 8.36419 9.03881 8.39846C9.08339 8.43273 9.11882 8.47748 9.14193 8.52874H10.3713C10.3941 8.47974 10.428 8.43672 10.4703 8.40309C10.5126 8.36947 10.5622 8.34615 10.6151 8.33499L11.2832 6.91374C11.2472 6.86634 11.2235 6.8107 11.2144 6.75187L9.17193 6.29937C9.12564 6.36665 9.0577 6.41606 8.97943 6.43937C8.92435 6.45699 8.86587 6.46128 8.8088 6.45187V6.45124ZM8.84505 6.04312C8.77818 6.06374 8.73755 6.12562 8.7538 6.18062C8.77068 6.23624 8.83818 6.26374 8.90443 6.24312C8.9713 6.22249 9.01255 6.16062 8.99568 6.10562C8.97943 6.04999 8.91255 6.02187 8.84505 6.04312ZM12.7501 5.56562L9.66755 6.12687L11.2801 6.48374C11.3235 6.42431 11.385 6.38048 11.4554 6.35875C11.5258 6.33703 11.6013 6.33855 11.6707 6.36312L12.7501 5.56562ZM13.1282 5.62624L11.9788 6.47624L15.1319 6.56374L15.1388 6.53999L13.4676 5.58749C13.4295 5.61537 13.3861 5.63504 13.34 5.64526C13.294 5.65548 13.2463 5.65603 13.2001 5.64687C13.1755 5.64244 13.1514 5.63553 13.1282 5.62624ZM13.2769 5.23937C13.2082 5.22687 13.1438 5.26312 13.1344 5.32062C13.1251 5.37687 13.1719 5.43312 13.2413 5.44562C13.3101 5.45812 13.3738 5.42187 13.3838 5.36437C13.3938 5.30812 13.3457 5.25187 13.2769 5.23937ZM15.2976 6.94249C15.2549 6.91614 15.2177 6.88175 15.1882 6.84124L11.8988 6.74999C11.8963 6.76954 11.8919 6.78879 11.8857 6.80749L13.2132 8.33812C13.2899 8.32145 13.37 8.33129 13.4403 8.36603C13.5107 8.40077 13.5673 8.45835 13.6007 8.52937H15.0113C15.0457 8.45603 15.1045 8.39685 15.1776 8.36187L15.2976 6.94249ZM15.3226 8.54124C15.2469 8.54124 15.1851 8.60499 15.1851 8.68312C15.1851 8.76124 15.2469 8.82437 15.3226 8.82437C15.3994 8.82437 15.4619 8.76124 15.4619 8.68312C15.4619 8.60499 15.3994 8.54124 15.3232 8.54124H15.3226ZM15.3844 6.54124C15.3501 6.60124 15.3757 6.68249 15.4419 6.72124C15.5076 6.76124 15.5894 6.74437 15.6232 6.68374C15.6582 6.62374 15.6326 6.54312 15.5663 6.50374C15.5001 6.46437 15.4188 6.48124 15.3844 6.54124ZM17.8313 9.86499L15.5644 6.99812L15.4501 8.35374C15.5107 8.37856 15.5633 8.41976 15.602 8.47274C15.6406 8.52571 15.6637 8.58838 15.6688 8.65374L17.8313 9.86499ZM16.3982 7.36687L15.8894 7.02562L17.5313 9.16312L16.7326 7.73374C16.6658 7.72856 16.6017 7.70498 16.5476 7.66562C16.4413 7.58999 16.3851 7.47187 16.3976 7.36687H16.3982ZM16.6357 7.33124C16.6032 7.37874 16.6232 7.44999 16.6807 7.49124C16.7376 7.53187 16.8107 7.52687 16.8432 7.47874C16.8757 7.43187 16.8557 7.35999 16.7988 7.31937C16.7407 7.27874 16.6682 7.28374 16.6363 7.33187L16.6357 7.33124ZM13.1544 8.68312C13.1544 8.75937 13.2138 8.82124 13.2894 8.82124C13.3257 8.82075 13.3603 8.80596 13.3857 8.78009C13.4111 8.75422 13.4252 8.71937 13.4251 8.68312C13.4254 8.64675 13.4113 8.61174 13.3859 8.58574C13.3605 8.55974 13.3258 8.54486 13.2894 8.54437C13.2531 8.54486 13.2184 8.55974 13.193 8.58574C13.1676 8.61174 13.1535 8.64675 13.1538 8.68312H13.1544ZM13.2288 11.6662C13.2104 11.6664 13.1922 11.6702 13.1753 11.6774C13.1584 11.6846 13.1431 11.695 13.1302 11.7081C13.1173 11.7212 13.1071 11.7368 13.1002 11.7538C13.0933 11.7709 13.0899 11.7891 13.0901 11.8075C13.0901 11.8856 13.1526 11.9494 13.2288 11.9494C13.2472 11.9491 13.2653 11.9453 13.2822 11.938C13.2991 11.9307 13.3144 11.9202 13.3273 11.907C13.3401 11.8939 13.3502 11.8783 13.357 11.8612C13.3638 11.8441 13.3672 11.8259 13.3669 11.8075C13.3672 11.7891 13.3638 11.7709 13.357 11.7539C13.3502 11.7368 13.3401 11.7213 13.3272 11.7082C13.3144 11.695 13.2991 11.6846 13.2822 11.6774C13.2653 11.6702 13.2472 11.6664 13.2288 11.6662ZM11.4182 6.65124C11.4182 6.72937 11.4801 6.79249 11.5563 6.79249C11.5747 6.79233 11.5929 6.78854 11.6098 6.78136C11.6267 6.77417 11.6421 6.76372 11.6549 6.7506C11.6678 6.73749 11.678 6.72196 11.6849 6.70491C11.6918 6.68786 11.6952 6.66963 11.6951 6.65124C11.6951 6.57312 11.6326 6.50937 11.5563 6.50937C11.5379 6.50961 11.5198 6.51347 11.5029 6.52074C11.486 6.528 11.4707 6.53852 11.4579 6.55169C11.445 6.56487 11.4349 6.58044 11.4281 6.59752C11.4213 6.6146 11.4179 6.63285 11.4182 6.65124ZM11.5194 7.04937L10.8857 8.39624C10.9565 8.44831 11.0055 8.52483 11.0232 8.61097C11.0409 8.6971 11.0259 8.78673 10.9813 8.86249L13.0938 11.4812C13.1132 11.4732 13.1333 11.4669 13.1538 11.4625V9.00874C13.1075 8.98855 13.066 8.95867 13.0321 8.92109C12.9983 8.88352 12.9729 8.83913 12.9577 8.79092C12.9425 8.74271 12.9378 8.69179 12.9439 8.64161C12.95 8.59142 12.9668 8.54313 12.9932 8.49999L11.7057 7.01624C11.6479 7.04439 11.5834 7.05586 11.5194 7.04937ZM10.5444 8.68312C10.5444 8.76124 10.6069 8.82437 10.6832 8.82437C10.7588 8.82437 10.8213 8.76124 10.8213 8.68312C10.8213 8.60499 10.7588 8.54124 10.6832 8.54124C10.646 8.54173 10.6105 8.55694 10.5845 8.58353C10.5585 8.61012 10.5441 8.64593 10.5444 8.68312ZM8.69443 8.68312C8.69443 8.75937 8.75443 8.82124 8.82943 8.82124C8.90443 8.82124 8.96505 8.75937 8.96505 8.68312C8.96505 8.60624 8.90443 8.54437 8.82943 8.54437C8.75443 8.54437 8.69443 8.60687 8.69443 8.68312ZM8.82943 15.3144C8.81113 15.3146 8.79305 15.3185 8.77623 15.3257C8.75942 15.3329 8.74419 15.3434 8.73142 15.3565C8.71865 15.3696 8.70859 15.3851 8.70182 15.4021C8.69504 15.4191 8.69168 15.4373 8.69193 15.4556C8.69193 15.5337 8.75318 15.5969 8.82943 15.5969C8.84781 15.5967 8.86599 15.5929 8.88291 15.5857C8.89983 15.5785 8.91517 15.5681 8.92806 15.555C8.94094 15.5419 8.95112 15.5263 8.958 15.5093C8.96489 15.4922 8.96834 15.474 8.96818 15.4556C8.96843 15.4372 8.96503 15.4189 8.95817 15.4018C8.95132 15.3848 8.94115 15.3692 8.92825 15.3561C8.91534 15.3429 8.89997 15.3325 8.88301 15.3253C8.86605 15.3182 8.84784 15.3144 8.82943 15.3144ZM7.45693 8.15187C7.4113 8.20562 7.40755 8.27999 7.45068 8.31812C7.49255 8.35562 7.56443 8.34437 7.61068 8.28999C7.65693 8.23687 7.66005 8.16249 7.61755 8.12437C7.57505 8.08562 7.5038 8.09812 7.45693 8.15187ZM6.4413 12.3137C6.47634 12.3695 6.49476 12.4341 6.49443 12.5C6.49443 12.5687 6.47568 12.6325 6.44318 12.6844L8.69443 15.0106V9.00874C8.6333 8.98181 8.58106 8.9381 8.54378 8.88267C8.5065 8.82725 8.4857 8.76239 8.4838 8.69562L7.72005 8.46124C7.69633 8.48277 7.66984 8.50106 7.6413 8.51562L6.4413 12.3137ZM13.5001 15.1012C13.6494 15.1012 13.7763 15.1981 13.8251 15.3325H14.9988C15.0148 15.2877 15.0399 15.2466 15.0723 15.2118C15.1048 15.177 15.144 15.1491 15.1876 15.13V9.00874C15.144 8.98963 15.1047 8.9618 15.0723 8.92698C15.0398 8.89216 15.0148 8.85107 14.9988 8.80624H13.6138C13.5976 8.85097 13.5725 8.89196 13.5401 8.92676C13.5077 8.96155 13.4685 8.98944 13.4251 9.00874V11.515C13.4717 11.5481 13.5097 11.592 13.5358 11.6429C13.5619 11.6938 13.5754 11.7503 13.5751 11.8075C13.5761 11.9004 13.5402 11.9899 13.4752 12.0563C13.4103 12.1227 13.3217 12.1607 13.2288 12.1619C13.1828 12.1614 13.1373 12.1518 13.095 12.1337C13.0527 12.1157 13.0143 12.0894 12.9822 12.0565C12.95 12.0236 12.9247 11.9846 12.9076 11.9419C12.8905 11.8992 12.882 11.8535 12.8826 11.8075C12.8826 11.7637 12.8901 11.7219 12.9051 11.6825L10.7626 9.02749C10.6798 9.04654 10.5928 9.03453 10.5183 8.99375C10.4438 8.95296 10.3868 8.88624 10.3582 8.80624H9.15443C9.13816 8.85102 9.11299 8.89205 9.08045 8.92685C9.0479 8.96165 9.00865 8.98951 8.96505 9.00874V15.13C9.05255 15.1675 9.12068 15.2412 9.15443 15.3325H10.5388C10.5551 15.2877 10.5802 15.2467 10.6128 15.2119C10.6453 15.1771 10.6846 15.1492 10.7282 15.13V12.5862C10.6772 12.5542 10.6352 12.5098 10.6061 12.4571C10.577 12.4044 10.5618 12.3452 10.5619 12.285C10.5614 12.2389 10.5699 12.1932 10.587 12.1504C10.6041 12.1077 10.6296 12.0687 10.6618 12.0358C10.694 12.0029 10.7324 11.9766 10.7748 11.9586C10.8172 11.9405 10.8627 11.931 10.9088 11.9306C10.9656 11.9308 11.0215 11.9448 11.0717 11.9715C11.1219 11.9981 11.1648 12.0366 11.1968 12.0835C11.2288 12.1305 11.2489 12.1845 11.2554 12.2409C11.2618 12.2974 11.2544 12.3545 11.2338 12.4075L13.4107 15.1137C13.4398 15.1059 13.4699 15.1017 13.5001 15.1012ZM13.6501 17.6306C13.5751 17.6306 13.5126 17.6869 13.5126 17.7569C13.5126 17.8269 13.5751 17.8825 13.6501 17.8825C13.7269 17.8825 13.7894 17.8262 13.7894 17.7575C13.7894 17.6887 13.7269 17.6306 13.6507 17.6306H13.6501ZM13.3619 15.4556C13.3619 15.5337 13.4238 15.5969 13.4994 15.5969C13.5179 15.5968 13.5361 15.5931 13.5531 15.5859C13.5701 15.5788 13.5855 15.5683 13.5985 15.5552C13.6114 15.5421 13.6216 15.5265 13.6286 15.5094C13.6355 15.4923 13.639 15.4741 13.6388 15.4556C13.639 15.4372 13.6355 15.419 13.6286 15.4019C13.6217 15.3849 13.6116 15.3694 13.5987 15.3563C13.5858 15.3431 13.5705 15.3327 13.5535 15.3255C13.5366 15.3183 13.5184 15.3145 13.5001 15.3144C13.463 15.3149 13.4277 15.33 13.4018 15.3565C13.3759 15.3829 13.3616 15.4186 13.3619 15.4556ZM10.7701 12.285C10.7701 12.3631 10.8326 12.4262 10.9088 12.4262C10.9851 12.4262 11.0469 12.3631 11.0469 12.285C11.0469 12.2062 10.9851 12.1437 10.9088 12.1437C10.8326 12.1437 10.7701 12.2062 10.7701 12.285ZM10.8638 15.3144C10.8454 15.3145 10.8272 15.3183 10.8103 15.3255C10.7934 15.3327 10.7781 15.3431 10.7652 15.3563C10.7523 15.3694 10.7421 15.3849 10.7352 15.4019C10.7283 15.419 10.7249 15.4372 10.7251 15.4556C10.7251 15.5337 10.7876 15.5969 10.8638 15.5969C10.9401 15.5969 11.0019 15.5337 11.0019 15.4556C11.0022 15.4373 10.9988 15.419 10.992 15.402C10.9852 15.3849 10.975 15.3694 10.9622 15.3563C10.9494 15.3432 10.9341 15.3327 10.9172 15.3255C10.9003 15.3183 10.8822 15.3145 10.8638 15.3144ZM10.9988 15.13C11.0734 15.1627 11.1345 15.2202 11.1716 15.2928C11.2087 15.3653 11.2196 15.4484 11.2026 15.5281L13.4482 17.4762C13.4686 17.4644 13.4902 17.4545 13.5126 17.4469L13.3976 15.7944C13.3263 15.771 13.2643 15.7255 13.2205 15.6647C13.1767 15.6038 13.1534 15.5306 13.1538 15.4556C13.1538 15.3931 13.1694 15.335 13.1976 15.285L11.0457 12.61C11.0305 12.6167 11.0148 12.6221 10.9988 12.6262V15.13ZM15.4613 15.455C15.4615 15.4367 15.458 15.4185 15.4512 15.4016C15.4443 15.3846 15.4342 15.3691 15.4214 15.3561C15.4085 15.343 15.3933 15.3326 15.3764 15.3255C15.3596 15.3183 15.3415 15.3145 15.3232 15.3144C15.3048 15.3145 15.2866 15.3183 15.2697 15.3255C15.2528 15.3327 15.2374 15.3431 15.2245 15.3563C15.2117 15.3694 15.2015 15.3849 15.1946 15.4019C15.1877 15.419 15.1843 15.4372 15.1844 15.4556C15.1844 15.5337 15.2469 15.5969 15.3232 15.5969C15.3994 15.5969 15.4619 15.5337 15.4619 15.4556L15.4613 15.455ZM5.64255 13.5669C5.6988 13.5575 5.73443 13.4925 5.72255 13.4225C5.71005 13.3519 5.65568 13.3025 5.60005 13.3125C5.5438 13.3219 5.5088 13.3875 5.52068 13.4575C5.53193 13.5281 5.58693 13.5775 5.64255 13.5669ZM18.1251 9.99562C18.0801 10.01 18.0563 10.0687 18.0732 10.1256C18.0901 10.1825 18.1407 10.2169 18.1857 10.2025C18.2319 10.1881 18.2544 10.1294 18.2382 10.0725C18.2219 10.015 18.1707 9.98124 18.1257 9.99562H18.1251Z" fill="white"/>
</g>
<defs>
<clipPath id="clip0_127_150">
<rect width="20" height="20" fill="white" transform="translate(2 2)"/>
</clipPath>
</defs>
</svg>
