<svg width="24" height="24" viewBox="0 0 24 24" fill="none" xmlns="http://www.w3.org/2000/svg">
<g clip-path="url(#clip0_135_312)">
<path d="M21.2469 10.4493C21.075 10.0562 20.8366 9.78654 20.5763 9.68896C20.5052 9.66148 20.4297 9.64737 20.3534 9.64731C20.2117 9.65838 20.0747 9.70392 19.9545 9.77998C19.8343 9.85603 19.7346 9.96029 19.6638 10.0837C19.5745 10.2119 19.5 10.3497 19.4417 10.4947C19.4055 10.3038 19.3606 10.1148 19.3072 9.92806C19.3885 9.80301 19.4847 9.68835 19.5938 9.58661L19.6187 9.56367L19.6088 9.53155C19.3637 8.73289 18.9922 7.97867 18.5084 7.29759C17.6488 6.08813 16.4677 5.14354 15.0989 4.57081C13.7301 3.99808 12.2282 3.8201 10.7634 4.05702C9.29865 4.29394 7.92949 4.9363 6.81101 5.91134C5.69253 6.88637 4.86943 8.15513 4.43494 9.5739L4.42576 9.60443L4.44853 9.62719C4.47217 9.65066 4.49599 9.6759 4.52052 9.70254C4.47186 9.85524 4.42843 10.0096 4.3903 10.1652C4.3873 10.1601 4.38394 10.155 4.38077 10.15C4.1729 9.82589 3.91209 9.64731 3.64635 9.64731C3.59427 9.64732 3.5424 9.65384 3.49194 9.66672C3.21526 9.73819 2.9601 9.9997 2.77358 10.4033C2.58461 10.853 2.48727 11.3359 2.48727 11.8238C2.48727 12.3116 2.58461 12.7945 2.77358 13.2442C2.95939 13.6478 3.21473 13.9097 3.49141 13.9811C3.5418 13.9941 3.59362 14.0007 3.64564 14.0007C3.91139 14.0007 4.17219 13.822 4.38006 13.4978C4.38324 13.4929 4.38659 13.4878 4.38959 13.4826C4.4277 13.6383 4.47129 13.7932 4.51982 13.9453C4.49676 13.9713 4.47274 13.9964 4.44782 14.0207L4.42506 14.0434L4.43423 14.074C4.67643 14.8773 5.04638 15.6364 5.52986 16.3222C6.26133 17.3626 7.23188 18.2122 8.35993 18.7995C9.48799 19.3869 10.7406 19.6948 12.0124 19.6974C13.2842 19.7001 14.538 19.3973 15.6685 18.8146C16.7989 18.232 17.773 17.3864 18.5087 16.349C18.9925 15.6679 19.364 14.9137 19.6091 14.1151L19.619 14.083L19.5941 14.06C19.4851 13.9583 19.3889 13.8436 19.3078 13.7186C19.3607 13.5326 19.4052 13.3432 19.442 13.152C19.5003 13.2966 19.5748 13.4341 19.664 13.5619C19.7347 13.6854 19.8345 13.7898 19.9547 13.8659C20.0749 13.9421 20.2119 13.9877 20.3538 13.9988C20.43 13.9987 20.5055 13.9845 20.5765 13.957C20.8371 13.8594 21.0753 13.5894 21.247 13.1966C21.6012 12.3153 21.6012 11.3313 21.247 10.45L21.2469 10.4493Z" fill="white"/>
<path d="M15.5395 11.4405C15.5395 10.5946 15.0101 9.9101 14.3572 9.9101C13.7043 9.9101 13.1749 10.5955 13.1749 11.4405C13.1749 12.2856 13.7043 12.9724 14.3572 12.9724C15.0101 12.9724 15.5395 12.2863 15.5395 11.4405Z" fill="#333333"/>
<path d="M9.80313 10.4885C9.39904 10.4885 9.07118 10.9132 9.07118 11.4373C9.07118 11.9614 9.39904 12.3859 9.80313 12.3859C10.2072 12.3859 10.5351 11.9614 10.5351 11.4373C10.5351 10.9132 10.2076 10.4885 9.80313 10.4885Z" fill="#333333"/>
<path d="M12.9673 15.9171H12.5385C12.5355 15.9168 12.5325 15.9168 12.5295 15.9171H11.3119C11.2664 15.9171 11.2228 15.9351 11.1906 15.9673C11.1585 15.9995 11.1404 16.0431 11.1404 16.0886C11.1404 16.1341 11.1585 16.1777 11.1906 16.2099C11.2228 16.242 11.2664 16.2601 11.3119 16.2601H12.953C12.9556 16.3317 12.9536 16.4034 12.9468 16.4747C12.9453 16.5164 12.9358 16.5574 12.9187 16.5956C12.8284 16.6159 12.7357 16.624 12.6431 16.6195C12.5978 16.6182 12.5538 16.6346 12.5204 16.6652C12.487 16.6958 12.4668 16.7382 12.4642 16.7835C12.4623 16.8289 12.4785 16.8733 12.5092 16.9068C12.5399 16.9404 12.5827 16.9603 12.6281 16.9624C12.6447 16.9624 12.6666 16.9636 12.6941 16.9636C12.8284 16.9636 13.0717 16.946 13.1693 16.8306C13.2418 16.7362 13.2831 16.6216 13.2874 16.5027C13.3107 16.3475 13.2987 16.1889 13.2521 16.039C13.2004 15.9171 13.0652 15.9171 12.9673 15.9171Z" fill="#333333"/>
<path d="M11.819 13.9046C11.9425 13.8238 11.887 13.5245 11.6955 13.2358C11.504 12.9471 11.2517 12.7786 11.1289 12.8605C11.0061 12.9423 11.0617 13.2406 11.2524 13.5292C11.4432 13.8179 11.6971 13.9857 11.819 13.9046Z" fill="#333333"/>
<path d="M12.2369 13.9045C12.3605 13.9857 12.6146 13.8175 12.8035 13.5294C12.9925 13.2412 13.049 12.9416 12.9271 12.8606C12.8051 12.7796 12.5503 12.9479 12.3597 13.2357C12.1692 13.5236 12.1148 13.8237 12.2369 13.9045Z" fill="#333333"/>
<path d="M7.71408 8.91097C7.7163 8.90885 7.71839 8.90659 7.72032 8.9042L7.73494 8.88405C7.75901 8.8507 7.71408 8.91097 7.71408 8.91097Z" fill="black"/>
<path d="M15.7026 7.64081L15.712 7.64487C15.7131 7.64518 15.7144 7.64518 15.7155 7.64487L15.7026 7.64081Z" fill="black"/>
<path d="M20.4477 9.18202C19.8949 7.42109 18.804 5.87779 17.3283 4.76928C15.8526 3.66078 14.0665 3.04287 12.2213 3.00251C10.3761 2.96215 8.56471 3.50136 7.04197 4.54428C5.51924 5.5872 4.36184 7.08132 3.73263 8.8164L3.43371 5.91736C3.59334 5.83868 3.71995 5.70602 3.79111 5.5429C3.86227 5.37978 3.87338 5.19673 3.82247 5.0262C3.77157 4.85567 3.66193 4.70867 3.51299 4.61126C3.36405 4.51384 3.18543 4.47231 3.0088 4.49401C2.83216 4.51571 2.66891 4.59924 2.54798 4.72981C2.42705 4.86038 2.35625 5.02955 2.34813 5.20733C2.34001 5.38511 2.3951 5.56002 2.50363 5.70107C2.61215 5.84211 2.76711 5.94018 2.94104 5.97789L3.27631 9.23372C2.53942 9.4783 1.99998 10.5277 1.99998 11.8231C1.99998 13.3053 2.70582 14.4654 3.60576 14.4654H3.60876C4.17174 16.2576 5.29194 17.8235 6.80637 18.9351C8.3208 20.0467 10.1504 20.646 12.029 20.6459C13.9076 20.6457 15.7372 20.0461 17.2514 18.9343C18.7657 17.8225 19.8857 16.2565 20.4484 14.4641C21.3227 14.4174 21.9991 13.2743 21.9991 11.8231C21.9991 10.3719 21.3222 9.22914 20.4477 9.18202ZM20.5968 13.9302C20.5315 13.9557 20.4621 13.9688 20.3921 13.9688C20.2583 13.9566 20.1294 13.9121 20.0165 13.8393C19.9035 13.7664 19.8099 13.6673 19.7436 13.5504C19.6295 13.3835 19.5389 13.2016 19.4743 13.0099C19.219 12.2398 19.219 11.4078 19.4743 10.6376C19.5389 10.4454 19.6295 10.263 19.7438 10.0955C19.8101 9.9787 19.9037 9.87964 20.0167 9.80681C20.1296 9.73399 20.2585 9.68957 20.3923 9.67734C20.4623 9.67738 20.5317 9.69049 20.597 9.71598C21.105 9.90727 21.5024 10.7949 21.5024 11.8231C21.5024 12.8513 21.105 13.7389 20.597 13.9302H20.5968ZM2.49636 11.8231C2.49636 10.7523 2.92675 9.83562 3.46477 9.69534C3.51089 9.68354 3.55832 9.67762 3.60593 9.67769C3.86462 9.67769 4.10655 9.86033 4.29818 10.1608C4.41038 10.3421 4.49796 10.5374 4.55863 10.7417C4.66486 11.0923 4.71785 11.4568 4.71586 11.8231C4.71785 12.1894 4.66486 12.5539 4.55863 12.9044C4.49816 13.1088 4.41075 13.3043 4.29871 13.4857C4.10725 13.7857 3.86515 13.9688 3.60646 13.9688C3.55885 13.9689 3.51142 13.963 3.4653 13.9512C2.92675 13.8111 2.49636 12.8938 2.49636 11.8231ZM13.7758 17.4357C12.6133 17.6712 11.4152 17.6693 10.2535 17.4301L9.91539 13.6821C9.8801 13.6851 9.84304 13.6851 9.80951 13.6851C9.40197 13.685 9.00157 13.578 8.64826 13.3749C8.29495 13.1717 8.00108 12.8795 7.79594 12.5273C7.59081 12.1752 7.48159 11.7754 7.47918 11.3679C7.47676 10.9603 7.58124 10.5593 7.78219 10.2047C7.98314 9.85014 8.27353 9.55446 8.62441 9.34715C8.97529 9.13984 9.37439 9.02814 9.78191 9.0232C10.1894 9.01826 10.5911 9.12026 10.9469 9.319C11.3027 9.51775 11.6002 9.80631 11.8097 10.1559C12.0233 9.72105 12.3493 9.35125 12.7539 9.08483C13.1586 8.81842 13.6271 8.66508 14.111 8.64073C14.5948 8.61637 15.0764 8.72188 15.5057 8.94632C15.9351 9.17076 16.2966 9.50595 16.5528 9.91715C16.809 10.3284 16.9505 10.8006 16.9627 11.2849C16.9749 11.7692 16.8573 12.248 16.6222 12.6716C16.3871 13.0952 16.0429 13.4481 15.6254 13.6939C15.2079 13.9397 14.7323 14.0693 14.2478 14.0694C14.1772 14.0694 14.1075 14.0664 14.0376 14.0613L13.7758 17.4357ZM16.7634 8.47036C16.704 8.48615 16.6408 8.47987 16.5857 8.45269C16.5305 8.4255 16.4871 8.37925 16.4634 8.32249C16.4585 8.30809 16.4526 8.29406 16.4458 8.28049C16.4465 8.28445 16.4478 8.2883 16.4495 8.29196C16.4512 8.29691 16.4532 8.30185 16.4557 8.30679C16.4507 8.29761 16.4465 8.28738 16.4414 8.27749C16.4288 8.25208 16.4145 8.22756 16.3995 8.20321C16.3845 8.17885 16.3671 8.15274 16.3496 8.12839C16.3482 8.12658 16.3469 8.1247 16.3457 8.12274C16.347 8.12398 16.3475 8.12521 16.3482 8.12574C16.3489 8.12627 16.3438 8.11956 16.3376 8.11145C16.3347 8.10741 16.3317 8.10352 16.3284 8.0998L16.3335 8.10739C16.3296 8.10299 16.3259 8.0984 16.3224 8.09363C16.2805 8.04382 16.2354 7.99668 16.1876 7.95246C16.1602 7.92635 16.1318 7.90139 16.1024 7.87764C16.099 7.87449 16.0955 7.87154 16.0918 7.86882C16.0944 7.87034 16.0969 7.87205 16.0992 7.87393C16.1011 7.87517 16.1024 7.8764 16.1036 7.87693C16.0954 7.86951 16.0866 7.86262 16.0775 7.85629C16.0785 7.85785 16.0798 7.85918 16.0814 7.86017C16.0715 7.85389 16.062 7.84724 16.0526 7.84023C15.9857 7.79274 15.9159 7.74943 15.8437 7.71053C15.8022 7.68833 15.76 7.66755 15.7172 7.64824C15.7152 7.6474 15.7133 7.64633 15.7115 7.64507C15.7069 7.64391 15.7025 7.64225 15.6983 7.64013C15.6766 7.6313 15.6547 7.62248 15.6323 7.61401C15.5378 7.57922 15.4412 7.55005 15.3433 7.52666C15.2867 7.5135 15.2296 7.50226 15.1723 7.49296C15.1661 7.49172 15.137 7.48731 15.1193 7.48431C15.1187 7.48408 15.118 7.48408 15.1174 7.48431H15.1144C15.1064 7.48431 15.095 7.48202 15.0915 7.48202C15.0767 7.48006 15.062 7.47836 15.0472 7.4769C14.7763 7.45247 14.5036 7.45839 14.234 7.49455C14.0929 7.51219 13.9847 7.36291 13.9791 7.23886C13.9806 7.1717 14.0079 7.1077 14.0554 7.06018C14.1029 7.01266 14.1669 6.98527 14.234 6.9837C14.5663 6.94095 14.9028 6.94303 15.2346 6.98988C15.9227 7.08781 16.6745 7.47567 16.942 8.1568C16.9592 8.22204 16.9501 8.29141 16.9167 8.35003C16.8833 8.40865 16.8283 8.45186 16.7634 8.47036ZM10.0869 8.16191C10.0679 8.22663 10.0245 8.28143 9.96588 8.31473C9.90723 8.34802 9.83793 8.3572 9.77263 8.34031C9.68007 8.31808 9.58665 8.2996 9.49259 8.28491L9.45466 8.27908C9.45314 8.27881 9.45159 8.27881 9.45007 8.27908C9.44861 8.27884 9.44712 8.27884 9.44566 8.27908H9.44389L9.41513 8.2752C9.37638 8.27112 9.33755 8.26782 9.29867 8.26532C9.14929 8.25432 8.99922 8.2568 8.85029 8.27273L8.8397 8.27397H8.83617C8.84111 8.27291 8.84234 8.27291 8.83423 8.27397H8.83193C8.83089 8.2737 8.8298 8.2737 8.82876 8.27397H8.8254C8.82442 8.27372 8.82339 8.27372 8.8224 8.27397C8.81559 8.2754 8.80869 8.27646 8.80176 8.27714C8.77688 8.28155 8.75182 8.28579 8.72694 8.29091C8.67277 8.30132 8.62107 8.31455 8.56725 8.32884C8.51343 8.34314 8.46243 8.36131 8.41073 8.38072L8.38708 8.3899L8.37279 8.39555C8.36825 8.39685 8.36399 8.399 8.36026 8.4019C8.3636 8.40143 8.3669 8.40072 8.37014 8.39978C8.3525 8.4079 8.32409 8.41743 8.32073 8.4199C8.23537 8.46061 8.15326 8.50781 8.0751 8.56106L8.03011 8.593C8.03011 8.593 8.03134 8.59159 8.03134 8.59106C8.02882 8.5934 8.0261 8.59553 8.02322 8.59741C8.02146 8.59918 8.01881 8.60041 8.01705 8.60236C8.01534 8.60305 8.01378 8.60407 8.01246 8.60535C8.0114 8.60659 8.00946 8.6073 8.00805 8.60853C8.00664 8.60977 8.00681 8.60977 8.00628 8.60977C8.00615 8.61011 8.00615 8.61049 8.00628 8.61083C7.97628 8.63588 7.9477 8.66094 7.91894 8.68706C7.86106 8.74022 7.80671 8.7971 7.75624 8.85734C7.74442 8.87163 7.73383 8.88734 7.72095 8.9011C7.7033 8.92704 7.68354 8.95404 7.66678 8.98086C7.63525 9.02955 7.60638 9.07991 7.58031 9.13173C7.57466 9.14399 7.56965 9.15653 7.56531 9.16932C7.56708 9.16296 7.5692 9.15485 7.5722 9.14549C7.56655 9.16491 7.5572 9.18308 7.55084 9.20161C7.53156 9.26613 7.48811 9.3207 7.42955 9.35394C7.37099 9.38718 7.30185 9.39652 7.23657 9.38001C7.17155 9.36151 7.1164 9.31819 7.08303 9.2594C7.04965 9.2006 7.04073 9.13105 7.05817 9.06574C7.10576 8.92843 7.17202 8.79834 7.2551 8.67911C7.4842 8.34593 7.80398 8.08537 8.17657 7.92828C8.73121 7.71802 9.33831 7.68941 9.91027 7.84658C9.97467 7.86626 10.029 7.91004 10.0619 7.96879C10.0948 8.02754 10.1038 8.09672 10.0869 8.16191ZM12.028 3.91756C13.7223 3.91948 15.3714 4.46484 16.7329 5.47352C18.0944 6.48219 19.0964 7.90097 19.5917 9.52135C19.4614 9.64384 19.3486 9.78367 19.2564 9.93691C18.2841 7.42167 15.4154 5.59868 12.0274 5.59868C8.6126 5.59868 5.72573 7.45149 4.77497 9.99708C4.68655 9.8391 4.57748 9.69359 4.45064 9.56441C4.93948 7.93409 5.94039 6.50456 7.30515 5.48753C8.66991 4.4705 10.3259 3.92006 12.028 3.91773V3.91756ZM12.028 19.7282C10.3259 19.726 8.6699 19.1756 7.30518 18.1586C5.94046 17.1415 4.93964 15.7119 4.451 14.0816C4.57821 13.9522 4.68758 13.8064 4.77621 13.648C5.72679 16.195 8.61418 18.0473 12.0287 18.0473C15.4167 18.0473 18.2848 16.2243 19.2576 13.7087C19.3498 13.862 19.4626 14.0018 19.5929 14.1243C19.0976 15.7449 18.0954 17.1639 16.7337 18.1727C15.372 19.1814 13.7226 19.7267 12.028 19.7284V19.7282Z" fill="#333333"/>
</g>
<defs>
<clipPath id="clip0_135_312">
<rect width="20" height="17.6459" fill="white" transform="translate(2 3)"/>
</clipPath>
</defs>
</svg>
