<svg width="24" height="24" viewBox="0 0 24 24" fill="none" xmlns="http://www.w3.org/2000/svg">
<g clip-path="url(#clip0_127_149)">
<circle cx="12" cy="12" r="10" fill="#EDF0F4"/>
<path d="M12 5.5L7 10.5L12 15.2906L17 10.5L12 5.5Z" fill="url(#paint0_linear_127_149)"/>
<path d="M9.48378 14.7547C9.5939 14.6073 9.69823 14.4674 9.82317 14.3313C8.32042 14.6935 7.28555 15.4519 7.28555 16.3297C7.28555 16.3624 7.28732 16.3949 7.29012 16.4272C7.43753 16.3712 7.59306 16.3043 7.75828 16.2231C8.75091 15.7354 9.14028 15.2144 9.48378 14.7547Z" fill="black"/>
<path d="M11.0489 16.368C11.3494 15.9659 11.6089 15.6186 12.3425 15.2585C13.076 14.8983 13.5095 14.905 14.0115 14.9127C14.3477 14.918 14.7103 14.9235 15.1526 14.8288C14.6132 14.539 13.9197 14.3198 13.1358 14.2022L12 15.2902L11.206 14.5295C10.6403 14.9105 10.3504 15.2979 10.0872 15.6495C9.78665 16.0517 9.52716 16.399 8.79364 16.7591C8.27914 17.0117 7.91234 17.0838 7.56586 17.1016C7.83914 17.4641 8.29928 17.7823 8.88856 18.0269C9.02581 17.9737 9.17015 17.9107 9.32259 17.8358C10.3158 17.3487 10.7052 16.8277 11.0489 16.368Z" fill="black"/>
<path d="M13.6263 18.3671C14.8121 18.1118 15.7323 17.614 16.1272 17.0014C15.7881 17.0633 15.4023 17.1822 14.9431 17.408C14.303 17.7226 13.9142 18.0508 13.6263 18.3671Z" fill="black"/>
<path opacity="0.5" d="M12 10.5H7L12 5.5V10.5Z" fill="url(#paint1_linear_127_149)"/>
<path fill-rule="evenodd" clip-rule="evenodd" d="M10.1331 18.2703C10.1331 18.2703 10.6193 18.3727 11.1676 18.4348C11.7159 18.4969 12.0412 18.4165 12.0412 18.4165C12.0412 18.4165 12.8563 17.1262 13.6787 16.7826C13.6787 16.7826 14.4792 16.3623 15.2066 16.4171L16.0692 16.4537C16.0692 16.4537 16.1006 16.1357 15.9561 15.7348C15.8116 15.3339 15.5831 15.2621 15.5831 15.2621C15.5831 15.2621 13.9711 15.1963 13.0098 15.7702C13.0098 15.7702 11.8621 16.5377 11.3686 17.3455C11.3686 17.3455 11.0323 17.7659 10.7765 17.9158" fill="black"/>
</g>
<defs>
<linearGradient id="paint0_linear_127_149" x1="12.0398" y1="5.81829" x2="7.49923" y2="10.5552" gradientUnits="userSpaceOnUse">
<stop offset="0.09" stop-color="#FF6D41"/>
<stop offset="0.5" stop-color="#FA297F"/>
<stop offset="1" stop-color="#FA297F"/>
</linearGradient>
<linearGradient id="paint1_linear_127_149" x1="10.7945" y1="4.54569" x2="6.1345" y2="9.20555" gradientUnits="userSpaceOnUse">
<stop stop-color="#652CB4"/>
<stop offset="0.07" stop-color="#652CB4" stop-opacity="0.82"/>
<stop offset="0.19" stop-color="#652CB4" stop-opacity="0.53"/>
<stop offset="0.3" stop-color="#652CB4" stop-opacity="0.3"/>
<stop offset="0.4" stop-color="#652CB4" stop-opacity="0.14"/>
<stop offset="0.49" stop-color="#652CB4" stop-opacity="0.04"/>
<stop offset="0.55" stop-color="#652CB4" stop-opacity="0.01"/>
</linearGradient>
<clipPath id="clip0_127_149">
<rect width="20" height="20" fill="white" transform="translate(2 2)"/>
</clipPath>
</defs>
</svg>
