<svg width="24" height="24" viewBox="0 0 24 24" fill="none" xmlns="http://www.w3.org/2000/svg">
<path fill-rule="evenodd" clip-rule="evenodd" d="M16.2301 4.10001L13.3459 6.49193L10.4616 8.88536L11.1677 14.1431L12.0002 19.7535L17.1626 14.1431L22 8.99176L19.1142 6.49193L16.2301 4.10001Z" fill="url(#paint0_linear_133_97)"/>
<path fill-rule="evenodd" clip-rule="evenodd" d="M7.76916 4.10001L4.8847 6.49193L2 8.88536L6.83646 14.1431L11.9998 19.7535L12.8321 14.1431L13.5383 8.88536L10.6537 6.49193L7.76916 4.10001Z" fill="url(#paint1_linear_133_97)"/>
<path fill-rule="evenodd" clip-rule="evenodd" d="M12.128 4.10001L9.24342 6.49193L6.3588 8.88536L9.24342 14.1431L11.9998 19.7535L15.0125 14.1431L17.897 8.88536L15.0125 6.49193L12.128 4.10001Z" fill="url(#paint2_linear_133_97)"/>
<defs>
<linearGradient id="paint0_linear_133_97" x1="10.4616" y1="4.10001" x2="10.4616" y2="19.4023" gradientUnits="userSpaceOnUse">
<stop stop-color="#2E65A0"/>
<stop offset="1" stop-color="#EED782"/>
</linearGradient>
<linearGradient id="paint1_linear_133_97" x1="2" y1="4.10001" x2="2" y2="19.4023" gradientUnits="userSpaceOnUse">
<stop stop-color="#2E65A0"/>
<stop offset="1" stop-color="#F9E7A5"/>
</linearGradient>
<linearGradient id="paint2_linear_133_97" x1="6.3588" y1="4.10001" x2="6.3588" y2="19.4023" gradientUnits="userSpaceOnUse">
<stop stop-color="#010408"/>
<stop offset="1" stop-color="#EED782"/>
</linearGradient>
</defs>
</svg>
