<svg width="24" height="24" viewBox="0 0 24 24" fill="none" xmlns="http://www.w3.org/2000/svg">
<circle cx="12" cy="12" r="10" fill="#E7EFF3"/>
<path fill-rule="evenodd" clip-rule="evenodd" d="M5.45255 10.7193C5.98173 7.9237 8.29626 5.75885 11.172 5.36864C11.6692 5.29915 12.7222 5.33657 13.2727 5.44347C14.5877 5.6947 15.9133 6.42701 16.8274 7.38917C18.3829 9.04087 18.9976 11.2913 18.4951 13.5042C18.2065 14.7817 17.5543 15.915 16.5708 16.8504C15.6407 17.727 14.5877 18.2722 13.2834 18.5502C12.6527 18.6838 11.3484 18.6838 10.7177 18.5502C9.80364 18.3524 9.01253 18.021 8.23746 17.5132C7.72965 17.1764 6.84767 16.2891 6.49488 15.7653C5.48462 14.2526 5.12114 12.4833 5.45255 10.7193ZM16.7365 8.10012C15.7583 6.89207 14.2563 6.07959 12.6687 5.89784C11.3538 5.75352 10.103 6.02079 8.90028 6.71033C7.79915 7.33573 6.80492 8.48498 6.32919 9.67698C5.39375 11.9915 5.91225 14.5573 7.67086 16.3212C10.7872 19.4589 16.1058 18.3417 17.7147 14.2098C18.0194 13.4401 18.1156 12.8681 18.1156 11.9381C18.1103 11.2859 18.0889 11.0721 17.9713 10.6017C17.7307 9.61284 17.3673 8.88588 16.7365 8.10012Z" fill="black"/>
<path fill-rule="evenodd" clip-rule="evenodd" d="M6.70874 12.3336C6.54838 11.5318 6.99204 10.6712 7.68693 10.42C7.94886 10.3291 8.4727 10.313 8.74531 10.3879C9.44555 10.5857 9.92128 11.3554 9.84644 12.1786C9.78765 12.7772 9.52573 13.1995 9.04999 13.4668C8.79342 13.6058 8.72393 13.6218 8.25888 13.6218C7.67624 13.6218 7.46243 13.5416 7.13102 13.1835C6.87979 12.9216 6.78892 12.7345 6.70874 12.3336ZM9.221 12.3122C9.33325 11.8472 9.17289 11.318 8.85752 11.0881C8.5368 10.8636 7.98623 10.8583 7.6762 11.0828C7.30203 11.3447 7.17374 12.0984 7.41963 12.5795C7.82587 13.3866 9.00719 13.2102 9.221 12.3122Z" fill="black"/>
<path d="M14.9191 10.4413C13.9142 10.8422 13.6309 12.3229 14.39 13.2209C14.8015 13.7127 15.7744 13.8035 16.2074 13.3866L16.325 13.2744L16.341 13.424C16.357 13.5577 16.3731 13.5684 16.6243 13.5684H16.8916L16.9076 12.7238L16.9236 11.8846H16.1699H15.4216V12.1518V12.4191H15.8759C16.3677 12.4191 16.3838 12.4298 16.2448 12.7184C16.1486 12.9162 15.8065 13.114 15.5499 13.114C14.9352 13.114 14.5663 12.681 14.5663 11.9808C14.5717 11.2057 15.0688 10.7621 15.7477 10.9224C16.0096 10.9866 16.2768 11.2164 16.2768 11.3821C16.2768 11.4356 16.357 11.4569 16.5976 11.4569H16.9129L16.8381 11.2164C16.6724 10.6552 16.2608 10.3718 15.582 10.3505C15.2826 10.3398 15.1169 10.3612 14.9191 10.4413Z" fill="black"/>
<path d="M10.2901 11.9915V13.5951H10.5574H10.8246L10.8353 12.5153L10.8513 11.4302L11.2469 12.5153L11.6424 13.6004L11.9097 13.5844L12.177 13.5684L12.5672 12.4993L12.9574 11.4302L12.9734 12.4993L12.9895 13.5684L13.2728 13.5844L13.5507 13.6004L13.54 12.0075L13.524 10.4146H13.1552H12.781L12.3534 11.6013C12.1182 12.2588 11.9097 12.7773 11.8937 12.7505C11.8723 12.7291 11.6799 12.2213 11.4661 11.6173C11.2522 11.0133 11.0491 10.4895 11.0224 10.452C10.9903 10.4146 10.8407 10.3879 10.6322 10.3879H10.2901V11.9915Z" fill="black"/>
</svg>
