<svg width="24" height="24" viewBox="0 0 24 24" fill="none" xmlns="http://www.w3.org/2000/svg">
<g clip-path="url(#clip0_127_147)">
<path d="M12 22C17.5228 22 22 17.5228 22 12C22 6.47715 17.5228 2 12 2C6.47715 2 2 6.47715 2 12C2 17.5228 6.47715 22 12 22Z" fill="#1A53F0"/>
<path d="M9.41 12.8063C8.68856 12.8067 7.99685 13.0938 7.487 13.6042C6.97715 14.1146 6.69092 14.8067 6.69125 15.5281C6.69092 16.2495 6.97707 16.9414 7.48678 17.4518C7.99649 17.9622 8.68804 18.2493 9.40938 18.25C9.76671 18.2499 10.1205 18.1794 10.4506 18.0426C10.7807 17.9058 11.0806 17.7052 11.3332 17.4525C11.5858 17.1997 11.7861 16.8997 11.9227 16.5695C12.0593 16.2393 12.1295 15.8855 12.1294 15.5281C12.1295 15.1708 12.0593 14.817 11.9228 14.4869C11.7862 14.1567 11.5859 13.8567 11.3334 13.604C11.0809 13.3512 10.7811 13.1507 10.451 13.0138C10.121 12.8769 9.76728 12.8064 9.41 12.8063ZM9.41 17.4269C8.90703 17.4265 8.42478 17.2265 8.0693 16.8706C7.71382 16.5148 7.51421 16.0323 7.51438 15.5294C7.51421 15.2803 7.56312 15.0336 7.65829 14.8034C7.75347 14.5732 7.89305 14.364 8.06908 14.1877C8.2451 14.0115 8.45412 13.8716 8.6842 13.7761C8.91427 13.6806 9.1609 13.6314 9.41 13.6313C9.65916 13.6313 9.90585 13.6805 10.136 13.7759C10.3662 13.8714 10.5752 14.0112 10.7513 14.1875C10.9274 14.3638 11.0671 14.573 11.1623 14.8032C11.2575 15.0335 11.3064 15.2802 11.3063 15.5294C11.3056 16.0322 11.1056 16.5143 10.7502 16.8699C10.3948 17.2256 9.91283 17.4259 9.41 17.4269ZM15.2188 7C14.8615 7.00016 14.5077 7.0707 14.1777 7.20757C13.8477 7.34445 13.5479 7.54499 13.2953 7.79774C13.0428 8.05049 12.8426 8.3505 12.706 8.68064C12.5694 9.01079 12.4992 9.3646 12.4994 9.72187C12.499 10.4433 12.7853 11.1354 13.2951 11.6458C13.805 12.1562 14.4967 12.4433 15.2181 12.4437C15.5755 12.4437 15.9293 12.3732 16.2594 12.2364C16.5895 12.0995 16.8894 11.899 17.1419 11.6462C17.3945 11.3935 17.5948 11.0934 17.7315 10.7633C17.8681 10.4331 17.9383 10.0792 17.9381 9.72187C17.9383 9.36454 17.8681 9.01068 17.7315 8.6805C17.5948 8.35031 17.3945 8.05027 17.1419 7.79752C16.8894 7.54476 16.5895 7.34423 16.2594 7.20739C15.9293 7.07056 15.5755 7.00008 15.2181 7H15.2188ZM15.2188 11.6206C14.9697 11.6205 14.723 11.5714 14.4929 11.476C14.2628 11.3806 14.0537 11.2408 13.8776 11.0646C13.7016 10.8884 13.5619 10.6792 13.4667 10.4491C13.3714 10.2189 13.3224 9.97223 13.3225 9.72313C13.3223 9.47397 13.3713 9.22723 13.4665 8.99698C13.5617 8.76674 13.7013 8.55751 13.8774 8.38124C14.0535 8.20498 14.2626 8.06513 14.4928 7.96969C14.7229 7.87425 14.9696 7.82508 15.2188 7.825C15.4679 7.82516 15.7145 7.87439 15.9446 7.96987C16.1746 8.06535 16.3837 8.20521 16.5597 8.38147C16.7357 8.55772 16.8753 8.76692 16.9705 8.99713C17.0656 9.22733 17.1145 9.47402 17.1144 9.72313C17.1137 10.2258 16.9138 10.7078 16.5585 11.0635C16.2032 11.4191 15.7215 11.6195 15.2188 11.6206ZM9.41 7C8.78214 7.00083 8.17384 7.21855 7.68804 7.61632C7.20225 8.01408 6.86879 8.56747 6.74411 9.18283C6.61942 9.79819 6.71115 10.4377 7.00379 10.9932C7.29642 11.5487 7.77199 11.9861 8.35 12.2313C8.92846 12.4757 9.5737 12.5124 10.1761 12.3351C10.7786 12.1579 11.3011 11.7775 11.655 11.2587C12.0093 10.7397 12.1732 10.1141 12.1191 9.488C12.065 8.8619 11.7962 8.27373 11.3581 7.82313H12.1288V7H9.41ZM11.3063 9.72187C11.3063 9.97098 11.2574 10.2177 11.1621 10.4478C11.0669 10.678 10.9272 10.8872 10.7511 11.0634C10.575 11.2396 10.366 11.3793 10.1359 11.4747C9.90575 11.5701 9.6591 11.6193 9.41 11.6194C8.90703 11.619 8.42478 11.419 8.0693 11.0631C7.71382 10.7073 7.51421 10.2248 7.51438 9.72187C7.51421 9.2189 7.71382 8.73645 8.0693 8.38062C8.42478 8.02479 8.90703 7.82471 9.41 7.82438C9.91294 7.8252 10.395 8.0254 10.7506 8.38109C11.1062 8.73678 11.3062 9.21894 11.3069 9.72187H11.3063Z" fill="white"/>
</g>
<defs>
<clipPath id="clip0_127_147">
<rect width="20" height="20" fill="white" transform="translate(2 2)"/>
</clipPath>
</defs>
</svg>
