<svg width="24" height="24" viewBox="0 0 24 24" fill="none" xmlns="http://www.w3.org/2000/svg">
<mask id="mask0_9_15072" style="mask-type:alpha" maskUnits="userSpaceOnUse" x="2" y="2" width="20" height="21">
<path d="M12 22.0084C17.5228 22.0084 22 17.5313 22 12.0084C22 6.48558 17.5228 2.00842 12 2.00842C6.47715 2.00842 2 6.48558 2 12.0084C2 17.5313 6.47715 22.0084 12 22.0084Z" fill="white"/>
</mask>
<g mask="url(#mask0_9_15072)">
<path d="M11.8946 21.6731C17.1934 21.6731 21.4889 17.3776 21.4889 12.0788C21.4889 6.78002 17.1934 2.4845 11.8946 2.4845C6.59581 2.4845 2.30029 6.78002 2.30029 12.0788C2.30029 17.3776 6.59581 21.6731 11.8946 21.6731Z" stroke="#5C4EFF" stroke-width="0.243016"/>
<path d="M11.8945 20.2466C16.4054 20.2466 20.0623 16.5898 20.0623 12.0789C20.0623 7.56795 16.4054 3.91113 11.8945 3.91113C7.38362 3.91113 3.72681 7.56795 3.72681 12.0789C3.72681 16.5898 7.38362 20.2466 11.8945 20.2466Z" stroke="#5C4EFF" stroke-width="0.243016"/>
<path d="M11.958 18.8229C15.7581 18.8229 18.8388 15.7422 18.8388 11.942C18.8388 8.14187 15.7581 5.06122 11.958 5.06122C8.1578 5.06122 5.07715 8.14187 5.07715 11.942C5.07715 15.7422 8.1578 18.8229 11.958 18.8229Z" stroke="#5C4EFF" stroke-width="0.243016"/>
<mask id="mask1_9_15072" style="mask-type:alpha" maskUnits="userSpaceOnUse" x="5" y="4" width="12" height="15">
<path d="M16.1007 6.0029L15.9441 5.9073C12.5634 3.84221 8.14841 4.90918 6.08382 8.2899C4.01823 11.6706 5.0857 16.0856 8.46642 18.1507L8.62295 18.2463L16.1007 6.0029Z" fill="white"/>
</mask>
<g mask="url(#mask1_9_15072)">
<path d="M8.49374 17.9979C5.20415 15.9888 4.16616 11.6933 6.17531 8.40371C8.18446 5.11413 12.4799 4.07613 15.7695 6.08529C19.0591 8.09444 20.0971 12.3899 18.0879 15.6795C16.0788 18.9691 11.7833 20.0071 8.49374 17.9979Z" stroke="#5C4EFF" stroke-width="0.46659"/>
</g>
<mask id="mask2_9_15072" style="mask-type:alpha" maskUnits="userSpaceOnUse" x="3" y="7" width="17" height="14">
<path d="M19.3626 16.0791L19.2551 16.2653C16.9299 20.2925 11.7803 21.6725 7.7532 19.3474C3.72655 17.0222 2.34702 11.8726 4.67266 7.84549L4.77866 7.65924L19.3621 16.0791H19.3626Z" fill="white"/>
</mask>
<g mask="url(#mask2_9_15072)">
<path d="M4.78585 7.98769C2.5237 11.9059 3.86616 16.916 7.78433 19.1782C11.7025 21.4403 16.7126 20.0979 18.9748 16.1797C21.237 12.2615 19.8945 7.25136 15.9763 4.98921C12.0582 2.72705 7.04801 4.06952 4.78585 7.98769Z" stroke="#5C4EFF" stroke-width="0.46659"/>
</g>
<mask id="mask3_9_15072" style="mask-type:alpha" maskUnits="userSpaceOnUse" x="5" y="1" width="18" height="18">
<path d="M5.03314 4.84079L5.87523 3.99871C9.19898 0.674951 14.5883 0.674951 17.9121 3.99871L19.9014 5.9885C23.2251 9.31226 23.2251 14.7016 19.9014 18.0254L19.0593 18.8674L5.03364 4.84079H5.03314Z" fill="white"/>
</mask>
<g mask="url(#mask3_9_15072)">
<path d="M18.7539 18.9162C22.5427 15.1274 22.5427 8.98458 18.7539 5.19579C14.9651 1.407 8.82228 1.407 5.03349 5.19579C1.2447 8.98458 1.2447 15.1274 5.03349 18.9162C8.82228 22.705 14.9651 22.705 18.7539 18.9162Z" stroke="#5C4EFF" stroke-width="0.46659"/>
</g>
<path d="M7.7731 9.55631C6.41879 11.9021 7.2225 14.9015 9.56824 16.2558C11.914 17.6102 14.9135 16.8065 16.2678 14.4607C17.6221 12.115 16.8184 9.11549 14.4726 7.76118C12.1269 6.40687 9.12742 7.21058 7.7731 9.55631Z" fill="url(#paint0_linear_9_15072)"/>
</g>
<defs>
<linearGradient id="paint0_linear_9_15072" x1="10.5982" y1="7.25128" x2="16.2604" y2="13.4833" gradientUnits="userSpaceOnUse">
<stop stop-color="#8479FF"/>
<stop offset="0.96354" stop-color="#1F1F61"/>
</linearGradient>
</defs>
</svg>
