<svg width="24" height="24" viewBox="0 0 24 24" fill="none" xmlns="http://www.w3.org/2000/svg">
<g clip-path="url(#clip0_127_152)">
<path d="M11.4245 2.17569C12.0687 1.89106 12.5281 2.4943 12.9253 2.89751C13.634 3.50943 14.3096 4.15989 14.949 4.84602C15.3159 5.25227 15.1673 5.99571 14.6685 6.22191C14.285 6.43432 13.8166 6.27425 13.5226 5.97846C12.7509 5.22783 12.0127 4.43936 11.2108 3.7221C10.7136 3.30965 10.8152 2.41356 11.4245 2.17538V2.17569ZM18.4521 4.25647C18.8888 4.01789 19.5875 4.21183 19.7089 4.73971C19.8938 5.20916 19.5967 5.67385 19.2707 5.98637C18.5567 6.70201 17.8621 7.43763 17.1681 8.17335C16.915 8.48436 16.4693 8.56744 16.1116 8.39966C15.5947 8.18259 15.4552 7.39462 15.8448 6.99598C16.7211 6.09106 17.4942 5.07679 18.4522 4.25647H18.4521ZM4.49788 4.40274C4.95273 4.12419 5.51507 4.30881 5.85163 4.68747C6.60847 5.46306 7.38909 6.21268 8.15423 6.97609C8.66052 7.45163 8.30738 8.45819 7.60098 8.46133C7.00977 8.55374 6.69599 7.95953 6.30028 7.63483C5.60678 7.05156 4.97131 6.40237 4.34214 5.74789C3.9859 5.37542 4.09239 4.69214 4.49828 4.40274H4.49788ZM5.085 8.98769C5.84743 8.68906 6.59179 9.66488 6.11627 10.3373C5.55383 11.0823 4.82166 11.6809 4.20817 12.3844C3.84584 12.763 3.50787 13.3447 2.90448 13.2709C2.19808 13.2432 1.84334 12.2464 2.35722 11.7626C3.285 10.8607 4.02166 9.72017 5.0859 8.98759L5.085 8.98769ZM20.5456 11.1454C21.0701 10.7975 21.8614 11.193 21.8782 11.8351C21.9554 12.4384 21.3658 12.757 21.0413 13.1618C20.4699 13.8605 19.8425 14.5116 19.195 15.138C18.7221 15.592 17.8382 15.2733 17.7533 14.6163C17.6426 13.9375 18.2702 13.5158 18.6659 13.0819C19.3208 12.4646 19.874 11.7367 20.5455 11.1457L20.5456 11.1454ZM7.07381 15.9181C7.5833 15.6087 8.35633 15.9765 8.36841 16.6044C8.46242 17.2108 7.87271 17.5325 7.54983 17.9373C6.9798 18.6372 6.34464 19.2793 5.70348 19.9135C5.2866 20.3413 4.39828 20.135 4.28 19.521C4.0783 18.9285 4.57411 18.4498 4.95153 18.0778C5.6838 17.3821 6.32016 16.5866 7.07381 15.9186V15.9181ZM16.1269 15.8949C16.4089 15.7965 16.7662 15.7888 17.0045 15.9951C17.8868 16.8462 18.8251 17.6372 19.6543 18.5453C19.9105 18.8085 19.9333 19.2502 19.7635 19.5672C19.5238 20.1366 18.7023 20.1504 18.3036 19.7472C17.4987 18.9763 16.7252 18.1666 15.916 17.3985C15.4265 17.0123 15.5415 16.118 16.1268 15.8948L16.1269 15.8949ZM9.33405 18.0712C9.75363 17.8403 10.2466 18.0589 10.5483 18.3836C11.3093 19.1501 12.0702 19.9165 12.8601 20.6522C13.3796 21.1539 13.0284 22.1714 12.2962 22.179C11.7051 22.25 11.3971 21.6541 11.0001 21.3279C10.3108 20.7476 9.67061 20.1088 9.05203 19.4513C8.6791 19.0465 8.83065 18.294 9.33395 18.0708L9.33405 18.0712ZM7.9844 2.94975C7.98444 3.30573 7.77328 3.62667 7.4494 3.76291C7.12551 3.89916 6.75269 3.82387 6.50479 3.57216C6.2569 3.32045 6.18275 2.94189 6.31693 2.61302C6.45111 2.28415 6.76719 2.06975 7.11776 2.06979C7.59639 2.06979 7.9844 2.46376 7.9844 2.94975ZM10.5107 5.29021C10.5107 5.77619 10.1227 6.17016 9.64407 6.17018C9.16546 6.1702 8.77744 5.77626 8.77741 5.29028C8.77737 4.8043 9.16532 4.4103 9.64394 4.41024C9.8738 4.41022 10.0943 4.50292 10.2568 4.66794C10.4194 4.83297 10.5107 5.05681 10.5107 5.29021ZM3.74374 7.44027C3.74382 7.79624 3.5327 8.11721 3.20883 8.25349C2.88496 8.38977 2.51213 8.31453 2.2642 8.06285C2.01628 7.81116 1.94209 7.43262 2.07623 7.10373C2.21037 6.77485 2.52643 6.5604 2.877 6.5604C3.10685 6.56038 3.32729 6.65306 3.48984 6.81807C3.65238 6.98308 3.74371 7.20689 3.74374 7.44027ZM17.502 2.87997C17.502 3.23592 17.2908 3.55681 16.9669 3.69299C16.643 3.82917 16.2702 3.75381 16.0224 3.50205C15.7746 3.2503 15.7005 2.87174 15.8348 2.54294C15.9691 2.21413 16.2852 1.99984 16.6357 2C16.8656 1.99997 17.086 2.09268 17.2486 2.25771C17.4111 2.42274 17.5024 2.64658 17.5024 2.87997H17.502ZM21.9904 7.21954C21.9904 7.70553 21.6024 8.09951 21.1238 8.09951C20.6451 8.09951 20.2571 7.70553 20.2571 7.21954C20.2571 6.73355 20.6451 6.33958 21.1238 6.33958C21.6024 6.33958 21.9904 6.73355 21.9904 7.21954ZM19.6218 9.74796C19.6218 10.234 19.2339 10.628 18.7552 10.628C18.2766 10.6281 17.8886 10.2342 17.8885 9.74816C17.8884 9.26217 18.2764 8.86815 18.755 8.8681C18.9849 8.86807 19.2053 8.96075 19.3679 9.12576C19.5304 9.29077 19.6217 9.51458 19.6218 9.74796ZM21.9864 16.8547C21.9864 17.3407 21.5984 17.7347 21.1198 17.7347C20.6412 17.7347 20.2532 17.3408 20.2531 16.8548C20.2531 16.3688 20.6411 15.9748 21.1197 15.9748C21.3495 15.9747 21.57 16.0674 21.7325 16.2325C21.8951 16.3975 21.9864 16.6213 21.9864 16.8547ZM15.2272 19.0008C15.2272 19.3568 15.0161 19.6777 14.6922 19.814C14.3683 19.9502 13.9955 19.875 13.7476 19.6233C13.4997 19.3716 13.4255 18.9931 13.5597 18.6642C13.6938 18.3353 14.0099 18.1209 14.3604 18.1209C14.5903 18.1208 14.8107 18.2135 14.9733 18.3786C15.1358 18.5436 15.2272 18.7674 15.2272 19.0008ZM17.7207 21.4074C17.7207 21.7634 17.5096 22.0844 17.1858 22.2207C16.8619 22.3569 16.4891 22.2817 16.2411 22.03C15.9932 21.7783 15.919 21.3998 16.0532 21.0709C16.1873 20.742 16.5034 20.5276 16.8539 20.5276C17.0838 20.5275 17.3042 20.6202 17.4668 20.7852C17.6293 20.9502 17.7206 21.1741 17.7207 21.4074ZM8.22935 21.4074C8.22939 21.7634 8.01824 22.0843 7.69435 22.2206C7.37047 22.3568 6.99764 22.2815 6.74975 22.0298C6.50185 21.7781 6.4277 21.3996 6.56188 21.0707C6.69606 20.7418 7.01214 20.5274 7.36272 20.5275C7.84135 20.5275 8.22935 20.9214 8.22935 21.4074ZM6.11557 14.5154C6.11561 14.8714 5.90445 15.1923 5.58056 15.3286C5.25668 15.4648 4.88386 15.3895 4.63596 15.1378C4.38806 14.8861 4.31392 14.5075 4.4481 14.1787C4.58227 13.8498 4.89835 13.6354 5.24893 13.6354C5.72756 13.6354 6.11557 14.0294 6.11557 14.5154ZM3.74374 17.0728C3.74378 17.4288 3.53263 17.7497 3.20876 17.886C2.88489 18.0222 2.51207 17.947 2.26417 17.6953C2.01626 17.4436 1.94209 17.065 2.07624 16.7362C2.21039 16.4073 2.52643 16.1929 2.877 16.1929C3.10687 16.1928 3.32733 16.2855 3.48987 16.4506C3.65242 16.6156 3.74374 16.8394 3.74374 17.0728Z" fill="#03E8B0"/>
</g>
<defs>
<clipPath id="clip0_127_152">
<rect width="20" height="20.3077" fill="white" transform="translate(2 2)"/>
</clipPath>
</defs>
</svg>
