<svg width="24" height="24" viewBox="0 0 24 24" fill="none" xmlns="http://www.w3.org/2000/svg">
<path d="M20.7365 8.32931C20.7126 8.10176 20.6766 7.8862 20.6287 7.65865C20.5808 7.43111 20.509 7.21554 20.4371 6.988C20.3533 6.76045 20.2575 6.53291 20.1497 6.31734C20.1377 6.29339 20.1257 6.25746 20.1018 6.23351C19.994 6.02992 19.8862 5.8383 19.7545 5.65866C19.6587 5.50298 19.5509 5.35927 19.4311 5.21555C19.3713 5.13172 19.2994 5.05987 19.2395 4.98801C19.0958 4.82035 18.9401 4.66466 18.7725 4.52095C18.7006 4.44909 18.6168 4.38921 18.5449 4.32933C18.4012 4.20957 18.2575 4.10179 18.1138 4.00598C17.9222 3.87425 17.7306 3.76646 17.527 3.65868C17.503 3.6467 17.4671 3.63473 17.4431 3.62275C17.2276 3.51497 17 3.41916 16.7845 3.33533C16.5689 3.26347 16.3413 3.19162 16.1258 3.14371C15.6946 3.0479 15.2396 3 14.7965 3H5.15583C4.79656 3 4.44925 3.11976 4.16183 3.33533C4.0301 3.43113 3.92231 3.53892 3.82651 3.67065C3.61094 3.95808 3.49118 4.30538 3.49118 4.66466V16.6526C3.49118 16.7604 3.49118 16.8801 3.50316 16.9879C3.51513 17.2155 3.55106 17.431 3.59896 17.6586C3.64687 17.8861 3.71872 18.1137 3.81453 18.3292C3.91034 18.5568 4.01812 18.7724 4.14986 18.9759C4.14986 18.9879 4.16183 18.9879 4.16183 18.9999C4.31752 19.2394 4.48518 19.467 4.68877 19.6706C4.7247 19.7185 4.7726 19.7544 4.80853 19.7903C5.01212 19.9819 5.22769 20.1616 5.46721 20.3173C5.47918 20.3173 5.47918 20.3292 5.49116 20.3292C5.69475 20.461 5.91032 20.5687 6.12588 20.6646C6.34145 20.7604 6.56899 20.8322 6.78456 20.8801C7.00013 20.928 7.22767 20.964 7.44324 20.9879V20.9999H13.1318V20.9879C13.2276 20.9759 13.3114 20.9161 13.3713 20.8442C13.4312 20.7723 13.4671 20.6765 13.4671 20.5807C13.4671 20.4849 13.4312 20.4011 13.3713 20.3292C13.3354 20.2813 13.2755 20.2334 13.2156 20.2095C13.1917 20.1975 13.1558 20.1735 13.1318 20.1616C13.024 20.1017 12.9043 20.0298 12.7965 19.958C12.6767 19.8861 12.5689 19.8023 12.4611 19.7304C12.4252 19.7065 12.4013 19.6825 12.3773 19.6586C12.2935 19.5987 12.2097 19.5268 12.1378 19.467C12.0659 19.4071 11.9941 19.3472 11.9222 19.2753L11.4671 18.8203C11.3234 18.6646 11.1917 18.4969 11.0719 18.3292C10.9761 18.1975 10.8923 18.0777 10.8085 17.946C10.7486 17.8502 10.7007 17.7664 10.6408 17.6706C10.521 17.455 10.4133 17.2394 10.3175 16.9999C10.2576 16.8442 10.1977 16.6885 10.1498 16.5328C10.1258 16.461 10.1019 16.4011 10.0899 16.3293C10.054 16.2215 10.03 16.1017 10.0061 15.9939C9.98213 15.8861 9.95818 15.7664 9.93423 15.6586C9.8983 15.443 9.86237 15.2155 9.8504 14.9879C9.83842 14.9041 9.83842 14.8203 9.83842 14.7484C9.83842 14.6526 9.82645 14.5688 9.82645 14.473V12.3293H7.6109C7.51509 12.3293 7.41928 12.2934 7.34743 12.2335C7.27557 12.1736 7.22767 12.0898 7.20372 11.994C7.19174 11.946 7.19174 11.8862 7.20372 11.8263C7.21569 11.7784 7.23965 11.7185 7.2636 11.6826L7.27557 11.6586L7.47916 11.3712L7.59892 11.2035L7.74263 10.9999L8.13784 10.4251L8.22167 10.3173L8.68873 9.64666L8.82047 9.45505L9.49112 8.49697L9.62285 8.30535L9.82645 8.01793L10.0899 7.6347L10.1618 7.53889L10.8204 6.58082L11.024 6.29339L11.1558 6.10178C11.1917 6.0419 11.2396 6.00597 11.2995 5.97004C11.3594 5.93411 11.4192 5.92214 11.4911 5.92214C11.551 5.92214 11.6228 5.93411 11.6827 5.97004C11.7426 6.00597 11.7905 6.0419 11.8264 6.10178L11.9582 6.29339L12.1617 6.58082L12.4252 6.96405L12.4971 7.05985L12.8324 7.53889L12.9043 7.6347L13.1318 8.04188L13.3354 8.32931L13.4671 8.52092L14.1378 9.479L14.2695 9.67062L14.7366 10.3413L14.7965 10.4371L15.4551 11.3952L15.6587 11.6826L15.6707 11.7065C15.7066 11.7544 15.7306 11.8023 15.7306 11.8502C15.7426 11.8981 15.7426 11.958 15.7306 12.0179C15.7186 12.0898 15.6827 12.1616 15.6348 12.2095C15.5869 12.2694 15.527 12.3053 15.4551 12.3293C15.4192 12.3413 15.3713 12.3413 15.3354 12.3413H13.1318V14.3412C13.1318 14.5688 13.1797 14.7963 13.2755 15.0119C13.3234 15.1317 13.3953 15.2394 13.4671 15.3472C13.6348 15.5748 13.8743 15.7664 14.1258 15.8742C14.3294 15.97 14.5569 16.0179 14.7845 16.0179H14.8683C15.0599 16.0179 15.2515 16.0059 15.4432 15.982C15.6707 15.958 15.8863 15.9221 16.1018 15.8742C16.3174 15.8263 16.533 15.7664 16.7366 15.6945H16.7605V15.6826C16.988 15.5987 17.2156 15.5029 17.4192 15.3951C17.6467 15.2873 17.8623 15.1556 18.0659 15.0239H18.0779V15.0119C18.3174 14.8562 18.5329 14.6766 18.7365 14.4969C18.7844 14.449 18.8323 14.4131 18.8802 14.3652C19.0599 14.1856 19.2395 14.0059 19.3952 13.8023C19.4192 13.7664 19.4551 13.7305 19.479 13.6945C19.6467 13.479 19.7904 13.2634 19.9221 13.0239C19.9701 12.9401 20.018 12.8562 20.0539 12.7724C20.1257 12.6407 20.1856 12.4969 20.2455 12.3532C20.2934 12.2454 20.3293 12.1377 20.3772 12.0179C20.4132 11.9101 20.4491 11.8023 20.485 11.6826C20.5449 11.467 20.5928 11.2395 20.6407 11.0119C20.6766 10.7964 20.7006 10.5688 20.7126 10.3413H20.7245V9.01194C20.7724 8.77242 20.7605 8.54487 20.7365 8.32931Z" fill="#3749E7"/>
</svg>
