<svg width="24" height="24" viewBox="0 0 24 24" fill="none" xmlns="http://www.w3.org/2000/svg">
<path d="M11.9918 2.20795L3.99985 3.87847V14.9559C3.99985 16.5777 5.66146 18.1104 7.46086 19.3025C8.87092 20.2269 10.3464 21.0379 11.8702 21.7434L11.9999 21.7924L12.1295 21.7434C12.4537 21.6218 20 18.4105 20 14.9559V3.87847L11.9918 2.20795ZM19.3517 14.9559C19.3517 17.3724 14.1561 19.9269 11.9918 20.7784L11.8865 20.7379L11.8459 20.7216L11.773 20.6892L11.7325 20.673L11.6595 20.6405L11.6352 20.6324L11.546 20.5919L11.5217 20.5838L11.4245 20.5432L11.4082 20.5351L11.3029 20.4945H11.2949L11.1733 20.4456H11.1652C10.0872 19.9671 8.68496 19.2616 7.45292 18.4345L7.30702 18.3372L7.16112 18.2317L7.02335 18.1344L7.01522 18.1262L6.88557 18.0289L6.87744 18.0208L6.7476 17.9242L6.73947 17.9161L6.60983 17.8188L6.59357 17.8106L6.47195 17.7214L6.4557 17.7133L6.34221 17.6241L6.32595 17.6078L6.22059 17.5186L6.20434 17.5024L6.1071 17.4132L6.08282 17.3969L5.99361 17.3077L5.96933 17.2834L5.88012 17.1942L5.85584 17.1699L5.76663 17.0889L5.74235 17.0646L5.66127 16.9835L5.63698 16.9511L5.56403 16.87L5.53975 16.8376L5.4668 16.7565L5.44251 16.7241L5.37769 16.643L5.34528 16.6106L5.28858 16.5377L5.25617 16.4971L5.19947 16.4242L5.16706 16.3836L5.1181 16.3107L5.09382 16.2701L5.04486 16.1972L5.02057 16.1482C5.00432 16.124 4.99629 16.0993 4.98003 16.0833L4.94762 16.0344C4.93363 16.0145 4.9227 15.9926 4.91521 15.9694L4.89093 15.9205C4.8828 15.8962 4.86664 15.8799 4.85851 15.8556C4.8521 15.8385 4.84396 15.822 4.83423 15.8066C4.8248 15.7855 4.81669 15.7638 4.80995 15.7417C4.80182 15.7174 4.79369 15.7093 4.78566 15.6849C4.77906 15.6653 4.77094 15.6464 4.76138 15.6281C4.75226 15.6104 4.74673 15.5911 4.74512 15.5713C4.74512 15.555 4.72887 15.5308 4.72887 15.5145C4.72726 15.4947 4.72173 15.4754 4.71261 15.4577C4.70449 15.4414 4.70449 15.4253 4.69636 15.4009C4.68823 15.3765 4.68823 15.3604 4.6801 15.336C4.67403 15.3204 4.67126 15.3037 4.67198 15.287C4.67198 15.2708 4.66385 15.2465 4.66385 15.2221C4.66385 15.1977 4.65572 15.1897 4.65572 15.1731C4.65335 15.1482 4.64789 15.1237 4.63947 15.1002C4.63134 15.0759 4.63947 15.0759 4.63947 15.0597V4.4705L11.9594 3.29487H12.0243L19.344 4.4705L19.3522 14.956L19.3517 14.9559Z" fill="#5E4778"/>
<path d="M11.992 4.10599L6.44799 4.99804L5.30496 5.17645V14.6724C5.30496 16.87 10.0304 19.1974 11.992 19.9678C13.1348 19.5218 15.2099 18.5487 16.7418 17.381C16.8553 17.2918 16.9769 17.2026 17.0823 17.1134C17.6091 16.6836 18.0468 16.2294 18.3306 15.7673C18.5495 15.4104 18.6791 15.0455 18.6791 14.6803V5.17645L11.992 4.10599ZM8.76598 9.14181H12.6647V9.95278H8.76598V9.14181ZM16.369 9.52301C16.369 11.4449 15.0316 12.6858 13.1835 12.6858H10.6222V16.7405H9.60898V11.7693H13.046C14.424 11.7693 15.3237 10.934 15.3237 9.52301C15.3237 8.12824 14.424 7.31727 13.0622 7.31727H11.992L9.43067 7.3254V6.40093H13.1752C15.0314 6.40093 16.3688 7.60114 16.3688 9.52301" fill="#5E4778"/>
<path d="M11.992 2.20795V3.29487H12.0245L19.3442 4.4705V14.9474C19.3442 17.364 14.1487 19.9185 11.9844 20.77V21.7837L12.1141 21.7347C12.4383 21.6131 19.9845 18.4018 19.9845 14.9471V3.87847L11.992 2.20795Z" fill="#5E4778"/>
<path d="M13.175 12.6776H10.622V13.1559C11.056 13.5027 11.5168 13.8145 12 14.0886C13.6129 15.0131 15.6879 15.6375 18.3385 15.7591C18.5573 15.4023 18.687 15.0374 18.687 14.6722V5.17646L12 4.10599L6.44785 4.99805C6.70724 7.08219 7.47729 9.96096 9.60902 12.2235V11.7694H13.046C14.424 11.7694 15.3237 10.9341 15.3237 9.52306C15.3237 8.12828 14.424 7.3173 13.0622 7.3173H11.9918L9.43051 7.32543V6.40096H13.175C15.0231 6.40096 16.3605 7.6093 16.3605 9.51484C16.3605 11.4367 15.0312 12.6777 13.175 12.6777V12.6776ZM11.9918 9.14186H12.656V9.95284H8.76583V9.14186H11.9918Z" fill="#5E4778"/>
<path d="M11.8947 20.7379L11.8541 20.7216L11.7812 20.6973L11.7407 20.6811L11.6677 20.6487L11.6434 20.6405L11.5542 20.6L11.5299 20.5919L11.4327 20.5513L11.4164 20.5432L11.3111 20.4943H11.295L11.1734 20.4453H11.1653C10.0954 19.9669 8.69304 19.2613 7.46099 18.4261L7.31508 18.3287L7.16918 18.2152L7.0314 18.1179L7.02328 18.1098L6.89363 18.0125L6.8855 18.0043L6.75585 17.907L6.74773 17.8989L6.61808 17.8015L6.60182 17.7934L6.4802 17.7042L6.46395 17.6961L6.35046 17.6069L6.3343 17.5913L6.22894 17.5021L6.21268 17.4858L6.11545 17.3966L6.09116 17.3804L6.00195 17.2912L5.97767 17.2669L5.88846 17.1777L5.86418 17.1534L5.77497 17.0723L5.75069 17.048L5.66961 16.967L5.64532 16.9345L5.57237 16.8535L5.54809 16.8211L5.47514 16.74L5.45085 16.7076L5.3779 16.6426L5.34549 16.6102L5.28879 16.5373L5.25638 16.4967L5.19968 16.4238L5.16727 16.3832L5.11831 16.3103L5.09402 16.2698L5.04506 16.1968L5.02078 16.1563C5.00452 16.132 4.99649 16.1073 4.98024 16.0913L4.94783 16.0424L4.91541 15.9775L4.89113 15.9285C4.883 15.9042 4.86685 15.888 4.85872 15.8636C4.8523 15.8465 4.84416 15.8301 4.83443 15.8146C4.825 15.7935 4.81689 15.7718 4.81015 15.7497C4.80202 15.7254 4.79389 15.7173 4.78586 15.6929C4.77926 15.6734 4.77114 15.6544 4.76158 15.6361C4.75141 15.6189 4.74582 15.5993 4.74533 15.5793C4.74533 15.555 4.72907 15.5304 4.72907 15.5144C4.72746 15.4946 4.72193 15.4753 4.71282 15.4576C4.70469 15.4413 4.70469 15.4252 4.69656 15.4008C4.68843 15.3764 4.68843 15.3603 4.68031 15.3359C4.67423 15.3203 4.67146 15.3036 4.67218 15.2869C4.67218 15.2707 4.66405 15.2464 4.66405 15.222C4.66405 15.1976 4.65592 15.1896 4.65592 15.173C4.65356 15.1481 4.6481 15.1236 4.63967 15.1001C4.63154 15.0758 4.63967 15.0758 4.63967 15.0596V4.4705L11.9595 3.29487H11.9919V2.20795L3.99985 3.87847V14.9559C3.99985 16.5777 5.66148 18.1104 7.46089 19.3025C8.87096 20.2269 10.3464 21.0379 11.8703 21.7434L11.9999 21.7924V20.7784L11.8946 20.7379" fill="#3D3144"/>
<path d="M11.992 14.0884C11.5088 13.8143 11.0481 13.5024 10.614 13.1557V16.7396H9.60105V12.2232C7.46911 9.95258 6.70719 7.07372 6.44799 4.9978L5.30496 5.17621V14.6723C5.30496 16.8699 10.0304 19.1973 11.992 19.9677C13.1348 19.5217 15.2099 18.5485 16.7418 17.3808C16.8553 17.2916 16.9769 17.2024 17.0823 17.1132C17.6091 16.6834 18.0468 16.2293 18.3306 15.7671C15.6801 15.6292 13.6132 15.0048 11.9921 14.0885" fill="#3D3144"/>
</svg>
