<svg width="24" height="24" viewBox="0 0 24 24" fill="none" xmlns="http://www.w3.org/2000/svg">
<path d="M19.2789 8.07046L18.4189 7.44171L20.4303 6.42059L19.2789 8.07046Z" fill="#3F4B80"/>
<path d="M14.1657 6L16.6706 7.29531L16.9714 9.38482L14.1657 6Z" fill="#313A62"/>
<path d="M16.9714 9.38482L16.5719 11.1623L14.1657 6L16.9714 9.38482Z" fill="#3F4B80"/>
<path d="M16.5719 11.1623L12.737 6.2931L14.1704 6.00946L16.5719 11.1623Z" fill="#4B5897"/>
<path d="M16.5719 11.1627L12.4127 9.52698L12.737 6.29344L16.5719 11.1627Z" fill="#5161A4"/>
<path d="M12.7369 6.29344L12.4126 9.52698L8.12653 10.1321L12.7369 6.29344Z" fill="#4B5897"/>
<path d="M16.5719 11.162L11.985 12.4147L12.4127 9.52631L16.5719 11.162Z" fill="#4B5897"/>
<path d="M11.985 12.4151L16.5719 11.1623L14.5041 12.1315L11.985 12.4151Z" fill="#3F4B80"/>
<path d="M9.45192 12.8495L11.9851 12.4145L12.0274 13.2844L9.45192 12.8495Z" fill="#3F4B80"/>
<path d="M12.0273 13.2854L11.985 12.4155L14.5041 12.1319L12.0273 13.2854Z" fill="#313A62"/>
<path d="M8.12653 10.1314L12.4127 9.52631L11.985 12.4147L8.12653 10.1314Z" fill="#3F4B80"/>
<path d="M8.12653 10.1323L11.985 12.4156L9.45184 12.8506L8.12653 10.1323Z" fill="#4B5897"/>
<path d="M8.12653 10.1323L9.45184 12.8506L8.17352 13.7913L8.12653 10.1323Z" fill="#313A62"/>
<path d="M5.95059 10.8641L6.46285 13.9606L5.05295 11.8285L5.95059 10.8641Z" fill="#5161A4"/>
<path d="M3.4269 11.8478L5.05299 11.8289L5.06239 12.8264L3.4269 11.8478Z" fill="#313A62"/>
<path d="M3.55849 12.5239L3.4269 11.8479L5.06239 12.8265L3.55849 12.5239Z" fill="#3F4B80"/>
<path d="M3.55843 12.5239L2.62789 13.3512L3.42684 11.8479L3.55843 12.5239Z" fill="#4B5897"/>
<path d="M2.62792 13.3508L2.56213 13.8519L1.5 13.677L2.62792 13.3508Z" fill="#313A62"/>
<path d="M2.62797 13.3513L3.55851 12.524L2.56217 13.8524L2.62797 13.3513Z" fill="#5161A4"/>
<path d="M5.05295 11.8289L6.46285 13.961L5.06235 14.2399L5.05295 11.8289Z" fill="#3F4B80"/>
<path d="M5.46649 15.8281L4.44665 17.9507L4.29626 16.315L5.46649 15.8281Z" fill="#3F4B80"/>
<path d="M4.29634 16.3152L4.44673 17.9509L3.85927 18.2345L4.29634 16.3152Z" fill="#1F243E"/>
<path d="M4.44665 17.9513L4.60174 18.7502L3.38921 19.0008L4.44665 17.9513Z" fill="#3F4B80"/>
<path d="M3.85918 18.235L4.44665 17.9513L3.38921 19.0008L3.85918 18.235Z" fill="#313A62"/>
<path d="M5.06231 14.2405L6.46282 13.9616L4.29626 16.3158L5.06231 14.2405Z" fill="#313A62"/>
<path d="M6.46282 13.9616L7.41686 15.0536L4.29626 16.3158L6.46282 13.9616Z" fill="#4B5897"/>
<path d="M5.95055 10.8651L8.1265 10.1323L6.46281 13.9615L5.95055 10.8651Z" fill="#4B5897"/>
<path d="M6.46292 13.9615L8.12662 10.1323L8.17361 13.7913L6.46292 13.9615Z" fill="#3F4B80"/>
<path d="M7.41696 15.0527L6.46292 13.9606L8.17361 13.7905L7.41696 15.0527Z" fill="#313A62"/>
<path d="M14.5041 12.1318L16.5203 12.1177L15.2326 14.0937L14.5041 12.1318Z" fill="#4B5897"/>
<path d="M14.5041 12.1315L16.572 11.1623L16.5203 12.1173L14.5041 12.1315Z" fill="#5161A4"/>
<path d="M14.1092 13.881L14.504 12.1319L15.2325 14.0937L14.1092 13.881Z" fill="#3F4B80"/>
<path d="M13.6252 14.7978L14.1092 13.8807L15.2324 14.0934L13.6252 14.7978Z" fill="#4B5897"/>
<path d="M12.6478 15.4549L12.9532 13.9516L14.1093 13.8807L12.6478 15.4549Z" fill="#3F4B80"/>
<path d="M12.6478 15.4549L14.1093 13.8807L13.6253 14.7978L12.6478 15.4549Z" fill="#313A62"/>
<path d="M18.4189 7.44235L20.3363 6.09032L20.4303 6.42123L18.4189 7.44235Z" fill="#495692"/>
<path d="M20.3363 6.08983L21.906 6.00946L20.4303 6.42074L20.3363 6.08983Z" fill="#5D6CAC"/>
<path d="M19.3306 9.17732L18.4564 8.55803L21.4125 8.56276L19.3306 9.17732Z" fill="#4F60A3"/>
<path d="M18.4564 8.55742L20.999 8.2265L21.4125 8.56215L18.4564 8.55742Z" fill="#495692"/>
<path d="M20.999 8.22706L22.1645 7.20122L21.4126 8.56271L20.999 8.22706Z" fill="#3F4B80"/>
<path d="M21.4126 8.56271L22.1646 7.20122L22.4137 7.3194L21.4126 8.56271Z" fill="#4F60A3"/>
<path d="M22.1646 7.2005L22.3714 6.60957L22.4137 7.31868L22.1646 7.2005Z" fill="#313A62"/>
<path d="M16.9714 9.38487L17.2534 11.8715L16.5719 11.1624L16.9714 9.38487Z" fill="#313A62"/>
<path d="M17.2535 11.8716L16.9715 9.38499L19.3307 9.17699L17.2535 11.8716Z" fill="#3F4B80"/>
<path d="M19.3305 9.17655L16.9713 9.38455L16.6705 7.29504L19.3305 9.17655Z" fill="#4B5897"/>
<path d="M19.2789 8.07091L19.6595 8.41601L18.4564 8.55783L19.2789 8.07091Z" fill="#313A62"/>
<path d="M16.6705 7.29504L19.2788 8.07034L18.4564 8.55726L16.6705 7.29504Z" fill="#3F4B80"/>
<path d="M16.6705 7.29504L18.4188 7.44159L19.2788 8.07034L16.6705 7.29504Z" fill="#313A62"/>
<path d="M19.2226 13.1102L19.3307 9.17699L20.2706 9.94755L19.2226 13.1102Z" fill="#3F4B80"/>
<path d="M19.2225 13.1102L19.3306 9.17699L17.2533 11.8716L19.2225 13.1102Z" fill="#495692"/>
<path d="M20.2705 9.94764L19.9697 8.96434L19.3305 9.17707L20.2705 9.94764Z" fill="#313A62"/>
<path d="M20.3975 12.5659L19.2226 13.1095L20.2706 9.9469L20.3975 12.5659Z" fill="#313A62"/>
</svg>
