<svg width="24" height="24" viewBox="0 0 24 24" fill="none" xmlns="http://www.w3.org/2000/svg">
<g clip-path="url(#clip0_125_708)">
<path d="M20.7302 3.1937H3.26984V20.654H20.7302V3.1937Z" fill="white"/>
<path d="M9.1872 14.3116H11.0539C11.5877 14.3108 12.1146 14.1915 12.5967 13.9624C13.0535 13.7376 13.4613 13.4247 13.7967 13.0417C14.13 12.6452 14.3882 12.1912 14.5586 11.7021C14.744 11.2066 14.8386 10.6818 14.838 10.1529C14.8397 9.63845 14.7382 9.12894 14.5396 8.65444C14.346 8.17445 14.0734 7.73022 13.7332 7.34015C13.3899 6.94838 12.9737 6.62707 12.5078 6.39412C12.029 6.1473 11.4973 6.0209 10.9586 6.02587H6.04434V17.956H9.21895L9.1872 14.3116ZM9.1872 8.90841H10.7745C10.9962 8.92253 11.2035 9.0228 11.3523 9.18777C11.5796 9.47249 11.6867 9.83475 11.6507 10.1973C11.6891 10.5443 11.5912 10.8926 11.3777 11.1687C11.3146 11.2515 11.2342 11.3194 11.142 11.3676C11.0499 11.4159 10.9483 11.4434 10.8443 11.4481H9.1872V8.90841Z" fill="#2D8EFF"/>
<path d="M2 3.14921V20.8508C2 21.1556 2.12108 21.4479 2.33659 21.6634C2.55211 21.8789 2.84442 22 3.14921 22H20.8508C21.1556 22 21.4479 21.8789 21.6634 21.6634C21.8789 21.4479 22 21.1556 22 20.8508V3.14921C22 2.84442 21.8789 2.55211 21.6634 2.33659C21.4479 2.12108 21.1556 2 20.8508 2H3.14921C2.84442 2 2.55211 2.12108 2.33659 2.33659C2.12108 2.55211 2 2.84442 2 3.14921V3.14921ZM18.5079 19.6571H5.47937C5.17458 19.6571 4.88227 19.5361 4.66675 19.3205C4.45124 19.105 4.33016 18.8127 4.33016 18.5079V5.47937C4.33016 5.17458 4.45124 4.88227 4.66675 4.66675C4.88227 4.45124 5.17458 4.33016 5.47937 4.33016H18.5079C18.8127 4.33016 19.105 4.45124 19.3205 4.66675C19.5361 4.88227 19.6571 5.17458 19.6571 5.47937V18.5079C19.6538 18.8105 19.5312 19.0996 19.3161 19.3124C19.1009 19.5251 18.8105 19.6445 18.5079 19.6444V19.6571Z" fill="#2D8EFF"/>
<path d="M17.9492 15.7136H10.5904V17.974H17.9492V15.7136Z" fill="#2D8EFF"/>
</g>
<defs>
<clipPath id="clip0_125_708">
<rect width="20" height="20" fill="white" transform="translate(2 2)"/>
</clipPath>
</defs>
</svg>
