<svg width="24" height="24" viewBox="0 0 24 24" fill="none" xmlns="http://www.w3.org/2000/svg">
<g clip-path="url(#clip0_96_1452)">
<path d="M20.5788 6.79096C20.8102 6.92443 21 7.25185 21 7.51915V16.8984C21 17.1657 20.8102 17.4931 20.5788 17.6266L12.4212 22.3177C12.1898 22.4509 11.8105 22.4509 11.5788 22.3177L3.42156 17.6266C3.18945 17.4931 3 17.1657 3 16.8984V7.51915C3 7.25185 3.18945 6.92443 3.42156 6.79096L11.5788 2.0998C11.8105 1.96669 12.1898 1.96669 12.4212 2.0998L20.5792 6.79096H20.5788Z" fill="#4231C8"/>
<path d="M17.1687 8.74648C17.3989 8.61148 17.3982 8.39035 17.1672 8.25571L12.3078 5.43052C12.0764 5.29633 11.6982 5.29633 11.4673 5.43052L6.60782 8.25607C6.37679 8.39107 6.18779 8.71885 6.18779 8.98624V14.7417C6.18779 15.009 6.38138 15.3301 6.61772 15.4548L7.41809 15.8778C7.65443 16.0025 7.84802 15.8862 7.84802 15.6188V9.96283C7.84802 9.69553 8.0363 9.5878 8.26661 9.72316L11.469 11.6069C11.6989 11.7419 12.0759 11.7419 12.3065 11.6069L17.1687 8.74648Z" fill="white"/>
<path d="M14.2712 8.26328C14.5019 8.39747 14.5026 8.61869 14.2728 8.75405L12.306 9.91028C12.0753 10.0464 11.6984 10.0464 11.4681 9.91028L9.50222 8.75369C9.27155 8.61869 9.27155 8.39747 9.50339 8.26328L11.4673 7.12145C11.6979 6.98717 12.0759 6.98717 12.3078 7.12145L14.2712 8.26328Z" fill="#4231C8"/>
</g>
<defs>
<clipPath id="clip0_96_1452">
<rect width="18" height="20.4176" fill="white" transform="translate(3 2)"/>
</clipPath>
</defs>
</svg>
