<svg width="24" height="24" viewBox="0 0 24 24" fill="none" xmlns="http://www.w3.org/2000/svg">
<path d="M8.35508 19.7664H13.3738L17.4299 16.8224L18.9813 12.0561L17.4299 7.28972L13.3738 4.3458H8.35508L4.29901 7.27103L2.74761 12.0374L4.29901 16.8037L8.35508 19.7664ZM13.4579 20.0374H8.26162L8.22424 20.0093L4.05602 16.9813L2.45789 12.0467L4.06536 7.1028L8.26162 4.05608H13.4579L17.6635 7.11215L19.271 12.0561L17.6635 17L13.4579 20.0374Z" fill="#2EA6DF"/>
<path d="M8.84115 4.18688C8.84115 4.52332 8.57012 4.78501 8.24301 4.78501C7.90657 4.78501 7.64488 4.51398 7.64488 4.18688C7.64488 3.85977 7.91591 3.58875 8.24301 3.58875C8.57012 3.58875 8.84115 3.85977 8.84115 4.18688ZM14 4.18688C14 4.52332 13.729 4.78501 13.4019 4.78501C13.0654 4.78501 12.8038 4.51398 12.8038 4.18688C12.8038 3.85977 13.0748 3.58875 13.4019 3.58875C13.729 3.58875 14 3.85977 14 4.18688ZM8.87853 19.813C8.87853 20.1495 8.6075 20.4112 8.2804 20.4112C7.94395 20.4112 7.68227 20.1402 7.68227 19.813C7.68227 19.4859 7.95329 19.2149 8.2804 19.2149C8.6075 19.2056 8.87853 19.4766 8.87853 19.813ZM4.74769 16.9065C4.74769 17.243 4.47666 17.5046 4.14956 17.5046C3.82245 17.5046 3.55143 17.2336 3.55143 16.9065C3.55143 16.5701 3.82245 16.3084 4.14956 16.3084C4.47666 16.3084 4.74769 16.5701 4.74769 16.9065ZM3.20563 12.0467C3.20563 12.3831 2.9346 12.6448 2.6075 12.6448C2.27105 12.6448 2.00937 12.3738 2.00937 12.0467C2.00937 11.7102 2.2804 11.4486 2.6075 11.4486C2.9346 11.4392 3.20563 11.7102 3.20563 12.0467ZM4.74769 7.20557C4.74769 7.54202 4.47666 7.8037 4.14956 7.8037C3.82245 7.8037 3.55143 7.53267 3.55143 7.20557C3.55143 6.86912 3.82245 6.60744 4.14956 6.60744C4.47666 6.60744 4.74769 6.86912 4.74769 7.20557ZM18.514 12.0373C18.514 12.3738 18.7851 12.6355 19.1122 12.6355C19.4393 12.6355 19.7103 12.3644 19.7103 12.0373C19.7103 11.7102 19.4393 11.4392 19.1122 11.4392C18.7851 11.4392 18.514 11.7009 18.514 12.0373ZM16.972 7.19622C16.972 7.53267 17.243 7.79435 17.5701 7.79435C17.9066 7.79435 18.1682 7.52333 18.1682 7.19622C18.1682 6.85977 17.8972 6.59809 17.5701 6.59809C17.2337 6.59809 16.972 6.85977 16.972 7.19622ZM14.0468 19.813C14.0468 20.1495 13.7757 20.4112 13.4486 20.4112C13.1215 20.4112 12.8505 20.1402 12.8505 19.813C12.8505 19.4859 13.1215 19.2149 13.4486 19.2149C13.7757 19.2149 14.0468 19.4766 14.0468 19.813Z" fill="#2EA6DF"/>
<path d="M7.68228 15.5888L7.72901 15.6074L11.0842 16.7383L14.8785 15.5981L17.4393 16.6916V7.40184L14.8785 8.4953L11.0842 7.35511L7.68228 8.48595L7.63555 8.4766L4.28976 7.39249V16.6822L7.68228 15.5888ZM17.7103 17.0841L14.8599 15.8691L11.0842 17.0093L7.69163 15.8691L4.02808 17.056V7.01866L7.69163 8.20558L11.0842 7.06539L11.1215 7.07474L14.8599 8.19623L17.7103 6.98128V17.0841Z" fill="#2EA6DF"/>
<path d="M2.59818 12.2972V11.9101L19.1215 11.8972V12.2714L2.59818 12.2972Z" fill="#2EA6DF"/>
<path d="M11.2336 7.22426L13.2055 11.6635L14.7102 8.33641L13.3551 4.46725L11.2336 7.22426ZM7.82237 8.32706L9.14947 11.6729L10.9158 7.2336L8.33639 4.49529L7.82237 8.32706ZM4.33639 12.0467L7.62611 15.4859L8.99059 12.0467L7.62611 8.59809L4.33639 12.0467ZM9.299 12.0467L11.084 16.514L13.056 12L11.084 7.56071L9.299 12.0467ZM7.82237 15.7476L8.37377 19.514L10.9158 16.8411L9.14947 12.4205L7.82237 15.7476ZM11.2336 16.8504L13.3925 19.5327L14.7102 15.7383L13.2055 12.3458L11.2336 16.8504ZM8.18685 20.1121L7.55134 15.7944L3.96255 12.0467L7.55134 8.28033L8.14012 3.87846L11.0654 6.99061L13.4485 3.89716L15.0093 8.3551L13.3551 12L15.0093 15.7196L13.4953 20.0841L11.0654 17.0747L8.18685 20.1121Z" fill="#2EA6DF"/>
<path d="M14.9721 15.813L14.7478 15.6448L17.402 12.0466L14.7478 8.42982L14.9721 8.2616L17.7384 12.0466L14.9721 15.813ZM7.03748 8.34571C7.03748 8.68216 7.3085 8.94384 7.63561 8.94384C7.97205 8.94384 8.23374 8.67281 8.23374 8.34571C8.23374 8.01861 7.96271 7.74758 7.63561 7.74758C7.3085 7.74758 7.03748 8.00926 7.03748 8.34571ZM10.4767 7.20552C10.4767 7.54197 10.7478 7.80365 11.0749 7.80365C11.4113 7.80365 11.673 7.53262 11.673 7.20552C11.673 6.86907 11.402 6.60739 11.0749 6.60739C10.7384 6.60739 10.4767 6.86907 10.4767 7.20552Z" fill="#2EA6DF"/>
<path d="M15.2898 7.9252C15.0562 7.69156 14.673 7.69156 14.4393 7.9252C14.2057 8.15885 14.2057 8.54203 14.4393 8.77567C14.673 9.00932 15.0562 9.00932 15.2898 8.77567C15.5234 8.53268 15.5234 8.15885 15.2898 7.9252ZM4.74774 12C4.74774 11.6635 4.47672 11.4018 4.14961 11.4018C3.82251 11.4018 3.55148 11.6729 3.55148 12C3.55148 12.3364 3.82251 12.5981 4.14961 12.5981C4.47672 12.5981 4.74774 12.3364 4.74774 12ZM9.6356 12C9.6356 11.6635 9.36457 11.4018 9.03747 11.4018C8.70102 11.4018 8.43933 11.6729 8.43933 12C8.43933 12.3364 8.71036 12.5981 9.03747 12.5981C9.36457 12.5981 9.6356 12.3364 9.6356 12ZM13.7197 12C13.7197 11.6635 13.4487 11.4018 13.1216 11.4018C12.7851 11.4018 12.5234 11.6729 12.5234 12C12.5234 12.3364 12.7945 12.5981 13.1216 12.5981C13.4487 12.5981 13.7197 12.3364 13.7197 12ZM18.1683 12.0467C18.1683 11.7102 17.8973 11.4486 17.5702 11.4486C17.2431 11.4486 16.972 11.7196 16.972 12.0467C16.972 12.3831 17.2431 12.6448 17.5702 12.6448C17.8973 12.6448 18.1683 12.3738 18.1683 12.0467ZM15.458 15.7289C15.458 15.3925 15.187 15.1308 14.8599 15.1308C14.5234 15.1308 14.2618 15.4018 14.2618 15.7289C14.2618 16.056 14.5328 16.3271 14.8599 16.3271C15.1963 16.3271 15.458 16.0654 15.458 15.7289ZM21.9907 18.757C21.9907 18.2897 21.6076 17.9065 21.1403 17.9065C20.673 17.9065 20.2898 18.2897 20.2898 18.757C20.2898 19.2243 20.673 19.6074 21.1403 19.6074C21.6076 19.6074 21.9907 19.2243 21.9907 18.757ZM10.8412 16.3271C10.5328 16.4579 10.3926 16.8131 10.5234 17.1121C10.6543 17.4205 11.0094 17.5607 11.3085 17.4299C11.6169 17.299 11.7571 16.9439 11.6263 16.6448C11.4954 16.3458 11.1496 16.2056 10.8412 16.3271ZM7.40195 15.1775C7.09354 15.3084 6.95335 15.6635 7.08419 15.9626C7.21503 16.271 7.57018 16.4112 7.86924 16.2803C8.17765 16.1495 8.31784 15.7944 8.187 15.4953C8.05616 15.1869 7.71036 15.0467 7.40195 15.1775Z" fill="#2EA6DF"/>
<path d="M21.0748 18.8785L17.4766 17.0186L17.6075 16.7757L21.2056 18.6355L21.0748 18.8785Z" fill="#2EA6DF"/>
</svg>
