<svg width="24" height="24" viewBox="0 0 24 24" fill="none" xmlns="http://www.w3.org/2000/svg">
<g clip-path="url(#clip0_111_759)">
<path d="M6.68747 3.18706L11.7673 9.13877L15.177 7.13304C15.177 7.13304 11.0632 1.6316 9.96622 2.02046C8.93471 2.41342 6.68747 3.18706 6.68747 3.18706Z" fill="black"/>
<path d="M15.3039 7.13303C15.3039 7.13303 16.0776 5.77405 16.4623 3.96071C16.4623 3.96071 20.3223 5.51208 18.8406 9.39664L15.3039 7.13303Z" fill="black"/>
<path d="M18.8406 9.40074L19.1639 13.4777L20.6416 13.2853C20.6416 13.2853 21.0264 13.1543 20.965 12.4462C20.8995 11.6684 20.7726 10.0516 20.7726 10.0516C20.7726 10.0516 20.8381 9.66271 19.9376 9.53582C18.8406 9.33525 18.8406 9.40074 18.8406 9.40074Z" fill="black"/>
<path d="M19.1599 13.4777L16.2004 15.8723L17.5512 18.5248C17.5512 18.5248 17.8746 19.5604 18.8365 18.3938C19.737 17.2272 20.1218 17.0348 20.0563 16.3226C19.999 15.6103 19.8025 13.928 19.1599 13.4777Z" fill="black"/>
<path d="M16.139 15.8682L12.0866 14.0549L8.54995 21.2387C8.54995 21.2387 8.29207 21.7544 9.1926 21.8199C10.0931 21.9509 11.5708 22.2743 12.3445 21.4965C13.1181 20.7884 16.139 15.8682 16.139 15.8682Z" fill="black"/>
<path d="M12.0866 13.9935L11.7018 9.20425L2.95437 9.7896C2.95437 9.7896 2.43861 9.8551 2.5041 10.8252C2.56959 12.1187 2.69649 13.5432 2.69649 13.5432C2.69649 13.5432 2.63099 14.1244 3.78941 14.1899C4.94782 14.2513 11.9597 14.2513 12.0866 13.9935Z" fill="black"/>
</g>
<defs>
<clipPath id="clip0_111_759">
<rect width="18.4732" height="20" fill="white" transform="translate(2.5 2)"/>
</clipPath>
</defs>
</svg>
