<svg width="24" height="24" viewBox="0 0 24 24" fill="none" xmlns="http://www.w3.org/2000/svg">
<g clip-path="url(#clip0_117_828)">
<path d="M10.2775 18.2283L5 22.0004L8.35035 6.65213L10.2775 18.2283ZM10.3843 18.1929L13.5982 18.2342L8.47487 6.71116L10.3843 18.1929ZM13.9007 17.939L16.3615 8.85992L15.4305 7.72651L13.9007 17.939ZM12.7147 3.70644L8.66463 6.4219L14.5826 4.51517L12.7147 3.70644ZM12.2047 3.70644L9.69048 3.78908L9.32284 4.83394L12.2047 3.70644Z" fill="#384182"/>
<path d="M15.2525 7.37827L8.77121 6.49279L14.6121 4.6628L15.2525 7.37827ZM13.7167 3.96623L14.0725 3.004L12.2046 2.19527L13.7167 3.96623ZM14.2563 2.90955L14.6773 4.42077L17.1678 3.76552L14.2563 2.90955Z" fill="#F79534"/>
<path d="M13.7407 18.1747L8.5462 6.60449L15.3181 7.549L13.7407 18.1747ZM12.5192 3.70602L9.31708 4.95159L8.5462 6.36836L12.5192 3.70602ZM10.5327 2.76151L9.73217 3.64109L12.3887 3.57615L10.5327 2.76151ZM11.9321 2.07674L10.6631 2.66116L13.5569 3.93034L11.9321 2.07674ZM13.379 2H12.0151L14.1262 2.81464L13.379 2ZM14.1677 3.08028L13.8415 4.04841L14.4938 4.36128L14.1677 3.08028Z" fill="#F0513A"/>
</g>
<defs>
<clipPath id="clip0_117_828">
<rect width="12.1739" height="20" fill="white" transform="translate(5 2)"/>
</clipPath>
</defs>
</svg>
