<svg width="24" height="24" viewBox="0 0 24 24" fill="none" xmlns="http://www.w3.org/2000/svg">
<path d="M14.8696 10.5142L10.3122 13.7327V12.4711C10.2436 12.4196 9.9981 12.3475 9.56553 12.4711C9.02482 12.6256 7.09372 13.3465 6.45002 15.6896C5.93506 17.564 6.81908 19.4059 7.32546 20.0925H19.0408C18.5344 18.9081 17.4599 16.4311 17.2127 15.9986C16.9655 15.566 17.1097 15.2347 17.2127 15.1231C18.028 14.4708 19.4836 12.3063 18.7833 8.86637C18.083 5.42644 14.9383 4.18882 13.4535 4H5.03389V10.6687C5.42011 10.3426 6.44487 9.61306 7.4542 9.30408C8.46352 8.99511 9.83159 8.9522 10.3895 8.96936V7.57897L14.8696 10.5142Z" fill="url(#paint0_linear_125_709)"/>
<defs>
<linearGradient id="paint0_linear_125_709" x1="5.03389" y1="4" x2="5.03389" y2="20.0925" gradientUnits="userSpaceOnUse">
<stop stop-color="#E34D67"/>
<stop offset="1" stop-color="#7746F4"/>
</linearGradient>
</defs>
</svg>
