<svg width="24" height="24" viewBox="0 0 24 24" fill="none" xmlns="http://www.w3.org/2000/svg">
<path d="M15.2114 13.1146L19.7713 8.61162C19.9407 8.44442 20.075 8.24565 20.1665 8.02677C20.258 7.80789 20.3048 7.57323 20.3042 7.33634L20.312 3.6967C20.3115 3.50998 20.2387 3.33056 20.1086 3.19551L11.3608 11.8419C11.1908 12.0088 11.0558 12.2075 10.9637 12.4264C10.8716 12.6452 10.8242 12.88 10.8242 13.1172C10.8242 13.3543 10.8716 13.5891 10.9637 13.808C11.0558 14.0269 11.1908 14.2255 11.3608 14.3924L17.5287 20.4832C17.6977 20.6498 17.8982 20.7818 18.1188 20.8717C18.3394 20.9615 18.5757 21.0075 18.8141 21.0069C19.0526 21.0063 19.2887 20.9592 19.5088 20.8682C19.7289 20.7773 19.9288 20.6443 20.097 20.4768C20.2652 20.3093 20.3985 20.1107 20.4892 19.8922C20.5799 19.6737 20.6263 19.4396 20.6257 19.2034C20.6251 18.9671 20.5775 18.7333 20.4857 18.5153C20.3939 18.2972 20.2596 18.0993 20.0905 17.9326L15.2114 13.1146Z" fill="#008C62"/>
<path d="M19.5988 3.00017H5.85854C4.74753 3.00017 3.92747 3.83165 3.92747 4.96665V19.1669C3.92436 19.4082 3.97005 19.6476 4.06187 19.8711C4.15369 20.0946 4.28977 20.2977 4.46207 20.4682C4.63438 20.6388 4.83943 20.7735 5.06512 20.8643C5.29081 20.955 5.53258 21.0002 5.77615 20.9969C6.01991 21.001 6.26201 20.9565 6.48804 20.866C6.71406 20.7755 6.91939 20.6409 7.09177 20.4701C7.26416 20.2994 7.40008 20.096 7.49144 19.8721C7.5828 19.6482 7.62773 19.4083 7.62355 19.1669V6.50336H16.764L20.1112 3.20422C20.0441 3.13764 19.9642 3.08523 19.8761 3.05016C19.788 3.01509 19.6937 2.99808 19.5988 3.00017Z" fill="#00E6A0"/>
</svg>
