<svg width="24" height="24" viewBox="0 0 24 24" fill="none" xmlns="http://www.w3.org/2000/svg">
<g clip-path="url(#clip0_125_712)">
<path d="M12 2C17.5229 2 22 6.47714 22 12C22 17.5229 17.5229 22 12 22C6.47714 22 2 17.5229 2 12C2 6.47714 6.47714 2 12 2Z" fill="black"/>
<path d="M7.19719 10.1634C7.19719 10.2383 7.27205 10.3131 7.3469 10.3131H9.16576V11.2377H7.3469C7.27205 11.2377 7.19719 11.3125 7.19719 11.3874V12.912C7.19719 12.9868 7.27205 13.0617 7.3469 13.0617H9.16576V16.7108C9.16576 16.7857 9.21547 16.836 9.29033 16.836H11.0349C11.1098 16.836 11.1595 16.7863 11.1595 16.7108V13.2628C11.1595 13.188 11.2092 13.1377 11.284 13.1377H12.68C12.7298 13.1377 12.7795 13.1628 12.8046 13.2125L14.3498 16.7868C14.3749 16.8365 14.4246 16.8617 14.4743 16.8617H16.3435C16.4429 16.8617 16.4932 16.7617 16.468 16.6868L14.9229 13.1874C14.8978 13.1125 14.9229 13.0377 14.9978 13.0125C15.7452 12.7377 16.2189 12.0628 16.2189 11.1628V8.91312C16.2189 7.7634 15.272 6.81369 14.1252 6.81369H9.29033C9.21547 6.81369 9.16576 6.86398 9.16576 6.93883V8.48855H7.3469C7.27205 8.48855 7.19719 8.5634 7.19719 8.63826V10.1634Z" fill="white"/>
<path d="M11.1595 8.83826C11.1595 8.76341 11.2092 8.71312 11.2841 8.71312H13.6269C13.9509 8.71312 14.2252 8.98798 14.2252 9.31312V10.6628C14.2252 10.988 13.9509 11.2628 13.6269 11.2628H11.2841C11.2092 11.2628 11.1595 11.2125 11.1595 11.1377V8.83826Z" fill="black"/>
</g>
<defs>
<clipPath id="clip0_125_712">
<rect width="20" height="20" fill="white" transform="translate(2 2)"/>
</clipPath>
</defs>
</svg>
