<svg width="24" height="24" viewBox="0 0 24 24" fill="none" xmlns="http://www.w3.org/2000/svg">
<path d="M9.23633 6.09086C9.96435 6.09086 10.5545 5.50069 10.5545 4.77268C10.5545 4.04467 9.96435 3.4545 9.23633 3.4545C8.50832 3.4545 7.91815 4.04467 7.91815 4.77268C7.91815 5.50069 8.50832 6.09086 9.23633 6.09086Z" fill="#8352A1"/>
<path d="M15.1453 20.4546C15.8733 20.4546 16.4635 19.8644 16.4635 19.1364C16.4635 18.4084 15.8733 17.8182 15.1453 17.8182C14.4173 17.8182 13.8271 18.4084 13.8271 19.1364C13.8271 19.8644 14.4173 20.4546 15.1453 20.4546Z" fill="#3E99D3"/>
<path d="M14.5596 3.77231L8.45194 8.49112C7.91717 8.9043 7.81859 9.67277 8.23176 10.2075C8.64493 10.7423 9.4134 10.8409 9.94818 10.4277L16.0558 5.70891C16.5906 5.29574 16.6892 4.52727 16.276 3.9925C15.8628 3.45772 15.0944 3.35914 14.5596 3.77231Z" fill="#E53C54"/>
<path d="M14.5591 8.59047L8.45142 13.3093C7.91665 13.7225 7.81807 14.4909 8.23124 15.0257C8.64442 15.5605 9.41288 15.6591 9.94766 15.2459L16.0553 10.5271C16.5901 10.1139 16.6886 9.34543 16.2755 8.81066C15.8623 8.27588 15.0938 8.1773 14.5591 8.59047Z" fill="#F49352"/>
<path d="M8.36106 18.3098L14.4687 13.591C15.0035 13.1778 15.7719 13.2764 16.1851 13.8111C16.5983 14.3459 16.4997 15.1144 15.9649 15.5276L9.8573 20.2464C9.32252 20.6595 8.55405 20.561 8.14088 20.0262C7.72771 19.4914 7.82628 18.7229 8.36106 18.3098Z" fill="#3EBB90"/>
</svg>
