<svg width="24" height="24" viewBox="0 0 24 24" fill="none" xmlns="http://www.w3.org/2000/svg">
<g clip-path="url(#clip0_113_575)">
<path d="M12 21.6722C17.3418 21.6722 21.6722 17.3418 21.6722 12C21.6722 6.65827 17.3418 2.32791 12 2.32791C6.65827 2.32791 2.32791 6.65827 2.32791 12C2.32791 17.3418 6.65827 21.6722 12 21.6722Z" fill="#1B1B1B" stroke="white" stroke-width="0.655738"/>
<path fill-rule="evenodd" clip-rule="evenodd" d="M14.8361 9.16393C14.9672 9.29508 15.1803 9.27868 15.2787 9.13114C15.377 9.01639 15.3606 8.83606 15.2459 8.7377C14.1639 7.70491 13.1967 7.18032 11.5902 7.26229C9.90163 7.34426 8.40983 8.2295 8.50819 10.0984C8.59015 11.7541 10.1967 12.3607 11.6065 12.9016C12.6885 13.3115 13.6393 13.6721 13.6885 14.4426C13.7377 15.2951 12.8688 15.8033 12.1147 15.8525C10.6885 15.9344 9.85245 15.4262 8.91802 14.5246C8.80327 14.4098 8.62294 14.4098 8.50819 14.5082C8.37704 14.6229 8.37704 14.8197 8.49179 14.9508C9.54097 16 10.6229 16.5246 12.1967 16.4426C13.7705 16.3279 15.7049 15.4426 15.6065 13.5738C15.5246 11.9508 13.9836 11.3443 12.5902 10.8197C11.4426 10.377 10.377 9.96721 10.3279 9.03278C10.2951 8.36065 11.0984 7.86885 11.6721 7.83606C13.0656 7.77049 13.9344 8.26229 14.8361 9.16393ZM15.0164 13.6066C15.0164 14.3279 14.6229 14.9508 14.0328 15.3115L14 15.2951C14.2131 15 14.2459 14.6229 14.2459 14.2623C14.2459 13.1967 13.082 12.7869 11.8524 12.3443C10.4918 11.8525 9.06556 11.3443 9.06556 9.90163C9.06556 9.2459 9.36065 8.54098 9.93442 8.21311L9.95081 8.2459C9.80327 8.55737 9.7377 8.90163 9.7377 9.2459C9.7377 10.4262 11.0328 10.9016 12.3443 11.3934C13.6885 11.8852 15.0164 12.377 15.0164 13.6066Z" fill="white"/>
<path d="M11.918 19.7049C16.2131 19.7049 19.7049 16.2131 19.7049 11.918C19.7049 7.62295 16.2131 4.13115 11.918 4.13115C7.62295 4.13115 4.13114 7.62295 4.13114 11.918C4.13114 16.2131 7.62295 19.7049 11.918 19.7049Z" stroke="white" stroke-width="0.327869" stroke-linecap="round"/>
</g>
<defs>
<clipPath id="clip0_113_575">
<rect width="20" height="20" fill="white" transform="translate(2 2)"/>
</clipPath>
</defs>
</svg>
