<svg width="24" height="24" viewBox="0 0 24 24" fill="none" xmlns="http://www.w3.org/2000/svg">
<path fill-rule="evenodd" clip-rule="evenodd" d="M7.00539 12.8778C7.00539 15.6106 9.22458 17.8298 11.9574 17.8298C14.6901 17.8298 16.9093 15.6106 16.9093 12.8715C16.9093 10.2148 12.3505 5.52281 12.1539 5.32625L11.913 5.08531L11.6784 5.33259C11.4882 5.52915 7.00539 10.2211 7.00539 12.8778ZM9.88402 8.46478C10.7019 7.38688 11.5262 6.46751 11.9193 6.04269C12.3188 6.46751 13.1621 7.39322 13.9927 8.46478C15.47 10.3796 16.2499 11.9013 16.2499 12.8714C16.2499 15.2365 14.3224 17.164 11.9574 17.164C9.59235 17.164 7.66483 15.2365 7.66483 12.8714C7.66483 11.9013 8.43204 10.3796 9.88402 8.46478Z" fill="url(#paint0_linear_125_713)"/>
<path d="M11.9573 19.4149C8.34951 19.4149 5.42018 16.4793 5.42018 12.8778C5.42018 9.35249 10.3404 4.43224 10.5497 4.22934C10.6765 4.10253 10.8921 4.10253 11.0189 4.22934C11.1457 4.35615 11.1457 4.57173 11.0189 4.69854C10.9681 4.74926 6.08594 9.63148 6.08594 12.8778C6.08594 16.1178 8.7236 18.7555 11.9636 18.7555C15.2036 18.7555 17.8413 16.1178 17.8413 12.8778C17.8413 11.5463 16.979 9.70756 15.3431 7.54544C14.0877 5.89056 12.8259 4.63513 12.8132 4.62245C12.6801 4.49564 12.6801 4.28641 12.8132 4.15325C12.9401 4.0201 13.1493 4.0201 13.2824 4.15325C13.498 4.36249 18.507 9.34615 18.507 12.8778C18.4944 16.4793 15.565 19.4149 11.9573 19.4149Z" fill="url(#paint1_linear_125_713)"/>
<path d="M11.9574 21C7.56972 21 4 17.4303 4 13.0426C4 11.2292 4.91304 8.99737 6.70741 6.41677C8.03258 4.51461 9.33239 3.15774 9.38945 3.10067C9.51627 2.96752 9.7255 2.96752 9.85865 3.09433C9.99181 3.22114 9.99181 3.43038 9.865 3.56353C9.85231 3.57621 8.53982 4.94577 7.24635 6.80354C5.55343 9.23197 4.65942 11.3877 4.65942 13.0426C4.65942 17.0625 7.93113 20.3406 11.9574 20.3406C15.9836 20.3406 19.2553 17.0689 19.2553 13.0426C19.2553 11.3877 18.355 9.23197 16.6494 6.80354C15.3432 4.94577 14.018 3.57621 14.0054 3.56353C13.8786 3.43038 13.8786 3.22114 14.0117 3.09433C14.1449 2.96752 14.3541 2.96752 14.4809 3.10067C14.7028 3.32893 19.9147 8.74375 19.9147 13.0426C19.9147 17.4303 16.345 21 11.9574 21Z" fill="url(#paint2_linear_125_713)"/>
<defs>
<linearGradient id="paint0_linear_125_713" x1="16.9093" y1="17.829" x2="16.9093" y2="5.08453" gradientUnits="userSpaceOnUse">
<stop stop-color="#05AAC5"/>
<stop offset="1" stop-color="#71E0EC"/>
</linearGradient>
<linearGradient id="paint1_linear_125_713" x1="18.507" y1="19.4141" x2="18.507" y2="4.05262" gradientUnits="userSpaceOnUse">
<stop stop-color="#05AAC5"/>
<stop offset="1" stop-color="#71E0EC"/>
</linearGradient>
<linearGradient id="paint2_linear_125_713" x1="19.9147" y1="20.9992" x2="19.9147" y2="2.99922" gradientUnits="userSpaceOnUse">
<stop stop-color="#05AAC5"/>
<stop offset="1" stop-color="#71E0EC"/>
</linearGradient>
</defs>
</svg>
