<svg width="24" height="24" viewBox="0 0 24 24" fill="none" xmlns="http://www.w3.org/2000/svg">
<path d="M12 22C17.5228 22 22 17.5228 22 12C22 6.47715 17.5228 2 12 2C6.47715 2 2 6.47715 2 12C2 17.5228 6.47715 22 12 22Z" fill="#01AEF0"/>
<path fill-rule="evenodd" clip-rule="evenodd" d="M15.1681 13.8062C15.16 15.1024 14.4112 16.2062 13.2168 16.6593C12.9368 16.7656 12.6456 16.8437 12.3556 16.9162C12.1825 16.9599 12.0881 17.0456 12.0743 17.2349C12.0568 17.4737 12.0325 17.7118 11.9993 17.9474C11.9593 18.2262 11.8637 18.2899 11.6075 18.2287C11.1662 18.1237 11.1187 18.0524 11.1775 17.5893C11.1825 17.5499 11.1881 17.5106 11.1925 17.4706C11.2362 17.0912 11.1825 17.0368 10.8193 17.0549C10.6562 17.0631 10.5881 17.1437 10.5725 17.3037C10.5512 17.5337 10.5287 17.7643 10.4912 17.9912C10.4537 18.2237 10.3562 18.2812 10.1325 18.2324C9.65496 18.1293 9.61996 18.0762 9.68246 17.5712C9.76121 16.9443 9.75933 16.9512 9.18058 16.7768C8.92433 16.6993 8.67558 16.5918 8.42496 16.4924C8.27246 16.4324 8.22246 16.3187 8.26371 16.1493C8.31621 15.9337 8.35246 15.7131 8.39746 15.4949C8.47496 15.1231 8.65496 15.0106 8.99871 15.1456C9.60746 15.3849 10.2325 15.5324 10.8831 15.5481C11.47 15.5624 12.0506 15.5237 12.5862 15.2356C12.94 15.0449 13.2 14.7656 13.3306 14.3649C13.5243 13.7699 13.3506 13.2887 12.7931 13.0493C12.3337 12.8524 11.8406 12.7431 11.3775 12.5543C10.9662 12.3868 10.5387 12.2193 10.1837 11.9562C9.38558 11.3662 9.24621 10.4937 9.42121 9.56182C9.61996 8.51119 10.2631 7.82994 11.2175 7.46807C11.4718 7.37244 11.5868 7.23869 11.5912 6.95307C11.595 6.64369 11.6443 6.33432 11.6818 6.02619C11.7106 5.78932 11.8031 5.72307 12.0243 5.75932C12.4943 5.83619 12.5506 5.91057 12.5043 6.39869C12.4862 6.58932 12.4706 6.77994 12.4481 6.96932C12.4293 7.12869 12.48 7.20182 12.6468 7.20682C13.0275 7.21807 13.0437 7.21119 13.0887 6.81744C13.1175 6.56432 13.1387 6.31057 13.1731 6.05807C13.2106 5.77807 13.3012 5.71432 13.5593 5.76682C13.9937 5.85619 14.0418 5.92244 13.9993 6.37494C13.9806 6.57307 13.9712 6.77307 13.9368 6.96869C13.8975 7.19369 13.9662 7.29807 14.19 7.34994C14.6156 7.44869 15.0368 7.57369 15.455 7.70369C15.7693 7.80119 15.7818 7.83682 15.7212 8.16369C15.6856 8.35932 15.65 8.55557 15.6037 8.74869C15.5175 9.11244 15.3362 9.22057 14.99 9.10432C14.3975 8.90432 13.8025 8.72369 13.1743 8.69682C12.6243 8.67369 12.0818 8.68182 11.6043 9.02744C10.9318 9.51369 10.9281 10.5024 11.6431 10.9187C12.0981 11.1837 12.6237 11.3187 13.1168 11.5137C13.4175 11.6324 13.7262 11.7349 14.015 11.8787C14.7887 12.2649 15.1768 12.9106 15.1681 13.8068" fill="white"/>
</svg>
