<svg width="24" height="24" viewBox="0 0 24 24" fill="none" xmlns="http://www.w3.org/2000/svg">
<path fill-rule="evenodd" clip-rule="evenodd" d="M7.44717 10.2455C7.28072 10.0802 7.1871 9.85534 7.1871 9.62076C7.1871 9.38617 7.28072 9.16129 7.44717 8.99599L12.4137 4.01897C12.7622 3.67735 13.3199 3.67735 13.6685 4.01897C14.0101 4.36748 14.0101 4.92525 13.6685 5.27377L8.6967 10.2455C8.53141 10.412 8.30652 10.5056 8.07194 10.5056C7.83735 10.5056 7.61247 10.412 7.44717 10.2455Z" fill="#242328"/>
<path fill-rule="evenodd" clip-rule="evenodd" d="M16.4204 13.625C16.5872 13.7912 16.681 14.017 16.681 14.2524C16.681 14.4879 16.5872 14.7136 16.4204 14.8798L11.454 19.8516C11.2329 20.086 10.902 20.1818 10.5899 20.1019C10.2778 20.022 10.0337 19.7789 9.95249 19.4671C9.87126 19.1554 9.96572 18.8241 10.1992 18.6021L15.1709 13.625C15.5165 13.2812 16.0749 13.2812 16.4204 13.625ZM7.12544 14.6795C6.78383 14.331 6.78383 13.7732 7.12544 13.4247L10.2888 10.2613C10.4541 10.0949 10.679 10.0013 10.9136 10.0013C11.1482 10.0013 11.373 10.0949 11.5383 10.2613C11.88 10.6099 11.88 11.1676 11.5383 11.5161L8.37497 14.6795C8.02943 15.0233 7.47099 15.0233 7.12544 14.6795Z" fill="#242328"/>
<path fill-rule="evenodd" clip-rule="evenodd" d="M16.7421 9.18592C17.0859 9.53147 17.0859 10.0899 16.7421 10.4354L13.5787 13.5988C13.3567 13.8323 13.0254 13.9267 12.7136 13.8455C12.4019 13.7643 12.1588 13.5202 12.0789 13.2081C11.999 12.896 12.0948 12.5651 12.3292 12.344L15.4926 9.18065C15.6579 9.01419 15.8827 8.92058 16.1173 8.92058C16.3519 8.92058 16.5768 9.01419 16.7421 9.18065" fill="#A573FF"/>
</svg>
