<svg width="24" height="24" viewBox="0 0 24 24" fill="none" xmlns="http://www.w3.org/2000/svg">
<path d="M11.9973 3.02409C15.0828 3.02409 17.9935 3.9642 20.6752 5.50092L20.8741 5.59131L20.8138 5.80223C20.8078 8.82143 19.9882 11.7804 18.4455 14.3717C16.9509 17.0233 14.7754 19.2349 12.1419 20.7717L11.9973 20.8741L11.8406 20.7656C9.17697 19.2229 7.15815 17.0474 5.62746 14.3777C4.09677 11.7141 3.17474 8.74911 3.17474 5.66965L3.15063 5.52502L3.25308 5.44065C5.92275 3.90394 8.90579 3.00601 11.9913 3.00601" fill="#8D33E5"/>
<path d="M20.7716 5.41656C18.108 3.86779 15.0828 3.04218 11.9973 3.03013V20.7717L12.1961 20.8922C14.8538 19.3434 17.0534 17.1257 18.578 14.4621C20.1268 11.8105 20.9464 8.80336 20.9524 5.73595V5.51901L20.7716 5.41656Z" fill="#7000DF"/>
<path d="M20.9826 5.6998V5.46477L20.7837 5.35027C18.108 3.81356 15.0768 3 11.9913 3C8.90581 3 5.87456 3.81356 3.2049 5.35027L3 5.46477V5.6998C3.01205 8.78528 3.82561 11.8105 5.36835 14.4741C6.91109 17.1438 9.12878 19.3555 11.7985 20.8982L11.9973 21.0127L12.1962 20.8982C14.8659 19.3615 17.0835 17.1438 18.6263 14.4802C20.1751 11.8105 20.9946 8.78528 21.0007 5.6998H20.9826ZM11.9853 20.1208C6.80865 17.0956 3.49416 11.684 3.458 5.68775C6.06741 4.22335 9.00223 3.45198 11.9973 3.45198C14.9924 3.45198 17.9272 4.22335 20.5366 5.68775C20.5065 11.696 17.186 17.0956 11.9973 20.1148L11.9853 20.1208Z" fill="#7000DF"/>
<path d="M11.9973 20.1148C6.80865 17.0956 3.49416 11.684 3.458 5.68775C6.06741 4.22335 9.00826 3.45198 11.9973 3.45198V3C8.91184 3 5.87456 3.80753 3.19887 5.35027L3 5.46477V5.6998C3.00603 8.78528 3.82561 11.8105 5.36835 14.4741C6.91109 17.1438 9.12878 19.3555 11.7985 20.8982L11.9973 21.0127V20.1148Z" fill="#8D33E5"/>
<path d="M17.65 8.6045C17.65 8.53821 17.638 8.46589 17.6139 8.40563C17.415 7.8271 17.1137 7.28473 16.734 6.80865C16.6436 6.6821 16.5352 6.5676 16.4387 6.44707L16.3604 6.35667C16.3303 6.32052 16.2881 6.29038 16.2459 6.26628C16.1615 6.21807 16.0711 6.19396 15.9747 6.19396C15.9265 6.19999 15.8843 6.20601 15.8361 6.22409C15.812 6.23012 15.7939 6.23615 15.7758 6.2482C15.7758 6.2482 12.5035 8.01994 11.9913 8.2851C11.4851 8.01994 8.23086 6.23615 8.15252 6.23012C8.11033 6.21204 8.06212 6.20601 8.01391 6.19999C7.91749 6.19999 7.82107 6.22409 7.74273 6.2723C7.70054 6.29641 7.66439 6.32654 7.63425 6.3627L7.55591 6.45309C7.45346 6.56759 7.35704 6.6821 7.26062 6.81467C6.89904 7.2787 6.60375 7.79094 6.39283 8.33934C6.35064 8.42371 6.33257 8.5141 6.33257 8.6045C6.33257 8.69489 6.35064 8.79131 6.3868 8.86966C6.42296 8.95402 6.48322 9.02634 6.55554 9.0866C6.56759 9.09866 6.57965 9.11071 6.59772 9.11674L6.63991 9.14687L6.70017 9.18905L7.21844 9.50845L8.24291 10.1472L9.26739 10.7921L10.1171 11.3043L10.1292 14.902V15.2998V15.4986C10.1292 15.5348 10.1292 15.577 10.1292 15.6131C10.1352 15.6794 10.1533 15.7517 10.1774 15.812C10.2316 15.9325 10.3099 16.035 10.4124 16.1133C10.5148 16.1917 10.6354 16.2459 10.7619 16.276C10.8885 16.3062 11.0211 16.3363 11.1536 16.3544C11.7081 16.4327 12.2625 16.4327 12.8169 16.3544C13.0158 16.3242 13.064 16.3122 13.1966 16.2821C13.3291 16.2519 13.4497 16.1977 13.5521 16.1133C13.6546 16.035 13.7389 15.9325 13.7871 15.812C13.8112 15.7457 13.8293 15.6794 13.8354 15.6131C13.8354 15.5709 13.8354 15.5348 13.8354 15.4986C13.8354 15.4986 13.8775 12.2504 13.8655 11.3103L14.7092 10.7981L15.7578 10.1472L16.7883 9.50242L17.3005 9.18303C17.409 9.12879 17.4994 9.05045 17.5596 8.948C17.6199 8.83952 17.6561 8.72502 17.65 8.6045Z" fill="#3F017F"/>
<path d="M10.5088 11.0993C10.5088 10.798 10.4425 10.4967 10.3099 10.2195C10.1773 9.94831 9.98449 9.70726 9.74946 9.52044C9.07451 8.98409 8.02593 8.79125 7.00748 9.0082C6.94119 9.02025 6.75437 8.90575 6.68808 8.8937C6.68808 8.8937 6.67 8.88165 6.70616 8.91178C6.74232 8.94191 6.73629 8.97204 6.74232 8.97807L10.5028 11.1355V11.0993H10.5088Z" fill="#F4A900"/>
<path d="M13.7992 8.73705C14.6007 8.42368 15.2938 7.61615 15.6131 6.62783C15.6373 6.55552 15.7638 6.53744 15.812 6.48923C15.8301 6.47718 15.7698 6.41089 15.7879 6.39883L11.9913 8.58639L12.0395 8.6105C12.3047 8.76116 12.594 8.85758 12.9013 8.87566C13.2026 8.89976 13.51 8.85155 13.7932 8.73705H13.7992Z" fill="#78B6E4"/>
<path d="M13.4195 11.2019C13.1604 11.3525 12.9374 11.5634 12.7687 11.8165C12.6 12.0697 12.4975 12.3529 12.4553 12.6542C12.3348 13.5039 12.6904 14.5043 13.3894 15.2636C13.4437 15.3178 13.4376 15.4263 13.4497 15.4986C13.4497 15.5167 13.4738 15.5167 13.4919 15.5288L13.5099 11.1597L13.4195 11.2019Z" fill="#20B5AC"/>
<path d="M12.6361 12.8108C12.6903 12.5095 12.8108 12.2323 12.9856 11.9852C13.1604 11.7382 13.3954 11.5393 13.6605 11.3947L13.5039 11.1536L13.4195 11.2078C13.1604 11.3585 12.9374 11.5694 12.7686 11.8225C12.5999 12.0756 12.4975 12.3589 12.4553 12.6602C12.3528 13.4014 12.612 14.2692 13.1543 14.9864C12.7506 14.3355 12.5637 13.5762 12.6361 12.8108Z" fill="#3F017F"/>
<path d="M13.8354 8.51404C13.5521 8.61649 13.2448 8.65265 12.9435 8.62252C12.6422 8.59238 12.3529 8.48994 12.0938 8.32722L11.9552 8.58033L12.0395 8.63457C12.2987 8.78523 12.594 8.87562 12.8953 8.8937C13.1966 8.91781 13.4979 8.86959 13.7751 8.75509C14.5706 8.39351 15.2094 7.76075 15.577 6.96527C15.577 6.95322 15.5228 6.88693 15.4685 7.00746C15.1069 7.67638 14.5344 8.2067 13.8354 8.51404Z" fill="#3F017F"/>
<path d="M9.53253 9.65306C9.7555 9.83385 9.93629 10.0689 10.0508 10.334C10.1653 10.5992 10.2135 10.8885 10.1954 11.1777L10.4847 11.2681L10.5751 11.1717C10.5932 10.5691 10.328 9.80372 9.85192 9.41201C9.2975 8.94196 8.12839 8.78527 7.34497 8.9058C7.31483 8.9058 7.30278 8.95401 7.50768 8.94798C8.24289 8.93593 8.96002 9.18301 9.53253 9.65306Z" fill="#3F017F"/>
<path d="M11.9973 16.0289C11.5935 16.0289 11.1898 15.9747 10.7981 15.8723C10.7137 15.8481 10.6414 15.7999 10.5932 15.7336C10.5389 15.6674 10.5088 15.583 10.5088 15.4986V11.0994C10.5088 10.7981 10.4425 10.4968 10.316 10.2256C10.1894 9.95439 9.99655 9.71334 9.76153 9.52652C9.08658 8.99017 8.03799 8.79733 7.01954 9.01428C6.97133 9.02633 6.9171 9.02633 6.86286 9.02031C6.80862 9.01428 6.76041 8.99017 6.71823 8.96607C6.62783 8.91183 6.56154 8.82144 6.53744 8.71899C6.51936 8.64065 6.52538 8.5623 6.55552 8.48999C6.68207 8.12841 6.84478 7.77285 7.0316 7.43538C7.23047 7.08585 7.47152 6.76043 7.76078 6.47719C7.82105 6.41693 7.90542 6.38077 7.98978 6.36872C8.07415 6.35667 8.16455 6.37474 8.23686 6.41693L11.9431 8.55025L12.0395 8.61052C12.3046 8.76117 12.5939 8.85759 12.9012 8.87567C13.2026 8.89978 13.5099 8.85157 13.7871 8.73104C14.5886 8.41767 15.2817 7.61014 15.601 6.62182C15.6191 6.57361 15.6432 6.5254 15.6734 6.48322C15.7095 6.44103 15.7517 6.4109 15.7999 6.3868C15.8481 6.36269 15.8963 6.34461 15.9506 6.33859C16.0048 6.33256 16.059 6.33859 16.1073 6.35667C16.1796 6.38077 16.2459 6.42296 16.2941 6.48322C16.5472 6.77851 16.7702 7.09188 16.969 7.42935C17.1739 7.77888 17.3306 8.15251 17.4331 8.54423C17.4511 8.62859 17.4451 8.71899 17.415 8.79733C17.3788 8.87567 17.3246 8.94196 17.2462 8.98415L13.5159 11.1356L13.4135 11.1958C13.1544 11.3465 12.9314 11.5574 12.7687 11.8105C12.606 12.0636 12.4915 12.3468 12.4553 12.6421C12.3348 13.4918 12.6903 14.4922 13.3894 15.2515C13.4376 15.3058 13.4738 15.3721 13.4858 15.4384C13.4979 15.5107 13.4979 15.583 13.4738 15.6493C13.4496 15.7156 13.4075 15.7758 13.3532 15.824C13.293 15.8723 13.2267 15.9024 13.1544 15.9144C12.7687 15.9868 12.383 16.0229 11.9973 16.0289Z" fill="white"/>
</svg>
