<svg width="24" height="24" viewBox="0 0 24 24" fill="none" xmlns="http://www.w3.org/2000/svg">
<g clip-path="url(#clip0_117_819)">
<path fill-rule="evenodd" clip-rule="evenodd" d="M19.9829 9.20162C19.0001 8.26838 17.6124 7.49097 15.8117 6.99736H15.8013C11.5166 5.82732 9.99001 8.59484 13.4594 10.3394C17.3981 12.3174 17.9454 15.5567 15.7224 17.5825C15.156 18.0979 13.3155 19.0625 11.6224 19.294C8.93357 19.6684 5.94985 19.0947 3.52472 18.3216C4.84374 19.35 6.3511 20.1083 7.96126 20.5537C11.7421 21.5984 16.3087 20.8288 19.3349 18.1884C22.3828 15.5254 22.6743 11.7506 19.9829 9.20162ZM15.8135 6.99823L15.8525 7.00955L15.8135 6.99823Z" fill="#008DD0"/>
<path fill-rule="evenodd" clip-rule="evenodd" d="M7.57507 2.95874C9.66186 2.10503 11.9353 1.81566 14.1683 2.1195C16.4014 2.42334 18.5159 3.30976 20.301 4.69029C15.7733 3.24516 12.2605 3.37052 9.95597 4.30115L9.92214 4.31508C7.07634 5.48337 6.09015 7.8748 7.32874 10.0373C7.99574 11.203 9.17188 12.0744 10.3645 12.6725C13.5182 14.2578 12.5485 16.6858 9.13371 16.2418C8.75472 16.191 8.3797 16.114 8.01135 16.0111C1.3058 14.1733 0.324818 8.45808 4.48987 4.82349C5.40931 4.03613 6.45166 3.40612 7.57507 2.95874Z" fill="#008DD0"/>
</g>
<defs>
<clipPath id="clip0_117_819">
<rect width="19.8261" height="19" fill="white" transform="translate(2 2)"/>
</clipPath>
</defs>
</svg>
