<svg width="24" height="24" viewBox="0 0 24 24" fill="none" xmlns="http://www.w3.org/2000/svg">
<circle cx="12" cy="12" r="10" fill="#302C2C"/>
<path fill-rule="evenodd" clip-rule="evenodd" d="M18.7767 11.8915C18.7422 11.8215 18.6965 11.7575 18.6415 11.7022C17.4456 10.3432 15.0117 7.66666 15.0117 7.66666L11.92 11.0599L8.78882 7.69884C8.78882 7.69884 6.32658 10.3987 5.11999 11.7723C4.9628 11.9275 4.9628 12.2076 5.10364 12.3729C5.73052 13.0897 8.80956 16.4968 8.80956 16.4968L11.9156 13.0809L15.0004 16.5L18.7207 12.3698C18.7207 12.3698 18.7993 12.2878 18.8163 12.2329C18.8528 12.1193 18.8264 11.9956 18.7767 11.8915ZM6.83524 12.2695C6.73464 12.1502 6.76859 11.9628 6.86228 11.8499C7.25588 11.4 8.83093 9.70465 8.83093 9.70465L11.0253 12.0423L8.82716 14.4551C8.82716 14.4551 7.48161 13.014 6.83524 12.2695ZM16.7269 12.573C16.7877 12.5037 16.8416 12.4287 16.8879 12.349L16.8873 12.3483C16.9558 12.2089 16.9891 12.0411 16.9369 11.8903C16.917 11.8279 16.8757 11.7783 16.8349 11.7295C16.8254 11.7181 16.8159 11.7068 16.8068 11.6953C16.2352 10.9981 14.9878 9.7015 14.9878 9.7015L12.8223 12.0833L15.023 14.4311L16.7269 12.573Z" fill="white"/>
</svg>
