<svg width="24" height="24" viewBox="0 0 24 24" fill="none" xmlns="http://www.w3.org/2000/svg">
<path d="M21.9817 19.7166V19.7066C21.9821 19.7022 21.9821 19.6978 21.9817 19.6934L12.2221 3.63568L12.2089 3.61578C12.1907 3.58777 12.1672 3.56361 12.1397 3.54469C12.1122 3.52577 12.0813 3.51246 12.0486 3.50553C12.016 3.4986 11.9823 3.49818 11.9495 3.5043C11.9166 3.51042 11.8854 3.52295 11.8574 3.54118C11.8276 3.55976 11.8017 3.58398 11.7811 3.61247L11.7679 3.63402C11.1136 4.71492 10.4549 5.79306 9.79176 6.86844C9.72629 6.9626 9.69121 7.07454 9.69121 7.18923C9.69121 7.30391 9.72629 7.41585 9.79176 7.51002C10.6682 8.93575 11.5419 10.362 12.4128 11.7889C12.4839 11.8907 12.522 12.012 12.522 12.1362C12.522 12.2604 12.4839 12.3816 12.4128 12.4835C10.9771 14.8442 9.46019 17.326 8.01125 19.6967C7.97944 19.7565 7.97257 19.8265 7.99214 19.8914C8.0117 19.9563 8.05611 20.0109 8.1157 20.0432C8.15238 20.0629 8.19341 20.0732 8.23506 20.073H12.4443C12.4905 20.0733 12.536 20.061 12.5757 20.0373C12.6155 20.0136 12.648 19.9795 12.6697 19.9387L12.814 19.6967L14.7652 16.4905C14.7812 16.4609 14.8028 16.4348 14.829 16.4137C14.8551 16.3926 14.8851 16.3769 14.9173 16.3675C14.9496 16.3581 14.9834 16.3552 15.0167 16.3589C15.0501 16.3627 15.0824 16.373 15.1117 16.3893C15.1472 16.408 15.1774 16.4354 15.1996 16.4689L17.1326 19.6188L17.3117 19.9122C17.3338 19.9522 17.3662 19.9856 17.4055 20.0089C17.4449 20.0322 17.4897 20.0446 17.5355 20.0448H17.6532C17.673 20.0465 17.693 20.0465 17.7128 20.0448H21.7447C21.8121 20.0448 21.8768 20.0182 21.9246 19.9706C21.9724 19.9231 21.9995 19.8586 22 19.7912C21.9976 19.7655 21.9915 19.7404 21.9817 19.7166Z" fill="black"/>
<path d="M10.7616 12.6426L10.9025 12.4105C10.9607 12.3271 10.9918 12.2279 10.9918 12.1262C10.9918 12.0245 10.9607 11.9253 10.9025 11.8419L10.0371 10.4394L9.04245 8.83627C9.02498 8.80758 9.00198 8.78264 8.97478 8.76291C8.94759 8.74318 8.91675 8.72905 8.88405 8.72134C8.85136 8.71363 8.81745 8.71249 8.78431 8.71799C8.75117 8.72349 8.71945 8.73552 8.69099 8.75338C8.65273 8.7762 8.62126 8.80882 8.59981 8.84787L2.02985 19.6983C1.99812 19.7579 1.9913 19.8277 2.01087 19.8923C2.03045 19.9569 2.07482 20.0112 2.1343 20.0432C2.17106 20.0644 2.21288 20.0753 2.25532 20.0747H6.11473C6.1605 20.0746 6.20542 20.0623 6.2448 20.039C6.28417 20.0157 6.31655 19.9822 6.33854 19.942L6.48609 19.6967C6.49274 19.6877 6.49883 19.6783 6.50432 19.6685L6.67011 19.4032C8.04444 17.1237 9.36076 14.947 10.7384 12.6791C10.7469 12.6675 10.7547 12.6553 10.7616 12.6426Z" fill="black"/>
</svg>
