<svg width="24" height="24" viewBox="0 0 24 24" fill="none" xmlns="http://www.w3.org/2000/svg">
<path fill-rule="evenodd" clip-rule="evenodd" d="M10.8364 17.9417C11.3671 19.9661 13.2718 21.5109 14.2333 21.4476C14.2668 21.4453 17.8818 20.7507 19.8604 17.3424C21.4007 14.6905 20.8761 12.13 18.7815 12.0744C18.0282 12.1308 9.8246 14.0843 10.8364 17.9417ZM12.6557 2.69963C11.2916 2.69963 9.99692 2.99242 8.82575 3.51472C8.62083 3.60061 8.42121 3.69864 8.22796 3.80828C8.09529 3.87919 7.96261 3.94934 7.83452 4.02559L7.86502 4.0355C7.47691 4.30466 7.14294 4.61804 6.86921 4.98098C4.1601 8.56772 13.2398 11.1747 18.0938 11.1838C20.3278 12.7904 20.9546 6.65921 18.7724 4.95735C17.0698 3.49628 14.8992 2.69509 12.6557 2.69963Z" fill="#0E3CA5"/>
<path fill-rule="evenodd" clip-rule="evenodd" d="M9.2435 4.80261C8.0159 6.60589 3.92593 7.87695 3.25342 7.6787L3.25037 7.67108L3.33424 7.50867C4.03692 6.19018 5.0348 5.05191 6.24998 4.18271C6.5016 4.002 6.76237 3.83349 7.03153 3.67642C7.60263 3.35236 8.18975 3.33254 8.38266 3.32491C10.2035 3.35846 9.25265 4.78812 9.24274 4.80261" fill="#5493F7"/>
<mask id="mask0_8_101" style="mask-type:alpha" maskUnits="userSpaceOnUse" x="2" y="8" width="7" height="14">
<path d="M2 8.94942H8.25009V21.4488H2V8.94942Z" fill="white"/>
</mask>
<g mask="url(#mask0_8_101)">
<path fill-rule="evenodd" clip-rule="evenodd" d="M8.21348 18.3158C8.30498 18.9082 8.21119 21.2498 8.08767 21.4473C7.98244 21.4534 7.76132 21.4671 7.12312 21.1133C5.88479 20.4157 4.80655 19.466 3.95804 18.3257C3.33733 17.4904 2.85108 16.5632 2.51695 15.5777C2.17298 14.5582 1.99835 13.4893 1.99998 12.4134C1.99808 11.2306 2.20936 10.0572 2.6237 8.94942H2.62522C3.35721 9.90939 4.20357 10.7779 4.92259 11.7477C5.60806 12.6703 6.5505 14.1747 6.74188 14.4965C7.93288 16.4919 8.12274 17.7233 8.21348 18.3158Z" fill="#5493F7"/>
</g>
<path fill-rule="evenodd" clip-rule="evenodd" d="M22 12.5243C22 13.8045 21.756 15.0283 21.3146 16.1507C20.1556 17.4011 12.3386 14.3237 12.2616 14.2902C11.1926 13.8205 7.93828 12.3901 7.64472 10.1438C7.22231 6.91238 13.7583 4.66 16.6306 4.5746C16.9745 4.57841 18.0229 4.59061 18.6337 5.08928C19.6927 6.01651 20.5411 7.15967 21.1217 8.44194C21.7023 9.72421 22.0018 11.1159 22 12.5235V12.5243ZM15.1644 20.5174C15.6318 18.8628 19.7187 17.167 20.6207 17.0755C20.732 17.0641 20.7793 17.1426 20.7305 17.2326C19.7896 18.9436 18.3965 20.3527 16.7107 21.2662C15.8582 21.6794 14.9204 21.3783 15.1644 20.5174Z" fill="#5493F7"/>
</svg>
