<svg width="24" height="24" viewBox="0 0 24 24" fill="none" xmlns="http://www.w3.org/2000/svg">
<path d="M12 2C17.522 2 22 6.478 22 12C22 17.522 17.522 22 12 22C6.478 22 2 17.522 2 12C2 6.478 6.478 2 12 2Z" fill="url(#paint0_linear_120_1076)"/>
<path d="M15.84 8.94001C15.714 9.09001 15.722 9.42201 15.52 9.32001C15.52 9.32001 14.114 8.78201 14.98 7.20001C15.214 6.83401 15.456 6.81001 15.42 5.92001C15.636 6.24801 16.344 6.90601 16.4 7.94001C16.456 8.63001 16.044 8.72201 15.84 8.94001Z" fill="white"/>
<path d="M14.72 11.4C15.066 11.284 15.626 11.1 15.66 9.91999C16.194 10.738 18.006 11.886 17.14 15.4C16.788 16.77 15.476 17.436 14.24 17.94C13.468 18.268 12.68 18.816 12.36 19.64C12.36 19.64 6.51801 18.902 6.70001 13.1C6.84601 10.09 9.66601 8.93999 10.86 6.73999C11.496 5.35199 11.28 3.95999 11.28 3.95999C11.28 3.95999 15 6.27399 13.32 9.83999C12.774 11.1 14.078 11.526 14.72 11.4Z" fill="white"/>
<path d="M8.98001 12.44V14.38H11.04V16.44H12.98V14.38H15.04V12.44H8.98001Z" fill="url(#paint1_linear_120_1076)"/>
<defs>
<linearGradient id="paint0_linear_120_1076" x1="2" y1="12" x2="22" y2="12" gradientUnits="userSpaceOnUse">
<stop stop-color="#FFA50D"/>
<stop offset="1" stop-color="#FE5413"/>
</linearGradient>
<linearGradient id="paint1_linear_120_1076" x1="8.98001" y1="14.44" x2="15.04" y2="14.44" gradientUnits="userSpaceOnUse">
<stop stop-color="#FFA50D"/>
<stop offset="1" stop-color="#FE5413"/>
</linearGradient>
</defs>
</svg>
