<svg width="24" height="24" viewBox="0 0 24 24" fill="none" xmlns="http://www.w3.org/2000/svg">
<path d="M14.5389 14.25H13.7779C13.637 14.25 13.5172 14.1372 13.5172 13.9893V11.9882L12.1855 12.8196C12.0728 12.8901 11.9319 12.8901 11.8191 12.8196L10.4945 11.9882V13.9893C10.4945 14.1302 10.3818 14.25 10.2338 14.25H9.47988C9.33896 14.25 9.21918 14.1372 9.21918 13.9893V10.1281C9.21918 9.93785 9.37419 9.78284 9.56443 9.78284C9.63489 9.78284 9.6983 9.80398 9.75467 9.84625L11.8544 11.2907C11.9389 11.3541 12.0587 11.3541 12.1432 11.2907L14.2429 9.84625C14.3979 9.74057 14.6164 9.78284 14.7221 9.93785C14.7643 9.99422 14.7784 10.0647 14.7855 10.1281V13.9893C14.7925 14.1302 14.6798 14.25 14.5389 14.25Z" fill="#FF4A4A"/>
<path d="M8.08481 14.243H3.36402C3.17378 14.243 3.01877 14.0879 3.01877 13.8977V10.0154C3.02581 9.86743 3.13855 9.75469 3.28651 9.75469H4.04748C4.1884 9.75469 4.30818 9.86743 4.30818 10.0154V12.9676H7.16883V10.0154C7.16883 9.87447 7.28157 9.75469 7.42953 9.75469H8.16936C8.31028 9.75469 8.43006 9.86743 8.43006 10.0154V13.8977C8.43006 14.0879 8.27505 14.243 8.08481 14.243Z" fill="#FF4A4A"/>
<path d="M15.934 9.75468H20.6548C20.845 9.75468 21 9.90969 21 10.0999V13.9823C21 14.1232 20.8873 14.243 20.7464 14.243H19.9854C19.8445 14.243 19.7247 14.1302 19.7247 13.9823V11.1991C19.7247 11.1075 19.6472 11.03 19.5556 11.03H17.0402C16.9486 11.03 16.8711 11.1075 16.8711 11.1991V13.9823C16.8711 14.1232 16.7584 14.243 16.6104 14.243H15.8494C15.7085 14.243 15.5887 14.1302 15.5887 13.9823V10.0999C15.5887 9.90969 15.7438 9.75468 15.934 9.75468Z" fill="#FF4A4A"/>
<path d="M17.9139 11.8473H18.6678C18.8088 11.8473 18.9285 11.96 18.9285 12.108V12.876C18.9285 13.0169 18.8158 13.1367 18.6678 13.1367H17.9139C17.773 13.1367 17.6532 13.0239 17.6532 12.876V12.1009C17.6532 11.96 17.773 11.8473 17.9139 11.8473Z" fill="#FF4A4A"/>
</svg>
