<svg width="24" height="24" viewBox="0 0 24 24" fill="none" xmlns="http://www.w3.org/2000/svg">
<path d="M8.62363 4.20627H4.32836C4.23175 4.20627 4.16835 4.30725 4.21032 4.39427L12.0595 20.6669C12.1075 20.7665 12.2497 20.7655 12.2964 20.6653L14.3489 16.2537C14.3654 16.2185 14.3652 16.1776 14.3486 16.1424L8.74212 4.28133C8.72046 4.2355 8.67432 4.20627 8.62363 4.20627Z" fill="black"/>
<path d="M14.9768 14.4754L12.8945 10.1271C12.8775 10.0916 12.8774 10.0504 12.8941 10.0148L15.5845 4.28163C15.6061 4.23563 15.6523 4.20625 15.7032 4.20625H19.8687C19.9649 4.20625 20.0284 4.30645 19.9872 4.3934L15.2134 14.4748C15.1662 14.5746 15.0244 14.5749 14.9768 14.4754Z" fill="black"/>
</svg>
