<svg width="24" height="24" viewBox="0 0 24 24" fill="none" xmlns="http://www.w3.org/2000/svg">
<circle cx="12" cy="12" r="10" fill="#EDF0F4"/>
<path fill-rule="evenodd" clip-rule="evenodd" d="M12 2.47616C17.2563 2.47616 21.5238 6.74364 21.5238 12C21.5238 17.2563 17.2563 21.5238 12 21.5238C6.74364 21.5238 2.47616 17.2563 2.47616 12C2.47616 6.74364 6.74364 2.47616 12 2.47616ZM7.33077 5.92126C7.69043 5.6133 8.19506 5.36031 8.63377 5.53845C9.42263 5.85878 11.5421 10.1318 11.5421 10.1318C11.5421 10.1318 14.5068 5.91995 15.5716 5.53588C15.9348 5.40484 16.4329 5.63531 16.8127 5.91927C18.1458 6.9159 18.2835 8.30634 18.1683 8.69208C18.0234 9.17704 10.6593 18.5208 10.6593 18.5208C10.4391 18.4309 6.07579 10.3325 5.83934 8.94681C5.61337 7.62257 6.38217 6.72281 7.33077 5.92126Z" fill="#3165D4"/>
</svg>
