<svg width="16" height="16" viewBox="0 0 16 16" fill="none" xmlns="http://www.w3.org/2000/svg">
<path fill-rule="evenodd" clip-rule="evenodd" d="M1.59961 7.99995C1.59961 7.55812 1.95778 7.19995 2.39961 7.19995H13.5996C14.0414 7.19995 14.3996 7.55812 14.3996 7.99995C14.3996 8.44178 14.0414 8.79995 13.5996 8.79995H2.39961C1.95778 8.79995 1.59961 8.44178 1.59961 7.99995Z" fill="#A7B2B8"/>
<path fill-rule="evenodd" clip-rule="evenodd" d="M1.59961 3.99995C1.59961 3.55812 1.95778 3.19995 2.39961 3.19995H13.5996C14.0414 3.19995 14.3996 3.55812 14.3996 3.99995C14.3996 4.44178 14.0414 4.79995 13.5996 4.79995H2.39961C1.95778 4.79995 1.59961 4.44178 1.59961 3.99995Z" fill="#A7B2B8"/>
<path fill-rule="evenodd" clip-rule="evenodd" d="M1.59961 12C1.59961 11.5581 1.95778 11.2 2.39961 11.2H13.5996C14.0414 11.2 14.3996 11.5581 14.3996 12C14.3996 12.4418 14.0414 12.8 13.5996 12.8H2.39961C1.95778 12.8 1.59961 12.4418 1.59961 12Z" fill="#A7B2B8"/>
</svg>
