<svg width="182" height="30" viewBox="0 0 182 30" fill="none" xmlns="http://www.w3.org/2000/svg">
<g filter="url(#filter0_i_6479_14)">
<path d="M43.9623 7.68069C45.742 5.89323 48.2199 5 51.398 5C53.0686 5 54.541 5.23387 55.8141 5.70162C57.0872 6.16936 58.0255 6.73734 58.6288 7.40358C59.2312 8.06982 59.7236 8.74392 60.1078 9.4249C60.4911 10.1059 60.7102 10.6739 60.7652 11.1269L60.8886 11.8501H55.5067C55.4792 11.7941 55.4517 11.7007 55.4242 11.574C55.3967 11.4462 55.2809 11.2408 55.0751 10.9569C54.8692 10.6739 54.6368 10.4184 54.3768 10.1914C54.116 9.96438 53.7194 9.759 53.1853 9.57426C52.6512 9.39051 52.0554 9.29814 51.398 9.29814C49.8365 9.29814 48.6516 9.78062 47.8443 10.7446C47.036 11.7096 46.6328 13.0706 46.6328 14.8295C46.6328 16.5885 47.0436 18.0418 47.8651 19.106C48.6867 20.1693 49.864 20.7019 51.398 20.7019C52.4387 20.7019 53.301 20.4257 53.986 19.8725C54.67 19.3193 55.095 18.7592 55.2591 18.1912L55.5058 17.3824H60.8468C60.8193 17.5809 60.7776 17.8502 60.7235 18.1912C60.6675 18.5312 60.4417 19.1424 60.0452 20.0209C59.6477 20.9004 59.1477 21.6737 58.5453 22.34C57.942 23.0072 57.0113 23.6164 55.7515 24.1697C54.4916 24.7229 53.0402 25 51.3971 25C48.1924 25 45.7002 24.093 43.9205 22.2761C42.1399 20.4611 41.25 17.9779 41.25 14.8295C41.25 11.8796 42.1531 9.49663 43.9613 7.68069H43.9623Z" fill="#BCC5C9"/>
<path d="M64.8313 7.85069C66.6935 5.95023 69.254 5 72.5136 5C75.7733 5 78.3404 5.95023 80.2169 7.85069C82.0924 9.75114 83.0307 12.1351 83.0307 14.9995C83.0307 17.864 82.0991 20.2754 80.2368 22.1483C78.3471 24.0488 75.7723 24.999 72.5136 24.999C69.2549 24.999 66.6859 24.0419 64.8104 22.1267C62.9339 20.2125 61.9957 17.8364 61.9957 14.9995C61.9957 12.1626 62.9415 9.75114 64.8313 7.85069ZM67.3785 14.9995C67.3785 16.6445 67.8158 18.0064 68.6933 19.0844C69.5699 20.1624 70.843 20.7009 72.5146 20.7009C74.1862 20.7009 75.4242 20.1555 76.315 19.0628C77.2039 17.9711 77.6498 16.616 77.6498 14.9985C77.6498 13.2966 77.2115 11.9208 76.3349 10.8704C75.4583 9.82091 74.1843 9.29617 72.5146 9.29617C70.8449 9.29617 69.5699 9.82189 68.6933 10.8704C67.8167 11.9199 67.3785 13.2966 67.3785 14.9995Z" fill="#BCC5C9"/>
<path d="M90.1382 5.42549V8.10618C91.3971 6.06323 93.2603 5.0285 95.7249 5H96.0124C99.0254 5 101.148 5.82347 102.38 7.46843C103.612 9.11438 104.228 11.4688 104.228 14.5327V24.5755H98.9286V14.5327C98.9286 11.1003 97.6963 9.36987 95.2316 9.34137H95.1083C93.4652 9.34137 92.2594 9.90149 91.4929 11.0227C90.7254 12.1439 90.3421 13.7397 90.3421 15.8102V24.5765H85.0428V5.42549H90.1372H90.1382Z" fill="#BCC5C9"/>
<path d="M108.747 7.68069C110.527 5.89323 113.005 5 116.183 5C117.854 5 119.326 5.23387 120.599 5.70162C121.872 6.16936 122.811 6.73734 123.414 7.40358C124.016 8.06982 124.509 8.74392 124.893 9.4249C125.276 10.1059 125.495 10.6739 125.55 11.1269L125.674 11.8501H120.292C120.264 11.7941 120.237 11.7007 120.209 11.574C120.182 11.4462 120.066 11.2408 119.86 10.9569C119.654 10.6739 119.422 10.4184 119.162 10.1914C118.901 9.96438 118.505 9.759 117.97 9.57426C117.436 9.39051 116.841 9.29814 116.183 9.29814C114.622 9.29814 113.437 9.78062 112.629 10.7446C111.821 11.7096 111.418 13.0706 111.418 14.8295C111.418 16.5885 111.829 18.0418 112.65 19.106C113.472 20.1693 114.649 20.7019 116.183 20.7019C117.224 20.7019 118.086 20.4257 118.771 19.8725C119.455 19.3193 119.88 18.7592 120.044 18.1912L120.291 17.3824H125.632C125.604 17.5809 125.563 17.8502 125.509 18.1912C125.453 18.5312 125.227 19.1424 124.83 20.0209C124.433 20.9004 123.933 21.6737 123.33 22.34C122.727 23.0072 121.796 23.6164 120.537 24.1697C119.277 24.7229 117.825 25 116.182 25C112.978 25 110.485 24.093 108.706 22.2761C106.925 20.4611 106.035 17.9779 106.035 14.8295C106.035 11.8796 106.938 9.49663 108.746 7.68069H108.747Z" fill="#BCC5C9"/>
<path d="M129.411 7.76618C131.164 5.92271 133.574 5 136.641 5C139.708 5 142.002 5.91485 143.687 7.74456C145.372 9.57426 146.213 12.0073 146.213 15.0427C146.213 15.5537 146.186 16.0785 146.131 16.617H131.958C132.067 17.8659 132.567 18.8584 133.458 19.5954C134.347 20.3334 135.436 20.7019 136.724 20.7019C137.326 20.7019 137.867 20.6311 138.347 20.4886C138.825 20.3471 139.195 20.184 139.456 19.9993C139.716 19.8155 139.935 19.6239 140.114 19.4254C140.291 19.2269 140.408 19.0569 140.463 18.9144L140.544 18.7012H145.844C145.817 18.8712 145.755 19.0991 145.659 19.3822C145.563 19.6661 145.304 20.1693 144.879 20.8925C144.454 21.6157 143.94 22.2545 143.338 22.8077C142.735 23.3609 141.845 23.865 140.668 24.318C139.489 24.771 138.161 24.999 136.682 24.999C133.724 24.999 131.334 24.0989 129.513 22.2967C127.692 20.4955 126.781 18.0772 126.781 15.0418C126.781 12.0063 127.656 9.63715 129.411 7.76519L129.411 7.76618ZM141.078 12.9575V12.8298C141.078 11.7518 140.668 10.894 139.846 10.2552C139.024 9.61652 137.969 9.29814 136.683 9.29814C135.397 9.29814 134.293 9.63814 133.458 10.3191C132.622 11.0001 132.123 11.8796 131.958 12.9575H141.077H141.078Z" fill="#BCC5C9"/>
<path d="M148.227 5.42554H153.403V8.27721C154.497 6.37675 156.155 5.42554 158.374 5.42554H160.551V10.0214H158.497C156.333 10.0214 154.964 10.5678 154.389 11.6595C153.813 12.7522 153.526 15.1135 153.526 18.7445V24.5746H148.227V5.42554Z" fill="#BCC5C9"/>
<path d="M163.55 7.85069C165.412 5.95023 167.972 5 171.232 5C174.492 5 177.059 5.95023 178.935 7.85069C180.811 9.75114 181.75 12.1351 181.75 14.9995C181.75 17.864 180.818 20.2754 178.956 22.1483C177.066 24.0488 174.491 24.999 171.232 24.999C167.973 24.999 165.404 24.0419 163.529 22.1267C161.652 20.2125 160.714 17.8364 160.714 14.9995C160.714 12.1626 161.659 9.75114 163.549 7.85069H163.55ZM166.097 14.9995C166.097 16.6445 166.534 18.0064 167.412 19.0844C168.287 20.1624 169.561 20.7009 171.232 20.7009C172.903 20.7009 174.142 20.1555 175.031 19.0628C175.921 17.9711 176.367 16.616 176.367 14.9985C176.367 13.2966 175.929 11.9208 175.052 10.8704C174.176 9.82091 172.902 9.29617 171.232 9.29617C169.562 9.29617 168.287 9.82189 167.412 10.8704C166.535 11.9199 166.097 13.2956 166.097 14.9985V14.9995Z" fill="#BCC5C9"/>
<path d="M24.046 4.13916H5.9841L8.13973 0.365764C8.26775 0.137931 8.5116 0 8.76642 0H25.1031C25.3482 0 25.5725 0.133005 25.6945 0.346059L28.1878 4.70197C28.2707 4.84975 28.2707 5.03325 28.1878 5.18103L25.2543 10.3079L27.9342 15L25.5872 19.1096L20.7126 10.585C20.6053 10.3978 20.6053 10.165 20.7126 9.97783L24.0473 4.14039L24.046 4.13916ZM5.81218 25.564L8.14948 29.6539C8.2714 29.8658 8.50184 30 8.74569 30H25.0775C25.3372 30 25.5762 29.8621 25.7079 29.6342L27.8647 25.8608H10.1052L13.2837 20.3042C13.391 20.117 13.391 19.8842 13.2837 19.697L8.2519 10.9015L5.90972 15.0012L8.74569 19.9594L5.81218 25.0911C5.72927 25.2389 5.72927 25.4224 5.81218 25.5653V25.564Z" fill="#BCC5C9"/>
<path d="M12.25 24.5H27.9211C28.2685 24.5 28.5856 24.3127 28.7623 24.0058L33.5443 15.6327C33.8186 15.1533 33.8186 14.5605 33.5443 14.081L28.9282 6L26.5616 10.1422L29.2513 14.8575L27.5687 17.8079L26.1995 20.2001L26.1117 20.3529H14.6166L12.25 24.5Z" fill="#BCC5C9"/>
<path d="M0.45285 15.7955L5.12892 24L7.46214 19.9069L4.68054 15.0283L7.68333 9.76361L7.77949 9.59799H19.4168L21.75 5.5H5.99682C5.65423 5.5 5.33688 5.68511 5.16739 5.98835L0.45285 14.2623C0.182383 14.736 0.182383 15.3218 0.45285 15.7955Z" fill="#BCC5C9"/>
</g>
<defs>
<filter id="filter0_i_6479_14" x="0.25" y="0" width="181.5" height="31.9206" filterUnits="userSpaceOnUse" color-interpolation-filters="sRGB">
<feFlood flood-opacity="0" result="BackgroundImageFix"/>
<feBlend mode="normal" in="SourceGraphic" in2="BackgroundImageFix" result="shape"/>
<feColorMatrix in="SourceAlpha" type="matrix" values="0 0 0 0 0 0 0 0 0 0 0 0 0 0 0 0 0 0 127 0" result="hardAlpha"/>
<feOffset dy="3.84127"/>
<feGaussianBlur stdDeviation="0.960317"/>
<feComposite in2="hardAlpha" operator="arithmetic" k2="-1" k3="1"/>
<feColorMatrix type="matrix" values="0 0 0 0 0.596078 0 0 0 0 0.635294 0 0 0 0 0.701961 0 0 0 0.1 0"/>
<feBlend mode="normal" in2="shape" result="effect1_innerShadow_6479_14"/>
</filter>
</defs>
</svg>
