<svg width="16" height="16" viewBox="0 0 16 16" fill="none" xmlns="http://www.w3.org/2000/svg">
<path fill-rule="evenodd" clip-rule="evenodd" d="M0 6.4C0 5.07452 1.07452 4 2.4 4H9.6C10.9255 4 12 5.07452 12 6.4V13.6C12 14.9255 10.9255 16 9.6 16H2.4C1.07452 16 0 14.9255 0 13.6V6.4ZM2.4 5.6C1.95817 5.6 1.6 5.95817 1.6 6.4V13.6C1.6 14.0418 1.95817 14.4 2.4 14.4H9.6C10.0418 14.4 10.4 14.0418 10.4 13.6V6.4C10.4 5.95817 10.0418 5.6 9.6 5.6H2.4Z" fill="#4B575C"/>
<path fill-rule="evenodd" clip-rule="evenodd" d="M3.51953 2.4C3.51953 1.07452 4.59405 0 5.91953 0H13.5995C14.925 0 15.9995 1.07452 15.9995 2.4V9.6C15.9995 10.9255 14.925 12 13.5995 12H11.1995C10.7577 12 10.3995 11.6418 10.3995 11.2C10.3995 10.7582 10.7577 10.4 11.1995 10.4H13.5995C14.0414 10.4 14.3995 10.0418 14.3995 9.6V2.4C14.3995 1.95817 14.0414 1.6 13.5995 1.6H5.91953C5.4777 1.6 5.11953 1.95817 5.11953 2.4V4.8C5.11953 5.24183 4.76136 5.6 4.31953 5.6C3.8777 5.6 3.51953 5.24183 3.51953 4.8V2.4Z" fill="#4B575C"/>
</svg>
