<svg width="16" height="16" viewBox="0 0 16 16" fill="none" xmlns="http://www.w3.org/2000/svg">
<path fill-rule="evenodd" clip-rule="evenodd" d="M2.63422 2.63432C2.94664 2.3219 3.45317 2.3219 3.76559 2.63432L7.9999 6.86863L12.2342 2.63432C12.5466 2.3219 13.0532 2.3219 13.3656 2.63432C13.678 2.94674 13.678 3.45327 13.3656 3.76569L9.13127 8L13.3656 12.2343C13.678 12.5467 13.678 13.0533 13.3656 13.3657C13.0532 13.6781 12.5466 13.6781 12.2342 13.3657L7.9999 9.13137L3.76559 13.3657C3.45317 13.6781 2.94664 13.6781 2.63422 13.3657C2.3218 13.0533 2.3218 12.5467 2.63422 12.2343L6.86853 8L2.63422 3.76569C2.3218 3.45327 2.3218 2.94674 2.63422 2.63432Z" fill="#4B575C"/>
</svg>
