<svg width="24" height="24" viewBox="0 0 24 24" fill="none" xmlns="http://www.w3.org/2000/svg">
<path fill-rule="evenodd" clip-rule="evenodd" d="M3.95148 3.95148C4.42011 3.48285 5.17991 3.48285 5.64853 3.95148L12 10.3029L18.3515 3.95148C18.8201 3.48285 19.5799 3.48285 20.0485 3.95148C20.5172 4.42011 20.5172 5.17991 20.0485 5.64853L13.6971 12L20.0485 18.3515C20.5172 18.8201 20.5172 19.5799 20.0485 20.0485C19.5799 20.5172 18.8201 20.5172 18.3515 20.0485L12 13.6971L5.64853 20.0485C5.17991 20.5172 4.42011 20.5172 3.95148 20.0485C3.48285 19.5799 3.48285 18.8201 3.95148 18.3515L10.3029 12L3.95148 5.64853C3.48285 5.17991 3.48285 4.42011 3.95148 3.95148Z" fill="#4B575C"/>
</svg>
