<svg width="16" height="16" viewBox="0 0 16 16" fill="none" xmlns="http://www.w3.org/2000/svg">
<path fill-rule="evenodd" clip-rule="evenodd" d="M2.63422 2.63275C2.94664 2.32033 3.45317 2.32033 3.76559 2.63275L7.9999 6.86707L12.2342 2.63275C12.5466 2.32033 13.0532 2.32033 13.3656 2.63275C13.678 2.94517 13.678 3.4517 13.3656 3.76412L9.13127 7.99844L13.3656 12.2328C13.678 12.5452 13.678 13.0517 13.3656 13.3641C13.0532 13.6765 12.5466 13.6765 12.2342 13.3641L7.9999 9.12981L3.76559 13.3641C3.45317 13.6765 2.94664 13.6765 2.63422 13.3641C2.3218 13.0517 2.3218 12.5452 2.63422 12.2328L6.86853 7.99844L2.63422 3.76412C2.3218 3.4517 2.3218 2.94517 2.63422 2.63275Z" fill="#4B575C"/>
</svg>
