<svg width="19" height="21" viewBox="0 0 19 21" fill="none" xmlns="http://www.w3.org/2000/svg">
<path fill-rule="evenodd" clip-rule="evenodd" d="M8.49541 0.454793C8.7427 0.287366 9.05695 0.253511 9.33423 0.364424L18.3342 3.96442C18.6759 4.1011 18.9 4.43204 18.9 4.80005C18.9 5.16807 18.6759 5.499 18.3342 5.63568L9.89998 9.00938V12.0001C9.89998 12.4971 9.49703 12.9001 8.99998 12.9001C8.50292 12.9001 8.09998 12.4971 8.09998 12.0001V1.20005C8.09998 0.901412 8.24811 0.62222 8.49541 0.454793ZM9.89998 7.07072L15.5767 4.80005L9.89998 2.52938V7.07072Z" fill="#7E54F1"/>
<path fill-rule="evenodd" clip-rule="evenodd" d="M6.24678 4.32674C6.4656 4.77304 6.2812 5.31223 5.8349 5.53105C3.44338 6.70363 1.8 9.16079 1.8 12.0001C1.8 15.9765 5.02355 19.2001 9 19.2001C12.9765 19.2001 16.2 15.9765 16.2 12.0001C16.2 11.1179 16.0417 10.2747 15.7529 9.49601C15.58 9.02999 15.8176 8.51205 16.2836 8.33917C16.7497 8.16629 17.2676 8.40393 17.4405 8.86995C17.8026 9.84601 18 10.901 18 12.0001C18 16.9706 13.9706 21.0001 9 21.0001C4.02944 21.0001 0 16.9706 0 12.0001C0 8.44797 2.05792 5.37821 5.04247 3.91486C5.48877 3.69604 6.02796 3.88045 6.24678 4.32674Z" fill="#7E54F1"/>
<path fill-rule="evenodd" clip-rule="evenodd" d="M6.05365 8.4821C6.44114 8.79341 6.50291 9.3599 6.1916 9.7474C5.69594 10.3644 5.39998 11.1464 5.39998 12C5.39998 13.9882 7.01175 15.6 8.99998 15.6C10.9882 15.6 12.6 13.9882 12.6 12C12.6 11.5877 12.531 11.1935 12.4048 10.827C12.2429 10.357 12.4927 9.84483 12.9627 9.68296C13.4326 9.52109 13.9448 9.77085 14.1067 10.2408C14.297 10.7934 14.4 11.3856 14.4 12C14.4 14.9823 11.9823 17.4 8.99998 17.4C6.01764 17.4 3.59998 14.9823 3.59998 12C3.59998 10.7217 4.04523 9.54504 4.78835 8.62005C5.09966 8.23256 5.66615 8.17079 6.05365 8.4821Z" fill="#7E54F1"/>
</svg>
