<svg width="25" height="24" viewBox="0 0 25 24" fill="none" xmlns="http://www.w3.org/2000/svg">
<path fill-rule="evenodd" clip-rule="evenodd" d="M12.5 21.6C17.8019 21.6 22.1 17.3019 22.1 12C22.1 6.69807 17.8019 2.4 12.5 2.4C7.19807 2.4 2.9 6.69807 2.9 12C2.9 17.3019 7.19807 21.6 12.5 21.6ZM12.5 24C19.1274 24 24.5 18.6274 24.5 12C24.5 5.37258 19.1274 0 12.5 0C5.87258 0 0.5 5.37258 0.5 12C0.5 18.6274 5.87258 24 12.5 24Z" fill="#7E54F1"/>
<rect x="13.7002" y="9.6" width="8.4" height="2.4" rx="1.2" transform="rotate(90 13.7002 9.6)" fill="#7E54F1"/>
<rect x="13.7002" y="6" width="2.4" height="2.4" rx="1.2" transform="rotate(90 13.7002 6)" fill="#7E54F1"/>
</svg>
