<svg width="17" height="16" viewBox="0 0 17 16" fill="none" xmlns="http://www.w3.org/2000/svg">
<path fill-rule="evenodd" clip-rule="evenodd" d="M5.7 0C6.14183 0 6.5 0.358172 6.5 0.8V1.6H10.1C10.5418 1.6 10.9 1.95817 10.9 2.4C10.9 2.84183 10.5418 3.2 10.1 3.2H8.5C8.5 7.17645 5.27645 10.4 1.3 10.4C0.858172 10.4 0.5 10.0418 0.5 9.6C0.5 9.15817 0.858172 8.8 1.3 8.8C4.39279 8.8 6.9 6.2928 6.9 3.2H1.3C0.858172 3.2 0.5 2.84183 0.5 2.4C0.5 1.95817 0.858172 1.6 1.3 1.6H4.9V0.8C4.9 0.358172 5.25817 0 5.7 0Z" fill="#66767D"/>
<path fill-rule="evenodd" clip-rule="evenodd" d="M3.70002 4.79999C4.14185 4.79999 4.50002 5.15816 4.50002 5.59999C4.50002 7.3673 5.93271 8.79999 7.70003 8.79999H8.50002C8.94185 8.79999 9.30002 9.15816 9.30002 9.59999C9.30002 10.0418 8.94185 10.4 8.50002 10.4H7.70003C5.04906 10.4 2.90002 8.25095 2.90002 5.59999C2.90002 5.15816 3.2582 4.79999 3.70002 4.79999Z" fill="#66767D"/>
<path fill-rule="evenodd" clip-rule="evenodd" d="M12.5 7.20001C12.8161 7.20001 13.1026 7.3862 13.231 7.6751L16.431 14.8751C16.6104 15.2788 16.4286 15.7516 16.0249 15.9311C15.6211 16.1105 15.1483 15.9287 14.9689 15.5249L14.4689 14.4H10.531L10.031 15.5249C9.85156 15.9287 9.37879 16.1105 8.97505 15.9311C8.5713 15.7516 8.38946 15.2788 8.56891 14.8751L11.7689 7.6751C11.8973 7.3862 12.1838 7.20001 12.5 7.20001ZM11.2421 12.8H13.7578L12.5 9.96978L11.2421 12.8Z" fill="#66767D"/>
</svg>
