<svg width="24" height="24" viewBox="0 0 24 24" fill="none" xmlns="http://www.w3.org/2000/svg">
<path fill-rule="evenodd" clip-rule="evenodd" d="M0 3.6C0 1.61177 1.61178 0 3.6 0H20.4C22.3882 0 24 1.61178 24 3.6V20.4C24 22.3882 22.3882 24 20.4 24H3.6C1.61177 24 0 22.3882 0 20.4V3.6ZM3.6 2.4C2.93726 2.4 2.4 2.93726 2.4 3.6V20.4C2.4 21.0627 2.93726 21.6 3.6 21.6H20.4C21.0627 21.6 21.6 21.0627 21.6 20.4V3.6C21.6 2.93726 21.0627 2.4 20.4 2.4H3.6Z" fill="#66767D"/>
<path fill-rule="evenodd" clip-rule="evenodd" d="M5.15146 5.15147C5.62009 4.68285 6.37989 4.68285 6.84852 5.15147L12 10.3029L17.1515 5.15147C17.6201 4.68285 18.3799 4.68285 18.8485 5.15147C19.3171 5.6201 19.3171 6.3799 18.8485 6.84853L13.697 12L18.8485 17.1515C19.3171 17.6201 19.3171 18.3799 18.8485 18.8485C18.3799 19.3172 17.6201 19.3172 17.1515 18.8485L12 13.6971L6.84852 18.8485C6.37989 19.3172 5.62009 19.3172 5.15146 18.8485C4.68283 18.3799 4.68283 17.6201 5.15146 17.1515L10.3029 12L5.15146 6.84853C4.68283 6.3799 4.68283 5.6201 5.15146 5.15147Z" fill="#66767D"/>
</svg>
