<svg width="17" height="18" viewBox="0 0 17 18" fill="none" xmlns="http://www.w3.org/2000/svg">
<path d="M0.5 14.8V5.2C0.5 3.43269 1.93269 2 3.7 2H5.3C5.74183 2 6.1 2.35817 6.1 2.8C6.1 3.24183 5.74183 3.6 5.3 3.6H3.7C2.81634 3.6 2.1 4.31634 2.1 5.2V14.8C2.1 15.6837 2.81634 16.4 3.7 16.4H13.3C14.1837 16.4 14.9 15.6837 14.9 14.8V5.2C14.9 4.31634 14.1837 3.6 13.3 3.6H11.7C11.2582 3.6 10.9 3.24183 10.9 2.8C10.9 2.35817 11.2582 2 11.7 2H13.3C15.0673 2 16.5 3.43269 16.5 5.2V14.8C16.5 16.5673 15.0673 18 13.3 18H3.7C1.93269 18 0.5 16.5673 0.5 14.8Z" fill="#66767D"/>
<rect x="7.69995" y="0.400024" width="1.6" height="10.4" rx="0.8" fill="#66767D"/>
</svg>
