<svg width="18" height="21" viewBox="0 0 18 21" fill="none" xmlns="http://www.w3.org/2000/svg">
<path fill-rule="evenodd" clip-rule="evenodd" d="M8.99998 10.1001C9.49703 10.1001 9.89998 10.503 9.89998 11.0001V19.1001C9.89998 19.5972 9.49703 20.0001 8.99998 20.0001C8.50292 20.0001 8.09998 19.5972 8.09998 19.1001V11.0001C8.09998 10.503 8.50292 10.1001 8.99998 10.1001Z" fill="#66767D"/>
<path fill-rule="evenodd" clip-rule="evenodd" d="M9.43583 2.95261C9.19864 2.70356 8.80136 2.70356 8.56417 2.95261C7.04874 4.54381 6.03895 6.54849 5.6624 8.71336L5.40953 10.1671L6.17318 16.4H11.8061L12.5902 10.1657L12.3376 8.71337C11.961 6.54849 10.9513 4.54381 9.43583 2.95261ZM14.1643 12.0743L13.5782 16.7347L16.2 17.8358L16.2 15.2215C16.2 14.5029 15.9135 13.8139 15.404 13.3071L14.1643 12.0743ZM12.4187 18.2H5.55891L1.25005 20.0191C0.972136 20.1364 0.653922 20.1067 0.402529 19.94C0.151136 19.7733 8.58307e-07 19.4916 7.72476e-07 19.19L0 15.2215C-1.71661e-07 14.0238 0.477497 12.8754 1.32675 12.0308L3.66237 9.70798L3.88902 8.40491C4.32656 5.88945 5.49987 3.56011 7.26072 1.71123C8.20727 0.717352 9.79273 0.717351 10.7393 1.71123C12.5001 3.56012 13.6734 5.88945 14.111 8.40491L14.3376 9.70798L16.6733 12.0308C17.5225 12.8754 18 14.0238 18 15.2215L18 19.19C18 19.4914 17.8492 19.7727 17.5982 19.9395C17.3472 20.1063 17.0294 20.1365 16.7515 20.0198L12.4187 18.2ZM3.83038 12.0795L2.59605 13.3071C2.0865 13.8139 1.8 14.5029 1.8 15.2215L1.8 17.8331L4.40077 16.7351L3.83038 12.0795Z" fill="#66767D"/>
</svg>
