<svg width="16" height="16" viewBox="0 0 16 16" fill="none" xmlns="http://www.w3.org/2000/svg">
<path fill-rule="evenodd" clip-rule="evenodd" d="M7.99961 8.8001C8.44144 8.8001 8.79961 8.44193 8.79961 8.0001C8.79961 7.55827 8.44144 7.2001 7.99961 7.2001C7.55778 7.2001 7.19961 7.55827 7.19961 8.0001C7.19961 8.44193 7.55778 8.8001 7.99961 8.8001ZM7.99961 10.4001C9.32509 10.4001 10.3996 9.32558 10.3996 8.0001C10.3996 6.67461 9.32509 5.6001 7.99961 5.6001C6.67413 5.6001 5.59961 6.67461 5.59961 8.0001C5.59961 9.32558 6.67413 10.4001 7.99961 10.4001Z" fill="#66767D"/>
<path fill-rule="evenodd" clip-rule="evenodd" d="M8.00002 2.23964L7.03803 3.18186C6.56613 3.64407 5.93382 3.90598 5.27329 3.91284L3.92681 3.92681L3.91284 5.27329C3.90598 5.93382 3.64407 6.56612 3.18186 7.03803L2.23964 8.00002L3.18186 8.962C3.64407 9.43391 3.90598 10.0662 3.91284 10.7267L3.92681 12.0732L5.27329 12.0872C5.93382 12.0941 6.56613 12.356 7.03803 12.8182L8.00002 13.7604L8.962 12.8182C9.43391 12.356 10.0662 12.0941 10.7267 12.0872L12.0732 12.0732L12.0872 10.7267C12.0941 10.0662 12.356 9.43391 12.8182 8.962L13.7604 8.00002L12.8182 7.03803C12.356 6.56612 12.0941 5.93382 12.0872 5.27329L12.0732 3.92681L10.7267 3.91284C10.0662 3.90598 9.43391 3.64407 8.962 3.18186L8.00002 2.23964ZM8.67176 0.657958C8.29853 0.292399 7.7015 0.2924 7.32828 0.657959L5.91846 2.03881C5.7415 2.21214 5.50438 2.31035 5.25669 2.31292L3.28339 2.3334C2.76099 2.33883 2.33883 2.76099 2.33341 3.28339L2.31293 5.25669C2.31035 5.50438 2.21214 5.7415 2.03881 5.91846L0.657959 7.32828C0.2924 7.7015 0.292399 8.29853 0.657958 8.67176L2.03881 10.0816C2.21214 10.2585 2.31035 10.4957 2.31293 10.7433L2.33341 12.7166C2.33883 13.239 2.76099 13.6612 3.28339 13.6666L5.25669 13.6871C5.50438 13.6897 5.7415 13.7879 5.91846 13.9612L7.32828 15.3421C7.7015 15.7076 8.29853 15.7076 8.67176 15.3421L10.0816 13.9612C10.2585 13.7879 10.4957 13.6897 10.7433 13.6871L12.7166 13.6666C13.239 13.6612 13.6612 13.239 13.6666 12.7166L13.6871 10.7433C13.6897 10.4957 13.7879 10.2585 13.9612 10.0816L15.3421 8.67176C15.7076 8.29853 15.7076 7.7015 15.3421 7.32827L13.9612 5.91846C13.7879 5.7415 13.6897 5.50438 13.6871 5.25669L13.6666 3.28339C13.6612 2.76099 13.239 2.33883 12.7166 2.3334L10.7433 2.31292C10.4957 2.31035 10.2585 2.21214 10.0816 2.03881L8.67176 0.657958Z" fill="#66767D"/>
</svg>
