<svg width="16" height="16" viewBox="0 0 16 16" fill="none" xmlns="http://www.w3.org/2000/svg">
<path fill-rule="evenodd" clip-rule="evenodd" d="M8 14.4C11.5346 14.4 14.4 11.5346 14.4 8C14.4 4.46538 11.5346 1.6 8 1.6C4.46538 1.6 1.6 4.46538 1.6 8C1.6 11.5346 4.46538 14.4 8 14.4ZM8 16C12.4183 16 16 12.4183 16 8C16 3.58172 12.4183 0 8 0C3.58172 0 0 3.58172 0 8C0 12.4183 3.58172 16 8 16Z" fill="#1DA562"/>
<path fill-rule="evenodd" clip-rule="evenodd" d="M12.0858 5.35346C12.3982 5.66587 12.3982 6.17241 12.0858 6.48483L8.08575 10.4848C7.77333 10.7972 7.2668 10.7972 6.95438 10.4848L4.55438 8.08483C4.24196 7.77241 4.24196 7.26587 4.55438 6.95345C4.8668 6.64104 5.37333 6.64104 5.68575 6.95345L7.52007 8.78777L10.9544 5.35346C11.2668 5.04104 11.7733 5.04104 12.0858 5.35346Z" fill="#1DA562"/>
</svg>
