<svg width="16" height="16" viewBox="0 0 16 16" fill="none" xmlns="http://www.w3.org/2000/svg">
<path fill-rule="evenodd" clip-rule="evenodd" d="M8 6.4C9.32548 6.4 10.4 5.32548 10.4 4C10.4 2.67452 9.32548 1.6 8 1.6C6.67452 1.6 5.6 2.67452 5.6 4C5.6 5.32548 6.67452 6.4 8 6.4ZM8 8C10.2091 8 12 6.20914 12 4C12 1.79086 10.2091 0 8 0C5.79086 0 4 1.79086 4 4C4 6.20914 5.79086 8 8 8Z" fill="#66767D"/>
<path fill-rule="evenodd" clip-rule="evenodd" d="M8.00005 8.00002C4.89428 8.00002 2.40005 10.4926 2.40005 13.5385C2.40005 14.0143 2.78577 14.4 3.26159 14.4H12.7385C13.2143 14.4 13.6 14.0143 13.6 13.5385C13.6 10.4926 11.1058 8.00002 8.00005 8.00002ZM0.800049 13.5385C0.800049 9.59602 4.0236 6.40002 8.00005 6.40002C11.9765 6.40002 15.2 9.59602 15.2 13.5385C15.2 14.898 14.098 16 12.7385 16H3.26159C1.90212 16 0.800049 14.898 0.800049 13.5385Z" fill="#66767D"/>
</svg>
