<svg width="32" height="32" viewBox="0 0 32 32" fill="none" xmlns="http://www.w3.org/2000/svg">
<g clip-path="url(#clip0_1882_21595)">
<path d="M29.3333 0H2.66667C1.19391 0 0 1.19391 0 2.66667V29.3333C0 30.8061 1.19391 32 2.66667 32H29.3333C30.8061 32 32 30.8061 32 29.3333V2.66667C32 1.19391 30.8061 0 29.3333 0Z" fill="#6938EF"/>
<path d="M19.9263 9.63254H9.86189L11.063 7.53621C11.1344 7.40964 11.2702 7.33301 11.4122 7.33301H20.5153C20.6518 7.33301 20.7768 7.4069 20.8448 7.52526L22.2341 9.94521C22.2803 10.0273 22.2803 10.1293 22.2341 10.2114L20.5995 13.0596L22.0928 15.6663L20.785 17.9495L18.0688 13.2135C18.009 13.1096 18.009 12.9802 18.0688 12.8762L19.9269 9.63323L19.9263 9.63254ZM9.76609 21.5353L11.0685 23.8074C11.1364 23.9251 11.2648 23.9997 11.4007 23.9997H20.501C20.6457 23.9997 20.7789 23.923 20.8522 23.7965L22.0541 21.7001H12.1582L13.9293 18.6131C13.9891 18.5091 13.9891 18.3798 13.9293 18.2758L11.1255 13.3894L9.82044 15.667L11.4007 18.4215L9.76609 21.2725C9.7199 21.3546 9.7199 21.4566 9.76609 21.5359V21.5353Z" fill="#FCFCFD"/>
<path d="M13.3533 20.9438H22.0854C22.279 20.9438 22.4557 20.8397 22.5542 20.6692L25.2187 16.0175C25.3716 15.7512 25.3716 15.4218 25.2187 15.1555L22.6466 10.666L21.3279 12.9672L22.8266 15.5868L21.8891 17.226L21.1261 18.5549L21.0772 18.6398H14.672L13.3533 20.9438Z" fill="#FCFCFD"/>
<path d="M6.77978 16.1084L9.38535 20.6665L10.6855 18.3925L9.13551 15.6822L10.8087 12.7573L10.8623 12.6653H17.3467L18.6468 10.3887H9.86895C9.67806 10.3887 9.50123 10.4915 9.40678 10.66L6.77978 15.2566C6.62907 15.5198 6.62907 15.8452 6.77978 16.1084Z" fill="#FCFCFD"/>
</g>
<defs>
<clipPath id="clip0_1882_21595">
<path d="M0 16C0 7.16344 7.16344 0 16 0C24.8366 0 32 7.16344 32 16C32 24.8366 24.8366 32 16 32C7.16344 32 0 24.8366 0 16Z" fill="white"/>
</clipPath>
</defs>
</svg>
