<svg width="1000" height="1000" viewBox="0 0 1000 1000" fill="none" xmlns="http://www.w3.org/2000/svg">
<rect width="1000" height="1000" rx="500" fill="white"/>
<path d="M623.284 312.502H311.94L349.097 247.318C351.304 243.383 355.508 241 359.9 241H641.506C645.73 241 649.597 243.298 651.699 246.978L694.679 322.225C696.108 324.778 696.108 327.947 694.679 330.5L644.112 419.065L690.307 500.119L649.849 571.111L565.824 423.851C563.974 420.618 563.974 416.597 565.824 413.363L623.305 312.524L623.284 312.502ZM308.976 682.609L349.266 753.26C351.367 756.919 355.339 759.238 359.543 759.238H641.064C645.541 759.238 649.66 756.856 651.93 752.92L689.109 687.736H382.977L437.768 591.747C439.617 588.513 439.617 584.492 437.768 581.259L351.031 429.319L310.658 500.14L359.543 585.79L308.976 674.439C307.547 676.992 307.547 680.162 308.976 682.63V682.609Z" fill="#5E43FF"/>
<path d="M421.393 666.557H691.523C697.513 666.557 702.977 663.323 706.025 658.026L788.453 513.49C793.182 505.214 793.182 494.981 788.453 486.706L708.883 347.211L668.089 418.713L714.452 500.108L685.449 551.039L661.847 592.332L660.334 594.97H462.186L421.393 666.557Z" fill="#5E43FF"/>
<path d="M212.547 513.5L294.302 656.824L335.096 585.322L286.463 500.097L338.963 408.129L340.645 405.236H544.109L584.903 333.648H309.477C303.487 333.648 297.938 336.882 294.975 342.179L212.547 486.716C207.818 494.992 207.818 505.224 212.547 513.5Z" fill="#5E43FF"/>
</svg>
