<svg width="775" height="129" viewBox="0 0 775 129" fill="none" xmlns="http://www.w3.org/2000/svg">
<path d="M47.784 80.0678L1 128H754V16L724.336 24.1455L692.391 60.8L665.009 16L635.345 55.7091L605.682 42.4727L574.877 36.8727L548.636 47.5636H518.973L489.309 19.0545L457.364 92.8727L429.982 44L400.318 59.2727L370.655 49.6L340.991 60.2909L313.609 85.2364L283.945 68.4364L254.282 96.4364L222.336 68.4364L194.955 73.0182L165.291 78.6182L135.627 66.9091L105.964 84.2182L78.5818 75.0545L47.784 80.0678Z" fill="url(#paint0_linear_917_66942)"/>
<path d="M1 128L47.784 80.0678L78.5818 75.0545L105.964 84.2182L135.627 66.9091L165.291 78.6182L194.955 73.0182L222.336 68.4364L254.282 96.4364L283.945 68.4364L313.609 85.2364L340.991 60.2909L370.655 49.6L400.318 59.2727L429.982 44L457.364 92.8727L489.309 19.0545L518.973 47.5636H548.636L574.877 36.8727L605.682 42.4727L635.345 55.7091L665.009 16L692.391 60.8L724.336 24.1455L754 16" stroke="url(#paint1_linear_917_66942)" stroke-width="2" stroke-linecap="round"/>
<defs>
<linearGradient id="paint0_linear_917_66942" x1="551.269" y1="128" x2="551.511" y2="15.9982" gradientUnits="userSpaceOnUse">
<stop offset="0.2" stop-color="#FCFCFD"/>
<stop offset="1" stop-color="#EBEEF2"/>
</linearGradient>
<linearGradient id="paint1_linear_917_66942" x1="1" y1="88.7437" x2="790.875" y2="80.5111" gradientUnits="userSpaceOnUse">
<stop stop-color="#EBEEF2"/>
<stop offset="1" stop-color="#DADDE4"/>
</linearGradient>
</defs>
</svg>
