<?xml version="1.0" standalone="no"?>
<!DOCTYPE svg PUBLIC "-//W3C//DTD SVG 20010904//EN"
 "http://www.w3.org/TR/2001/REC-SVG-20010904/DTD/svg10.dtd">
<svg version="1.0" xmlns="http://www.w3.org/2000/svg"
 width="1200.000000pt" height="1200.000000pt" viewBox="0 0 1200.000000 1200.000000"
 preserveAspectRatio="xMidYMid meet">
<metadata>
Created by potrace 1.14, written by Peter Selinger 2001-2017
</metadata>
<g transform="translate(0.000000,1200.000000) scale(0.100000,-0.100000)"
fill="#000000" stroke="none">
<path d="M3101 11181 c-24 -10 -58 -32 -77 -51 -27 -26 -554 -931 -599 -1027
-5 -13 -13 -23 -17 -23 -5 0 -8 -5 -8 -10 0 -6 -25 -54 -56 -108 -32 -53 -70
-120 -85 -148 l-28 -51 3115 1 c1714 1 3121 -2 3126 -5 7 -4 -51 -115 -143
-275 -84 -148 -163 -287 -175 -309 -12 -22 -191 -336 -398 -698 -207 -363
-376 -663 -376 -667 0 -5 -3 -10 -7 -12 -5 -1 -21 -27 -37 -56 -49 -92 -39
-157 42 -297 9 -16 37 -65 62 -108 25 -43 50 -86 55 -95 6 -10 41 -73 79 -142
38 -69 72 -127 75 -130 3 -3 14 -21 25 -40 28 -54 66 -121 166 -295 51 -88
104 -180 118 -205 14 -25 132 -232 262 -460 130 -228 248 -435 262 -460 14
-25 68 -119 120 -210 52 -91 106 -185 120 -210 14 -25 66 -116 117 -204 50
-87 91 -160 91 -162 0 -2 18 -33 40 -69 22 -36 40 -70 40 -75 0 -6 4 -10 8
-10 5 0 102 165 217 367 116 203 270 474 344 603 73 129 145 255 159 280 13
25 40 71 58 103 19 32 34 62 34 67 0 5 -10 26 -21 47 -38 69 -438 770 -671
1178 -201 351 -228 403 -218 423 5 12 129 231 274 485 145 254 273 478 283
497 77 135 269 470 284 495 11 17 22 37 26 45 4 8 29 53 56 100 90 154 106
192 100 235 -6 48 -20 77 -121 250 -19 33 -48 85 -65 115 -17 30 -38 67 -49
82 -10 14 -18 29 -18 32 0 3 -14 29 -31 58 -44 73 -67 114 -102 178 -16 30
-33 60 -37 65 -5 6 -23 37 -40 70 -18 33 -39 67 -46 76 -8 8 -14 23 -14 31 0
9 -4 18 -8 20 -4 2 -88 145 -187 317 -98 173 -191 328 -207 343 -16 15 -43 36
-61 45 -30 17 -180 18 -2922 20 -2746 2 -2892 1 -2934 -16z"/>
<path d="M2085 9323 c-52 -16 -115 -55 -152 -94 -19 -21 -70 -106 -151 -249
-42 -74 -55 -98 -157 -275 -53 -93 -109 -190 -123 -215 -95 -168 -800 -1406
-828 -1453 -19 -32 -34 -63 -34 -68 0 -5 -4 -9 -10 -9 -5 0 -10 -5 -10 -11 0
-6 -22 -48 -50 -95 -27 -47 -50 -87 -50 -90 0 -3 -8 -17 -19 -32 -10 -15 -60
-101 -111 -192 -52 -91 -112 -197 -135 -236 -105 -177 -122 -371 -48 -534 16
-34 160 -291 191 -340 9 -14 15 -28 14 -32 -1 -5 3 -8 8 -8 6 0 10 -4 10 -9 0
-5 123 -224 273 -487 151 -264 285 -499 299 -524 14 -25 69 -121 123 -215 54
-93 109 -190 123 -215 14 -25 28 -49 32 -55 4 -5 21 -35 37 -65 17 -30 40 -72
52 -93 11 -20 30 -53 41 -72 11 -19 29 -51 40 -70 11 -19 28 -50 39 -68 10
-17 82 -144 161 -282 78 -137 154 -270 168 -295 14 -25 33 -57 41 -71 l16 -27
100 175 c55 96 109 191 121 211 12 21 88 154 169 297 81 143 156 274 165 290
20 34 120 209 155 270 12 22 41 72 64 112 22 40 41 77 41 82 0 6 -14 34 -31
63 -18 29 -44 76 -59 103 -15 28 -61 109 -103 180 -41 72 -193 337 -337 590
-144 253 -281 492 -303 530 -23 39 -42 73 -42 77 0 4 -6 13 -12 19 -7 7 -13
16 -13 20 0 4 -16 35 -36 67 -41 70 -49 43 74 257 41 72 82 144 92 160 47 82
685 1203 694 1220 6 11 13 22 16 25 3 3 16 25 29 50 14 25 52 92 86 150 l60
105 2025 2 c1114 2 2034 3 2045 3 20 0 41 29 103 140 14 25 60 107 104 183 43
75 113 199 156 275 44 75 90 157 104 182 14 25 69 121 122 214 53 93 96 173
96 177 0 5 5 9 10 9 6 0 10 4 10 9 0 5 29 60 65 122 36 63 65 117 65 120 0 3
-1254 6 -2788 6 -2397 0 -2794 -2 -2837 -14z"/>
<path d="M10176 9007 c-20 -31 -36 -58 -36 -61 0 -2 -23 -44 -51 -93 -29 -48
-63 -108 -77 -133 -14 -25 -58 -102 -99 -172 -40 -70 -73 -132 -73 -138 0 -5
-4 -10 -10 -10 -5 0 -10 -4 -10 -9 0 -5 -22 -48 -50 -96 -27 -48 -50 -89 -50
-91 0 -3 -8 -17 -19 -32 -10 -15 -84 -143 -165 -285 l-147 -259 97 -171 c54
-95 140 -246 192 -337 52 -91 108 -190 125 -220 17 -30 38 -67 49 -82 10 -14
18 -28 18 -31 0 -2 34 -65 76 -138 107 -187 108 -188 138 -244 16 -27 31 -54
36 -60 4 -5 21 -35 37 -65 17 -30 61 -108 98 -172 l67 -117 -121 -211 c-67
-115 -121 -214 -121 -220 0 -5 -4 -10 -10 -10 -5 0 -10 -4 -10 -9 0 -8 -87
-166 -140 -253 -11 -18 -29 -51 -41 -72 -11 -21 -160 -282 -330 -579 -170
-297 -309 -543 -309 -546 0 -4 -896 -7 -1991 -6 -1095 0 -1994 -2 -1998 -5 -6
-4 -86 -143 -210 -362 -11 -21 -29 -53 -40 -70 -94 -164 -372 -653 -414 -728
-17 -30 -48 -84 -69 -119 -21 -34 -38 -65 -38 -67 0 -3 -11 -22 -25 -43 -16
-27 -20 -40 -12 -43 7 -2 1243 -4 2747 -3 l2735 2 55 21 c91 36 147 98 237
262 17 30 121 213 230 405 110 193 211 370 225 395 14 25 60 106 103 180 42
74 87 153 100 175 12 22 38 67 57 100 20 33 44 76 55 95 19 36 133 236 167
293 10 18 29 52 43 77 13 25 32 59 42 75 10 17 148 257 306 535 194 339 296
528 311 575 18 57 22 89 19 170 -3 129 -22 181 -148 398 -53 93 -97 173 -97
178 0 5 -5 9 -12 9 -6 0 -8 3 -5 7 4 3 1 13 -6 22 -13 15 -239 410 -310 541
-16 30 -33 60 -37 65 -7 8 -106 181 -192 333 -10 18 -37 66 -60 105 -22 40
-61 108 -86 152 -24 44 -48 85 -52 90 -4 6 -21 35 -37 65 -17 30 -85 152 -153
270 -68 118 -131 230 -141 248 -11 17 -29 49 -40 70 -12 20 -33 57 -47 82 -14
25 -50 88 -80 140 -67 117 -98 170 -133 234 l-27 49 -36 -56z"/>
<path d="M2729 6913 c-156 -274 -288 -505 -294 -515 -5 -9 -23 -41 -39 -70
-16 -29 -37 -65 -47 -80 -11 -14 -19 -29 -19 -32 0 -3 -27 -53 -60 -110 -33
-57 -60 -109 -60 -115 0 -11 28 -63 88 -166 45 -78 58 -101 122 -215 29 -52
59 -102 67 -111 7 -9 10 -19 6 -22 -3 -4 -1 -7 5 -7 7 0 12 -4 12 -9 0 -5 23
-49 51 -98 53 -91 70 -120 122 -213 16 -30 36 -62 43 -70 7 -8 13 -19 14 -25
1 -5 19 -39 40 -75 150 -257 400 -702 400 -711 0 -10 -94 -180 -176 -319 -17
-30 -41 -71 -51 -90 -11 -19 -48 -84 -83 -145 -34 -60 -74 -130 -88 -155 -14
-25 -74 -130 -134 -234 -59 -104 -108 -191 -108 -193 0 -3 -8 -17 -19 -31 -10
-15 -33 -54 -51 -87 -18 -33 -96 -170 -173 -305 -168 -294 -173 -310 -113
-411 20 -33 36 -62 36 -64 0 -2 38 -69 85 -150 47 -80 85 -148 85 -151 0 -3
16 -30 35 -60 19 -30 35 -56 35 -59 0 -2 38 -70 85 -151 47 -81 85 -149 85
-151 0 -2 11 -20 24 -41 13 -20 94 -162 181 -315 87 -154 172 -293 191 -311
72 -70 -171 -65 2999 -64 2804 0 2861 1 2912 20 72 27 110 73 228 282 55 97
105 184 110 194 11 19 2 3 275 482 112 195 216 378 232 407 l29 52 -3072 0
c-1690 0 -3073 2 -3075 4 -2 1 27 54 63 117 36 63 75 131 85 150 35 61 185
324 206 360 11 19 29 51 40 70 10 19 173 305 362 635 189 330 349 619 356 642
16 54 9 118 -21 168 -12 22 -35 63 -50 90 -16 28 -53 93 -83 145 -31 52 -74
129 -97 170 -23 41 -56 98 -72 125 -16 28 -32 57 -36 65 -4 8 -17 31 -28 50
-29 47 -248 431 -287 502 -18 31 -61 107 -97 169 -36 61 -65 113 -65 114 0 2
-19 36 -43 77 -24 40 -55 93 -69 118 -14 25 -34 61 -45 80 -23 40 -93 162
-121 212 -11 18 -75 130 -142 248 -68 118 -131 230 -141 248 -11 17 -28 48
-39 67 -11 19 -30 52 -41 73 -97 171 -273 479 -279 485 -4 4 -135 -216 -291
-490z"/>
</g>
</svg>
