<svg width="24" height="25" viewBox="0 0 24 25" fill="none" xmlns="http://www.w3.org/2000/svg">
<g filter="url(#filter0_d_41969_2438)">
<path d="M9.5 15C9.82588 15.3326 10.2148 15.5968 10.6441 15.7772C11.0734 15.9576 11.5344 16.0505 12 16.0505C12.4656 16.0505 12.9266 15.9576 13.3559 15.7772C13.7852 15.5968 14.1741 15.3326 14.5 15" fill="url(#paint0_linear_41969_2438)" shape-rendering="crispEdges"/>
<path d="M7 5H8V3H16V5H17C17.7956 5 18.5587 5.31607 19.1213 5.87868C19.6839 6.44129 20 7.20435 20 8V17C20 17.7956 19.6839 18.5587 19.1213 19.1213C18.5587 19.6839 17.7956 20 17 20V21H7V20C6.20435 20 5.44129 19.6839 4.87868 19.1213C4.31607 18.5587 4 17.7956 4 17V8C4 7.20435 4.31607 6.44129 4.87868 5.87868C5.44129 5.31607 6.20435 5 7 5Z" fill="url(#paint1_linear_41969_2438)" shape-rendering="crispEdges"/>
<path d="M9.5 11H9.51M14.5 11H14.51M9.5 15C9.82588 15.3326 10.2148 15.5968 10.6441 15.7772C11.0734 15.9576 11.5344 16.0505 12 16.0505C12.4656 16.0505 12.9266 15.9576 13.3559 15.7772C13.7852 15.5968 14.1741 15.3326 14.5 15M7 5H8V3H16V5H17C17.7956 5 18.5587 5.31607 19.1213 5.87868C19.6839 6.44129 20 7.20435 20 8V17C20 17.7956 19.6839 18.5587 19.1213 19.1213C18.5587 19.6839 17.7956 20 17 20V21H7V20C6.20435 20 5.44129 19.6839 4.87868 19.1213C4.31607 18.5587 4 17.7956 4 17V8C4 7.20435 4.31607 6.44129 4.87868 5.87868C5.44129 5.31607 6.20435 5 7 5Z" stroke="url(#paint2_linear_41969_2438)" stroke-width="1.6" stroke-linecap="round" stroke-linejoin="round" shape-rendering="crispEdges"/>
</g>
<defs>
<filter id="filter0_d_41969_2438" x="2.8002" y="1.79995" width="20.3996" height="22.4001" filterUnits="userSpaceOnUse" color-interpolation-filters="sRGB">
<feFlood flood-opacity="0" result="BackgroundImageFix"/>
<feColorMatrix in="SourceAlpha" type="matrix" values="0 0 0 0 0 0 0 0 0 0 0 0 0 0 0 0 0 0 127 0" result="hardAlpha"/>
<feOffset dx="1" dy="1"/>
<feGaussianBlur stdDeviation="0.7"/>
<feComposite in2="hardAlpha" operator="out"/>
<feColorMatrix type="matrix" values="0 0 0 0 0 0 0 0 0 0 0 0 0 0 0 0 0 0 0.04 0"/>
<feBlend mode="normal" in2="BackgroundImageFix" result="effect1_dropShadow_41969_2438"/>
<feBlend mode="normal" in="SourceGraphic" in2="effect1_dropShadow_41969_2438" result="shape"/>
</filter>
<linearGradient id="paint0_linear_41969_2438" x1="17" y1="8" x2="5.5" y2="24.5" gradientUnits="userSpaceOnUse">
<stop stop-color="white"/>
<stop offset="1" stop-color="#D9D9D9" stop-opacity="0"/>
<stop offset="1" stop-color="white"/>
</linearGradient>
<linearGradient id="paint1_linear_41969_2438" x1="17" y1="8" x2="5.5" y2="24.5" gradientUnits="userSpaceOnUse">
<stop stop-color="white"/>
<stop offset="1" stop-color="#D9D9D9" stop-opacity="0"/>
<stop offset="1" stop-color="white"/>
</linearGradient>
<linearGradient id="paint2_linear_41969_2438" x1="20" y1="1.5" x2="12" y2="21" gradientUnits="userSpaceOnUse">
<stop stop-color="#F6F6F6"/>
<stop offset="1" stop-color="#C3C3C3"/>
</linearGradient>
</defs>
</svg>
