<svg width="121" height="20" viewBox="0 0 121 20" fill="none" xmlns="http://www.w3.org/2000/svg">
<path d="M29.1422 5.12038C30.3286 3.92874 31.9806 3.33325 34.0993 3.33325C35.2131 3.33325 36.1946 3.48917 37.0434 3.801C37.8921 4.11283 38.5176 4.49148 38.9199 4.93564C39.3215 5.3798 39.6497 5.8292 39.9059 6.28319C40.1614 6.73717 40.3075 7.11582 40.3441 7.41783L40.4264 7.89998H36.8385C36.8201 7.86264 36.8018 7.80041 36.7834 7.7159C36.7651 7.63074 36.6879 7.49382 36.5507 7.30449C36.4135 7.11582 36.2585 6.9455 36.0852 6.79417C35.9113 6.64284 35.6469 6.50592 35.2909 6.38276C34.9348 6.26026 34.5376 6.19868 34.0993 6.19868C33.0583 6.19868 32.2684 6.52033 31.7302 7.16299C31.1913 7.8063 30.9225 8.71362 30.9225 9.88626C30.9225 11.0589 31.1964 12.0278 31.7441 12.7373C32.2918 13.4461 33.0766 13.8012 34.0993 13.8012C34.7931 13.8012 35.368 13.6171 35.8246 13.2483C36.2806 12.8794 36.564 12.506 36.6734 12.1274L36.8378 11.5882H40.3985C40.3802 11.7205 40.3524 11.9 40.3163 12.1274C40.279 12.354 40.1285 12.7615 39.8641 13.3472C39.5991 13.9335 39.2658 14.4491 38.8642 14.8932C38.462 15.338 37.8415 15.7442 37.0016 16.113C36.1617 16.4818 35.1941 16.6666 34.0987 16.6666C31.9623 16.6666 30.3008 16.0619 29.1143 14.8506C27.9272 13.6407 27.334 11.9852 27.334 9.88626C27.334 7.91964 27.9361 6.33101 29.1415 5.12038H29.1422Z" fill="#CFD5D8"/>
<path d="M43.0545 5.23371C44.296 3.96674 46.0029 3.33325 48.176 3.33325C50.3492 3.33325 52.0606 3.96674 53.3116 5.23371C54.5619 6.50068 55.1874 8.08996 55.1874 9.99959C55.1874 11.9092 54.5663 13.5168 53.3248 14.7655C52.065 16.0324 50.3485 16.6659 48.176 16.6659C46.0036 16.6659 44.2909 16.0279 43.0405 14.7511C41.7896 13.4749 41.1641 11.8909 41.1641 9.99959C41.1641 8.10831 41.7946 6.50068 43.0545 5.23371ZM44.7526 9.99959C44.7526 11.0962 45.0442 12.0042 45.6292 12.7229C46.2136 13.4415 47.0623 13.8005 48.1767 13.8005C49.2911 13.8005 50.1164 13.4369 50.7103 12.7084C51.3029 11.9806 51.6001 11.0772 51.6001 9.99894C51.6001 8.8643 51.308 7.94715 50.7236 7.24684C50.1392 6.54719 49.2898 6.19737 48.1767 6.19737C47.0636 6.19737 46.2136 6.54785 45.6292 7.24684C45.0448 7.94649 44.7526 8.8643 44.7526 9.99959Z" fill="#CFD5D8"/>
<path d="M59.9262 3.61691V5.40404C60.7655 4.04207 62.0076 3.35225 63.6507 3.33325H63.8423C65.851 3.33325 67.2658 3.88223 68.0873 4.97887C68.9089 6.07617 69.3194 7.6458 69.3194 9.68842V16.3836H65.7865V9.68842C65.7865 7.40014 64.9649 6.2465 63.3218 6.2275H63.2396C62.1442 6.2275 61.3404 6.60091 60.8293 7.34838C60.3177 8.09586 60.0622 9.15975 60.0622 10.5401V16.3842H56.5293V3.61691H59.9256H59.9262Z" fill="#CFD5D8"/>
<path d="M72.3316 5.12038C73.5181 3.92874 75.1701 3.33325 77.2888 3.33325C78.4025 3.33325 79.3841 3.48917 80.2328 3.801C81.0816 4.11283 81.7071 4.49148 82.1093 4.93564C82.5109 5.3798 82.8392 5.8292 83.0953 6.28319C83.3508 6.73717 83.4969 7.11582 83.5336 7.41783L83.6158 7.89998H80.0279C80.0096 7.86264 79.9912 7.80041 79.9729 7.7159C79.9545 7.63074 79.8774 7.49382 79.7402 7.30449C79.6029 7.11582 79.448 6.9455 79.2747 6.79417C79.1007 6.64284 78.8364 6.50592 78.4803 6.38276C78.1242 6.26026 77.7271 6.19868 77.2888 6.19868C76.2478 6.19868 75.4578 6.52033 74.9196 7.16299C74.3808 7.8063 74.112 8.71362 74.112 9.88626C74.112 11.0589 74.3858 12.0278 74.9335 12.7373C75.4812 13.4461 76.2661 13.8012 77.2888 13.8012C77.9826 13.8012 78.5575 13.6171 79.0141 13.2483C79.4701 12.8794 79.7534 12.506 79.8628 12.1274L80.0273 11.5882H83.588C83.5696 11.7205 83.5418 11.9 83.5058 12.1274C83.4684 12.354 83.3179 12.7615 83.0536 13.3472C82.7886 13.9335 82.4553 14.4491 82.0537 14.8932C81.6514 15.338 81.031 15.7442 80.1911 16.113C79.3512 16.4818 78.3835 16.6666 77.2881 16.6666C75.1517 16.6666 73.4903 16.0619 72.3038 14.8506C71.1167 13.6407 70.5234 11.9852 70.5234 9.88626C70.5234 7.91964 71.1255 6.33101 72.331 5.12038H72.3316Z" fill="#CFD5D8"/>
<path d="M86.1093 5.17737C87.2774 3.94839 88.8844 3.33325 90.9292 3.33325C92.9739 3.33325 94.5031 3.94315 95.6264 5.16296C96.7496 6.38276 97.3106 8.0048 97.3106 10.0284C97.3106 10.3691 97.2923 10.7189 97.2556 11.0779H87.8068C87.8795 11.9105 88.2128 12.5722 88.8067 13.0635C89.3999 13.5555 90.1253 13.8012 90.9842 13.8012C91.3858 13.8012 91.7463 13.754 92.0663 13.659C92.3851 13.5647 92.6317 13.4559 92.8056 13.3328C92.9789 13.2103 93.125 13.0825 93.2439 12.9502C93.3622 12.8178 93.44 12.7045 93.4767 12.6095L93.5311 12.4674H97.0646C97.0462 12.5807 97.0051 12.7327 96.9412 12.9214C96.8767 13.1107 96.7041 13.4461 96.4207 13.9282C96.1374 14.4104 95.7952 14.8362 95.3936 15.205C94.9914 15.5739 94.3982 15.9099 93.6133 16.2119C92.8278 16.5139 91.9424 16.6659 90.9564 16.6659C88.9844 16.6659 87.3912 16.0659 86.1769 14.8644C84.9626 13.6636 84.3555 12.0514 84.3555 10.0278C84.3555 8.00414 84.9392 6.42469 86.1086 5.17671L86.1093 5.17737ZM93.8871 8.63829V8.55312C93.8871 7.83447 93.6133 7.26257 93.0656 6.83675C92.5179 6.41093 91.8146 6.19868 90.957 6.19868C90.0994 6.19868 89.3639 6.42534 88.8067 6.87933C88.2495 7.33332 87.9168 7.91964 87.8068 8.63829H93.8865H93.8871Z" fill="#CFD5D8"/>
<path d="M98.6523 3.61694H102.103V5.51806C102.833 4.25108 103.938 3.61694 105.417 3.61694H106.869V6.68086H105.499C104.057 6.68086 103.144 7.0451 102.761 7.77292C102.377 8.5014 102.185 10.0756 102.185 12.4962V16.383H98.6523V3.61694Z" fill="#CFD5D8"/>
<path d="M108.867 5.23371C110.108 3.96674 111.815 3.33325 113.989 3.33325C116.162 3.33325 117.873 3.96674 119.124 5.23371C120.374 6.50068 121.001 8.08996 121.001 9.99959C121.001 11.9092 120.379 13.5168 119.138 14.7655C117.878 16.0324 116.161 16.6659 113.989 16.6659C111.816 16.6659 110.103 16.0279 108.853 14.7511C107.602 13.4749 106.977 11.8909 106.977 9.99959C106.977 8.10831 107.606 6.50068 108.866 5.23371H108.867ZM110.565 9.99959C110.565 11.0962 110.857 12.0042 111.442 12.7229C112.025 13.4415 112.875 13.8005 113.989 13.8005C115.102 13.8005 115.928 13.4369 116.522 12.7084C117.115 11.9806 117.412 11.0772 117.412 9.99894C117.412 8.8643 117.12 7.94715 116.535 7.24684C115.951 6.54719 115.102 6.19737 113.989 6.19737C112.875 6.19737 112.025 6.54785 111.442 7.24684C110.857 7.94649 110.565 8.86364 110.565 9.99894V9.99959Z" fill="#CFD5D8"/>
<path d="M15.8634 2.75944H3.82208L5.25917 0.243842C5.34451 0.091954 5.50708 0 5.67696 0H16.5681C16.7315 0 16.881 0.0886699 16.9623 0.230706L18.6246 3.13465C18.6798 3.23317 18.6798 3.3555 18.6246 3.45402L16.6689 6.87192L18.4555 10L16.8908 12.7397L13.6411 7.05665C13.5696 6.93186 13.5696 6.77668 13.6411 6.65189L15.8642 2.76026L15.8634 2.75944ZM3.70747 17.0427L5.26567 19.7693C5.34695 19.9105 5.50058 20 5.66314 20H16.551C16.7242 20 16.8835 19.908 16.9713 19.7562L18.4092 17.2406H6.56945L8.6885 13.5361C8.76003 13.4113 8.76003 13.2562 8.6885 13.1314L5.33395 7.26765L3.7725 10.0008L5.66314 13.3062L3.70747 16.7274C3.6522 16.8259 3.6522 16.9483 3.70747 17.0435V17.0427Z" fill="#7E54F1"/>
<path d="M8 16.3333H18.4474C18.679 16.3333 18.8904 16.2085 19.0082 16.0039L22.1962 10.4218C22.3791 10.1022 22.3791 9.70697 22.1962 9.38736L19.1188 4L17.5411 6.76146L19.3342 9.90498L18.2125 11.8719L17.2996 13.4667L17.2411 13.5686H9.57771L8 16.3333Z" fill="#7E54F1"/>
<path d="M0.135233 10.5304L3.25261 16.0001L4.8081 13.2713L2.9537 10.0189L4.95555 6.50915L5.01966 6.39874H12.7778L14.3333 3.66675H3.83121C3.60282 3.66675 3.39125 3.79015 3.27826 3.99231L0.135233 9.50826C-0.0450778 9.82408 -0.0450778 10.2146 0.135233 10.5304Z" fill="#7E54F1"/>
</svg>
