<?xml version="1.0" encoding="UTF-8"?>
<svg id="Layer_2" data-name="Layer 2" xmlns="http://www.w3.org/2000/svg" viewBox="0 0 490.26 430.51">
  <defs>
    <style>
      .cls-1 {
        fill: #5e43ff;
      }
    </style>
  </defs>
  <g id="_Слой_1" data-name="Слой 1">
    <g>
      <path class="cls-1" d="m348.36,59.39H86.54S117.8,5.25,117.8,5.25C119.64,1.98,123.18,0,126.87,0h236.8c3.54,0,6.8,1.91,8.58,4.96l36.15,62.51c1.2,2.13,1.2,4.75,0,6.88l-42.53,73.57,38.84,67.33-34.02,58.97-70.66-122.33c-1.56-2.69-1.56-6.02,0-8.72l48.34-83.78ZM84.06,366.86l33.88,58.69c1.77,3.05,5.1,4.96,8.65,4.96h236.73c3.76,0,7.23-1.98,9.14-5.25l31.26-54.15H146.29s46.07-79.74,46.07-79.74c1.56-2.69,1.56-6.02,0-8.72l-72.93-126.23-33.95,58.83,41.11,71.16-42.53,73.64c-1.2,2.13-1.2,4.75,0,6.8Z"/>
      <g>
        <path class="cls-1" d="m178.61,353.53h227.16c5.03,0,9.64-2.69,12.19-7.09l69.32-120.07c3.97-6.87,3.97-15.38,0-22.26l-66.91-115.88-34.3,59.39,38.98,67.62-24.38,42.31-19.85,34.3-1.28,2.2h-166.63s-34.3,59.47-34.3,59.47Z"/>
        <path class="cls-1" d="m2.98,226.38l68.75,119.07,34.3-59.39-40.9-70.81,44.16-76.41,1.42-2.41h171.1s34.3-59.47,34.3-59.47H84.49c-5.03,0-9.71,2.69-12.19,7.09L2.98,204.13c-3.97,6.87-3.97,15.38,0,22.26Z"/>
      </g>
    </g>
  </g>
</svg>