<svg width="119" height="169" viewBox="0 0 119 169" fill="none" xmlns="http://www.w3.org/2000/svg">
<path d="M49.8177 111.168L14.1314 119.815C12.8297 120.156 11.8535 121.521 11.8535 122.887V148.599C11.8535 150.761 13.4806 152.127 15.5415 151.672L65.3288 139.611C67.3898 139.156 68.2575 137.108 67.3898 135.174L58.3868 115.719C56.9767 112.647 58.3868 109.461 61.5325 108.779L94.0732 100.587C96.351 100.018 98.3035 97.5151 98.3035 95.0121V71.2334C98.3035 69.0717 96.6764 67.5926 94.6155 68.1615L47.6483 79.8802C44.7197 80.5629 43.4181 83.5209 44.7197 86.3653L52.9634 104.228C54.3735 107.3 52.9634 110.371 49.8177 111.168Z" fill="black"/>
<path d="M26.4067 49.2972L35.7467 69.4411C36.9414 72.0736 35.7467 74.8205 33.0316 75.3928L15.7633 79.6276C13.5912 80.1998 11.8535 82.4889 11.8535 84.778V106.41C11.8535 110.072 14.6773 112.361 18.044 111.56L34.1176 107.669C36.2898 107.211 38.0274 104.807 38.0274 102.518L38.136 80.3143C38.136 77.224 40.5254 74.1337 43.3491 73.447L96.0228 60.1703C97.326 59.827 98.3035 58.4535 98.3035 57.08V31.2134C98.3035 29.0388 96.6744 27.5509 94.6109 28.1232L28.4701 44.8335C26.4067 45.2913 25.5379 47.3515 26.4067 49.2972Z" fill="black"/>
<rect width="124" height="169" fill="url(#paint0_linear_42068_2402)"/>
<defs>
<linearGradient id="paint0_linear_42068_2402" x1="124" y1="133.127" x2="-2.78183" y2="100.782" gradientUnits="userSpaceOnUse">
<stop stop-color="#FCFCFC" stop-opacity="0.12"/>
<stop offset="1" stop-color="white"/>
</linearGradient>
</defs>
</svg>
