<svg width="24" height="24" viewBox="0 0 24 24" fill="none" xmlns="http://www.w3.org/2000/svg">
<path fill-rule="evenodd" clip-rule="evenodd" d="M7.58631 0.591477C7.9596 0.964768 8.04508 1.53817 7.79692 2.00411C7.14389 3.2302 7.14491 4.42539 7.14651 6.29509C7.14659 6.3891 7.14667 6.4848 7.14667 6.58231C7.14667 12.2549 11.7451 16.8534 17.4178 16.8534C17.5149 16.8534 17.6103 16.8534 17.704 16.8535C19.5742 16.8551 20.7696 16.8561 21.9959 16.2029C22.4618 15.9548 23.0352 16.0403 23.4085 16.4136C23.7818 16.7868 23.8673 17.3602 23.6191 17.8262C21.4522 21.8948 17.4367 24 12.6711 24C5.67306 24 0 18.3269 0 11.3289C0 6.5634 2.10512 2.54772 6.17369 0.380848C6.63963 0.13269 7.21303 0.218186 7.58631 0.591477ZM4.77115 4.47361C3.22113 6.21741 2.4 8.56252 2.4 11.3289C2.4 17.0014 6.99854 21.6 12.6711 21.6C15.4375 21.6 17.7825 20.7789 19.5263 19.2288C18.9607 19.2587 18.3989 19.2565 17.843 19.2544C17.7009 19.2539 17.5591 19.2534 17.4178 19.2534C10.4197 19.2534 4.74667 13.5804 4.74667 6.58231C4.74667 6.44076 4.74613 6.2988 4.74559 6.15645C4.74348 5.60071 4.74135 5.03909 4.77115 4.47361Z" fill="#4B575C"/>
<path fill-rule="evenodd" clip-rule="evenodd" d="M18.12 0C18.7827 0 19.32 0.537258 19.32 1.2C19.32 2.58889 19.657 3.82876 20.2521 4.68422C20.8164 5.49524 21.6298 6 22.8 6C23.4627 6 24 6.53726 24 7.2C24 7.86274 23.4627 8.4 22.8 8.4C21.6298 8.4 20.8164 8.90476 20.2521 9.7158C19.657 10.5713 19.32 11.8111 19.32 13.2C19.32 13.8627 18.7827 14.4 18.12 14.4C17.4572 14.4 16.92 13.8627 16.92 13.2C16.92 11.8111 16.583 10.5713 15.9879 9.7158C15.4236 8.90476 14.6102 8.4 13.44 8.4C12.7772 8.4 12.24 7.86274 12.24 7.2C12.24 6.53726 12.7772 6 13.44 6C14.6102 6 15.4236 5.49524 15.9879 4.68422C16.583 3.82876 16.92 2.58889 16.92 1.2C16.92 0.537258 17.4572 0 18.12 0ZM18.12 5.80998C18.0678 5.89292 18.0138 5.97458 17.958 6.05487C17.6586 6.48509 17.3084 6.87119 16.9091 7.20001C17.3084 7.52883 17.6586 7.91493 17.958 8.34515C18.0138 8.42544 18.0678 8.5071 18.12 8.59005C18.1722 8.5071 18.2262 8.42544 18.282 8.34515C18.5813 7.91493 18.9315 7.52883 19.3309 7.20001C18.9315 6.87119 18.5813 6.48509 18.282 6.05487C18.2262 5.97458 18.1722 5.89292 18.12 5.80998Z" fill="#4B575C"/>
</svg>
